<?xml version="1.0" standalone="no"?>
<!DOCTYPE svg PUBLIC "-//W3C//DTD SVG 20010904//EN"
 "http://www.w3.org/TR/2001/REC-SVG-20010904/DTD/svg10.dtd">
<svg version="1.0" xmlns="http://www.w3.org/2000/svg"
 width="300.000000pt" height="300.000000pt" viewBox="0 0 300.000000 300.000000"
 preserveAspectRatio="xMidYMid meet">
<metadata>
Created by potrace 1.15, written by Peter Selinger 2001-2017
</metadata>
<g transform="translate(0.000000,300.000000) scale(0.100000,-0.100000)"
fill="#000000" stroke="none">
<path d="M2130 2581 l-115 -6 -3 -381 -2 -382 -486 -7 c-266 -4 -486 -6 -488
-4 -2 2 -7 172 -11 376 -6 282 -11 375 -20 383 -9 8 -79 8 -232 0 -120 -6
-224 -13 -230 -15 -10 -3 -13 -216 -13 -1020 0 -911 2 -1016 16 -1022 8 -3
115 -2 237 3 l222 9 3 423 2 422 128 0 c70 0 300 3 510 7 l384 6 -4 -419 -3
-419 211 -3 c179 -2 213 0 224 13 10 12 11 217 4 1028 l-9 1012 -105 1 c-58 0
-157 -2 -220 -5z m280 -284 c0 -134 3 -575 7 -980 l6 -737 -177 0 -178 0 4
418 3 417 -528 -3 c-402 -3 -531 -1 -542 8 -8 7 -22 10 -30 6 -13 -5 -15 -61
-15 -436 l0 -430 -47 0 c-27 0 -112 -3 -190 -7 l-143 -6 0 976 0 975 93 6 c50
3 138 8 193 11 l102 6 6 -378 c4 -208 9 -384 12 -391 2 -9 14 -12 31 -8 16 3
259 8 541 12 432 6 515 9 519 21 3 8 1 19 -6 26 -8 8 -11 116 -11 369 l0 357
93 4 c50 1 129 4 175 5 l82 2 0 -243z"/>
</g>
</svg>
