G04 EAGLE Gerber X2 export*
%TF.Part,Single*%
%TF.FileFunction,Copper,L2,Bot,Mixed*%
%TF.FilePolarity,Positive*%
%TF.GenerationSoftware,Autodesk,EAGLE,9.0.1*%
%TF.CreationDate,2018-06-02T06:47:05Z*%
G75*
%MOMM*%
%FSLAX34Y34*%
%LPD*%
%AMOC8*
5,1,8,0,0,1.08239X$1,22.5*%
G01*
%ADD10C,1.320800*%
%ADD11C,2.250000*%
%ADD12R,0.900000X1.500000*%
%ADD13R,2.000000X2.500000*%
%ADD14R,2.500000X2.000000*%
%ADD15C,1.016000*%
%ADD16C,0.812800*%
%ADD17C,0.756400*%
%ADD18C,0.406400*%

G36*
X804390Y196396D02*
X804390Y196396D01*
X804423Y196402D01*
X804510Y196408D01*
X826734Y200421D01*
X826765Y200432D01*
X826850Y200451D01*
X848171Y207901D01*
X848197Y207915D01*
X848254Y207935D01*
X857231Y212320D01*
X857277Y212352D01*
X857328Y212376D01*
X857377Y212423D01*
X857432Y212462D01*
X857465Y212508D01*
X857506Y212547D01*
X857559Y212636D01*
X857577Y212661D01*
X857581Y212673D01*
X857591Y212691D01*
X868072Y235929D01*
X868076Y235943D01*
X868086Y235963D01*
X887805Y285990D01*
X887809Y286008D01*
X887821Y286036D01*
X904283Y337227D01*
X904286Y337245D01*
X904297Y337274D01*
X917434Y389417D01*
X917435Y389435D01*
X917444Y389464D01*
X927202Y442344D01*
X927203Y442363D01*
X927210Y442393D01*
X933548Y495790D01*
X933548Y495809D01*
X933553Y495839D01*
X936446Y549534D01*
X936444Y549552D01*
X936447Y549583D01*
X935883Y603352D01*
X935880Y603370D01*
X935881Y603401D01*
X931861Y657023D01*
X931857Y657041D01*
X931856Y657072D01*
X924398Y710325D01*
X924392Y710342D01*
X924390Y710373D01*
X913524Y763036D01*
X913519Y763049D01*
X913515Y763072D01*
X906851Y788986D01*
X906840Y789012D01*
X906826Y789065D01*
X903522Y797834D01*
X903507Y797859D01*
X903486Y797914D01*
X894819Y814713D01*
X894800Y814739D01*
X894757Y814813D01*
X883608Y830077D01*
X883585Y830100D01*
X883532Y830166D01*
X870166Y843532D01*
X870139Y843551D01*
X870077Y843608D01*
X854813Y854757D01*
X854783Y854772D01*
X854713Y854819D01*
X837914Y863486D01*
X837886Y863495D01*
X837834Y863522D01*
X830410Y866319D01*
X830370Y866327D01*
X828905Y866883D01*
X828894Y866885D01*
X828876Y866893D01*
X827538Y867339D01*
X827500Y867374D01*
X827451Y867398D01*
X827427Y867415D01*
X827400Y867423D01*
X827350Y867448D01*
X802502Y876446D01*
X802489Y876448D01*
X802470Y876457D01*
X749035Y893110D01*
X749018Y893112D01*
X748991Y893122D01*
X694648Y906519D01*
X694631Y906520D01*
X694603Y906528D01*
X639551Y916619D01*
X639533Y916619D01*
X639505Y916625D01*
X626611Y918191D01*
X626517Y918187D01*
X626424Y918191D01*
X626395Y918182D01*
X626365Y918181D01*
X626278Y918148D01*
X626188Y918121D01*
X626164Y918104D01*
X626136Y918093D01*
X626063Y918034D01*
X625987Y917980D01*
X625969Y917956D01*
X625946Y917937D01*
X625897Y917857D01*
X625841Y917782D01*
X625832Y917753D01*
X625816Y917728D01*
X625795Y917637D01*
X625766Y917547D01*
X625767Y917517D01*
X625760Y917488D01*
X625768Y917395D01*
X625770Y917301D01*
X625780Y917273D01*
X625783Y917243D01*
X625821Y917158D01*
X625852Y917069D01*
X625870Y917046D01*
X625882Y917018D01*
X625946Y916949D01*
X626003Y916876D01*
X626034Y916853D01*
X626049Y916837D01*
X626077Y916821D01*
X626139Y916776D01*
X626560Y916533D01*
X627033Y916060D01*
X627368Y915481D01*
X627541Y914834D01*
X627541Y903523D01*
X616523Y903523D01*
X616523Y917041D01*
X623503Y917041D01*
X623580Y917053D01*
X623657Y917056D01*
X623700Y917073D01*
X623746Y917080D01*
X623814Y917117D01*
X623887Y917144D01*
X623922Y917174D01*
X623963Y917196D01*
X624016Y917252D01*
X624076Y917301D01*
X624101Y917340D01*
X624132Y917374D01*
X624165Y917444D01*
X624206Y917510D01*
X624217Y917555D01*
X624236Y917597D01*
X624245Y917674D01*
X624262Y917750D01*
X624258Y917796D01*
X624263Y917841D01*
X624247Y917917D01*
X624239Y917994D01*
X624221Y918037D01*
X624211Y918082D01*
X624171Y918148D01*
X624140Y918219D01*
X624108Y918253D01*
X624085Y918293D01*
X624026Y918343D01*
X623973Y918400D01*
X623933Y918423D01*
X623898Y918453D01*
X623826Y918482D01*
X623758Y918519D01*
X623698Y918533D01*
X623670Y918545D01*
X623632Y918549D01*
X623595Y918558D01*
X583944Y923373D01*
X583927Y923372D01*
X583898Y923377D01*
X528031Y926757D01*
X528013Y926755D01*
X527985Y926758D01*
X472015Y926758D01*
X471998Y926755D01*
X471969Y926757D01*
X416102Y923377D01*
X416085Y923373D01*
X416056Y923373D01*
X389268Y920120D01*
X389193Y920098D01*
X389117Y920085D01*
X389076Y920064D01*
X389032Y920051D01*
X388968Y920007D01*
X388899Y919970D01*
X388868Y919937D01*
X388830Y919911D01*
X388783Y919848D01*
X388730Y919792D01*
X388710Y919750D01*
X388683Y919713D01*
X388659Y919639D01*
X388626Y919569D01*
X388621Y919523D01*
X388607Y919479D01*
X388608Y919401D01*
X388599Y919325D01*
X388609Y919279D01*
X388610Y919233D01*
X388635Y919160D01*
X388651Y919084D01*
X388675Y919044D01*
X388690Y919001D01*
X388738Y918940D01*
X388778Y918873D01*
X388813Y918843D01*
X388841Y918806D01*
X388906Y918764D01*
X388965Y918713D01*
X389008Y918696D01*
X389046Y918670D01*
X389121Y918650D01*
X389193Y918621D01*
X389254Y918614D01*
X389283Y918607D01*
X389321Y918607D01*
X389359Y918603D01*
X392368Y918603D01*
X394303Y916668D01*
X394303Y893932D01*
X392368Y891997D01*
X386628Y891997D01*
X386608Y891994D01*
X386589Y891996D01*
X386487Y891974D01*
X386385Y891958D01*
X386368Y891948D01*
X386348Y891944D01*
X386259Y891891D01*
X386168Y891842D01*
X386154Y891828D01*
X386137Y891818D01*
X386070Y891739D01*
X385998Y891664D01*
X385990Y891646D01*
X385977Y891631D01*
X385938Y891535D01*
X385895Y891441D01*
X385893Y891421D01*
X385885Y891403D01*
X385867Y891236D01*
X385867Y846742D01*
X385881Y846652D01*
X385889Y846561D01*
X385901Y846531D01*
X385906Y846499D01*
X385949Y846418D01*
X385985Y846334D01*
X386011Y846302D01*
X386022Y846282D01*
X386045Y846259D01*
X386090Y846203D01*
X388852Y843441D01*
X412203Y820090D01*
X412277Y820037D01*
X412347Y819977D01*
X412377Y819965D01*
X412403Y819946D01*
X412490Y819919D01*
X412575Y819885D01*
X412616Y819881D01*
X412638Y819874D01*
X412670Y819875D01*
X412742Y819867D01*
X584965Y819867D01*
X587673Y818745D01*
X594005Y812413D01*
X594058Y812375D01*
X594105Y812329D01*
X594178Y812289D01*
X594205Y812269D01*
X594223Y812264D01*
X594252Y812248D01*
X596673Y811245D01*
X598745Y809173D01*
X599867Y806465D01*
X599867Y801035D01*
X598745Y798327D01*
X596673Y796255D01*
X593965Y795133D01*
X591035Y795133D01*
X588327Y796255D01*
X586255Y798327D01*
X585606Y799894D01*
X585571Y799950D01*
X585545Y800010D01*
X585494Y800075D01*
X585476Y800103D01*
X585461Y800116D01*
X585441Y800141D01*
X580672Y804910D01*
X580598Y804963D01*
X580528Y805023D01*
X580498Y805035D01*
X580472Y805054D01*
X580385Y805081D01*
X580300Y805115D01*
X580259Y805119D01*
X580237Y805126D01*
X580205Y805125D01*
X580133Y805133D01*
X407910Y805133D01*
X405202Y806255D01*
X403023Y808434D01*
X383038Y828419D01*
X383022Y828430D01*
X383010Y828446D01*
X382922Y828502D01*
X382839Y828562D01*
X382820Y828568D01*
X382803Y828579D01*
X382702Y828604D01*
X382603Y828634D01*
X382584Y828634D01*
X382564Y828639D01*
X382461Y828631D01*
X382358Y828628D01*
X382339Y828621D01*
X382319Y828620D01*
X382224Y828579D01*
X382127Y828544D01*
X382111Y828531D01*
X382093Y828523D01*
X381962Y828419D01*
X326977Y773434D01*
X324798Y771255D01*
X322090Y770133D01*
X282281Y770133D01*
X282218Y770123D01*
X282154Y770123D01*
X282098Y770103D01*
X282039Y770094D01*
X281982Y770064D01*
X281922Y770043D01*
X281874Y770006D01*
X281821Y769978D01*
X281777Y769932D01*
X281727Y769893D01*
X281693Y769844D01*
X281652Y769800D01*
X281625Y769742D01*
X281589Y769689D01*
X281574Y769631D01*
X281548Y769577D01*
X281541Y769514D01*
X281524Y769452D01*
X281528Y769392D01*
X281521Y769333D01*
X281535Y769270D01*
X281538Y769206D01*
X281561Y769151D01*
X281573Y769092D01*
X281606Y769037D01*
X281630Y768978D01*
X281669Y768933D01*
X281700Y768881D01*
X281748Y768840D01*
X281790Y768791D01*
X281841Y768760D01*
X281887Y768721D01*
X281946Y768697D01*
X282001Y768664D01*
X282084Y768642D01*
X282115Y768629D01*
X282139Y768627D01*
X282162Y768620D01*
X283229Y768451D01*
X285294Y767780D01*
X287228Y766795D01*
X288984Y765519D01*
X290519Y763984D01*
X291795Y762228D01*
X292780Y760294D01*
X293451Y758229D01*
X293721Y756523D01*
X280762Y756523D01*
X280742Y756520D01*
X280723Y756522D01*
X280621Y756500D01*
X280519Y756483D01*
X280502Y756474D01*
X280482Y756470D01*
X280393Y756417D01*
X280302Y756368D01*
X280288Y756354D01*
X280271Y756344D01*
X280204Y756265D01*
X280133Y756190D01*
X280124Y756172D01*
X280111Y756157D01*
X280073Y756061D01*
X280029Y755967D01*
X280027Y755947D01*
X280019Y755929D01*
X280001Y755762D01*
X280001Y754999D01*
X279238Y754999D01*
X279218Y754996D01*
X279199Y754998D01*
X279097Y754976D01*
X278995Y754959D01*
X278978Y754950D01*
X278958Y754946D01*
X278869Y754893D01*
X278778Y754844D01*
X278764Y754830D01*
X278747Y754820D01*
X278680Y754741D01*
X278609Y754666D01*
X278600Y754648D01*
X278587Y754633D01*
X278548Y754537D01*
X278505Y754443D01*
X278503Y754423D01*
X278495Y754405D01*
X278477Y754238D01*
X278477Y741279D01*
X276771Y741549D01*
X274706Y742220D01*
X272772Y743205D01*
X271016Y744481D01*
X269481Y746016D01*
X268464Y747415D01*
X268390Y747489D01*
X268319Y747567D01*
X268303Y747575D01*
X268290Y747588D01*
X268195Y747634D01*
X268103Y747685D01*
X268085Y747688D01*
X268069Y747696D01*
X267965Y747710D01*
X267861Y747729D01*
X267843Y747726D01*
X267825Y747729D01*
X267722Y747708D01*
X267618Y747693D01*
X267601Y747685D01*
X267584Y747681D01*
X267492Y747629D01*
X267398Y747581D01*
X267386Y747569D01*
X267370Y747559D01*
X267300Y747481D01*
X267226Y747406D01*
X267215Y747386D01*
X267206Y747376D01*
X267194Y747347D01*
X267145Y747259D01*
X266937Y746757D01*
X262843Y742663D01*
X257495Y740447D01*
X251705Y740447D01*
X246357Y742663D01*
X242388Y746631D01*
X242372Y746643D01*
X242360Y746658D01*
X242272Y746714D01*
X242189Y746775D01*
X242170Y746780D01*
X242153Y746791D01*
X242052Y746817D01*
X241953Y746847D01*
X241934Y746846D01*
X241914Y746851D01*
X241811Y746843D01*
X241708Y746841D01*
X241689Y746834D01*
X241669Y746832D01*
X241574Y746792D01*
X241477Y746756D01*
X241461Y746744D01*
X241443Y746736D01*
X241312Y746631D01*
X237343Y742663D01*
X231995Y740447D01*
X226205Y740447D01*
X220857Y742663D01*
X216988Y746531D01*
X216972Y746543D01*
X216960Y746558D01*
X216872Y746614D01*
X216789Y746675D01*
X216770Y746680D01*
X216753Y746691D01*
X216652Y746717D01*
X216553Y746747D01*
X216534Y746746D01*
X216514Y746751D01*
X216411Y746743D01*
X216308Y746741D01*
X216289Y746734D01*
X216269Y746732D01*
X216174Y746692D01*
X216077Y746656D01*
X216061Y746644D01*
X216043Y746636D01*
X215912Y746531D01*
X212043Y742663D01*
X206695Y740447D01*
X200905Y740447D01*
X195557Y742663D01*
X191638Y746581D01*
X191622Y746593D01*
X191610Y746608D01*
X191522Y746664D01*
X191439Y746725D01*
X191420Y746730D01*
X191403Y746741D01*
X191302Y746767D01*
X191203Y746797D01*
X191184Y746796D01*
X191164Y746801D01*
X191061Y746793D01*
X190958Y746791D01*
X190939Y746784D01*
X190919Y746782D01*
X190824Y746742D01*
X190727Y746706D01*
X190711Y746694D01*
X190693Y746686D01*
X190562Y746581D01*
X186643Y742663D01*
X181295Y740447D01*
X175505Y740447D01*
X170157Y742663D01*
X166063Y746757D01*
X163847Y752105D01*
X163847Y757895D01*
X166063Y763243D01*
X170157Y767337D01*
X175505Y769553D01*
X181295Y769553D01*
X186643Y767337D01*
X190562Y763419D01*
X190578Y763407D01*
X190590Y763392D01*
X190678Y763336D01*
X190761Y763275D01*
X190780Y763270D01*
X190797Y763259D01*
X190898Y763233D01*
X190997Y763203D01*
X191016Y763204D01*
X191036Y763199D01*
X191139Y763207D01*
X191242Y763209D01*
X191261Y763216D01*
X191281Y763218D01*
X191376Y763258D01*
X191473Y763294D01*
X191489Y763306D01*
X191507Y763314D01*
X191638Y763419D01*
X195557Y767337D01*
X200905Y769553D01*
X206695Y769553D01*
X212043Y767337D01*
X215912Y763469D01*
X215928Y763457D01*
X215940Y763442D01*
X216028Y763386D01*
X216111Y763325D01*
X216130Y763320D01*
X216147Y763309D01*
X216248Y763283D01*
X216347Y763253D01*
X216366Y763254D01*
X216386Y763249D01*
X216489Y763257D01*
X216592Y763259D01*
X216611Y763266D01*
X216631Y763268D01*
X216726Y763308D01*
X216823Y763344D01*
X216839Y763356D01*
X216857Y763364D01*
X216988Y763469D01*
X220857Y767337D01*
X226205Y769553D01*
X231995Y769553D01*
X237343Y767337D01*
X241312Y763369D01*
X241328Y763357D01*
X241340Y763342D01*
X241428Y763286D01*
X241511Y763225D01*
X241530Y763220D01*
X241547Y763209D01*
X241648Y763183D01*
X241747Y763153D01*
X241766Y763154D01*
X241786Y763149D01*
X241889Y763157D01*
X241992Y763159D01*
X242011Y763166D01*
X242031Y763168D01*
X242126Y763208D01*
X242223Y763244D01*
X242239Y763256D01*
X242257Y763264D01*
X242388Y763369D01*
X246357Y767337D01*
X247163Y767671D01*
X247263Y767733D01*
X247302Y767756D01*
X247332Y767772D01*
X247337Y767777D01*
X247363Y767793D01*
X247367Y767798D01*
X247372Y767801D01*
X247447Y767891D01*
X247466Y767914D01*
X247502Y767951D01*
X247506Y767960D01*
X247523Y767980D01*
X247525Y767986D01*
X247529Y767990D01*
X247571Y768099D01*
X247574Y768107D01*
X247605Y768174D01*
X247607Y768188D01*
X247615Y768208D01*
X247616Y768216D01*
X247617Y768220D01*
X247618Y768238D01*
X247633Y768375D01*
X247633Y778965D01*
X248755Y781673D01*
X250827Y783745D01*
X253535Y784867D01*
X317258Y784867D01*
X317348Y784881D01*
X317439Y784889D01*
X317469Y784901D01*
X317501Y784906D01*
X317582Y784949D01*
X317666Y784985D01*
X317698Y785011D01*
X317718Y785022D01*
X317741Y785045D01*
X317797Y785090D01*
X371794Y839087D01*
X371861Y839181D01*
X371932Y839276D01*
X371934Y839282D01*
X371937Y839287D01*
X371971Y839398D01*
X372008Y839509D01*
X372008Y839516D01*
X372010Y839522D01*
X372007Y839639D01*
X372006Y839755D01*
X372003Y839763D01*
X372003Y839768D01*
X371997Y839785D01*
X371959Y839917D01*
X371133Y841910D01*
X371133Y891236D01*
X371130Y891256D01*
X371132Y891275D01*
X371110Y891377D01*
X371094Y891479D01*
X371084Y891496D01*
X371080Y891516D01*
X371027Y891605D01*
X370978Y891696D01*
X370964Y891710D01*
X370954Y891727D01*
X370875Y891794D01*
X370800Y891866D01*
X370782Y891874D01*
X370767Y891887D01*
X370671Y891926D01*
X370577Y891969D01*
X370557Y891971D01*
X370539Y891979D01*
X370372Y891997D01*
X364632Y891997D01*
X362697Y893932D01*
X362697Y916034D01*
X362687Y916099D01*
X362686Y916164D01*
X362667Y916219D01*
X362658Y916276D01*
X362627Y916335D01*
X362605Y916397D01*
X362570Y916443D01*
X362542Y916494D01*
X362495Y916539D01*
X362454Y916591D01*
X362406Y916623D01*
X362364Y916663D01*
X362304Y916691D01*
X362250Y916727D01*
X362194Y916742D01*
X362141Y916767D01*
X362076Y916774D01*
X362012Y916791D01*
X361929Y916790D01*
X361897Y916794D01*
X361877Y916790D01*
X361844Y916789D01*
X360495Y916625D01*
X360478Y916621D01*
X360449Y916619D01*
X305397Y906528D01*
X305380Y906522D01*
X305352Y906519D01*
X251009Y893122D01*
X250993Y893116D01*
X250965Y893110D01*
X197530Y876457D01*
X197518Y876451D01*
X197498Y876446D01*
X172650Y867448D01*
X172579Y867408D01*
X172504Y867376D01*
X172472Y867348D01*
X172448Y867335D01*
X171124Y866893D01*
X171113Y866888D01*
X171095Y866883D01*
X169648Y866334D01*
X169590Y866319D01*
X162166Y863522D01*
X162141Y863507D01*
X162086Y863486D01*
X145287Y854819D01*
X145261Y854800D01*
X145187Y854757D01*
X129923Y843608D01*
X129906Y843591D01*
X129900Y843588D01*
X129897Y843585D01*
X129881Y843575D01*
X129866Y843558D01*
X129834Y843532D01*
X116468Y830166D01*
X116449Y830139D01*
X116392Y830077D01*
X105243Y814813D01*
X105228Y814783D01*
X105181Y814713D01*
X96514Y797914D01*
X96505Y797886D01*
X96478Y797834D01*
X93174Y789065D01*
X93168Y789037D01*
X93149Y788986D01*
X86490Y763072D01*
X86489Y763058D01*
X86482Y763036D01*
X75625Y710372D01*
X75624Y710354D01*
X75616Y710324D01*
X68165Y657071D01*
X68165Y657053D01*
X68160Y657023D01*
X64145Y603401D01*
X64147Y603383D01*
X64143Y603352D01*
X63582Y549584D01*
X63585Y549566D01*
X63583Y549535D01*
X66477Y495842D01*
X66481Y495823D01*
X66481Y495815D01*
X66481Y495812D01*
X66481Y495810D01*
X66481Y495793D01*
X72819Y442396D01*
X72824Y442378D01*
X72826Y442348D01*
X82581Y389469D01*
X82588Y389451D01*
X82592Y389421D01*
X95724Y337278D01*
X95731Y337261D01*
X95738Y337231D01*
X112193Y286039D01*
X112201Y286023D01*
X112209Y285993D01*
X131919Y235964D01*
X131926Y235952D01*
X131933Y235930D01*
X142409Y212691D01*
X142440Y212644D01*
X142463Y212592D01*
X142508Y212542D01*
X142545Y212486D01*
X142590Y212451D01*
X142627Y212409D01*
X142715Y212354D01*
X142739Y212335D01*
X142752Y212331D01*
X142769Y212320D01*
X151746Y207935D01*
X151775Y207927D01*
X151829Y207901D01*
X173150Y200451D01*
X173182Y200445D01*
X173265Y200421D01*
X195490Y196408D01*
X195523Y196407D01*
X195610Y196396D01*
X218189Y195919D01*
X218222Y195924D01*
X218309Y195926D01*
X240683Y198997D01*
X240715Y199007D01*
X240800Y199023D01*
X262416Y205566D01*
X262446Y205580D01*
X262527Y205609D01*
X282849Y215462D01*
X282876Y215481D01*
X282953Y215523D01*
X301477Y228442D01*
X301501Y228465D01*
X301570Y228518D01*
X317838Y244183D01*
X317858Y244209D01*
X317917Y244272D01*
X331527Y262295D01*
X331543Y262325D01*
X331592Y262396D01*
X342205Y282331D01*
X342216Y282362D01*
X342253Y282441D01*
X349609Y303794D01*
X349611Y303806D01*
X349613Y303811D01*
X349615Y303830D01*
X349639Y303910D01*
X353553Y326153D01*
X353553Y326183D01*
X353563Y326242D01*
X354197Y337525D01*
X354195Y337537D01*
X354198Y337555D01*
X354221Y338923D01*
X354273Y338973D01*
X354315Y339031D01*
X354365Y339081D01*
X354388Y339128D01*
X354420Y339171D01*
X354442Y339238D01*
X354473Y339302D01*
X354486Y339374D01*
X354496Y339405D01*
X354496Y339428D01*
X354503Y339467D01*
X354778Y343384D01*
X359369Y359072D01*
X367195Y373423D01*
X377897Y385778D01*
X390984Y395571D01*
X405856Y402353D01*
X421831Y405813D01*
X430003Y405803D01*
X430004Y405803D01*
X570018Y405803D01*
X570019Y405803D01*
X578353Y405805D01*
X580707Y405281D01*
X584124Y404520D01*
X584125Y404520D01*
X587542Y403759D01*
X590959Y402997D01*
X590960Y402997D01*
X594377Y402236D01*
X594662Y402173D01*
X609789Y395076D01*
X623008Y384857D01*
X633685Y372004D01*
X641308Y357136D01*
X645510Y340964D01*
X645564Y339428D01*
X645580Y339346D01*
X645588Y339261D01*
X645604Y339226D01*
X645612Y339187D01*
X645654Y339114D01*
X645688Y339037D01*
X645721Y338998D01*
X645734Y338974D01*
X645757Y338954D01*
X645779Y338927D01*
X645802Y337555D01*
X645804Y337544D01*
X645803Y337525D01*
X646437Y326242D01*
X646443Y326213D01*
X646447Y326153D01*
X650361Y303910D01*
X650372Y303879D01*
X650391Y303794D01*
X657747Y282441D01*
X657752Y282431D01*
X657754Y282422D01*
X657767Y282400D01*
X657795Y282331D01*
X668408Y262396D01*
X668428Y262370D01*
X668473Y262295D01*
X682083Y244272D01*
X682106Y244250D01*
X682162Y244183D01*
X698430Y228518D01*
X698458Y228499D01*
X698523Y228442D01*
X717047Y215523D01*
X717077Y215509D01*
X717151Y215462D01*
X737473Y205609D01*
X737504Y205600D01*
X737584Y205566D01*
X759200Y199023D01*
X759233Y199018D01*
X759317Y198997D01*
X781691Y195926D01*
X781724Y195927D01*
X781811Y195919D01*
X804390Y196396D01*
G37*
%LPC*%
G36*
X601591Y499415D02*
X601591Y499415D01*
X598987Y500494D01*
X596994Y502487D01*
X595915Y505091D01*
X595915Y507909D01*
X596994Y510513D01*
X597442Y510962D01*
X597495Y511036D01*
X597555Y511105D01*
X597567Y511135D01*
X597586Y511161D01*
X597613Y511248D01*
X597647Y511333D01*
X597651Y511374D01*
X597658Y511396D01*
X597657Y511429D01*
X597665Y511500D01*
X597665Y589061D01*
X598477Y591022D01*
X600085Y592629D01*
X600085Y592630D01*
X600571Y593116D01*
X600613Y593174D01*
X600663Y593226D01*
X600684Y593273D01*
X600715Y593315D01*
X600736Y593384D01*
X600766Y593449D01*
X600772Y593501D01*
X600787Y593551D01*
X600785Y593622D01*
X600793Y593693D01*
X600782Y593744D01*
X600781Y593796D01*
X600756Y593864D01*
X600741Y593934D01*
X600714Y593979D01*
X600696Y594027D01*
X600652Y594083D01*
X600615Y594145D01*
X600575Y594179D01*
X600543Y594219D01*
X600482Y594258D01*
X600428Y594305D01*
X600380Y594324D01*
X600336Y594352D01*
X600266Y594370D01*
X600200Y594397D01*
X600128Y594405D01*
X600097Y594413D01*
X600074Y594411D01*
X600033Y594415D01*
X599091Y594415D01*
X596487Y595494D01*
X594494Y597487D01*
X593415Y600091D01*
X593415Y602909D01*
X594494Y605513D01*
X594942Y605962D01*
X594995Y606036D01*
X595055Y606105D01*
X595067Y606135D01*
X595086Y606161D01*
X595113Y606248D01*
X595147Y606333D01*
X595151Y606374D01*
X595158Y606396D01*
X595157Y606429D01*
X595165Y606500D01*
X595165Y643061D01*
X595977Y645022D01*
X601192Y650237D01*
X601245Y650311D01*
X601305Y650380D01*
X601317Y650410D01*
X601336Y650437D01*
X601363Y650523D01*
X601397Y650608D01*
X601401Y650649D01*
X601408Y650672D01*
X601407Y650704D01*
X601415Y650775D01*
X601415Y651409D01*
X602494Y654013D01*
X604487Y656006D01*
X607091Y657085D01*
X609909Y657085D01*
X612513Y656006D01*
X614506Y654013D01*
X615585Y651409D01*
X615585Y648591D01*
X614506Y645987D01*
X612513Y643994D01*
X609909Y642915D01*
X609275Y642915D01*
X609185Y642901D01*
X609094Y642893D01*
X609064Y642881D01*
X609032Y642876D01*
X608952Y642833D01*
X608868Y642797D01*
X608836Y642771D01*
X608815Y642760D01*
X608793Y642737D01*
X608737Y642692D01*
X606058Y640013D01*
X606005Y639939D01*
X605945Y639870D01*
X605933Y639840D01*
X605914Y639813D01*
X605887Y639727D01*
X605853Y639642D01*
X605849Y639601D01*
X605842Y639578D01*
X605843Y639546D01*
X605835Y639475D01*
X605835Y606500D01*
X605849Y606410D01*
X605857Y606319D01*
X605869Y606289D01*
X605874Y606257D01*
X605917Y606176D01*
X605953Y606093D01*
X605979Y606060D01*
X605990Y606040D01*
X606013Y606018D01*
X606058Y605962D01*
X606506Y605513D01*
X607585Y602909D01*
X607585Y601967D01*
X607596Y601896D01*
X607598Y601825D01*
X607616Y601776D01*
X607624Y601724D01*
X607658Y601661D01*
X607683Y601594D01*
X607715Y601553D01*
X607740Y601507D01*
X607792Y601458D01*
X607836Y601402D01*
X607880Y601373D01*
X607918Y601337D01*
X607983Y601307D01*
X608043Y601269D01*
X608094Y601256D01*
X608141Y601234D01*
X608212Y601226D01*
X608282Y601208D01*
X608334Y601213D01*
X608385Y601207D01*
X608456Y601222D01*
X608527Y601228D01*
X608575Y601248D01*
X608626Y601259D01*
X608687Y601296D01*
X608753Y601324D01*
X608809Y601369D01*
X608837Y601385D01*
X608852Y601403D01*
X608884Y601429D01*
X611478Y604023D01*
X613439Y604835D01*
X692475Y604835D01*
X692565Y604849D01*
X692656Y604857D01*
X692686Y604869D01*
X692718Y604874D01*
X692798Y604917D01*
X692882Y604953D01*
X692914Y604979D01*
X692935Y604990D01*
X692957Y605013D01*
X693013Y605058D01*
X811942Y723987D01*
X811995Y724061D01*
X812055Y724130D01*
X812067Y724160D01*
X812086Y724187D01*
X812113Y724273D01*
X812147Y724358D01*
X812151Y724399D01*
X812158Y724422D01*
X812157Y724454D01*
X812165Y724525D01*
X812165Y745939D01*
X812164Y745947D01*
X812165Y745955D01*
X812144Y746069D01*
X812126Y746182D01*
X812122Y746189D01*
X812120Y746197D01*
X812064Y746298D01*
X812010Y746399D01*
X812005Y746405D01*
X812001Y746412D01*
X811916Y746489D01*
X811832Y746568D01*
X811825Y746572D01*
X811819Y746577D01*
X811714Y746624D01*
X811609Y746672D01*
X811601Y746673D01*
X811594Y746676D01*
X811479Y746687D01*
X811365Y746699D01*
X811357Y746698D01*
X811349Y746698D01*
X811236Y746671D01*
X811124Y746647D01*
X811117Y746643D01*
X811110Y746641D01*
X811012Y746580D01*
X810913Y746521D01*
X810908Y746515D01*
X810901Y746510D01*
X810788Y746386D01*
X810519Y746016D01*
X808984Y744481D01*
X807228Y743205D01*
X805294Y742220D01*
X803229Y741549D01*
X801523Y741279D01*
X801523Y754238D01*
X801520Y754258D01*
X801522Y754277D01*
X801500Y754378D01*
X801483Y754481D01*
X801474Y754498D01*
X801470Y754518D01*
X801417Y754607D01*
X801368Y754698D01*
X801354Y754712D01*
X801344Y754729D01*
X801265Y754796D01*
X801190Y754867D01*
X801172Y754876D01*
X801157Y754889D01*
X801061Y754927D01*
X800967Y754971D01*
X800947Y754973D01*
X800929Y754981D01*
X800762Y754999D01*
X799238Y754999D01*
X799218Y754996D01*
X799199Y754998D01*
X799097Y754976D01*
X798995Y754959D01*
X798978Y754950D01*
X798958Y754946D01*
X798869Y754893D01*
X798778Y754844D01*
X798764Y754830D01*
X798747Y754820D01*
X798680Y754741D01*
X798609Y754666D01*
X798600Y754648D01*
X798587Y754633D01*
X798548Y754537D01*
X798505Y754443D01*
X798503Y754423D01*
X798495Y754405D01*
X798477Y754238D01*
X798477Y741279D01*
X796771Y741549D01*
X794706Y742220D01*
X792772Y743205D01*
X791016Y744481D01*
X789481Y746016D01*
X788464Y747415D01*
X788390Y747489D01*
X788319Y747567D01*
X788303Y747575D01*
X788290Y747588D01*
X788195Y747634D01*
X788103Y747685D01*
X788085Y747688D01*
X788069Y747696D01*
X787965Y747710D01*
X787861Y747729D01*
X787843Y747726D01*
X787825Y747729D01*
X787722Y747708D01*
X787618Y747693D01*
X787601Y747685D01*
X787584Y747681D01*
X787492Y747629D01*
X787398Y747581D01*
X787386Y747569D01*
X787370Y747559D01*
X787300Y747481D01*
X787226Y747406D01*
X787215Y747386D01*
X787206Y747376D01*
X787194Y747347D01*
X787145Y747259D01*
X786937Y746757D01*
X782843Y742663D01*
X777495Y740447D01*
X771705Y740447D01*
X766357Y742663D01*
X762388Y746631D01*
X762372Y746643D01*
X762360Y746658D01*
X762272Y746714D01*
X762189Y746775D01*
X762170Y746780D01*
X762153Y746791D01*
X762052Y746817D01*
X761953Y746847D01*
X761934Y746846D01*
X761914Y746851D01*
X761811Y746843D01*
X761708Y746841D01*
X761689Y746834D01*
X761669Y746832D01*
X761574Y746792D01*
X761477Y746756D01*
X761461Y746744D01*
X761443Y746736D01*
X761312Y746631D01*
X757343Y742663D01*
X751995Y740447D01*
X746205Y740447D01*
X740857Y742663D01*
X736988Y746531D01*
X736972Y746543D01*
X736960Y746558D01*
X736872Y746614D01*
X736789Y746675D01*
X736770Y746680D01*
X736753Y746691D01*
X736652Y746717D01*
X736553Y746747D01*
X736534Y746746D01*
X736514Y746751D01*
X736411Y746743D01*
X736308Y746741D01*
X736289Y746734D01*
X736269Y746732D01*
X736174Y746692D01*
X736077Y746656D01*
X736061Y746644D01*
X736043Y746636D01*
X735912Y746531D01*
X732043Y742663D01*
X726695Y740447D01*
X720905Y740447D01*
X715557Y742663D01*
X711638Y746581D01*
X711622Y746593D01*
X711610Y746608D01*
X711522Y746664D01*
X711439Y746725D01*
X711420Y746730D01*
X711403Y746741D01*
X711302Y746767D01*
X711203Y746797D01*
X711184Y746796D01*
X711164Y746801D01*
X711061Y746793D01*
X710958Y746791D01*
X710939Y746784D01*
X710919Y746782D01*
X710824Y746742D01*
X710727Y746706D01*
X710711Y746694D01*
X710693Y746686D01*
X710562Y746581D01*
X706643Y742663D01*
X701295Y740447D01*
X695505Y740447D01*
X690157Y742663D01*
X686063Y746757D01*
X683847Y752105D01*
X683847Y757895D01*
X686063Y763243D01*
X690157Y767337D01*
X695505Y769553D01*
X701295Y769553D01*
X706643Y767337D01*
X710562Y763419D01*
X710578Y763407D01*
X710590Y763392D01*
X710678Y763336D01*
X710761Y763275D01*
X710780Y763270D01*
X710797Y763259D01*
X710898Y763233D01*
X710997Y763203D01*
X711016Y763204D01*
X711036Y763199D01*
X711139Y763207D01*
X711242Y763209D01*
X711261Y763216D01*
X711281Y763218D01*
X711376Y763258D01*
X711473Y763294D01*
X711489Y763306D01*
X711507Y763314D01*
X711638Y763419D01*
X715557Y767337D01*
X720905Y769553D01*
X726695Y769553D01*
X732043Y767337D01*
X735912Y763469D01*
X735928Y763457D01*
X735940Y763442D01*
X736028Y763386D01*
X736111Y763325D01*
X736130Y763320D01*
X736147Y763309D01*
X736248Y763283D01*
X736347Y763253D01*
X736366Y763254D01*
X736386Y763249D01*
X736489Y763257D01*
X736592Y763259D01*
X736611Y763266D01*
X736631Y763268D01*
X736726Y763308D01*
X736823Y763344D01*
X736839Y763356D01*
X736857Y763364D01*
X736988Y763469D01*
X740857Y767337D01*
X746205Y769553D01*
X751995Y769553D01*
X757343Y767337D01*
X761312Y763369D01*
X761328Y763357D01*
X761340Y763342D01*
X761428Y763286D01*
X761511Y763225D01*
X761530Y763220D01*
X761547Y763209D01*
X761648Y763183D01*
X761747Y763153D01*
X761766Y763154D01*
X761786Y763149D01*
X761889Y763157D01*
X761992Y763159D01*
X762011Y763166D01*
X762031Y763168D01*
X762126Y763208D01*
X762223Y763244D01*
X762239Y763256D01*
X762257Y763264D01*
X762388Y763369D01*
X766357Y767337D01*
X771705Y769553D01*
X777495Y769553D01*
X782843Y767337D01*
X786937Y763243D01*
X787145Y762741D01*
X787201Y762652D01*
X787252Y762560D01*
X787265Y762547D01*
X787275Y762532D01*
X787356Y762465D01*
X787434Y762394D01*
X787450Y762387D01*
X787464Y762375D01*
X787563Y762337D01*
X787659Y762295D01*
X787677Y762294D01*
X787694Y762287D01*
X787799Y762283D01*
X787904Y762273D01*
X787922Y762277D01*
X787940Y762277D01*
X788041Y762306D01*
X788143Y762330D01*
X788159Y762340D01*
X788176Y762345D01*
X788262Y762405D01*
X788352Y762461D01*
X788367Y762477D01*
X788378Y762485D01*
X788397Y762511D01*
X788464Y762585D01*
X789481Y763984D01*
X791016Y765519D01*
X792772Y766795D01*
X794706Y767780D01*
X796771Y768451D01*
X798477Y768721D01*
X798477Y755762D01*
X798480Y755742D01*
X798478Y755723D01*
X798500Y755621D01*
X798517Y755519D01*
X798526Y755502D01*
X798530Y755482D01*
X798583Y755393D01*
X798632Y755302D01*
X798646Y755288D01*
X798656Y755271D01*
X798735Y755204D01*
X798810Y755133D01*
X798828Y755124D01*
X798843Y755111D01*
X798939Y755073D01*
X799033Y755029D01*
X799053Y755027D01*
X799071Y755019D01*
X799238Y755001D01*
X800762Y755001D01*
X800782Y755004D01*
X800801Y755002D01*
X800903Y755024D01*
X801005Y755041D01*
X801022Y755050D01*
X801042Y755054D01*
X801131Y755107D01*
X801222Y755156D01*
X801236Y755170D01*
X801253Y755180D01*
X801320Y755259D01*
X801391Y755334D01*
X801400Y755352D01*
X801413Y755367D01*
X801452Y755463D01*
X801495Y755557D01*
X801497Y755577D01*
X801505Y755595D01*
X801523Y755762D01*
X801523Y768721D01*
X803229Y768451D01*
X805294Y767780D01*
X807228Y766795D01*
X808984Y765519D01*
X810519Y763984D01*
X810788Y763614D01*
X810794Y763608D01*
X810798Y763601D01*
X810881Y763522D01*
X810963Y763441D01*
X810970Y763437D01*
X810976Y763432D01*
X811080Y763383D01*
X811184Y763332D01*
X811192Y763331D01*
X811199Y763328D01*
X811313Y763315D01*
X811428Y763300D01*
X811436Y763302D01*
X811443Y763301D01*
X811556Y763325D01*
X811669Y763347D01*
X811676Y763351D01*
X811684Y763353D01*
X811783Y763412D01*
X811883Y763469D01*
X811888Y763475D01*
X811895Y763479D01*
X811970Y763567D01*
X812047Y763653D01*
X812050Y763660D01*
X812055Y763666D01*
X812098Y763773D01*
X812143Y763879D01*
X812144Y763887D01*
X812147Y763894D01*
X812165Y764061D01*
X812165Y777904D01*
X812162Y777924D01*
X812164Y777943D01*
X812142Y778045D01*
X812126Y778147D01*
X812116Y778164D01*
X812112Y778184D01*
X812059Y778273D01*
X812010Y778364D01*
X811996Y778378D01*
X811986Y778395D01*
X811907Y778462D01*
X811832Y778534D01*
X811814Y778542D01*
X811799Y778555D01*
X811703Y778594D01*
X811609Y778637D01*
X811589Y778639D01*
X811571Y778647D01*
X811404Y778665D01*
X746439Y778665D01*
X744478Y779477D01*
X725513Y798442D01*
X725439Y798495D01*
X725370Y798555D01*
X725340Y798567D01*
X725313Y798586D01*
X725227Y798613D01*
X725142Y798647D01*
X725101Y798651D01*
X725078Y798658D01*
X725046Y798657D01*
X724975Y798665D01*
X662500Y798665D01*
X662410Y798651D01*
X662319Y798643D01*
X662289Y798631D01*
X662257Y798626D01*
X662176Y798583D01*
X662093Y798547D01*
X662060Y798521D01*
X662040Y798510D01*
X662018Y798487D01*
X661962Y798442D01*
X661513Y797994D01*
X658909Y796915D01*
X656091Y796915D01*
X653487Y797994D01*
X651494Y799987D01*
X650453Y802499D01*
X650415Y802560D01*
X650386Y802625D01*
X650351Y802664D01*
X650324Y802708D01*
X650268Y802754D01*
X650220Y802807D01*
X650174Y802832D01*
X650134Y802865D01*
X650067Y802891D01*
X650004Y802925D01*
X649953Y802934D01*
X649905Y802953D01*
X649833Y802956D01*
X649762Y802969D01*
X649711Y802961D01*
X649659Y802963D01*
X649590Y802943D01*
X649519Y802933D01*
X649473Y802909D01*
X649423Y802895D01*
X649364Y802854D01*
X649300Y802822D01*
X649263Y802784D01*
X649221Y802755D01*
X649178Y802697D01*
X649128Y802646D01*
X649093Y802583D01*
X649074Y802557D01*
X649067Y802535D01*
X649047Y802499D01*
X648006Y799987D01*
X647558Y799538D01*
X647505Y799464D01*
X647445Y799395D01*
X647433Y799365D01*
X647414Y799339D01*
X647387Y799252D01*
X647353Y799167D01*
X647349Y799126D01*
X647342Y799104D01*
X647343Y799071D01*
X647335Y799000D01*
X647335Y734525D01*
X647349Y734435D01*
X647357Y734344D01*
X647369Y734314D01*
X647374Y734282D01*
X647417Y734202D01*
X647453Y734118D01*
X647479Y734086D01*
X647490Y734065D01*
X647513Y734043D01*
X647558Y733987D01*
X660023Y721522D01*
X660835Y719561D01*
X660835Y667000D01*
X660849Y666910D01*
X660857Y666819D01*
X660869Y666789D01*
X660874Y666757D01*
X660917Y666676D01*
X660953Y666593D01*
X660979Y666560D01*
X660990Y666540D01*
X661013Y666518D01*
X661058Y666462D01*
X661506Y666013D01*
X662585Y663409D01*
X662585Y660591D01*
X661506Y657987D01*
X659513Y655994D01*
X656909Y654915D01*
X654091Y654915D01*
X651487Y655994D01*
X649494Y657987D01*
X648415Y660591D01*
X648415Y663409D01*
X649494Y666013D01*
X649942Y666462D01*
X649995Y666536D01*
X650055Y666605D01*
X650067Y666635D01*
X650086Y666661D01*
X650113Y666748D01*
X650147Y666833D01*
X650151Y666874D01*
X650158Y666896D01*
X650157Y666929D01*
X650165Y667000D01*
X650165Y715975D01*
X650151Y716065D01*
X650143Y716156D01*
X650131Y716186D01*
X650126Y716218D01*
X650083Y716298D01*
X650047Y716382D01*
X650021Y716414D01*
X650010Y716435D01*
X649987Y716457D01*
X649942Y716513D01*
X637477Y728978D01*
X636665Y730939D01*
X636665Y799000D01*
X636651Y799090D01*
X636643Y799181D01*
X636631Y799211D01*
X636626Y799243D01*
X636583Y799324D01*
X636547Y799407D01*
X636521Y799440D01*
X636510Y799460D01*
X636487Y799482D01*
X636442Y799538D01*
X635994Y799987D01*
X634915Y802591D01*
X634915Y805409D01*
X635994Y808013D01*
X637987Y810006D01*
X640591Y811085D01*
X643409Y811085D01*
X646013Y810006D01*
X648006Y808013D01*
X649047Y805501D01*
X649085Y805440D01*
X649114Y805375D01*
X649149Y805336D01*
X649176Y805292D01*
X649232Y805246D01*
X649280Y805193D01*
X649326Y805168D01*
X649366Y805135D01*
X649433Y805109D01*
X649496Y805075D01*
X649547Y805066D01*
X649595Y805047D01*
X649667Y805044D01*
X649738Y805031D01*
X649789Y805039D01*
X649841Y805037D01*
X649910Y805057D01*
X649981Y805067D01*
X650027Y805091D01*
X650077Y805105D01*
X650136Y805146D01*
X650200Y805178D01*
X650237Y805216D01*
X650279Y805245D01*
X650322Y805303D01*
X650372Y805354D01*
X650407Y805417D01*
X650426Y805443D01*
X650433Y805465D01*
X650453Y805501D01*
X651494Y808013D01*
X653487Y810006D01*
X656091Y811085D01*
X658909Y811085D01*
X661513Y810006D01*
X661962Y809558D01*
X662036Y809505D01*
X662105Y809445D01*
X662135Y809433D01*
X662161Y809414D01*
X662248Y809387D01*
X662333Y809353D01*
X662374Y809349D01*
X662396Y809342D01*
X662429Y809343D01*
X662500Y809335D01*
X672996Y809335D01*
X673113Y809354D01*
X673233Y809373D01*
X673235Y809374D01*
X673238Y809374D01*
X673344Y809430D01*
X673451Y809486D01*
X673453Y809488D01*
X673456Y809490D01*
X673538Y809576D01*
X673622Y809663D01*
X673623Y809666D01*
X673625Y809668D01*
X673675Y809776D01*
X673727Y809885D01*
X673728Y809888D01*
X673729Y809891D01*
X673742Y810009D01*
X673756Y810129D01*
X673756Y810132D01*
X673756Y810135D01*
X673731Y810252D01*
X673706Y810370D01*
X673704Y810373D01*
X673704Y810376D01*
X673698Y810385D01*
X673629Y810519D01*
X672596Y812064D01*
X671907Y813729D01*
X671555Y815495D01*
X671555Y821477D01*
X679938Y821477D01*
X679958Y821480D01*
X679977Y821478D01*
X680079Y821500D01*
X680181Y821517D01*
X680198Y821526D01*
X680218Y821530D01*
X680307Y821583D01*
X680398Y821632D01*
X680412Y821646D01*
X680429Y821656D01*
X680496Y821735D01*
X680567Y821810D01*
X680576Y821828D01*
X680589Y821843D01*
X680627Y821939D01*
X680671Y822033D01*
X680673Y822053D01*
X680681Y822071D01*
X680699Y822238D01*
X680699Y823001D01*
X680701Y823001D01*
X680701Y822238D01*
X680704Y822218D01*
X680702Y822199D01*
X680724Y822097D01*
X680741Y821995D01*
X680750Y821978D01*
X680754Y821958D01*
X680807Y821869D01*
X680856Y821778D01*
X680870Y821764D01*
X680880Y821747D01*
X680959Y821680D01*
X681034Y821609D01*
X681052Y821600D01*
X681067Y821587D01*
X681163Y821548D01*
X681257Y821505D01*
X681277Y821503D01*
X681295Y821495D01*
X681462Y821477D01*
X689845Y821477D01*
X689845Y815495D01*
X689493Y813729D01*
X688804Y812064D01*
X687771Y810519D01*
X687722Y810410D01*
X687671Y810301D01*
X687671Y810298D01*
X687669Y810295D01*
X687657Y810175D01*
X687644Y810057D01*
X687645Y810053D01*
X687644Y810050D01*
X687671Y809934D01*
X687696Y809816D01*
X687698Y809813D01*
X687699Y809810D01*
X687761Y809708D01*
X687822Y809605D01*
X687825Y809603D01*
X687826Y809600D01*
X687918Y809523D01*
X688009Y809445D01*
X688012Y809444D01*
X688015Y809442D01*
X688125Y809398D01*
X688238Y809353D01*
X688241Y809353D01*
X688244Y809352D01*
X688254Y809351D01*
X688404Y809335D01*
X697313Y809335D01*
X697384Y809346D01*
X697456Y809348D01*
X697505Y809366D01*
X697556Y809374D01*
X697619Y809408D01*
X697687Y809433D01*
X697727Y809465D01*
X697773Y809490D01*
X697823Y809541D01*
X697879Y809586D01*
X697907Y809630D01*
X697943Y809668D01*
X697973Y809733D01*
X698012Y809793D01*
X698024Y809844D01*
X698046Y809891D01*
X698054Y809962D01*
X698072Y810032D01*
X698068Y810084D01*
X698073Y810135D01*
X698058Y810206D01*
X698053Y810277D01*
X698032Y810325D01*
X698021Y810376D01*
X697984Y810437D01*
X697956Y810503D01*
X697911Y810559D01*
X697895Y810587D01*
X697877Y810602D01*
X697851Y810634D01*
X697701Y810784D01*
X696193Y814425D01*
X696193Y831575D01*
X697701Y835216D01*
X700488Y838003D01*
X704129Y839511D01*
X708071Y839511D01*
X711712Y838003D01*
X714499Y835216D01*
X716007Y831575D01*
X716007Y814425D01*
X714499Y810784D01*
X714349Y810634D01*
X714307Y810576D01*
X714257Y810524D01*
X714235Y810477D01*
X714205Y810435D01*
X714184Y810366D01*
X714154Y810301D01*
X714148Y810249D01*
X714133Y810199D01*
X714134Y810128D01*
X714127Y810057D01*
X714138Y810006D01*
X714139Y809954D01*
X714164Y809886D01*
X714179Y809816D01*
X714206Y809771D01*
X714223Y809723D01*
X714268Y809667D01*
X714305Y809605D01*
X714345Y809571D01*
X714377Y809531D01*
X714437Y809492D01*
X714492Y809445D01*
X714540Y809426D01*
X714584Y809398D01*
X714653Y809380D01*
X714720Y809353D01*
X714791Y809345D01*
X714822Y809337D01*
X714846Y809339D01*
X714887Y809335D01*
X728561Y809335D01*
X730522Y808523D01*
X749487Y789558D01*
X749561Y789505D01*
X749630Y789445D01*
X749660Y789433D01*
X749687Y789414D01*
X749773Y789387D01*
X749858Y789353D01*
X749899Y789349D01*
X749922Y789342D01*
X749954Y789343D01*
X750025Y789335D01*
X818561Y789335D01*
X820522Y788523D01*
X822023Y787022D01*
X822835Y785061D01*
X822835Y720939D01*
X822023Y718978D01*
X698022Y594977D01*
X696061Y594165D01*
X617025Y594165D01*
X616935Y594151D01*
X616844Y594143D01*
X616814Y594131D01*
X616782Y594126D01*
X616702Y594083D01*
X616618Y594047D01*
X616586Y594021D01*
X616565Y594010D01*
X616543Y593987D01*
X616487Y593942D01*
X608558Y586013D01*
X608505Y585939D01*
X608445Y585870D01*
X608433Y585840D01*
X608414Y585813D01*
X608387Y585727D01*
X608353Y585642D01*
X608349Y585601D01*
X608342Y585578D01*
X608343Y585546D01*
X608335Y585475D01*
X608335Y511500D01*
X608349Y511410D01*
X608357Y511319D01*
X608369Y511289D01*
X608374Y511257D01*
X608417Y511176D01*
X608453Y511093D01*
X608479Y511060D01*
X608490Y511040D01*
X608513Y511018D01*
X608558Y510962D01*
X609006Y510513D01*
X610085Y507909D01*
X610085Y505091D01*
X609006Y502487D01*
X607013Y500494D01*
X604409Y499415D01*
X601591Y499415D01*
G37*
%LPD*%
%LPC*%
G36*
X210516Y482459D02*
X210516Y482459D01*
X202232Y485891D01*
X195891Y492232D01*
X192459Y500516D01*
X192459Y501960D01*
X192457Y501972D01*
X192458Y501981D01*
X192449Y502024D01*
X192444Y502054D01*
X192435Y502149D01*
X192424Y502175D01*
X192420Y502203D01*
X192375Y502287D01*
X192337Y502375D01*
X192318Y502396D01*
X192304Y502420D01*
X192235Y502486D01*
X192171Y502557D01*
X192147Y502570D01*
X192126Y502590D01*
X192040Y502630D01*
X191956Y502676D01*
X191929Y502682D01*
X191903Y502693D01*
X191808Y502704D01*
X191715Y502721D01*
X191687Y502717D01*
X191659Y502721D01*
X191565Y502700D01*
X191471Y502687D01*
X191439Y502673D01*
X191418Y502668D01*
X191390Y502651D01*
X191317Y502620D01*
X185630Y499336D01*
X178626Y497459D01*
X171374Y497459D01*
X164370Y499336D01*
X158090Y502962D01*
X152962Y508090D01*
X149336Y514370D01*
X147459Y521374D01*
X147459Y528626D01*
X149336Y535630D01*
X152962Y541910D01*
X157211Y546160D01*
X157253Y546218D01*
X157302Y546270D01*
X157324Y546317D01*
X157355Y546359D01*
X157376Y546428D01*
X157406Y546493D01*
X157412Y546545D01*
X157427Y546595D01*
X157425Y546666D01*
X157433Y546737D01*
X157422Y546788D01*
X157421Y546840D01*
X157396Y546908D01*
X157381Y546978D01*
X157354Y547023D01*
X157336Y547071D01*
X157291Y547127D01*
X157255Y547189D01*
X157215Y547223D01*
X157183Y547263D01*
X157122Y547302D01*
X157068Y547349D01*
X157020Y547368D01*
X156976Y547396D01*
X156906Y547414D01*
X156840Y547441D01*
X156768Y547449D01*
X156737Y547457D01*
X156714Y547455D01*
X156673Y547459D01*
X155516Y547459D01*
X147232Y550891D01*
X140891Y557232D01*
X138203Y563720D01*
X138165Y563781D01*
X138136Y563847D01*
X138101Y563885D01*
X138074Y563929D01*
X138018Y563975D01*
X137970Y564028D01*
X137924Y564053D01*
X137884Y564086D01*
X137817Y564112D01*
X137754Y564146D01*
X137703Y564156D01*
X137655Y564174D01*
X137583Y564177D01*
X137512Y564190D01*
X137461Y564182D01*
X137409Y564185D01*
X137340Y564165D01*
X137269Y564154D01*
X137223Y564131D01*
X137173Y564116D01*
X137114Y564075D01*
X137050Y564043D01*
X137013Y564005D01*
X136971Y563976D01*
X136928Y563918D01*
X136878Y563867D01*
X136843Y563804D01*
X136824Y563778D01*
X136817Y563756D01*
X136797Y563720D01*
X134109Y557232D01*
X127768Y550891D01*
X119484Y547459D01*
X110516Y547459D01*
X102232Y550891D01*
X95891Y557232D01*
X92459Y565516D01*
X92459Y574484D01*
X95891Y582768D01*
X102232Y589109D01*
X110516Y592541D01*
X119484Y592541D01*
X127768Y589109D01*
X134109Y582768D01*
X136797Y576280D01*
X136834Y576219D01*
X136864Y576153D01*
X136899Y576115D01*
X136926Y576071D01*
X136981Y576025D01*
X137030Y575972D01*
X137076Y575947D01*
X137116Y575914D01*
X137183Y575888D01*
X137246Y575854D01*
X137297Y575844D01*
X137345Y575826D01*
X137417Y575823D01*
X137488Y575810D01*
X137539Y575818D01*
X137591Y575815D01*
X137660Y575835D01*
X137731Y575846D01*
X137777Y575869D01*
X137827Y575884D01*
X137886Y575925D01*
X137950Y575957D01*
X137987Y575995D01*
X138029Y576024D01*
X138072Y576082D01*
X138122Y576133D01*
X138157Y576196D01*
X138176Y576222D01*
X138183Y576244D01*
X138203Y576280D01*
X140891Y582768D01*
X147232Y589109D01*
X155516Y592541D01*
X164484Y592541D01*
X172768Y589109D01*
X179109Y582768D01*
X182541Y574484D01*
X182541Y565516D01*
X179109Y557232D01*
X175718Y553840D01*
X175676Y553782D01*
X175626Y553730D01*
X175605Y553683D01*
X175574Y553641D01*
X175553Y553572D01*
X175523Y553507D01*
X175517Y553455D01*
X175502Y553405D01*
X175504Y553334D01*
X175496Y553263D01*
X175507Y553212D01*
X175508Y553160D01*
X175533Y553092D01*
X175548Y553022D01*
X175575Y552977D01*
X175593Y552929D01*
X175637Y552873D01*
X175674Y552811D01*
X175714Y552777D01*
X175746Y552737D01*
X175807Y552698D01*
X175861Y552651D01*
X175909Y552632D01*
X175953Y552604D01*
X176023Y552586D01*
X176089Y552559D01*
X176161Y552551D01*
X176192Y552543D01*
X176215Y552545D01*
X176256Y552541D01*
X178626Y552541D01*
X185630Y550664D01*
X191910Y547038D01*
X197038Y541910D01*
X200664Y535630D01*
X202541Y528626D01*
X202541Y525376D01*
X202548Y525331D01*
X202546Y525285D01*
X202568Y525210D01*
X202580Y525134D01*
X202602Y525093D01*
X202615Y525049D01*
X202659Y524985D01*
X202696Y524916D01*
X202729Y524885D01*
X202755Y524847D01*
X202818Y524800D01*
X202874Y524747D01*
X202916Y524728D01*
X202952Y524700D01*
X203026Y524676D01*
X203097Y524643D01*
X203143Y524638D01*
X203186Y524624D01*
X203264Y524625D01*
X203341Y524616D01*
X203386Y524626D01*
X203432Y524626D01*
X203564Y524664D01*
X203582Y524668D01*
X203586Y524671D01*
X203593Y524673D01*
X210516Y527541D01*
X219484Y527541D01*
X227209Y524341D01*
X227297Y524320D01*
X227384Y524292D01*
X227417Y524292D01*
X227448Y524285D01*
X227539Y524293D01*
X227630Y524294D01*
X227670Y524306D01*
X227693Y524308D01*
X227722Y524321D01*
X227791Y524341D01*
X235516Y527541D01*
X244484Y527541D01*
X252209Y524341D01*
X252297Y524320D01*
X252384Y524292D01*
X252417Y524292D01*
X252448Y524285D01*
X252539Y524293D01*
X252630Y524294D01*
X252670Y524306D01*
X252693Y524308D01*
X252722Y524321D01*
X252791Y524341D01*
X260516Y527541D01*
X269484Y527541D01*
X276407Y524673D01*
X276451Y524663D01*
X276493Y524643D01*
X276570Y524635D01*
X276646Y524617D01*
X276692Y524621D01*
X276737Y524616D01*
X276814Y524633D01*
X276891Y524640D01*
X276933Y524659D01*
X276978Y524668D01*
X277045Y524708D01*
X277116Y524740D01*
X277150Y524771D01*
X277189Y524795D01*
X277240Y524854D01*
X277297Y524906D01*
X277319Y524947D01*
X277349Y524982D01*
X277378Y525054D01*
X277415Y525122D01*
X277424Y525167D01*
X277441Y525210D01*
X277456Y525346D01*
X277459Y525364D01*
X277458Y525369D01*
X277459Y525376D01*
X277459Y528626D01*
X279336Y535630D01*
X282962Y541910D01*
X288090Y547038D01*
X294370Y550664D01*
X301374Y552541D01*
X308626Y552541D01*
X315630Y550664D01*
X321910Y547038D01*
X327038Y541910D01*
X330664Y535630D01*
X332541Y528626D01*
X332541Y521374D01*
X330664Y514370D01*
X327038Y508090D01*
X321910Y502962D01*
X315630Y499336D01*
X308626Y497459D01*
X301374Y497459D01*
X294370Y499336D01*
X288683Y502620D01*
X288594Y502653D01*
X288507Y502693D01*
X288479Y502697D01*
X288453Y502707D01*
X288357Y502710D01*
X288263Y502721D01*
X288235Y502715D01*
X288207Y502716D01*
X288115Y502688D01*
X288022Y502668D01*
X287998Y502654D01*
X287971Y502646D01*
X287893Y502591D01*
X287811Y502542D01*
X287793Y502521D01*
X287770Y502504D01*
X287713Y502428D01*
X287651Y502355D01*
X287641Y502329D01*
X287624Y502306D01*
X287595Y502216D01*
X287559Y502127D01*
X287555Y502092D01*
X287549Y502072D01*
X287549Y502039D01*
X287541Y501960D01*
X287541Y500516D01*
X284109Y492232D01*
X277768Y485891D01*
X269484Y482459D01*
X260516Y482459D01*
X252791Y485659D01*
X252703Y485680D01*
X252616Y485708D01*
X252583Y485708D01*
X252552Y485715D01*
X252461Y485707D01*
X252370Y485706D01*
X252330Y485694D01*
X252307Y485692D01*
X252278Y485679D01*
X252209Y485659D01*
X244484Y482459D01*
X235516Y482459D01*
X227791Y485659D01*
X227703Y485680D01*
X227616Y485708D01*
X227583Y485708D01*
X227552Y485715D01*
X227461Y485707D01*
X227370Y485706D01*
X227330Y485694D01*
X227307Y485692D01*
X227278Y485679D01*
X227209Y485659D01*
X219484Y482459D01*
X210516Y482459D01*
G37*
%LPD*%
%LPC*%
G36*
X730516Y482459D02*
X730516Y482459D01*
X722232Y485891D01*
X715891Y492232D01*
X712459Y500516D01*
X712459Y501960D01*
X712457Y501972D01*
X712458Y501981D01*
X712449Y502024D01*
X712444Y502054D01*
X712435Y502149D01*
X712424Y502175D01*
X712420Y502203D01*
X712375Y502287D01*
X712337Y502375D01*
X712318Y502396D01*
X712304Y502420D01*
X712235Y502486D01*
X712171Y502557D01*
X712147Y502570D01*
X712126Y502590D01*
X712040Y502630D01*
X711956Y502676D01*
X711929Y502682D01*
X711903Y502693D01*
X711808Y502704D01*
X711715Y502721D01*
X711687Y502717D01*
X711659Y502721D01*
X711565Y502700D01*
X711471Y502687D01*
X711439Y502673D01*
X711418Y502668D01*
X711390Y502651D01*
X711317Y502620D01*
X705630Y499336D01*
X698626Y497459D01*
X691374Y497459D01*
X684370Y499336D01*
X678090Y502962D01*
X672962Y508090D01*
X669336Y514370D01*
X667459Y521374D01*
X667459Y528626D01*
X669336Y535630D01*
X672962Y541910D01*
X677211Y546160D01*
X677253Y546218D01*
X677302Y546270D01*
X677324Y546317D01*
X677355Y546359D01*
X677376Y546428D01*
X677406Y546493D01*
X677412Y546545D01*
X677427Y546595D01*
X677425Y546666D01*
X677433Y546737D01*
X677422Y546788D01*
X677421Y546840D01*
X677396Y546908D01*
X677381Y546978D01*
X677354Y547023D01*
X677336Y547071D01*
X677291Y547127D01*
X677255Y547189D01*
X677215Y547223D01*
X677183Y547263D01*
X677122Y547302D01*
X677068Y547349D01*
X677020Y547368D01*
X676976Y547396D01*
X676906Y547414D01*
X676840Y547441D01*
X676768Y547449D01*
X676737Y547457D01*
X676714Y547455D01*
X676673Y547459D01*
X675516Y547459D01*
X667232Y550891D01*
X660891Y557232D01*
X658203Y563720D01*
X658165Y563781D01*
X658136Y563847D01*
X658101Y563885D01*
X658074Y563929D01*
X658018Y563975D01*
X657970Y564028D01*
X657924Y564053D01*
X657884Y564086D01*
X657817Y564112D01*
X657754Y564146D01*
X657703Y564156D01*
X657655Y564174D01*
X657583Y564177D01*
X657512Y564190D01*
X657461Y564182D01*
X657409Y564185D01*
X657340Y564165D01*
X657269Y564154D01*
X657223Y564131D01*
X657173Y564116D01*
X657114Y564075D01*
X657050Y564043D01*
X657013Y564005D01*
X656971Y563976D01*
X656928Y563918D01*
X656878Y563867D01*
X656843Y563804D01*
X656824Y563778D01*
X656817Y563756D01*
X656797Y563720D01*
X654109Y557232D01*
X647768Y550891D01*
X639484Y547459D01*
X630516Y547459D01*
X622232Y550891D01*
X615891Y557232D01*
X612459Y565516D01*
X612459Y574484D01*
X615891Y582768D01*
X622232Y589109D01*
X630516Y592541D01*
X639484Y592541D01*
X647768Y589109D01*
X654109Y582768D01*
X656797Y576280D01*
X656834Y576219D01*
X656864Y576153D01*
X656899Y576115D01*
X656926Y576071D01*
X656981Y576025D01*
X657030Y575972D01*
X657076Y575947D01*
X657116Y575914D01*
X657183Y575888D01*
X657246Y575854D01*
X657297Y575844D01*
X657345Y575826D01*
X657417Y575823D01*
X657488Y575810D01*
X657539Y575818D01*
X657591Y575815D01*
X657660Y575835D01*
X657731Y575846D01*
X657777Y575869D01*
X657827Y575884D01*
X657886Y575925D01*
X657950Y575957D01*
X657987Y575995D01*
X658029Y576024D01*
X658072Y576082D01*
X658122Y576133D01*
X658157Y576196D01*
X658176Y576222D01*
X658183Y576244D01*
X658203Y576280D01*
X660891Y582768D01*
X667232Y589109D01*
X675516Y592541D01*
X684484Y592541D01*
X692768Y589109D01*
X699109Y582768D01*
X702541Y574484D01*
X702541Y565516D01*
X699109Y557232D01*
X695718Y553840D01*
X695676Y553782D01*
X695626Y553730D01*
X695605Y553683D01*
X695574Y553641D01*
X695553Y553572D01*
X695523Y553507D01*
X695517Y553455D01*
X695502Y553405D01*
X695504Y553334D01*
X695496Y553263D01*
X695507Y553212D01*
X695508Y553160D01*
X695533Y553092D01*
X695548Y553022D01*
X695575Y552977D01*
X695593Y552929D01*
X695637Y552873D01*
X695674Y552811D01*
X695714Y552777D01*
X695746Y552737D01*
X695807Y552698D01*
X695861Y552651D01*
X695909Y552632D01*
X695953Y552604D01*
X696023Y552586D01*
X696089Y552559D01*
X696161Y552551D01*
X696192Y552543D01*
X696215Y552545D01*
X696256Y552541D01*
X698626Y552541D01*
X705630Y550664D01*
X711910Y547038D01*
X717038Y541910D01*
X720664Y535630D01*
X722541Y528626D01*
X722541Y525376D01*
X722548Y525331D01*
X722546Y525285D01*
X722568Y525210D01*
X722580Y525134D01*
X722602Y525093D01*
X722615Y525049D01*
X722659Y524985D01*
X722696Y524916D01*
X722729Y524885D01*
X722755Y524847D01*
X722818Y524800D01*
X722874Y524747D01*
X722916Y524728D01*
X722952Y524700D01*
X723026Y524676D01*
X723097Y524643D01*
X723143Y524638D01*
X723186Y524624D01*
X723264Y524625D01*
X723341Y524616D01*
X723386Y524626D01*
X723432Y524626D01*
X723564Y524664D01*
X723582Y524668D01*
X723586Y524671D01*
X723593Y524673D01*
X730516Y527541D01*
X739484Y527541D01*
X747209Y524341D01*
X747297Y524320D01*
X747384Y524292D01*
X747417Y524292D01*
X747448Y524285D01*
X747539Y524293D01*
X747630Y524294D01*
X747670Y524306D01*
X747693Y524308D01*
X747722Y524321D01*
X747791Y524341D01*
X755516Y527541D01*
X764484Y527541D01*
X772209Y524341D01*
X772297Y524320D01*
X772384Y524292D01*
X772417Y524292D01*
X772448Y524285D01*
X772539Y524293D01*
X772630Y524294D01*
X772670Y524306D01*
X772693Y524308D01*
X772722Y524321D01*
X772791Y524341D01*
X780516Y527541D01*
X789484Y527541D01*
X796407Y524673D01*
X796451Y524663D01*
X796493Y524643D01*
X796570Y524635D01*
X796646Y524617D01*
X796692Y524621D01*
X796737Y524616D01*
X796814Y524633D01*
X796891Y524640D01*
X796933Y524659D01*
X796978Y524668D01*
X797045Y524708D01*
X797116Y524740D01*
X797150Y524771D01*
X797189Y524795D01*
X797240Y524854D01*
X797297Y524906D01*
X797319Y524947D01*
X797349Y524982D01*
X797378Y525054D01*
X797415Y525122D01*
X797424Y525167D01*
X797441Y525210D01*
X797456Y525346D01*
X797459Y525364D01*
X797458Y525369D01*
X797459Y525376D01*
X797459Y528626D01*
X799336Y535630D01*
X802962Y541910D01*
X808090Y547038D01*
X814370Y550664D01*
X821374Y552541D01*
X828626Y552541D01*
X835630Y550664D01*
X841910Y547038D01*
X847038Y541910D01*
X850664Y535630D01*
X852541Y528626D01*
X852541Y521374D01*
X850664Y514370D01*
X847038Y508090D01*
X841910Y502962D01*
X835630Y499336D01*
X828626Y497459D01*
X821374Y497459D01*
X814370Y499336D01*
X808683Y502620D01*
X808594Y502653D01*
X808507Y502693D01*
X808479Y502697D01*
X808453Y502707D01*
X808357Y502710D01*
X808263Y502721D01*
X808235Y502715D01*
X808207Y502716D01*
X808115Y502688D01*
X808022Y502668D01*
X807998Y502654D01*
X807971Y502646D01*
X807893Y502591D01*
X807811Y502542D01*
X807793Y502521D01*
X807770Y502504D01*
X807713Y502428D01*
X807651Y502355D01*
X807641Y502329D01*
X807624Y502306D01*
X807595Y502216D01*
X807559Y502127D01*
X807555Y502092D01*
X807549Y502072D01*
X807549Y502039D01*
X807541Y501960D01*
X807541Y500516D01*
X804109Y492232D01*
X797768Y485891D01*
X789484Y482459D01*
X780516Y482459D01*
X772791Y485659D01*
X772703Y485680D01*
X772616Y485708D01*
X772583Y485708D01*
X772552Y485715D01*
X772461Y485707D01*
X772370Y485706D01*
X772330Y485694D01*
X772307Y485692D01*
X772278Y485679D01*
X772209Y485659D01*
X764484Y482459D01*
X755516Y482459D01*
X747791Y485659D01*
X747703Y485680D01*
X747616Y485708D01*
X747583Y485708D01*
X747552Y485715D01*
X747461Y485707D01*
X747370Y485706D01*
X747330Y485694D01*
X747307Y485692D01*
X747278Y485679D01*
X747209Y485659D01*
X739484Y482459D01*
X730516Y482459D01*
G37*
%LPD*%
%LPC*%
G36*
X553591Y524790D02*
X553591Y524790D01*
X550987Y525869D01*
X550538Y526317D01*
X550464Y526370D01*
X550395Y526430D01*
X550365Y526442D01*
X550339Y526461D01*
X550252Y526488D01*
X550167Y526522D01*
X550126Y526526D01*
X550104Y526533D01*
X550071Y526532D01*
X550000Y526540D01*
X546564Y526540D01*
X544603Y527352D01*
X529477Y542478D01*
X528665Y544439D01*
X528665Y600665D01*
X528650Y600761D01*
X528640Y600858D01*
X528630Y600882D01*
X528626Y600908D01*
X528580Y600994D01*
X528540Y601083D01*
X528523Y601102D01*
X528510Y601125D01*
X528440Y601192D01*
X528374Y601264D01*
X528351Y601277D01*
X528332Y601295D01*
X528244Y601336D01*
X528158Y601383D01*
X528133Y601387D01*
X528109Y601398D01*
X528012Y601409D01*
X527916Y601426D01*
X527890Y601423D01*
X527865Y601425D01*
X527769Y601405D01*
X527673Y601391D01*
X527650Y601379D01*
X527624Y601373D01*
X527541Y601323D01*
X527454Y601279D01*
X527435Y601260D01*
X527413Y601247D01*
X527350Y601173D01*
X527282Y601103D01*
X527266Y601075D01*
X527253Y601060D01*
X527241Y601029D01*
X527201Y600957D01*
X527006Y600487D01*
X525013Y598494D01*
X522409Y597415D01*
X521775Y597415D01*
X521685Y597401D01*
X521594Y597393D01*
X521564Y597381D01*
X521532Y597376D01*
X521452Y597333D01*
X521368Y597297D01*
X521336Y597271D01*
X521315Y597260D01*
X521293Y597237D01*
X521237Y597192D01*
X517522Y593477D01*
X515561Y592665D01*
X470500Y592665D01*
X470410Y592651D01*
X470319Y592643D01*
X470289Y592631D01*
X470257Y592626D01*
X470176Y592583D01*
X470093Y592547D01*
X470060Y592521D01*
X470040Y592510D01*
X470018Y592487D01*
X469962Y592442D01*
X469513Y591994D01*
X466909Y590915D01*
X464091Y590915D01*
X461487Y591994D01*
X459494Y593987D01*
X458415Y596591D01*
X458415Y599409D01*
X459494Y602013D01*
X461487Y604006D01*
X464091Y605085D01*
X466909Y605085D01*
X469513Y604006D01*
X469962Y603558D01*
X470036Y603505D01*
X470105Y603445D01*
X470135Y603433D01*
X470161Y603414D01*
X470248Y603387D01*
X470333Y603353D01*
X470374Y603349D01*
X470396Y603342D01*
X470429Y603343D01*
X470500Y603335D01*
X511975Y603335D01*
X512065Y603349D01*
X512156Y603357D01*
X512186Y603369D01*
X512218Y603374D01*
X512298Y603417D01*
X512382Y603453D01*
X512414Y603479D01*
X512435Y603490D01*
X512457Y603513D01*
X512513Y603558D01*
X513692Y604737D01*
X513745Y604811D01*
X513805Y604880D01*
X513817Y604910D01*
X513836Y604937D01*
X513863Y605023D01*
X513897Y605108D01*
X513901Y605149D01*
X513908Y605172D01*
X513907Y605204D01*
X513915Y605275D01*
X513915Y605909D01*
X514994Y608513D01*
X516987Y610506D01*
X519591Y611585D01*
X522409Y611585D01*
X524783Y610602D01*
X524878Y610579D01*
X524971Y610551D01*
X524997Y610551D01*
X525022Y610545D01*
X525119Y610555D01*
X525217Y610557D01*
X525241Y610566D01*
X525267Y610569D01*
X525356Y610608D01*
X525448Y610642D01*
X525468Y610658D01*
X525492Y610669D01*
X525564Y610734D01*
X525640Y610795D01*
X525654Y610817D01*
X525673Y610835D01*
X525720Y610920D01*
X525773Y611002D01*
X525779Y611027D01*
X525792Y611050D01*
X525809Y611146D01*
X525833Y611241D01*
X525831Y611267D01*
X525835Y611292D01*
X525821Y611389D01*
X525814Y611486D01*
X525803Y611510D01*
X525799Y611536D01*
X525755Y611623D01*
X525717Y611712D01*
X525697Y611738D01*
X525688Y611755D01*
X525664Y611778D01*
X525612Y611843D01*
X515481Y621974D01*
X515407Y622027D01*
X515338Y622087D01*
X515308Y622099D01*
X515281Y622118D01*
X515195Y622145D01*
X515110Y622179D01*
X515069Y622183D01*
X515046Y622190D01*
X515014Y622189D01*
X514943Y622197D01*
X513614Y622197D01*
X513572Y622224D01*
X513489Y622284D01*
X513470Y622290D01*
X513453Y622301D01*
X513352Y622326D01*
X513253Y622357D01*
X513233Y622356D01*
X513214Y622361D01*
X513111Y622353D01*
X513008Y622350D01*
X512989Y622344D01*
X512969Y622342D01*
X512874Y622302D01*
X512777Y622266D01*
X512761Y622254D01*
X512743Y622246D01*
X512613Y622142D01*
X512527Y622091D01*
X512436Y622042D01*
X512422Y622028D01*
X512405Y622018D01*
X512338Y621939D01*
X512266Y621864D01*
X512258Y621846D01*
X512245Y621831D01*
X512206Y621735D01*
X512163Y621641D01*
X512161Y621621D01*
X512153Y621603D01*
X512135Y621436D01*
X512135Y618825D01*
X512149Y618735D01*
X512157Y618644D01*
X512169Y618614D01*
X512174Y618582D01*
X512217Y618501D01*
X512253Y618418D01*
X512279Y618385D01*
X512290Y618365D01*
X512313Y618343D01*
X512358Y618287D01*
X512881Y617763D01*
X513960Y615159D01*
X513960Y612341D01*
X512881Y609737D01*
X510888Y607744D01*
X508284Y606665D01*
X505466Y606665D01*
X502862Y607744D01*
X500869Y609737D01*
X500183Y611393D01*
X500140Y611462D01*
X500104Y611536D01*
X500075Y611566D01*
X500053Y611602D01*
X499990Y611654D01*
X499933Y611713D01*
X499896Y611732D01*
X499864Y611759D01*
X499787Y611788D01*
X499714Y611826D01*
X499673Y611832D01*
X499634Y611847D01*
X499552Y611850D01*
X499471Y611863D01*
X499430Y611856D01*
X499388Y611857D01*
X499310Y611834D01*
X499229Y611820D01*
X499192Y611800D01*
X499152Y611789D01*
X499085Y611742D01*
X499013Y611703D01*
X498984Y611672D01*
X498950Y611648D01*
X498901Y611583D01*
X498845Y611523D01*
X498820Y611474D01*
X498803Y611451D01*
X498794Y611424D01*
X498769Y611373D01*
X498695Y611182D01*
X498678Y611165D01*
X498641Y611096D01*
X497931Y610386D01*
X497926Y610380D01*
X497916Y610371D01*
X497229Y609645D01*
X497207Y609636D01*
X497146Y609587D01*
X496218Y609203D01*
X496211Y609199D01*
X496199Y609195D01*
X495286Y608787D01*
X495262Y608787D01*
X495187Y608765D01*
X494183Y608765D01*
X494175Y608764D01*
X494162Y608765D01*
X486367Y608553D01*
X486287Y608537D01*
X486207Y608531D01*
X486167Y608514D01*
X486125Y608506D01*
X486055Y608467D01*
X485980Y608435D01*
X485936Y608400D01*
X485911Y608385D01*
X485892Y608364D01*
X485849Y608330D01*
X485263Y607744D01*
X482659Y606665D01*
X479841Y606665D01*
X477237Y607744D01*
X475244Y609737D01*
X474165Y612341D01*
X474165Y615159D01*
X475244Y617763D01*
X477237Y619756D01*
X479594Y620733D01*
X479678Y620784D01*
X479763Y620830D01*
X479781Y620848D01*
X479804Y620862D01*
X479866Y620938D01*
X479933Y621008D01*
X479944Y621032D01*
X479960Y621052D01*
X479995Y621143D01*
X480036Y621231D01*
X480039Y621257D01*
X480049Y621281D01*
X480053Y621379D01*
X480063Y621475D01*
X480058Y621501D01*
X480059Y621527D01*
X480032Y621621D01*
X480011Y621716D01*
X479998Y621738D01*
X479990Y621763D01*
X479935Y621843D01*
X479885Y621927D01*
X479865Y621944D01*
X479850Y621965D01*
X479772Y622024D01*
X479698Y622087D01*
X479674Y622097D01*
X479653Y622112D01*
X479560Y622142D01*
X479470Y622179D01*
X479437Y622182D01*
X479419Y622188D01*
X479386Y622188D01*
X479303Y622197D01*
X475532Y622197D01*
X474820Y622910D01*
X474765Y622949D01*
X474716Y622996D01*
X474665Y623020D01*
X474620Y623053D01*
X474555Y623073D01*
X474494Y623102D01*
X474438Y623109D01*
X474385Y623125D01*
X474317Y623124D01*
X474250Y623132D01*
X474172Y623120D01*
X474139Y623119D01*
X474119Y623112D01*
X474084Y623107D01*
X473534Y622959D01*
X470223Y622959D01*
X470223Y632238D01*
X470220Y632258D01*
X470222Y632277D01*
X470200Y632379D01*
X470183Y632481D01*
X470174Y632498D01*
X470170Y632518D01*
X470117Y632607D01*
X470068Y632698D01*
X470054Y632712D01*
X470044Y632729D01*
X469965Y632796D01*
X469890Y632867D01*
X469872Y632876D01*
X469857Y632889D01*
X469761Y632928D01*
X469667Y632971D01*
X469647Y632973D01*
X469629Y632981D01*
X469462Y632999D01*
X467938Y632999D01*
X467918Y632996D01*
X467899Y632998D01*
X467797Y632976D01*
X467695Y632959D01*
X467678Y632950D01*
X467658Y632946D01*
X467569Y632893D01*
X467478Y632844D01*
X467464Y632830D01*
X467447Y632820D01*
X467380Y632741D01*
X467309Y632666D01*
X467300Y632648D01*
X467287Y632633D01*
X467248Y632537D01*
X467205Y632443D01*
X467203Y632423D01*
X467195Y632405D01*
X467177Y632238D01*
X467177Y622959D01*
X463866Y622959D01*
X463316Y623107D01*
X463248Y623113D01*
X463183Y623130D01*
X463127Y623125D01*
X463071Y623131D01*
X463005Y623116D01*
X462938Y623111D01*
X462886Y623089D01*
X462831Y623076D01*
X462773Y623041D01*
X462711Y623014D01*
X462650Y622965D01*
X462621Y622948D01*
X462608Y622932D01*
X462580Y622910D01*
X461868Y622197D01*
X450132Y622197D01*
X448197Y624132D01*
X448197Y641868D01*
X450187Y643858D01*
X450273Y643909D01*
X450364Y643958D01*
X450378Y643972D01*
X450395Y643982D01*
X450462Y644061D01*
X450534Y644136D01*
X450542Y644154D01*
X450555Y644169D01*
X450594Y644265D01*
X450637Y644359D01*
X450639Y644379D01*
X450647Y644397D01*
X450665Y644564D01*
X450665Y693061D01*
X451477Y695022D01*
X543692Y787237D01*
X543745Y787311D01*
X543805Y787380D01*
X543817Y787410D01*
X543836Y787437D01*
X543863Y787523D01*
X543897Y787608D01*
X543901Y787649D01*
X543908Y787672D01*
X543907Y787704D01*
X543915Y787775D01*
X543915Y788409D01*
X544994Y791013D01*
X546987Y793006D01*
X549591Y794085D01*
X552409Y794085D01*
X555013Y793006D01*
X557006Y791013D01*
X558085Y788409D01*
X558085Y785591D01*
X557006Y782987D01*
X555013Y780994D01*
X552409Y779915D01*
X551775Y779915D01*
X551685Y779901D01*
X551594Y779893D01*
X551564Y779881D01*
X551532Y779876D01*
X551452Y779833D01*
X551368Y779797D01*
X551336Y779771D01*
X551315Y779760D01*
X551293Y779737D01*
X551237Y779692D01*
X461558Y690013D01*
X461505Y689939D01*
X461445Y689870D01*
X461433Y689840D01*
X461414Y689813D01*
X461387Y689727D01*
X461353Y689642D01*
X461349Y689601D01*
X461342Y689578D01*
X461343Y689546D01*
X461335Y689475D01*
X461335Y644564D01*
X461338Y644544D01*
X461336Y644525D01*
X461358Y644423D01*
X461374Y644321D01*
X461384Y644304D01*
X461388Y644284D01*
X461441Y644195D01*
X461490Y644104D01*
X461504Y644090D01*
X461514Y644073D01*
X461593Y644006D01*
X461668Y643934D01*
X461686Y643926D01*
X461701Y643913D01*
X461796Y643875D01*
X462580Y643090D01*
X462635Y643051D01*
X462684Y643004D01*
X462735Y642980D01*
X462780Y642947D01*
X462845Y642927D01*
X462906Y642898D01*
X462962Y642891D01*
X463015Y642875D01*
X463083Y642876D01*
X463150Y642868D01*
X463228Y642880D01*
X463261Y642881D01*
X463281Y642888D01*
X463316Y642893D01*
X463866Y643041D01*
X467177Y643041D01*
X467177Y633762D01*
X467180Y633742D01*
X467178Y633723D01*
X467200Y633621D01*
X467217Y633519D01*
X467226Y633502D01*
X467230Y633482D01*
X467283Y633393D01*
X467332Y633302D01*
X467346Y633288D01*
X467356Y633271D01*
X467435Y633204D01*
X467510Y633133D01*
X467528Y633124D01*
X467543Y633111D01*
X467639Y633072D01*
X467733Y633029D01*
X467753Y633027D01*
X467771Y633019D01*
X467938Y633001D01*
X469462Y633001D01*
X469482Y633004D01*
X469501Y633002D01*
X469603Y633024D01*
X469705Y633041D01*
X469722Y633050D01*
X469742Y633054D01*
X469831Y633107D01*
X469922Y633156D01*
X469936Y633170D01*
X469953Y633180D01*
X470020Y633259D01*
X470091Y633334D01*
X470100Y633352D01*
X470113Y633367D01*
X470152Y633463D01*
X470195Y633557D01*
X470197Y633577D01*
X470205Y633595D01*
X470223Y633762D01*
X470223Y643041D01*
X473534Y643041D01*
X474084Y642893D01*
X474152Y642887D01*
X474217Y642870D01*
X474273Y642875D01*
X474329Y642869D01*
X474395Y642884D01*
X474462Y642889D01*
X474514Y642911D01*
X474569Y642924D01*
X474627Y642959D01*
X474689Y642986D01*
X474750Y643035D01*
X474779Y643052D01*
X474792Y643068D01*
X474820Y643090D01*
X475587Y643858D01*
X475673Y643909D01*
X475764Y643958D01*
X475778Y643972D01*
X475795Y643982D01*
X475862Y644061D01*
X475934Y644136D01*
X475942Y644154D01*
X475955Y644169D01*
X475994Y644265D01*
X476037Y644359D01*
X476039Y644379D01*
X476047Y644397D01*
X476065Y644564D01*
X476065Y644850D01*
X476051Y644940D01*
X476043Y645031D01*
X476031Y645061D01*
X476026Y645093D01*
X475983Y645174D01*
X475947Y645257D01*
X475921Y645290D01*
X475910Y645310D01*
X475887Y645332D01*
X475842Y645388D01*
X475244Y645987D01*
X474165Y648591D01*
X474165Y651409D01*
X475244Y654013D01*
X477237Y656006D01*
X479841Y657085D01*
X482659Y657085D01*
X485263Y656006D01*
X487179Y654090D01*
X487217Y654063D01*
X487248Y654029D01*
X487316Y653992D01*
X487379Y653946D01*
X487423Y653933D01*
X487463Y653911D01*
X487540Y653897D01*
X487614Y653874D01*
X487660Y653875D01*
X487705Y653867D01*
X487782Y653878D01*
X487860Y653880D01*
X487903Y653896D01*
X487949Y653903D01*
X488018Y653938D01*
X488091Y653965D01*
X488127Y653994D01*
X488168Y654014D01*
X488222Y654070D01*
X488283Y654119D01*
X488308Y654157D01*
X488340Y654190D01*
X488406Y654310D01*
X488416Y654326D01*
X488417Y654330D01*
X488421Y654337D01*
X488494Y654513D01*
X490487Y656506D01*
X493091Y657585D01*
X493725Y657585D01*
X493815Y657599D01*
X493906Y657607D01*
X493936Y657619D01*
X493968Y657624D01*
X494048Y657667D01*
X494132Y657703D01*
X494164Y657729D01*
X494185Y657740D01*
X494207Y657763D01*
X494263Y657808D01*
X494942Y658487D01*
X494995Y658561D01*
X495055Y658630D01*
X495067Y658660D01*
X495086Y658687D01*
X495113Y658773D01*
X495147Y658858D01*
X495151Y658899D01*
X495158Y658922D01*
X495157Y658954D01*
X495165Y659025D01*
X495165Y697000D01*
X495151Y697090D01*
X495143Y697181D01*
X495131Y697211D01*
X495126Y697243D01*
X495083Y697324D01*
X495047Y697407D01*
X495021Y697440D01*
X495010Y697460D01*
X494987Y697482D01*
X494942Y697538D01*
X494494Y697987D01*
X493415Y700591D01*
X493415Y703409D01*
X494494Y706013D01*
X496487Y708006D01*
X499091Y709085D01*
X501909Y709085D01*
X504513Y708006D01*
X506506Y706013D01*
X507585Y703409D01*
X507585Y700591D01*
X506506Y697987D01*
X506058Y697538D01*
X506005Y697464D01*
X505945Y697395D01*
X505933Y697365D01*
X505914Y697339D01*
X505887Y697252D01*
X505853Y697167D01*
X505849Y697126D01*
X505842Y697104D01*
X505843Y697071D01*
X505835Y697000D01*
X505835Y655439D01*
X505023Y653478D01*
X503415Y651870D01*
X501808Y650263D01*
X501755Y650189D01*
X501695Y650120D01*
X501683Y650090D01*
X501664Y650063D01*
X501637Y649976D01*
X501603Y649892D01*
X501599Y649851D01*
X501592Y649828D01*
X501593Y649796D01*
X501585Y649725D01*
X501585Y649091D01*
X500506Y646487D01*
X499122Y645102D01*
X499080Y645044D01*
X499030Y644992D01*
X499008Y644945D01*
X498978Y644903D01*
X498957Y644834D01*
X498927Y644769D01*
X498921Y644717D01*
X498906Y644667D01*
X498908Y644596D01*
X498900Y644525D01*
X498911Y644474D01*
X498912Y644422D01*
X498937Y644354D01*
X498952Y644284D01*
X498979Y644239D01*
X498996Y644191D01*
X499041Y644135D01*
X499078Y644073D01*
X499118Y644039D01*
X499150Y643999D01*
X499210Y643960D01*
X499265Y643913D01*
X499313Y643894D01*
X499357Y643866D01*
X499427Y643848D01*
X499493Y643821D01*
X499564Y643813D01*
X499596Y643805D01*
X499619Y643807D01*
X499660Y643803D01*
X499986Y643803D01*
X500027Y643776D01*
X500111Y643716D01*
X500130Y643710D01*
X500147Y643699D01*
X500248Y643674D01*
X500346Y643643D01*
X500366Y643644D01*
X500386Y643639D01*
X500489Y643647D01*
X500592Y643650D01*
X500611Y643656D01*
X500631Y643658D01*
X500726Y643698D01*
X500823Y643734D01*
X500839Y643746D01*
X500857Y643754D01*
X500918Y643803D01*
X512686Y643803D01*
X512727Y643776D01*
X512811Y643716D01*
X512830Y643710D01*
X512847Y643699D01*
X512948Y643674D01*
X513046Y643643D01*
X513066Y643644D01*
X513086Y643639D01*
X513189Y643647D01*
X513292Y643650D01*
X513311Y643656D01*
X513331Y643658D01*
X513426Y643698D01*
X513523Y643734D01*
X513539Y643746D01*
X513557Y643754D01*
X513618Y643803D01*
X525386Y643803D01*
X525427Y643776D01*
X525511Y643716D01*
X525530Y643710D01*
X525547Y643699D01*
X525648Y643674D01*
X525746Y643643D01*
X525766Y643644D01*
X525786Y643639D01*
X525889Y643647D01*
X525992Y643650D01*
X526011Y643656D01*
X526031Y643658D01*
X526126Y643698D01*
X526223Y643734D01*
X526239Y643746D01*
X526257Y643754D01*
X526318Y643803D01*
X538086Y643803D01*
X538127Y643776D01*
X538211Y643716D01*
X538230Y643710D01*
X538247Y643699D01*
X538348Y643674D01*
X538446Y643643D01*
X538466Y643644D01*
X538486Y643639D01*
X538589Y643647D01*
X538692Y643650D01*
X538711Y643656D01*
X538731Y643658D01*
X538826Y643698D01*
X538923Y643734D01*
X538939Y643746D01*
X538957Y643754D01*
X539018Y643803D01*
X550768Y643803D01*
X552703Y641868D01*
X552703Y624132D01*
X550768Y622197D01*
X544685Y622197D01*
X544614Y622186D01*
X544543Y622184D01*
X544494Y622166D01*
X544442Y622158D01*
X544379Y622124D01*
X544312Y622099D01*
X544271Y622067D01*
X544225Y622042D01*
X544176Y621990D01*
X544120Y621946D01*
X544091Y621902D01*
X544055Y621864D01*
X544025Y621799D01*
X543987Y621739D01*
X543974Y621688D01*
X543952Y621641D01*
X543944Y621570D01*
X543926Y621500D01*
X543931Y621448D01*
X543925Y621397D01*
X543940Y621326D01*
X543946Y621255D01*
X543966Y621207D01*
X543977Y621156D01*
X544014Y621095D01*
X544042Y621029D01*
X544087Y620973D01*
X544103Y620945D01*
X544121Y620930D01*
X544147Y620898D01*
X545915Y619130D01*
X547523Y617522D01*
X548335Y615561D01*
X548335Y563275D01*
X548349Y563185D01*
X548357Y563094D01*
X548369Y563064D01*
X548374Y563032D01*
X548417Y562952D01*
X548453Y562868D01*
X548479Y562836D01*
X548490Y562815D01*
X548513Y562793D01*
X548558Y562737D01*
X548849Y562445D01*
X548865Y562434D01*
X548878Y562418D01*
X548965Y562362D01*
X549049Y562302D01*
X549068Y562296D01*
X549085Y562285D01*
X549185Y562260D01*
X549284Y562229D01*
X549304Y562230D01*
X549323Y562225D01*
X549426Y562233D01*
X549530Y562236D01*
X549549Y562243D01*
X549569Y562244D01*
X549663Y562284D01*
X549761Y562320D01*
X549777Y562333D01*
X549795Y562340D01*
X549926Y562445D01*
X550362Y562881D01*
X552966Y563960D01*
X555784Y563960D01*
X558388Y562881D01*
X560381Y560888D01*
X561460Y558284D01*
X561460Y555466D01*
X560381Y552862D01*
X558388Y550869D01*
X555784Y549790D01*
X552966Y549790D01*
X550362Y550869D01*
X549913Y551317D01*
X549839Y551370D01*
X549770Y551430D01*
X549740Y551442D01*
X549714Y551461D01*
X549627Y551488D01*
X549542Y551522D01*
X549501Y551526D01*
X549479Y551533D01*
X549446Y551532D01*
X549375Y551540D01*
X545814Y551540D01*
X543853Y552352D01*
X542245Y553960D01*
X540634Y555571D01*
X540576Y555613D01*
X540524Y555663D01*
X540477Y555685D01*
X540435Y555715D01*
X540366Y555736D01*
X540301Y555766D01*
X540249Y555772D01*
X540199Y555787D01*
X540128Y555785D01*
X540057Y555793D01*
X540006Y555782D01*
X539954Y555781D01*
X539886Y555756D01*
X539816Y555741D01*
X539772Y555714D01*
X539723Y555696D01*
X539667Y555652D01*
X539605Y555615D01*
X539571Y555575D01*
X539531Y555543D01*
X539492Y555482D01*
X539445Y555428D01*
X539426Y555380D01*
X539398Y555336D01*
X539380Y555266D01*
X539353Y555200D01*
X539345Y555128D01*
X539337Y555097D01*
X539339Y555074D01*
X539335Y555033D01*
X539335Y548025D01*
X539349Y547935D01*
X539357Y547844D01*
X539369Y547814D01*
X539374Y547782D01*
X539417Y547702D01*
X539453Y547618D01*
X539479Y547586D01*
X539490Y547565D01*
X539513Y547543D01*
X539558Y547487D01*
X549537Y537508D01*
X549553Y537496D01*
X549565Y537480D01*
X549653Y537425D01*
X549737Y537364D01*
X549756Y537358D01*
X549772Y537347D01*
X549873Y537322D01*
X549972Y537292D01*
X549992Y537292D01*
X550011Y537287D01*
X550114Y537295D01*
X550218Y537298D01*
X550236Y537305D01*
X550256Y537307D01*
X550351Y537347D01*
X550449Y537383D01*
X550464Y537395D01*
X550482Y537403D01*
X550613Y537508D01*
X550987Y537881D01*
X553591Y538960D01*
X556409Y538960D01*
X559013Y537881D01*
X561006Y535888D01*
X562085Y533284D01*
X562085Y530466D01*
X561006Y527862D01*
X559013Y525869D01*
X556409Y524790D01*
X553591Y524790D01*
G37*
%LPD*%
%LPC*%
G36*
X488429Y408489D02*
X488429Y408489D01*
X484788Y409997D01*
X482001Y412784D01*
X480608Y416147D01*
X480547Y416247D01*
X480487Y416347D01*
X480482Y416351D01*
X480479Y416356D01*
X480389Y416431D01*
X480300Y416507D01*
X480294Y416509D01*
X480289Y416513D01*
X480181Y416555D01*
X480072Y416599D01*
X480064Y416600D01*
X480060Y416601D01*
X480041Y416602D01*
X479905Y416617D01*
X453333Y416617D01*
X450252Y417893D01*
X410393Y457752D01*
X409117Y460833D01*
X409117Y639149D01*
X409103Y639239D01*
X409095Y639330D01*
X409083Y639360D01*
X409078Y639392D01*
X409035Y639473D01*
X408999Y639557D01*
X408973Y639589D01*
X408962Y639609D01*
X408939Y639632D01*
X408894Y639688D01*
X372255Y676327D01*
X371133Y679035D01*
X371133Y711636D01*
X371130Y711656D01*
X371132Y711675D01*
X371110Y711777D01*
X371094Y711879D01*
X371084Y711896D01*
X371080Y711916D01*
X371027Y712005D01*
X370978Y712096D01*
X370964Y712110D01*
X370954Y712127D01*
X370875Y712194D01*
X370800Y712266D01*
X370782Y712274D01*
X370767Y712287D01*
X370671Y712326D01*
X370577Y712369D01*
X370557Y712371D01*
X370539Y712379D01*
X370372Y712397D01*
X364632Y712397D01*
X362697Y714332D01*
X362697Y737068D01*
X364632Y739003D01*
X392368Y739003D01*
X394303Y737068D01*
X394303Y714332D01*
X392368Y712397D01*
X386628Y712397D01*
X386608Y712394D01*
X386589Y712396D01*
X386487Y712374D01*
X386385Y712358D01*
X386368Y712348D01*
X386348Y712344D01*
X386259Y712291D01*
X386168Y712242D01*
X386154Y712228D01*
X386137Y712218D01*
X386070Y712139D01*
X385998Y712064D01*
X385990Y712046D01*
X385977Y712031D01*
X385938Y711935D01*
X385895Y711841D01*
X385893Y711821D01*
X385885Y711803D01*
X385867Y711636D01*
X385867Y683867D01*
X385869Y683852D01*
X385868Y683841D01*
X385881Y683780D01*
X385881Y683777D01*
X385889Y683686D01*
X385901Y683656D01*
X385906Y683624D01*
X385949Y683543D01*
X385985Y683459D01*
X386011Y683427D01*
X386022Y683407D01*
X386045Y683384D01*
X386090Y683328D01*
X419689Y649730D01*
X419742Y649691D01*
X419789Y649645D01*
X419862Y649605D01*
X419888Y649586D01*
X419907Y649580D01*
X419936Y649565D01*
X422248Y648607D01*
X424607Y646248D01*
X425883Y643167D01*
X425883Y466288D01*
X425897Y466197D01*
X425905Y466107D01*
X425917Y466077D01*
X425922Y466045D01*
X425965Y465964D01*
X426001Y465880D01*
X426027Y465848D01*
X426038Y465827D01*
X426061Y465805D01*
X426106Y465749D01*
X458249Y433606D01*
X458323Y433553D01*
X458393Y433493D01*
X458423Y433481D01*
X458449Y433462D01*
X458536Y433435D01*
X458621Y433401D01*
X458662Y433397D01*
X458684Y433390D01*
X458716Y433391D01*
X458788Y433383D01*
X479905Y433383D01*
X480020Y433402D01*
X480136Y433419D01*
X480142Y433421D01*
X480148Y433422D01*
X480251Y433477D01*
X480355Y433530D01*
X480360Y433535D01*
X480365Y433538D01*
X480445Y433622D01*
X480528Y433706D01*
X480531Y433712D01*
X480535Y433716D01*
X480542Y433733D01*
X480608Y433853D01*
X482001Y437216D01*
X484788Y440003D01*
X488429Y441511D01*
X492371Y441511D01*
X496012Y440003D01*
X498799Y437216D01*
X500307Y433575D01*
X500307Y416425D01*
X498799Y412784D01*
X496012Y409997D01*
X492371Y408489D01*
X488429Y408489D01*
G37*
%LPD*%
%LPC*%
G36*
X630516Y607459D02*
X630516Y607459D01*
X622232Y610891D01*
X615891Y617232D01*
X612459Y625516D01*
X612459Y634484D01*
X615891Y642768D01*
X622232Y649109D01*
X630516Y652541D01*
X639484Y652541D01*
X647768Y649109D01*
X654109Y642768D01*
X656797Y636280D01*
X656834Y636219D01*
X656864Y636153D01*
X656899Y636115D01*
X656926Y636071D01*
X656981Y636025D01*
X657030Y635972D01*
X657076Y635947D01*
X657116Y635914D01*
X657183Y635888D01*
X657246Y635854D01*
X657297Y635844D01*
X657345Y635826D01*
X657417Y635823D01*
X657488Y635810D01*
X657539Y635818D01*
X657591Y635815D01*
X657660Y635835D01*
X657731Y635846D01*
X657777Y635869D01*
X657827Y635884D01*
X657886Y635925D01*
X657950Y635957D01*
X657987Y635995D01*
X658029Y636024D01*
X658072Y636082D01*
X658122Y636133D01*
X658157Y636196D01*
X658176Y636222D01*
X658183Y636244D01*
X658203Y636280D01*
X660891Y642768D01*
X667232Y649109D01*
X675516Y652541D01*
X676673Y652541D01*
X676744Y652552D01*
X676815Y652554D01*
X676864Y652572D01*
X676916Y652580D01*
X676979Y652614D01*
X677046Y652639D01*
X677087Y652671D01*
X677133Y652696D01*
X677182Y652748D01*
X677238Y652792D01*
X677267Y652836D01*
X677302Y652874D01*
X677333Y652939D01*
X677371Y652999D01*
X677384Y653050D01*
X677406Y653097D01*
X677414Y653168D01*
X677432Y653238D01*
X677427Y653290D01*
X677433Y653341D01*
X677418Y653412D01*
X677412Y653483D01*
X677392Y653531D01*
X677381Y653582D01*
X677344Y653643D01*
X677316Y653709D01*
X677271Y653765D01*
X677255Y653793D01*
X677237Y653808D01*
X677211Y653840D01*
X672962Y658090D01*
X669336Y664370D01*
X667459Y671374D01*
X667459Y678626D01*
X669336Y685630D01*
X672962Y691910D01*
X678090Y697038D01*
X684370Y700664D01*
X691374Y702541D01*
X698626Y702541D01*
X705630Y700664D01*
X711910Y697038D01*
X717038Y691910D01*
X720664Y685630D01*
X722541Y678626D01*
X722541Y671374D01*
X720664Y664370D01*
X717038Y658090D01*
X711910Y652962D01*
X705630Y649336D01*
X698626Y647459D01*
X696256Y647459D01*
X696185Y647448D01*
X696114Y647446D01*
X696065Y647428D01*
X696013Y647420D01*
X695950Y647386D01*
X695883Y647361D01*
X695842Y647329D01*
X695796Y647304D01*
X695746Y647252D01*
X695690Y647208D01*
X695662Y647164D01*
X695626Y647126D01*
X695596Y647061D01*
X695557Y647001D01*
X695545Y646950D01*
X695523Y646903D01*
X695515Y646832D01*
X695497Y646762D01*
X695501Y646710D01*
X695496Y646659D01*
X695511Y646588D01*
X695517Y646517D01*
X695537Y646469D01*
X695548Y646418D01*
X695585Y646357D01*
X695613Y646291D01*
X695658Y646235D01*
X695674Y646207D01*
X695692Y646192D01*
X695718Y646160D01*
X699109Y642768D01*
X702541Y634484D01*
X702541Y625516D01*
X699109Y617232D01*
X692768Y610891D01*
X684484Y607459D01*
X675516Y607459D01*
X667232Y610891D01*
X660891Y617232D01*
X658203Y623720D01*
X658165Y623781D01*
X658136Y623847D01*
X658101Y623885D01*
X658074Y623929D01*
X658018Y623975D01*
X657970Y624028D01*
X657924Y624053D01*
X657884Y624086D01*
X657817Y624112D01*
X657754Y624146D01*
X657703Y624156D01*
X657655Y624174D01*
X657583Y624177D01*
X657512Y624190D01*
X657461Y624182D01*
X657409Y624185D01*
X657340Y624165D01*
X657269Y624154D01*
X657223Y624131D01*
X657173Y624116D01*
X657114Y624075D01*
X657050Y624043D01*
X657013Y624005D01*
X656971Y623976D01*
X656928Y623918D01*
X656878Y623867D01*
X656843Y623804D01*
X656824Y623778D01*
X656817Y623756D01*
X656797Y623720D01*
X654109Y617232D01*
X647768Y610891D01*
X639484Y607459D01*
X630516Y607459D01*
G37*
%LPD*%
%LPC*%
G36*
X110516Y607459D02*
X110516Y607459D01*
X102232Y610891D01*
X95891Y617232D01*
X92459Y625516D01*
X92459Y634484D01*
X95891Y642768D01*
X102232Y649109D01*
X110516Y652541D01*
X119484Y652541D01*
X127768Y649109D01*
X134109Y642768D01*
X136797Y636280D01*
X136834Y636219D01*
X136864Y636153D01*
X136899Y636115D01*
X136926Y636071D01*
X136981Y636025D01*
X137030Y635972D01*
X137076Y635947D01*
X137116Y635914D01*
X137183Y635888D01*
X137246Y635854D01*
X137297Y635844D01*
X137345Y635826D01*
X137417Y635823D01*
X137488Y635810D01*
X137539Y635818D01*
X137591Y635815D01*
X137660Y635835D01*
X137731Y635846D01*
X137777Y635869D01*
X137827Y635884D01*
X137886Y635925D01*
X137950Y635957D01*
X137987Y635995D01*
X138029Y636024D01*
X138072Y636082D01*
X138122Y636133D01*
X138157Y636196D01*
X138176Y636222D01*
X138183Y636244D01*
X138203Y636280D01*
X140891Y642768D01*
X147232Y649109D01*
X155516Y652541D01*
X156673Y652541D01*
X156744Y652552D01*
X156815Y652554D01*
X156864Y652572D01*
X156916Y652580D01*
X156979Y652614D01*
X157046Y652639D01*
X157087Y652671D01*
X157133Y652696D01*
X157182Y652748D01*
X157238Y652792D01*
X157267Y652836D01*
X157302Y652874D01*
X157333Y652939D01*
X157371Y652999D01*
X157384Y653050D01*
X157406Y653097D01*
X157414Y653168D01*
X157432Y653238D01*
X157427Y653290D01*
X157433Y653341D01*
X157418Y653412D01*
X157412Y653483D01*
X157392Y653531D01*
X157381Y653582D01*
X157344Y653643D01*
X157316Y653709D01*
X157271Y653765D01*
X157255Y653793D01*
X157237Y653808D01*
X157211Y653840D01*
X152962Y658090D01*
X149336Y664370D01*
X147459Y671374D01*
X147459Y678626D01*
X149336Y685630D01*
X152962Y691910D01*
X158090Y697038D01*
X164370Y700664D01*
X171374Y702541D01*
X178626Y702541D01*
X185630Y700664D01*
X191910Y697038D01*
X197038Y691910D01*
X200664Y685630D01*
X202541Y678626D01*
X202541Y671374D01*
X200664Y664370D01*
X197038Y658090D01*
X191910Y652962D01*
X185630Y649336D01*
X178626Y647459D01*
X176256Y647459D01*
X176185Y647448D01*
X176114Y647446D01*
X176065Y647428D01*
X176013Y647420D01*
X175950Y647386D01*
X175883Y647361D01*
X175842Y647329D01*
X175796Y647304D01*
X175746Y647252D01*
X175690Y647208D01*
X175662Y647164D01*
X175626Y647126D01*
X175596Y647061D01*
X175557Y647001D01*
X175545Y646950D01*
X175523Y646903D01*
X175515Y646832D01*
X175497Y646762D01*
X175501Y646710D01*
X175496Y646659D01*
X175511Y646588D01*
X175517Y646517D01*
X175537Y646469D01*
X175548Y646418D01*
X175585Y646357D01*
X175613Y646291D01*
X175658Y646235D01*
X175674Y646207D01*
X175692Y646192D01*
X175718Y646160D01*
X179109Y642768D01*
X182541Y634484D01*
X182541Y625516D01*
X179109Y617232D01*
X172768Y610891D01*
X164484Y607459D01*
X155516Y607459D01*
X147232Y610891D01*
X140891Y617232D01*
X138203Y623720D01*
X138165Y623781D01*
X138136Y623847D01*
X138101Y623885D01*
X138074Y623929D01*
X138018Y623975D01*
X137970Y624028D01*
X137924Y624053D01*
X137884Y624086D01*
X137817Y624112D01*
X137754Y624146D01*
X137703Y624156D01*
X137655Y624174D01*
X137583Y624177D01*
X137512Y624190D01*
X137461Y624182D01*
X137409Y624185D01*
X137340Y624165D01*
X137269Y624154D01*
X137223Y624131D01*
X137173Y624116D01*
X137114Y624075D01*
X137050Y624043D01*
X137013Y624005D01*
X136971Y623976D01*
X136928Y623918D01*
X136878Y623867D01*
X136843Y623804D01*
X136824Y623778D01*
X136817Y623756D01*
X136797Y623720D01*
X134109Y617232D01*
X127768Y610891D01*
X119484Y607459D01*
X110516Y607459D01*
G37*
%LPD*%
%LPC*%
G36*
X335516Y552459D02*
X335516Y552459D01*
X327232Y555891D01*
X320891Y562232D01*
X317459Y570516D01*
X317459Y579484D01*
X320659Y587209D01*
X320680Y587297D01*
X320708Y587384D01*
X320708Y587417D01*
X320715Y587448D01*
X320707Y587539D01*
X320706Y587630D01*
X320694Y587670D01*
X320692Y587693D01*
X320679Y587722D01*
X320659Y587791D01*
X317459Y595516D01*
X317459Y604484D01*
X320659Y612209D01*
X320680Y612297D01*
X320708Y612384D01*
X320708Y612417D01*
X320715Y612448D01*
X320707Y612539D01*
X320706Y612630D01*
X320694Y612670D01*
X320692Y612693D01*
X320679Y612722D01*
X320659Y612791D01*
X317459Y620516D01*
X317459Y629484D01*
X320891Y637768D01*
X327232Y644109D01*
X335516Y647541D01*
X344484Y647541D01*
X352768Y644109D01*
X359109Y637768D01*
X362541Y629484D01*
X362541Y620516D01*
X359341Y612791D01*
X359320Y612703D01*
X359292Y612616D01*
X359292Y612583D01*
X359285Y612552D01*
X359293Y612461D01*
X359294Y612370D01*
X359306Y612330D01*
X359308Y612307D01*
X359321Y612278D01*
X359341Y612209D01*
X362541Y604484D01*
X362541Y595516D01*
X359341Y587791D01*
X359320Y587703D01*
X359292Y587616D01*
X359292Y587583D01*
X359285Y587552D01*
X359293Y587461D01*
X359294Y587370D01*
X359306Y587330D01*
X359308Y587307D01*
X359321Y587278D01*
X359341Y587209D01*
X362541Y579484D01*
X362541Y570516D01*
X359109Y562232D01*
X352768Y555891D01*
X344484Y552459D01*
X335516Y552459D01*
G37*
%LPD*%
%LPC*%
G36*
X855516Y552459D02*
X855516Y552459D01*
X847232Y555891D01*
X840891Y562232D01*
X837459Y570516D01*
X837459Y579484D01*
X840659Y587209D01*
X840680Y587297D01*
X840708Y587384D01*
X840708Y587417D01*
X840715Y587448D01*
X840707Y587539D01*
X840706Y587630D01*
X840694Y587670D01*
X840692Y587693D01*
X840679Y587722D01*
X840659Y587791D01*
X837459Y595516D01*
X837459Y604484D01*
X840659Y612209D01*
X840680Y612297D01*
X840708Y612384D01*
X840708Y612417D01*
X840715Y612448D01*
X840707Y612539D01*
X840706Y612630D01*
X840694Y612670D01*
X840692Y612693D01*
X840679Y612722D01*
X840659Y612791D01*
X837459Y620516D01*
X837459Y629484D01*
X840891Y637768D01*
X847232Y644109D01*
X855516Y647541D01*
X864484Y647541D01*
X872768Y644109D01*
X879109Y637768D01*
X882541Y629484D01*
X882541Y620516D01*
X879341Y612791D01*
X879320Y612703D01*
X879292Y612616D01*
X879292Y612583D01*
X879285Y612552D01*
X879293Y612461D01*
X879294Y612370D01*
X879306Y612330D01*
X879308Y612307D01*
X879321Y612278D01*
X879341Y612209D01*
X882541Y604484D01*
X882541Y595516D01*
X879341Y587791D01*
X879320Y587703D01*
X879292Y587616D01*
X879292Y587583D01*
X879285Y587552D01*
X879293Y587461D01*
X879294Y587370D01*
X879306Y587330D01*
X879308Y587307D01*
X879321Y587278D01*
X879341Y587209D01*
X882541Y579484D01*
X882541Y570516D01*
X879109Y562232D01*
X872768Y555891D01*
X864484Y552459D01*
X855516Y552459D01*
G37*
%LPD*%
%LPC*%
G36*
X821374Y647459D02*
X821374Y647459D01*
X814370Y649336D01*
X808090Y652962D01*
X802962Y658090D01*
X799336Y664370D01*
X797459Y671374D01*
X797459Y678626D01*
X799336Y685630D01*
X802962Y691910D01*
X808090Y697038D01*
X814370Y700664D01*
X821374Y702541D01*
X828626Y702541D01*
X835630Y700664D01*
X841910Y697038D01*
X847038Y691910D01*
X850664Y685630D01*
X852541Y678626D01*
X852541Y671374D01*
X850664Y664370D01*
X847038Y658090D01*
X841910Y652962D01*
X835630Y649336D01*
X828626Y647459D01*
X821374Y647459D01*
G37*
%LPD*%
%LPC*%
G36*
X301374Y647459D02*
X301374Y647459D01*
X294370Y649336D01*
X288090Y652962D01*
X282962Y658090D01*
X279336Y664370D01*
X277459Y671374D01*
X277459Y678626D01*
X279336Y685630D01*
X282962Y691910D01*
X288090Y697038D01*
X294370Y700664D01*
X301374Y702541D01*
X308626Y702541D01*
X315630Y700664D01*
X321910Y697038D01*
X327038Y691910D01*
X330664Y685630D01*
X332541Y678626D01*
X332541Y671374D01*
X330664Y664370D01*
X327038Y658090D01*
X321910Y652962D01*
X315630Y649336D01*
X308626Y647459D01*
X301374Y647459D01*
G37*
%LPD*%
%LPC*%
G36*
X351591Y695915D02*
X351591Y695915D01*
X348987Y696994D01*
X346994Y698987D01*
X345915Y701591D01*
X345915Y702058D01*
X345904Y702129D01*
X345902Y702201D01*
X345884Y702250D01*
X345876Y702301D01*
X345842Y702364D01*
X345817Y702432D01*
X345785Y702472D01*
X345760Y702518D01*
X345708Y702568D01*
X345664Y702624D01*
X345620Y702652D01*
X345582Y702688D01*
X345517Y702718D01*
X345457Y702757D01*
X345406Y702769D01*
X345359Y702791D01*
X345288Y702799D01*
X345218Y702817D01*
X345166Y702813D01*
X345115Y702818D01*
X345044Y702803D01*
X344973Y702798D01*
X344925Y702777D01*
X344874Y702766D01*
X344813Y702729D01*
X344747Y702701D01*
X344691Y702656D01*
X344663Y702640D01*
X344648Y702622D01*
X344616Y702596D01*
X343013Y700994D01*
X340409Y699915D01*
X337591Y699915D01*
X334987Y700994D01*
X332994Y702987D01*
X331915Y705591D01*
X331915Y708409D01*
X332994Y711013D01*
X333442Y711462D01*
X333495Y711536D01*
X333555Y711605D01*
X333567Y711635D01*
X333586Y711661D01*
X333613Y711748D01*
X333647Y711833D01*
X333651Y711874D01*
X333658Y711896D01*
X333657Y711929D01*
X333665Y712000D01*
X333665Y736000D01*
X333651Y736090D01*
X333643Y736181D01*
X333631Y736211D01*
X333626Y736243D01*
X333583Y736324D01*
X333547Y736407D01*
X333521Y736440D01*
X333510Y736460D01*
X333487Y736482D01*
X333442Y736538D01*
X332994Y736987D01*
X331915Y739591D01*
X331915Y742409D01*
X332994Y745013D01*
X334987Y747006D01*
X337591Y748085D01*
X340409Y748085D01*
X343013Y747006D01*
X344616Y745404D01*
X344674Y745362D01*
X344726Y745312D01*
X344773Y745290D01*
X344815Y745260D01*
X344884Y745239D01*
X344949Y745209D01*
X345001Y745203D01*
X345051Y745188D01*
X345122Y745190D01*
X345193Y745182D01*
X345244Y745193D01*
X345296Y745194D01*
X345364Y745219D01*
X345434Y745234D01*
X345479Y745261D01*
X345527Y745278D01*
X345583Y745323D01*
X345645Y745360D01*
X345679Y745400D01*
X345719Y745432D01*
X345758Y745492D01*
X345805Y745547D01*
X345824Y745595D01*
X345852Y745639D01*
X345870Y745709D01*
X345897Y745775D01*
X345905Y745846D01*
X345913Y745878D01*
X345911Y745901D01*
X345915Y745942D01*
X345915Y748909D01*
X346994Y751513D01*
X348987Y753506D01*
X351591Y754585D01*
X354409Y754585D01*
X357013Y753506D01*
X359006Y751513D01*
X360085Y748909D01*
X360085Y746091D01*
X359006Y743487D01*
X358558Y743038D01*
X358505Y742965D01*
X358466Y742924D01*
X358462Y742915D01*
X358445Y742895D01*
X358433Y742865D01*
X358414Y742839D01*
X358390Y742759D01*
X358363Y742701D01*
X358361Y742687D01*
X358353Y742667D01*
X358349Y742626D01*
X358342Y742604D01*
X358343Y742571D01*
X358335Y742500D01*
X358335Y708000D01*
X358349Y707910D01*
X358357Y707819D01*
X358369Y707789D01*
X358374Y707757D01*
X358417Y707676D01*
X358453Y707593D01*
X358479Y707560D01*
X358490Y707540D01*
X358513Y707518D01*
X358558Y707462D01*
X359006Y707013D01*
X360085Y704409D01*
X360085Y701591D01*
X359006Y698987D01*
X357013Y696994D01*
X354409Y695915D01*
X351591Y695915D01*
G37*
%LPD*%
%LPC*%
G36*
X513632Y886197D02*
X513632Y886197D01*
X511697Y888132D01*
X511697Y915868D01*
X513632Y917803D01*
X536368Y917803D01*
X538303Y915868D01*
X538303Y908096D01*
X538306Y908076D01*
X538304Y908057D01*
X538326Y907955D01*
X538342Y907853D01*
X538352Y907836D01*
X538356Y907816D01*
X538409Y907727D01*
X538458Y907636D01*
X538472Y907622D01*
X538482Y907605D01*
X538561Y907538D01*
X538636Y907466D01*
X538654Y907458D01*
X538669Y907445D01*
X538765Y907406D01*
X538859Y907363D01*
X538879Y907361D01*
X538897Y907353D01*
X539064Y907335D01*
X546000Y907335D01*
X546090Y907349D01*
X546181Y907357D01*
X546211Y907369D01*
X546243Y907374D01*
X546324Y907417D01*
X546407Y907453D01*
X546440Y907479D01*
X546460Y907490D01*
X546482Y907513D01*
X546538Y907558D01*
X546987Y908006D01*
X549591Y909085D01*
X552409Y909085D01*
X555013Y908006D01*
X557006Y906013D01*
X558085Y903409D01*
X558085Y900591D01*
X557006Y897987D01*
X555013Y895994D01*
X552409Y894915D01*
X549591Y894915D01*
X546987Y895994D01*
X546538Y896442D01*
X546464Y896495D01*
X546395Y896555D01*
X546365Y896567D01*
X546339Y896586D01*
X546252Y896613D01*
X546167Y896647D01*
X546126Y896651D01*
X546104Y896658D01*
X546071Y896657D01*
X546000Y896665D01*
X539064Y896665D01*
X539044Y896662D01*
X539025Y896664D01*
X538923Y896642D01*
X538821Y896626D01*
X538804Y896616D01*
X538784Y896612D01*
X538695Y896559D01*
X538604Y896510D01*
X538590Y896496D01*
X538573Y896486D01*
X538506Y896407D01*
X538434Y896332D01*
X538426Y896314D01*
X538413Y896299D01*
X538374Y896203D01*
X538331Y896109D01*
X538329Y896089D01*
X538321Y896071D01*
X538303Y895904D01*
X538303Y888132D01*
X536368Y886197D01*
X513632Y886197D01*
G37*
%LPD*%
%LPC*%
G36*
X551591Y706915D02*
X551591Y706915D01*
X548987Y707994D01*
X546994Y709987D01*
X545915Y712591D01*
X545915Y713225D01*
X545901Y713315D01*
X545893Y713406D01*
X545881Y713436D01*
X545876Y713468D01*
X545833Y713548D01*
X545797Y713632D01*
X545771Y713664D01*
X545760Y713685D01*
X545737Y713707D01*
X545692Y713763D01*
X545477Y713978D01*
X544665Y715939D01*
X544665Y721436D01*
X544662Y721456D01*
X544664Y721475D01*
X544642Y721577D01*
X544626Y721679D01*
X544616Y721696D01*
X544612Y721716D01*
X544559Y721805D01*
X544510Y721896D01*
X544496Y721910D01*
X544486Y721927D01*
X544407Y721994D01*
X544332Y722066D01*
X544314Y722074D01*
X544299Y722087D01*
X544203Y722126D01*
X544109Y722169D01*
X544089Y722171D01*
X544071Y722179D01*
X543904Y722197D01*
X538632Y722197D01*
X536697Y724132D01*
X536697Y751868D01*
X538632Y753803D01*
X561368Y753803D01*
X563303Y751868D01*
X563303Y724132D01*
X561368Y722197D01*
X556096Y722197D01*
X556076Y722194D01*
X556057Y722196D01*
X555955Y722174D01*
X555853Y722158D01*
X555836Y722148D01*
X555816Y722144D01*
X555727Y722091D01*
X555636Y722042D01*
X555622Y722028D01*
X555605Y722018D01*
X555538Y721939D01*
X555466Y721864D01*
X555458Y721846D01*
X555445Y721831D01*
X555406Y721735D01*
X555363Y721641D01*
X555361Y721621D01*
X555353Y721603D01*
X555335Y721436D01*
X555335Y721210D01*
X555354Y721095D01*
X555371Y720979D01*
X555373Y720973D01*
X555374Y720967D01*
X555429Y720865D01*
X555482Y720760D01*
X555487Y720755D01*
X555490Y720750D01*
X555574Y720670D01*
X555658Y720588D01*
X555664Y720584D01*
X555668Y720581D01*
X555685Y720573D01*
X555805Y720507D01*
X557013Y720006D01*
X559006Y718013D01*
X560085Y715409D01*
X560085Y712591D01*
X559006Y709987D01*
X557013Y707994D01*
X554409Y706915D01*
X551591Y706915D01*
G37*
%LPD*%
%LPC*%
G36*
X180129Y806489D02*
X180129Y806489D01*
X176488Y807997D01*
X173701Y810784D01*
X172193Y814425D01*
X172193Y831575D01*
X173701Y835216D01*
X176488Y838003D01*
X180129Y839511D01*
X184071Y839511D01*
X187712Y838003D01*
X190499Y835216D01*
X192007Y831575D01*
X192007Y814425D01*
X190499Y810784D01*
X187712Y807997D01*
X184071Y806489D01*
X180129Y806489D01*
G37*
%LPD*%
%LPC*%
G36*
X562029Y835489D02*
X562029Y835489D01*
X558388Y836997D01*
X555601Y839784D01*
X554093Y843425D01*
X554093Y860575D01*
X555601Y864216D01*
X558388Y867003D01*
X562029Y868511D01*
X565971Y868511D01*
X569612Y867003D01*
X572399Y864216D01*
X573907Y860575D01*
X573907Y843425D01*
X572399Y839784D01*
X569612Y836997D01*
X565971Y835489D01*
X562029Y835489D01*
G37*
%LPD*%
%LPC*%
G36*
X435029Y835489D02*
X435029Y835489D01*
X431388Y836997D01*
X428601Y839784D01*
X427093Y843425D01*
X427093Y860575D01*
X428601Y864216D01*
X431388Y867003D01*
X435029Y868511D01*
X438971Y868511D01*
X442612Y867003D01*
X445399Y864216D01*
X446907Y860575D01*
X446907Y843425D01*
X445399Y839784D01*
X442612Y836997D01*
X438971Y835489D01*
X435029Y835489D01*
G37*
%LPD*%
%LPC*%
G36*
X460429Y835489D02*
X460429Y835489D01*
X456788Y836997D01*
X454001Y839784D01*
X452493Y843425D01*
X452493Y860575D01*
X454001Y864216D01*
X456788Y867003D01*
X460429Y868511D01*
X464371Y868511D01*
X468012Y867003D01*
X470799Y864216D01*
X472307Y860575D01*
X472307Y843425D01*
X470799Y839784D01*
X468012Y836997D01*
X464371Y835489D01*
X460429Y835489D01*
G37*
%LPD*%
%LPC*%
G36*
X485829Y835489D02*
X485829Y835489D01*
X482188Y836997D01*
X479401Y839784D01*
X477893Y843425D01*
X477893Y860575D01*
X479401Y864216D01*
X482188Y867003D01*
X485829Y868511D01*
X489771Y868511D01*
X493412Y867003D01*
X496199Y864216D01*
X497707Y860575D01*
X497707Y843425D01*
X496199Y839784D01*
X493412Y836997D01*
X489771Y835489D01*
X485829Y835489D01*
G37*
%LPD*%
%LPC*%
G36*
X511229Y835489D02*
X511229Y835489D01*
X507588Y836997D01*
X504801Y839784D01*
X503293Y843425D01*
X503293Y860575D01*
X504801Y864216D01*
X507588Y867003D01*
X511229Y868511D01*
X515171Y868511D01*
X518812Y867003D01*
X521599Y864216D01*
X523107Y860575D01*
X523107Y843425D01*
X521599Y839784D01*
X518812Y836997D01*
X515171Y835489D01*
X511229Y835489D01*
G37*
%LPD*%
%LPC*%
G36*
X536629Y835489D02*
X536629Y835489D01*
X532988Y836997D01*
X530201Y839784D01*
X528693Y843425D01*
X528693Y860575D01*
X530201Y864216D01*
X532988Y867003D01*
X536629Y868511D01*
X540571Y868511D01*
X544212Y867003D01*
X546999Y864216D01*
X548507Y860575D01*
X548507Y843425D01*
X546999Y839784D01*
X544212Y836997D01*
X540571Y835489D01*
X536629Y835489D01*
G37*
%LPD*%
%LPC*%
G36*
X772879Y806489D02*
X772879Y806489D01*
X769238Y807997D01*
X766451Y810784D01*
X764943Y814425D01*
X764943Y831575D01*
X766451Y835216D01*
X769238Y838003D01*
X772879Y839511D01*
X776821Y839511D01*
X780462Y838003D01*
X783249Y835216D01*
X784757Y831575D01*
X784757Y814425D01*
X783249Y810784D01*
X780462Y807997D01*
X776821Y806489D01*
X772879Y806489D01*
G37*
%LPD*%
%LPC*%
G36*
X248879Y806489D02*
X248879Y806489D01*
X245238Y807997D01*
X242451Y810784D01*
X240943Y814425D01*
X240943Y831575D01*
X242451Y835216D01*
X245238Y838003D01*
X248879Y839511D01*
X252821Y839511D01*
X256462Y838003D01*
X259249Y835216D01*
X260757Y831575D01*
X260757Y814425D01*
X259249Y810784D01*
X256462Y807997D01*
X252821Y806489D01*
X248879Y806489D01*
G37*
%LPD*%
%LPC*%
G36*
X317629Y806489D02*
X317629Y806489D01*
X313988Y807997D01*
X311201Y810784D01*
X309693Y814425D01*
X309693Y831575D01*
X311201Y835216D01*
X313988Y838003D01*
X317629Y839511D01*
X321571Y839511D01*
X325212Y838003D01*
X327999Y835216D01*
X329507Y831575D01*
X329507Y814425D01*
X327999Y810784D01*
X325212Y807997D01*
X321571Y806489D01*
X317629Y806489D01*
G37*
%LPD*%
%LPC*%
G36*
X841629Y806489D02*
X841629Y806489D01*
X837988Y807997D01*
X835201Y810784D01*
X833693Y814425D01*
X833693Y831575D01*
X835201Y835216D01*
X837988Y838003D01*
X841629Y839511D01*
X845571Y839511D01*
X849212Y838003D01*
X851999Y835216D01*
X853507Y831575D01*
X853507Y814425D01*
X851999Y810784D01*
X849212Y807997D01*
X845571Y806489D01*
X841629Y806489D01*
G37*
%LPD*%
%LPC*%
G36*
X464091Y523915D02*
X464091Y523915D01*
X461487Y524994D01*
X459494Y526987D01*
X458415Y529591D01*
X458415Y532409D01*
X459494Y535013D01*
X461487Y537006D01*
X464091Y538085D01*
X466909Y538085D01*
X469513Y537006D01*
X469962Y536558D01*
X470036Y536505D01*
X470105Y536445D01*
X470135Y536433D01*
X470161Y536414D01*
X470248Y536387D01*
X470333Y536353D01*
X470374Y536349D01*
X470396Y536342D01*
X470429Y536343D01*
X470500Y536335D01*
X486500Y536335D01*
X486590Y536349D01*
X486681Y536357D01*
X486711Y536369D01*
X486743Y536374D01*
X486824Y536417D01*
X486907Y536453D01*
X486940Y536479D01*
X486960Y536490D01*
X486982Y536513D01*
X487038Y536558D01*
X487487Y537006D01*
X490091Y538085D01*
X492909Y538085D01*
X495513Y537006D01*
X497506Y535013D01*
X498585Y532409D01*
X498585Y529591D01*
X497506Y526987D01*
X495513Y524994D01*
X492909Y523915D01*
X490091Y523915D01*
X487487Y524994D01*
X487038Y525442D01*
X486964Y525495D01*
X486895Y525555D01*
X486865Y525567D01*
X486839Y525586D01*
X486752Y525613D01*
X486667Y525647D01*
X486626Y525651D01*
X486604Y525658D01*
X486571Y525657D01*
X486500Y525665D01*
X470500Y525665D01*
X470410Y525651D01*
X470319Y525643D01*
X470289Y525631D01*
X470257Y525626D01*
X470176Y525583D01*
X470093Y525547D01*
X470060Y525521D01*
X470040Y525510D01*
X470018Y525487D01*
X469962Y525442D01*
X469513Y524994D01*
X466909Y523915D01*
X464091Y523915D01*
G37*
%LPD*%
%LPC*%
G36*
X453023Y906823D02*
X453023Y906823D01*
X453023Y917841D01*
X464334Y917841D01*
X464981Y917668D01*
X465560Y917333D01*
X466033Y916860D01*
X466368Y916281D01*
X466541Y915634D01*
X466541Y906823D01*
X453023Y906823D01*
G37*
%LPD*%
%LPC*%
G36*
X453023Y727223D02*
X453023Y727223D01*
X453023Y738241D01*
X464334Y738241D01*
X464981Y738068D01*
X465560Y737733D01*
X466033Y737260D01*
X466368Y736681D01*
X466541Y736034D01*
X466541Y727223D01*
X453023Y727223D01*
G37*
%LPD*%
%LPC*%
G36*
X616523Y739523D02*
X616523Y739523D01*
X616523Y753041D01*
X625334Y753041D01*
X625981Y752868D01*
X626560Y752533D01*
X627033Y752060D01*
X627368Y751481D01*
X627541Y750834D01*
X627541Y739523D01*
X616523Y739523D01*
G37*
%LPD*%
%LPC*%
G36*
X436459Y906823D02*
X436459Y906823D01*
X436459Y915634D01*
X436632Y916281D01*
X436967Y916860D01*
X437440Y917333D01*
X438019Y917668D01*
X438666Y917841D01*
X449977Y917841D01*
X449977Y906823D01*
X436459Y906823D01*
G37*
%LPD*%
%LPC*%
G36*
X616523Y886959D02*
X616523Y886959D01*
X616523Y900477D01*
X627541Y900477D01*
X627541Y889166D01*
X627368Y888519D01*
X627033Y887940D01*
X626560Y887467D01*
X625981Y887132D01*
X625334Y886959D01*
X616523Y886959D01*
G37*
%LPD*%
%LPC*%
G36*
X436459Y727223D02*
X436459Y727223D01*
X436459Y736034D01*
X436632Y736681D01*
X436967Y737260D01*
X437440Y737733D01*
X438019Y738068D01*
X438666Y738241D01*
X449977Y738241D01*
X449977Y727223D01*
X436459Y727223D01*
G37*
%LPD*%
%LPC*%
G36*
X616523Y722959D02*
X616523Y722959D01*
X616523Y736477D01*
X627541Y736477D01*
X627541Y725166D01*
X627368Y724519D01*
X627033Y723940D01*
X626560Y723467D01*
X625981Y723132D01*
X625334Y722959D01*
X616523Y722959D01*
G37*
%LPD*%
%LPC*%
G36*
X602459Y903523D02*
X602459Y903523D01*
X602459Y914834D01*
X602632Y915481D01*
X602967Y916060D01*
X603440Y916533D01*
X604019Y916868D01*
X604666Y917041D01*
X613477Y917041D01*
X613477Y903523D01*
X602459Y903523D01*
G37*
%LPD*%
%LPC*%
G36*
X602459Y739523D02*
X602459Y739523D01*
X602459Y750834D01*
X602632Y751481D01*
X602967Y752060D01*
X603440Y752533D01*
X604019Y752868D01*
X604666Y753041D01*
X613477Y753041D01*
X613477Y739523D01*
X602459Y739523D01*
G37*
%LPD*%
%LPC*%
G36*
X453023Y892759D02*
X453023Y892759D01*
X453023Y903777D01*
X466541Y903777D01*
X466541Y894966D01*
X466368Y894319D01*
X466033Y893740D01*
X465560Y893267D01*
X464981Y892932D01*
X464334Y892759D01*
X453023Y892759D01*
G37*
%LPD*%
%LPC*%
G36*
X453023Y713159D02*
X453023Y713159D01*
X453023Y724177D01*
X466541Y724177D01*
X466541Y715366D01*
X466368Y714719D01*
X466033Y714140D01*
X465560Y713667D01*
X464981Y713332D01*
X464334Y713159D01*
X453023Y713159D01*
G37*
%LPD*%
%LPC*%
G36*
X438666Y892759D02*
X438666Y892759D01*
X438019Y892932D01*
X437440Y893267D01*
X436967Y893740D01*
X436632Y894319D01*
X436459Y894966D01*
X436459Y903777D01*
X449977Y903777D01*
X449977Y892759D01*
X438666Y892759D01*
G37*
%LPD*%
%LPC*%
G36*
X438666Y713159D02*
X438666Y713159D01*
X438019Y713332D01*
X437440Y713667D01*
X436967Y714140D01*
X436632Y714719D01*
X436459Y715366D01*
X436459Y724177D01*
X449977Y724177D01*
X449977Y713159D01*
X438666Y713159D01*
G37*
%LPD*%
%LPC*%
G36*
X604666Y886959D02*
X604666Y886959D01*
X604019Y887132D01*
X603440Y887467D01*
X602967Y887940D01*
X602632Y888519D01*
X602459Y889166D01*
X602459Y900477D01*
X613477Y900477D01*
X613477Y886959D01*
X604666Y886959D01*
G37*
%LPD*%
%LPC*%
G36*
X604666Y722959D02*
X604666Y722959D01*
X604019Y723132D01*
X603440Y723467D01*
X602967Y723940D01*
X602632Y724519D01*
X602459Y725166D01*
X602459Y736477D01*
X613477Y736477D01*
X613477Y722959D01*
X604666Y722959D01*
G37*
%LPD*%
%LPC*%
G36*
X281523Y753477D02*
X281523Y753477D01*
X293721Y753477D01*
X293451Y751771D01*
X292780Y749706D01*
X291795Y747772D01*
X290519Y746016D01*
X288984Y744481D01*
X287228Y743205D01*
X285294Y742220D01*
X283229Y741549D01*
X281523Y741279D01*
X281523Y753477D01*
G37*
%LPD*%
%LPC*%
G36*
X158223Y824523D02*
X158223Y824523D01*
X158223Y838625D01*
X159367Y838397D01*
X161032Y837708D01*
X162530Y836707D01*
X163803Y835434D01*
X164804Y833936D01*
X165493Y832271D01*
X165845Y830505D01*
X165845Y824523D01*
X158223Y824523D01*
G37*
%LPD*%
%LPC*%
G36*
X819723Y824523D02*
X819723Y824523D01*
X819723Y838625D01*
X820867Y838397D01*
X822532Y837708D01*
X824030Y836707D01*
X825303Y835434D01*
X826304Y833936D01*
X826993Y832271D01*
X827345Y830505D01*
X827345Y824523D01*
X819723Y824523D01*
G37*
%LPD*%
%LPC*%
G36*
X682223Y824523D02*
X682223Y824523D01*
X682223Y838625D01*
X683367Y838397D01*
X685032Y837708D01*
X686530Y836707D01*
X687803Y835434D01*
X688804Y833936D01*
X689493Y832271D01*
X689845Y830505D01*
X689845Y824523D01*
X682223Y824523D01*
G37*
%LPD*%
%LPC*%
G36*
X226973Y824523D02*
X226973Y824523D01*
X226973Y838625D01*
X228117Y838397D01*
X229782Y837708D01*
X231280Y836707D01*
X232553Y835434D01*
X233554Y833936D01*
X234243Y832271D01*
X234595Y830505D01*
X234595Y824523D01*
X226973Y824523D01*
G37*
%LPD*%
%LPC*%
G36*
X295723Y824523D02*
X295723Y824523D01*
X295723Y838625D01*
X296867Y838397D01*
X298532Y837708D01*
X300030Y836707D01*
X301303Y835434D01*
X302304Y833936D01*
X302993Y832271D01*
X303345Y830505D01*
X303345Y824523D01*
X295723Y824523D01*
G37*
%LPD*%
%LPC*%
G36*
X750973Y824523D02*
X750973Y824523D01*
X750973Y838625D01*
X752117Y838397D01*
X753782Y837708D01*
X755280Y836707D01*
X756553Y835434D01*
X757554Y833936D01*
X758243Y832271D01*
X758595Y830505D01*
X758595Y824523D01*
X750973Y824523D01*
G37*
%LPD*%
%LPC*%
G36*
X517323Y426523D02*
X517323Y426523D01*
X517323Y440625D01*
X518467Y440397D01*
X520132Y439708D01*
X521630Y438707D01*
X522903Y437434D01*
X523904Y435936D01*
X524593Y434271D01*
X524945Y432505D01*
X524945Y426523D01*
X517323Y426523D01*
G37*
%LPD*%
%LPC*%
G36*
X295723Y821477D02*
X295723Y821477D01*
X303345Y821477D01*
X303345Y815495D01*
X302993Y813729D01*
X302304Y812064D01*
X301303Y810566D01*
X300030Y809293D01*
X298532Y808292D01*
X296867Y807603D01*
X295723Y807375D01*
X295723Y821477D01*
G37*
%LPD*%
%LPC*%
G36*
X226973Y821477D02*
X226973Y821477D01*
X234595Y821477D01*
X234595Y815495D01*
X234243Y813729D01*
X233554Y812064D01*
X232553Y810566D01*
X231280Y809293D01*
X229782Y808292D01*
X228117Y807603D01*
X226973Y807375D01*
X226973Y821477D01*
G37*
%LPD*%
%LPC*%
G36*
X750973Y821477D02*
X750973Y821477D01*
X758595Y821477D01*
X758595Y815495D01*
X758243Y813729D01*
X757554Y812064D01*
X756553Y810566D01*
X755280Y809293D01*
X753782Y808292D01*
X752117Y807603D01*
X750973Y807375D01*
X750973Y821477D01*
G37*
%LPD*%
%LPC*%
G36*
X819723Y821477D02*
X819723Y821477D01*
X827345Y821477D01*
X827345Y815495D01*
X826993Y813729D01*
X826304Y812064D01*
X825303Y810566D01*
X824030Y809293D01*
X822532Y808292D01*
X820867Y807603D01*
X819723Y807375D01*
X819723Y821477D01*
G37*
%LPD*%
%LPC*%
G36*
X158223Y821477D02*
X158223Y821477D01*
X165845Y821477D01*
X165845Y815495D01*
X165493Y813729D01*
X164804Y812064D01*
X163803Y810566D01*
X162530Y809293D01*
X161032Y808292D01*
X159367Y807603D01*
X158223Y807375D01*
X158223Y821477D01*
G37*
%LPD*%
%LPC*%
G36*
X517323Y423477D02*
X517323Y423477D01*
X524945Y423477D01*
X524945Y417495D01*
X524593Y415729D01*
X523904Y414064D01*
X522903Y412566D01*
X521630Y411293D01*
X520132Y410292D01*
X518467Y409603D01*
X517323Y409375D01*
X517323Y423477D01*
G37*
%LPD*%
%LPC*%
G36*
X285055Y824523D02*
X285055Y824523D01*
X285055Y830505D01*
X285407Y832271D01*
X286096Y833936D01*
X287097Y835434D01*
X288370Y836707D01*
X289868Y837708D01*
X291533Y838397D01*
X292677Y838625D01*
X292677Y824523D01*
X285055Y824523D01*
G37*
%LPD*%
%LPC*%
G36*
X147555Y824523D02*
X147555Y824523D01*
X147555Y830505D01*
X147907Y832271D01*
X148596Y833936D01*
X149597Y835434D01*
X150870Y836707D01*
X152368Y837708D01*
X154033Y838397D01*
X155177Y838625D01*
X155177Y824523D01*
X147555Y824523D01*
G37*
%LPD*%
%LPC*%
G36*
X671555Y824523D02*
X671555Y824523D01*
X671555Y830505D01*
X671907Y832271D01*
X672596Y833936D01*
X673597Y835434D01*
X674870Y836707D01*
X676368Y837708D01*
X678033Y838397D01*
X679177Y838625D01*
X679177Y824523D01*
X671555Y824523D01*
G37*
%LPD*%
%LPC*%
G36*
X809055Y824523D02*
X809055Y824523D01*
X809055Y830505D01*
X809407Y832271D01*
X810096Y833936D01*
X811097Y835434D01*
X812370Y836707D01*
X813868Y837708D01*
X815533Y838397D01*
X816677Y838625D01*
X816677Y824523D01*
X809055Y824523D01*
G37*
%LPD*%
%LPC*%
G36*
X216305Y824523D02*
X216305Y824523D01*
X216305Y830505D01*
X216657Y832271D01*
X217346Y833936D01*
X218347Y835434D01*
X219620Y836707D01*
X221118Y837708D01*
X222783Y838397D01*
X223927Y838625D01*
X223927Y824523D01*
X216305Y824523D01*
G37*
%LPD*%
%LPC*%
G36*
X740305Y824523D02*
X740305Y824523D01*
X740305Y830505D01*
X740657Y832271D01*
X741346Y833936D01*
X742347Y835434D01*
X743620Y836707D01*
X745118Y837708D01*
X746783Y838397D01*
X747927Y838625D01*
X747927Y824523D01*
X740305Y824523D01*
G37*
%LPD*%
%LPC*%
G36*
X506655Y426523D02*
X506655Y426523D01*
X506655Y432505D01*
X507007Y434271D01*
X507696Y435936D01*
X508697Y437434D01*
X509970Y438707D01*
X511468Y439708D01*
X513133Y440397D01*
X514277Y440625D01*
X514277Y426523D01*
X506655Y426523D01*
G37*
%LPD*%
%LPC*%
G36*
X154033Y807603D02*
X154033Y807603D01*
X152368Y808292D01*
X150870Y809293D01*
X149597Y810566D01*
X148596Y812064D01*
X147907Y813729D01*
X147555Y815495D01*
X147555Y821477D01*
X155177Y821477D01*
X155177Y807375D01*
X154033Y807603D01*
G37*
%LPD*%
%LPC*%
G36*
X746783Y807603D02*
X746783Y807603D01*
X745118Y808292D01*
X743620Y809293D01*
X742347Y810566D01*
X741346Y812064D01*
X740657Y813729D01*
X740305Y815495D01*
X740305Y821477D01*
X747927Y821477D01*
X747927Y807375D01*
X746783Y807603D01*
G37*
%LPD*%
%LPC*%
G36*
X815533Y807603D02*
X815533Y807603D01*
X813868Y808292D01*
X812370Y809293D01*
X811097Y810566D01*
X810096Y812064D01*
X809407Y813729D01*
X809055Y815495D01*
X809055Y821477D01*
X816677Y821477D01*
X816677Y807375D01*
X815533Y807603D01*
G37*
%LPD*%
%LPC*%
G36*
X222783Y807603D02*
X222783Y807603D01*
X221118Y808292D01*
X219620Y809293D01*
X218347Y810566D01*
X217346Y812064D01*
X216657Y813729D01*
X216305Y815495D01*
X216305Y821477D01*
X223927Y821477D01*
X223927Y807375D01*
X222783Y807603D01*
G37*
%LPD*%
%LPC*%
G36*
X291533Y807603D02*
X291533Y807603D01*
X289868Y808292D01*
X288370Y809293D01*
X287097Y810566D01*
X286096Y812064D01*
X285407Y813729D01*
X285055Y815495D01*
X285055Y821477D01*
X292677Y821477D01*
X292677Y807375D01*
X291533Y807603D01*
G37*
%LPD*%
%LPC*%
G36*
X513133Y409603D02*
X513133Y409603D01*
X511468Y410292D01*
X509970Y411293D01*
X508697Y412566D01*
X507696Y414064D01*
X507007Y415729D01*
X506655Y417495D01*
X506655Y423477D01*
X514277Y423477D01*
X514277Y409375D01*
X513133Y409603D01*
G37*
%LPD*%
%LPC*%
G36*
X818199Y822999D02*
X818199Y822999D01*
X818199Y823001D01*
X818201Y823001D01*
X818201Y822999D01*
X818199Y822999D01*
G37*
%LPD*%
%LPC*%
G36*
X225449Y822999D02*
X225449Y822999D01*
X225449Y823001D01*
X225451Y823001D01*
X225451Y822999D01*
X225449Y822999D01*
G37*
%LPD*%
%LPC*%
G36*
X294199Y822999D02*
X294199Y822999D01*
X294199Y823001D01*
X294201Y823001D01*
X294201Y822999D01*
X294199Y822999D01*
G37*
%LPD*%
%LPC*%
G36*
X749449Y822999D02*
X749449Y822999D01*
X749449Y823001D01*
X749451Y823001D01*
X749451Y822999D01*
X749449Y822999D01*
G37*
%LPD*%
%LPC*%
G36*
X156699Y822999D02*
X156699Y822999D01*
X156699Y823001D01*
X156701Y823001D01*
X156701Y822999D01*
X156699Y822999D01*
G37*
%LPD*%
%LPC*%
G36*
X515799Y424999D02*
X515799Y424999D01*
X515799Y425001D01*
X515801Y425001D01*
X515801Y424999D01*
X515799Y424999D01*
G37*
%LPD*%
%LPC*%
G36*
X451499Y905299D02*
X451499Y905299D01*
X451499Y905301D01*
X451501Y905301D01*
X451501Y905299D01*
X451499Y905299D01*
G37*
%LPD*%
%LPC*%
G36*
X614999Y901999D02*
X614999Y901999D01*
X614999Y902001D01*
X615001Y902001D01*
X615001Y901999D01*
X614999Y901999D01*
G37*
%LPD*%
%LPC*%
G36*
X451499Y725699D02*
X451499Y725699D01*
X451499Y725701D01*
X451501Y725701D01*
X451501Y725699D01*
X451499Y725699D01*
G37*
%LPD*%
%LPC*%
G36*
X614999Y737999D02*
X614999Y737999D01*
X614999Y738001D01*
X615001Y738001D01*
X615001Y737999D01*
X614999Y737999D01*
G37*
%LPD*%
D10*
X515800Y431604D02*
X515800Y418396D01*
X490400Y418396D02*
X490400Y431604D01*
D11*
X280000Y755000D03*
X254600Y755000D03*
X229100Y755000D03*
X203800Y755000D03*
X178400Y755000D03*
X800000Y755000D03*
X774600Y755000D03*
X749100Y755000D03*
X723800Y755000D03*
X698400Y755000D03*
D12*
X456000Y633000D03*
X468700Y633000D03*
X481400Y633000D03*
X494100Y633000D03*
X506800Y633000D03*
X519500Y633000D03*
X532200Y633000D03*
X544900Y633000D03*
D10*
X294200Y816396D02*
X294200Y829604D01*
X319600Y829604D02*
X319600Y816396D01*
X225450Y816396D02*
X225450Y829604D01*
X250850Y829604D02*
X250850Y816396D01*
X156700Y816396D02*
X156700Y829604D01*
X182100Y829604D02*
X182100Y816396D01*
X680700Y816396D02*
X680700Y829604D01*
X706100Y829604D02*
X706100Y816396D01*
X749450Y816396D02*
X749450Y829604D01*
X774850Y829604D02*
X774850Y816396D01*
X818200Y816396D02*
X818200Y829604D01*
X843600Y829604D02*
X843600Y816396D01*
X437000Y845396D02*
X437000Y858604D01*
X462400Y858604D02*
X462400Y845396D01*
X487800Y845396D02*
X487800Y858604D01*
X513200Y858604D02*
X513200Y845396D01*
X538600Y845396D02*
X538600Y858604D01*
X564000Y858604D02*
X564000Y845396D01*
D13*
X525000Y902000D03*
X615000Y902000D03*
X550000Y738000D03*
X615000Y738000D03*
D14*
X451500Y725700D03*
X378500Y725700D03*
X378500Y905300D03*
X451500Y905300D03*
D15*
X417500Y462500D02*
X455000Y425000D01*
X490400Y425000D01*
X417500Y462500D02*
X417500Y641500D01*
D16*
X378500Y680500D02*
X378500Y725700D01*
X378500Y680500D02*
X417500Y641500D01*
X592500Y803500D02*
X592500Y805000D01*
D17*
X592500Y805000D03*
D16*
X255000Y777500D02*
X255000Y755400D01*
X254600Y755000D01*
X320625Y777500D02*
X382500Y839375D01*
X320625Y777500D02*
X255000Y777500D01*
X382500Y839375D02*
X409375Y812500D01*
X583500Y812500D01*
X592500Y803500D01*
X592500Y802500D01*
X378500Y843375D02*
X378500Y905300D01*
X378500Y843375D02*
X382500Y839375D01*
D18*
X550000Y738000D02*
X550000Y717000D01*
X553000Y714000D01*
D17*
X553000Y714000D03*
D18*
X456000Y692000D02*
X456000Y633000D01*
X456000Y692000D02*
X551000Y787000D01*
D17*
X551000Y787000D03*
X551000Y902000D03*
D18*
X525000Y902000D01*
D17*
X481250Y650000D03*
D18*
X481400Y649850D01*
X481400Y633000D01*
D17*
X481250Y613750D03*
D18*
X494100Y614100D01*
X494100Y633000D01*
X506800Y633000D02*
X506800Y614450D01*
X506875Y613750D01*
D17*
X506875Y613750D03*
X555000Y531875D03*
D18*
X519500Y625500D02*
X519500Y633000D01*
X547625Y531875D02*
X555000Y531875D01*
X534000Y611000D02*
X519500Y625500D01*
X534000Y611000D02*
X534000Y545500D01*
X547625Y531875D01*
X546875Y556875D02*
X554375Y556875D01*
D17*
X554375Y556875D03*
D18*
X532200Y625300D02*
X532200Y633000D01*
X532200Y625300D02*
X543000Y614500D01*
X543000Y560750D01*
X546875Y556875D01*
D17*
X494500Y650500D03*
D18*
X500500Y656500D01*
X500500Y702000D01*
D17*
X500500Y702000D03*
X353000Y747500D03*
D18*
X353000Y703000D01*
D17*
X353000Y703000D03*
X339000Y741000D03*
D18*
X339000Y707000D01*
D17*
X339000Y707000D03*
X491500Y531000D03*
D18*
X465500Y531000D01*
D17*
X465500Y531000D03*
X642000Y804000D03*
D18*
X642000Y732000D01*
X655500Y718500D01*
X655500Y662000D01*
D17*
X655500Y662000D03*
X608500Y650000D03*
D18*
X600500Y642000D01*
X600500Y601500D01*
D17*
X600500Y601500D03*
X465500Y598000D03*
X521000Y604500D03*
D18*
X514500Y598000D01*
X465500Y598000D01*
X727500Y804000D02*
X747500Y784000D01*
X817500Y784000D01*
X817500Y722000D01*
X695000Y599500D01*
X614500Y599500D01*
X603000Y588000D01*
X603000Y506500D01*
D17*
X603000Y506500D03*
X657500Y804000D03*
D18*
X727500Y804000D01*
M02*
