G04 EAGLE Gerber X2 export*
%TF.Part,Single*%
%TF.FileFunction,Copper,L1,Top,Mixed*%
%TF.FilePolarity,Positive*%
%TF.GenerationSoftware,Autodesk,EAGLE,9.0.1*%
%TF.CreationDate,2018-06-02T06:47:05Z*%
G75*
%MOMM*%
%FSLAX34Y34*%
%LPD*%
%AMOC8*
5,1,8,0,0,1.08239X$1,22.5*%
G01*
%ADD10C,1.320800*%
%ADD11C,2.250000*%
%ADD12R,1.270000X2.540000*%
%ADD13R,2.540000X1.270000*%
%ADD14R,1.270000X1.270000*%
%ADD15R,1.600000X1.803000*%
%ADD16C,0.406400*%
%ADD17C,0.756400*%
%ADD18C,0.812800*%

G36*
X804390Y196396D02*
X804390Y196396D01*
X804423Y196402D01*
X804510Y196408D01*
X826734Y200421D01*
X826765Y200432D01*
X826850Y200451D01*
X848171Y207901D01*
X848197Y207915D01*
X848254Y207935D01*
X857231Y212320D01*
X857277Y212352D01*
X857328Y212376D01*
X857377Y212423D01*
X857432Y212462D01*
X857465Y212508D01*
X857506Y212547D01*
X857559Y212636D01*
X857577Y212661D01*
X857581Y212673D01*
X857591Y212691D01*
X868072Y235929D01*
X868076Y235943D01*
X868086Y235963D01*
X887805Y285990D01*
X887809Y286008D01*
X887821Y286036D01*
X904283Y337227D01*
X904286Y337245D01*
X904297Y337274D01*
X917434Y389417D01*
X917435Y389435D01*
X917444Y389464D01*
X927202Y442344D01*
X927203Y442363D01*
X927210Y442393D01*
X933548Y495790D01*
X933548Y495809D01*
X933553Y495839D01*
X936446Y549534D01*
X936444Y549552D01*
X936447Y549583D01*
X935883Y603352D01*
X935880Y603370D01*
X935881Y603401D01*
X931861Y657023D01*
X931857Y657041D01*
X931856Y657072D01*
X924398Y710325D01*
X924392Y710342D01*
X924390Y710373D01*
X913524Y763036D01*
X913519Y763049D01*
X913515Y763072D01*
X906851Y788986D01*
X906840Y789012D01*
X906826Y789065D01*
X903522Y797834D01*
X903507Y797859D01*
X903486Y797914D01*
X894819Y814713D01*
X894800Y814739D01*
X894757Y814813D01*
X883608Y830077D01*
X883585Y830100D01*
X883532Y830166D01*
X870166Y843532D01*
X870139Y843551D01*
X870077Y843608D01*
X854813Y854757D01*
X854783Y854772D01*
X854713Y854819D01*
X837914Y863486D01*
X837886Y863495D01*
X837834Y863522D01*
X830410Y866319D01*
X830370Y866327D01*
X828905Y866883D01*
X828894Y866885D01*
X828876Y866893D01*
X827538Y867339D01*
X827500Y867374D01*
X827451Y867398D01*
X827427Y867415D01*
X827400Y867423D01*
X827350Y867448D01*
X802502Y876446D01*
X802489Y876448D01*
X802470Y876457D01*
X749035Y893110D01*
X749018Y893112D01*
X748991Y893122D01*
X694648Y906519D01*
X694631Y906520D01*
X694603Y906528D01*
X639551Y916619D01*
X639533Y916619D01*
X639505Y916625D01*
X583944Y923373D01*
X583927Y923372D01*
X583898Y923377D01*
X528031Y926757D01*
X528013Y926755D01*
X527985Y926758D01*
X472015Y926758D01*
X471998Y926755D01*
X471969Y926757D01*
X416102Y923377D01*
X416085Y923373D01*
X416056Y923373D01*
X360495Y916625D01*
X360478Y916621D01*
X360449Y916619D01*
X305397Y906528D01*
X305380Y906522D01*
X305352Y906519D01*
X251009Y893122D01*
X250993Y893116D01*
X250965Y893110D01*
X197530Y876457D01*
X197518Y876451D01*
X197498Y876446D01*
X172650Y867448D01*
X172579Y867408D01*
X172504Y867376D01*
X172472Y867348D01*
X172448Y867335D01*
X171124Y866893D01*
X171113Y866888D01*
X171095Y866883D01*
X169648Y866334D01*
X169590Y866319D01*
X162166Y863522D01*
X162141Y863507D01*
X162086Y863486D01*
X145287Y854819D01*
X145261Y854800D01*
X145187Y854757D01*
X129923Y843608D01*
X129906Y843591D01*
X129900Y843588D01*
X129897Y843585D01*
X129881Y843575D01*
X129866Y843558D01*
X129834Y843532D01*
X116468Y830166D01*
X116449Y830139D01*
X116392Y830077D01*
X105243Y814813D01*
X105228Y814783D01*
X105181Y814713D01*
X96514Y797914D01*
X96505Y797886D01*
X96478Y797834D01*
X93174Y789065D01*
X93168Y789037D01*
X93149Y788986D01*
X86490Y763072D01*
X86489Y763058D01*
X86482Y763036D01*
X75625Y710372D01*
X75624Y710354D01*
X75616Y710324D01*
X68165Y657071D01*
X68165Y657053D01*
X68160Y657023D01*
X64145Y603401D01*
X64147Y603383D01*
X64143Y603352D01*
X63582Y549584D01*
X63585Y549566D01*
X63583Y549535D01*
X66477Y495842D01*
X66481Y495823D01*
X66481Y495815D01*
X66481Y495812D01*
X66481Y495810D01*
X66481Y495793D01*
X72819Y442396D01*
X72824Y442378D01*
X72826Y442348D01*
X82581Y389469D01*
X82588Y389451D01*
X82592Y389421D01*
X95724Y337278D01*
X95731Y337261D01*
X95738Y337231D01*
X112193Y286039D01*
X112201Y286023D01*
X112209Y285993D01*
X131919Y235964D01*
X131926Y235952D01*
X131933Y235930D01*
X142409Y212691D01*
X142440Y212644D01*
X142463Y212592D01*
X142508Y212542D01*
X142545Y212486D01*
X142590Y212451D01*
X142627Y212409D01*
X142715Y212354D01*
X142739Y212335D01*
X142752Y212331D01*
X142769Y212320D01*
X151746Y207935D01*
X151775Y207927D01*
X151829Y207901D01*
X173150Y200451D01*
X173182Y200445D01*
X173265Y200421D01*
X195490Y196408D01*
X195523Y196407D01*
X195610Y196396D01*
X218189Y195919D01*
X218222Y195924D01*
X218309Y195926D01*
X240683Y198997D01*
X240715Y199007D01*
X240800Y199023D01*
X262416Y205566D01*
X262446Y205580D01*
X262527Y205609D01*
X282849Y215462D01*
X282876Y215481D01*
X282953Y215523D01*
X301477Y228442D01*
X301501Y228465D01*
X301570Y228518D01*
X317838Y244183D01*
X317858Y244209D01*
X317917Y244272D01*
X331527Y262295D01*
X331543Y262325D01*
X331592Y262396D01*
X342205Y282331D01*
X342216Y282362D01*
X342253Y282441D01*
X349609Y303794D01*
X349611Y303806D01*
X349613Y303811D01*
X349615Y303830D01*
X349639Y303910D01*
X353553Y326153D01*
X353553Y326183D01*
X353563Y326242D01*
X354197Y337525D01*
X354195Y337537D01*
X354198Y337555D01*
X354221Y338923D01*
X354273Y338973D01*
X354315Y339031D01*
X354365Y339081D01*
X354388Y339128D01*
X354420Y339171D01*
X354442Y339238D01*
X354473Y339302D01*
X354486Y339374D01*
X354496Y339405D01*
X354496Y339428D01*
X354503Y339467D01*
X354778Y343384D01*
X359369Y359072D01*
X367195Y373423D01*
X377897Y385778D01*
X390984Y395571D01*
X405856Y402353D01*
X421831Y405813D01*
X430003Y405803D01*
X430004Y405803D01*
X570018Y405803D01*
X570019Y405803D01*
X578353Y405805D01*
X580707Y405281D01*
X584124Y404520D01*
X584125Y404520D01*
X587542Y403759D01*
X590959Y402997D01*
X590960Y402997D01*
X594377Y402236D01*
X594662Y402173D01*
X609789Y395076D01*
X623008Y384857D01*
X633685Y372004D01*
X641308Y357136D01*
X645510Y340964D01*
X645564Y339428D01*
X645580Y339346D01*
X645588Y339261D01*
X645604Y339226D01*
X645612Y339187D01*
X645654Y339114D01*
X645688Y339037D01*
X645721Y338998D01*
X645734Y338974D01*
X645757Y338954D01*
X645779Y338927D01*
X645802Y337555D01*
X645804Y337544D01*
X645803Y337525D01*
X646437Y326242D01*
X646443Y326213D01*
X646447Y326153D01*
X650361Y303910D01*
X650372Y303879D01*
X650391Y303794D01*
X657747Y282441D01*
X657752Y282431D01*
X657754Y282422D01*
X657767Y282400D01*
X657795Y282331D01*
X668408Y262396D01*
X668428Y262370D01*
X668473Y262295D01*
X682083Y244272D01*
X682106Y244250D01*
X682162Y244183D01*
X698430Y228518D01*
X698458Y228499D01*
X698523Y228442D01*
X717047Y215523D01*
X717077Y215509D01*
X717151Y215462D01*
X737473Y205609D01*
X737504Y205600D01*
X737584Y205566D01*
X759200Y199023D01*
X759233Y199018D01*
X759317Y198997D01*
X781691Y195926D01*
X781724Y195927D01*
X781811Y195919D01*
X804390Y196396D01*
G37*
%LPC*%
G36*
X473852Y454682D02*
X473852Y454682D01*
X471917Y456617D01*
X471917Y477383D01*
X473852Y479318D01*
X476800Y479318D01*
X476871Y479329D01*
X476942Y479331D01*
X476991Y479349D01*
X477043Y479357D01*
X477106Y479391D01*
X477173Y479416D01*
X477214Y479448D01*
X477260Y479473D01*
X477309Y479525D01*
X477365Y479569D01*
X477394Y479613D01*
X477430Y479651D01*
X477460Y479716D01*
X477498Y479776D01*
X477511Y479827D01*
X477533Y479874D01*
X477541Y479945D01*
X477559Y480015D01*
X477554Y480067D01*
X477560Y480118D01*
X477545Y480189D01*
X477539Y480260D01*
X477519Y480308D01*
X477508Y480359D01*
X477471Y480420D01*
X477443Y480486D01*
X477398Y480542D01*
X477382Y480570D01*
X477364Y480585D01*
X477338Y480617D01*
X472085Y485870D01*
X470477Y487478D01*
X469665Y489439D01*
X469665Y523918D01*
X469658Y523963D01*
X469660Y524009D01*
X469638Y524084D01*
X469626Y524160D01*
X469604Y524201D01*
X469591Y524245D01*
X469547Y524309D01*
X469510Y524378D01*
X469477Y524409D01*
X469451Y524447D01*
X469389Y524493D01*
X469332Y524547D01*
X469290Y524566D01*
X469254Y524594D01*
X469180Y524618D01*
X469109Y524651D01*
X469063Y524656D01*
X469020Y524670D01*
X468942Y524669D01*
X468865Y524678D01*
X468820Y524668D01*
X468774Y524668D01*
X468642Y524630D01*
X468624Y524626D01*
X468620Y524623D01*
X468613Y524621D01*
X466909Y523915D01*
X464091Y523915D01*
X461487Y524994D01*
X461038Y525442D01*
X460964Y525495D01*
X460895Y525555D01*
X460865Y525567D01*
X460839Y525586D01*
X460752Y525613D01*
X460667Y525647D01*
X460626Y525651D01*
X460604Y525658D01*
X460571Y525657D01*
X460500Y525665D01*
X440964Y525665D01*
X440944Y525662D01*
X440925Y525664D01*
X440823Y525642D01*
X440721Y525626D01*
X440704Y525616D01*
X440684Y525612D01*
X440595Y525559D01*
X440504Y525510D01*
X440490Y525496D01*
X440473Y525486D01*
X440406Y525407D01*
X440334Y525332D01*
X440326Y525314D01*
X440313Y525299D01*
X440274Y525203D01*
X440231Y525109D01*
X440229Y525089D01*
X440221Y525071D01*
X440203Y524904D01*
X440203Y524282D01*
X438268Y522347D01*
X410132Y522347D01*
X408197Y524282D01*
X408197Y534815D01*
X408186Y534886D01*
X408184Y534957D01*
X408166Y535006D01*
X408158Y535058D01*
X408124Y535121D01*
X408099Y535188D01*
X408067Y535229D01*
X408042Y535275D01*
X407990Y535324D01*
X407946Y535380D01*
X407902Y535409D01*
X407864Y535445D01*
X407799Y535475D01*
X407739Y535513D01*
X407688Y535526D01*
X407641Y535548D01*
X407570Y535556D01*
X407500Y535574D01*
X407448Y535569D01*
X407397Y535575D01*
X407326Y535560D01*
X407255Y535554D01*
X407207Y535534D01*
X407156Y535523D01*
X407095Y535486D01*
X407029Y535458D01*
X406973Y535413D01*
X406945Y535397D01*
X406930Y535379D01*
X406898Y535353D01*
X402058Y530513D01*
X402005Y530439D01*
X401945Y530370D01*
X401933Y530340D01*
X401914Y530313D01*
X401887Y530226D01*
X401853Y530142D01*
X401849Y530101D01*
X401842Y530078D01*
X401843Y530046D01*
X401835Y529975D01*
X401835Y523025D01*
X401849Y522935D01*
X401857Y522844D01*
X401869Y522814D01*
X401874Y522782D01*
X401917Y522702D01*
X401953Y522618D01*
X401979Y522586D01*
X401990Y522565D01*
X402013Y522543D01*
X402058Y522487D01*
X408674Y515871D01*
X408690Y515859D01*
X408702Y515844D01*
X408790Y515788D01*
X408873Y515727D01*
X408892Y515722D01*
X408909Y515711D01*
X409010Y515685D01*
X409108Y515655D01*
X409128Y515656D01*
X409148Y515651D01*
X409251Y515659D01*
X409354Y515661D01*
X409373Y515668D01*
X409393Y515670D01*
X409488Y515710D01*
X409585Y515746D01*
X409601Y515758D01*
X409619Y515766D01*
X409750Y515871D01*
X410132Y516253D01*
X438268Y516253D01*
X440203Y514318D01*
X440203Y498882D01*
X438268Y496947D01*
X410132Y496947D01*
X408197Y498882D01*
X408197Y501229D01*
X408178Y501344D01*
X408161Y501460D01*
X408159Y501466D01*
X408158Y501472D01*
X408103Y501575D01*
X408050Y501680D01*
X408045Y501684D01*
X408042Y501690D01*
X407958Y501769D01*
X407874Y501852D01*
X407868Y501856D01*
X407864Y501859D01*
X407847Y501867D01*
X407727Y501933D01*
X407378Y502077D01*
X405770Y503685D01*
X393585Y515870D01*
X391977Y517478D01*
X391165Y519439D01*
X391165Y533561D01*
X391977Y535522D01*
X405478Y549023D01*
X407441Y549836D01*
X407456Y549838D01*
X407475Y549836D01*
X407577Y549858D01*
X407679Y549874D01*
X407696Y549884D01*
X407716Y549888D01*
X407805Y549941D01*
X407896Y549990D01*
X407910Y550004D01*
X407927Y550014D01*
X407994Y550093D01*
X408066Y550168D01*
X408074Y550186D01*
X408087Y550201D01*
X408126Y550297D01*
X408169Y550391D01*
X408171Y550411D01*
X408179Y550429D01*
X408197Y550596D01*
X408197Y551304D01*
X408194Y551324D01*
X408196Y551343D01*
X408174Y551445D01*
X408158Y551547D01*
X408148Y551564D01*
X408144Y551584D01*
X408091Y551673D01*
X408042Y551764D01*
X408028Y551778D01*
X408018Y551795D01*
X407939Y551862D01*
X407864Y551934D01*
X407846Y551942D01*
X407831Y551955D01*
X407735Y551994D01*
X407641Y552037D01*
X407621Y552039D01*
X407603Y552047D01*
X407436Y552065D01*
X402925Y552065D01*
X402835Y552051D01*
X402744Y552043D01*
X402714Y552031D01*
X402682Y552026D01*
X402602Y551983D01*
X402518Y551947D01*
X402486Y551921D01*
X402465Y551910D01*
X402443Y551887D01*
X402387Y551842D01*
X388522Y537977D01*
X386561Y537165D01*
X335018Y537165D01*
X335016Y537165D01*
X335014Y537165D01*
X333956Y537158D01*
X332977Y537564D01*
X332975Y537564D01*
X332972Y537566D01*
X331991Y537965D01*
X331243Y538712D01*
X331242Y538714D01*
X331240Y538716D01*
X329774Y540163D01*
X329756Y540175D01*
X329742Y540192D01*
X329656Y540246D01*
X329573Y540305D01*
X329552Y540311D01*
X329534Y540323D01*
X329435Y540347D01*
X329337Y540376D01*
X329316Y540375D01*
X329295Y540380D01*
X329193Y540371D01*
X329091Y540368D01*
X329071Y540360D01*
X329050Y540359D01*
X328957Y540318D01*
X328861Y540282D01*
X328844Y540268D01*
X328824Y540260D01*
X328749Y540191D01*
X328670Y540127D01*
X328658Y540109D01*
X328642Y540094D01*
X328593Y540005D01*
X328538Y539919D01*
X328533Y539898D01*
X328523Y539880D01*
X328504Y539780D01*
X328480Y539680D01*
X328482Y539659D01*
X328478Y539638D01*
X328492Y539537D01*
X328501Y539435D01*
X328509Y539416D01*
X328512Y539394D01*
X328580Y539241D01*
X330664Y535630D01*
X332541Y528626D01*
X332541Y521374D01*
X330664Y514370D01*
X327038Y508090D01*
X321910Y502962D01*
X315630Y499336D01*
X308626Y497459D01*
X301374Y497459D01*
X294370Y499336D01*
X288683Y502620D01*
X288594Y502653D01*
X288507Y502693D01*
X288479Y502697D01*
X288453Y502707D01*
X288357Y502710D01*
X288263Y502721D01*
X288235Y502715D01*
X288207Y502716D01*
X288115Y502688D01*
X288022Y502668D01*
X287998Y502654D01*
X287971Y502646D01*
X287893Y502591D01*
X287811Y502542D01*
X287793Y502521D01*
X287770Y502504D01*
X287713Y502428D01*
X287651Y502355D01*
X287641Y502329D01*
X287624Y502306D01*
X287595Y502216D01*
X287559Y502127D01*
X287555Y502092D01*
X287549Y502072D01*
X287549Y502039D01*
X287541Y501960D01*
X287541Y500516D01*
X284109Y492232D01*
X277768Y485891D01*
X269484Y482459D01*
X260516Y482459D01*
X252791Y485659D01*
X252703Y485680D01*
X252616Y485708D01*
X252583Y485708D01*
X252552Y485715D01*
X252461Y485707D01*
X252370Y485706D01*
X252330Y485694D01*
X252307Y485692D01*
X252278Y485679D01*
X252209Y485659D01*
X244484Y482459D01*
X235516Y482459D01*
X227791Y485659D01*
X227703Y485680D01*
X227616Y485708D01*
X227583Y485708D01*
X227552Y485715D01*
X227461Y485707D01*
X227370Y485706D01*
X227330Y485694D01*
X227307Y485692D01*
X227278Y485679D01*
X227209Y485659D01*
X219484Y482459D01*
X210516Y482459D01*
X202232Y485891D01*
X195891Y492232D01*
X192459Y500516D01*
X192459Y501960D01*
X192457Y501972D01*
X192458Y501981D01*
X192449Y502024D01*
X192444Y502054D01*
X192435Y502149D01*
X192424Y502175D01*
X192420Y502203D01*
X192375Y502287D01*
X192337Y502375D01*
X192318Y502396D01*
X192304Y502420D01*
X192235Y502486D01*
X192171Y502557D01*
X192147Y502570D01*
X192126Y502590D01*
X192040Y502630D01*
X191956Y502676D01*
X191929Y502682D01*
X191903Y502693D01*
X191808Y502704D01*
X191715Y502721D01*
X191687Y502717D01*
X191659Y502721D01*
X191565Y502700D01*
X191471Y502687D01*
X191439Y502673D01*
X191418Y502668D01*
X191390Y502651D01*
X191317Y502620D01*
X185630Y499336D01*
X178626Y497459D01*
X171374Y497459D01*
X164370Y499336D01*
X158090Y502962D01*
X152962Y508090D01*
X149336Y514370D01*
X147459Y521374D01*
X147459Y528626D01*
X149336Y535630D01*
X152962Y541910D01*
X157211Y546160D01*
X157253Y546218D01*
X157302Y546270D01*
X157324Y546317D01*
X157355Y546359D01*
X157376Y546428D01*
X157406Y546493D01*
X157412Y546545D01*
X157427Y546595D01*
X157425Y546666D01*
X157433Y546737D01*
X157422Y546788D01*
X157421Y546840D01*
X157396Y546908D01*
X157381Y546978D01*
X157354Y547023D01*
X157336Y547071D01*
X157291Y547127D01*
X157255Y547189D01*
X157215Y547223D01*
X157183Y547263D01*
X157122Y547302D01*
X157068Y547349D01*
X157020Y547368D01*
X156976Y547396D01*
X156906Y547414D01*
X156840Y547441D01*
X156768Y547449D01*
X156737Y547457D01*
X156714Y547455D01*
X156673Y547459D01*
X155516Y547459D01*
X147232Y550891D01*
X140891Y557232D01*
X138203Y563720D01*
X138165Y563781D01*
X138136Y563847D01*
X138101Y563885D01*
X138074Y563929D01*
X138018Y563975D01*
X137970Y564028D01*
X137924Y564053D01*
X137884Y564086D01*
X137817Y564112D01*
X137754Y564146D01*
X137703Y564156D01*
X137655Y564174D01*
X137583Y564177D01*
X137512Y564190D01*
X137461Y564182D01*
X137409Y564185D01*
X137340Y564165D01*
X137269Y564154D01*
X137223Y564131D01*
X137173Y564116D01*
X137114Y564075D01*
X137050Y564043D01*
X137013Y564005D01*
X136971Y563976D01*
X136928Y563918D01*
X136878Y563867D01*
X136843Y563804D01*
X136824Y563778D01*
X136817Y563756D01*
X136797Y563720D01*
X134109Y557232D01*
X127768Y550891D01*
X119484Y547459D01*
X110516Y547459D01*
X102232Y550891D01*
X95891Y557232D01*
X92459Y565516D01*
X92459Y574484D01*
X95891Y582768D01*
X102232Y589109D01*
X110516Y592541D01*
X119484Y592541D01*
X127768Y589109D01*
X134109Y582768D01*
X136797Y576280D01*
X136834Y576219D01*
X136864Y576153D01*
X136899Y576115D01*
X136926Y576071D01*
X136981Y576025D01*
X137030Y575972D01*
X137076Y575947D01*
X137116Y575914D01*
X137183Y575888D01*
X137246Y575854D01*
X137297Y575844D01*
X137345Y575826D01*
X137417Y575823D01*
X137488Y575810D01*
X137539Y575818D01*
X137591Y575815D01*
X137660Y575835D01*
X137731Y575846D01*
X137777Y575869D01*
X137827Y575884D01*
X137886Y575925D01*
X137950Y575957D01*
X137987Y575995D01*
X138029Y576024D01*
X138072Y576082D01*
X138122Y576133D01*
X138157Y576196D01*
X138176Y576222D01*
X138183Y576244D01*
X138203Y576280D01*
X140891Y582768D01*
X147232Y589109D01*
X155516Y592541D01*
X164484Y592541D01*
X172768Y589109D01*
X179109Y582768D01*
X182541Y574484D01*
X182541Y565516D01*
X179109Y557232D01*
X175718Y553840D01*
X175676Y553782D01*
X175626Y553730D01*
X175605Y553683D01*
X175574Y553641D01*
X175553Y553572D01*
X175523Y553507D01*
X175517Y553455D01*
X175502Y553405D01*
X175504Y553334D01*
X175496Y553263D01*
X175507Y553212D01*
X175508Y553160D01*
X175533Y553092D01*
X175548Y553022D01*
X175575Y552977D01*
X175593Y552929D01*
X175637Y552873D01*
X175674Y552811D01*
X175714Y552777D01*
X175746Y552737D01*
X175807Y552698D01*
X175861Y552651D01*
X175909Y552632D01*
X175953Y552604D01*
X176023Y552586D01*
X176089Y552559D01*
X176161Y552551D01*
X176192Y552543D01*
X176215Y552545D01*
X176256Y552541D01*
X178626Y552541D01*
X185630Y550664D01*
X191910Y547038D01*
X197038Y541910D01*
X200664Y535630D01*
X202541Y528626D01*
X202541Y525376D01*
X202548Y525331D01*
X202546Y525285D01*
X202568Y525210D01*
X202580Y525134D01*
X202602Y525093D01*
X202615Y525049D01*
X202659Y524985D01*
X202696Y524916D01*
X202729Y524885D01*
X202755Y524847D01*
X202818Y524800D01*
X202874Y524747D01*
X202916Y524728D01*
X202952Y524700D01*
X203026Y524676D01*
X203097Y524643D01*
X203143Y524638D01*
X203186Y524624D01*
X203264Y524625D01*
X203341Y524616D01*
X203386Y524626D01*
X203432Y524626D01*
X203564Y524664D01*
X203582Y524668D01*
X203586Y524671D01*
X203593Y524673D01*
X210516Y527541D01*
X219484Y527541D01*
X227209Y524341D01*
X227297Y524320D01*
X227384Y524292D01*
X227417Y524292D01*
X227448Y524285D01*
X227539Y524293D01*
X227630Y524294D01*
X227670Y524306D01*
X227693Y524308D01*
X227722Y524321D01*
X227791Y524341D01*
X235516Y527541D01*
X244484Y527541D01*
X252209Y524341D01*
X252297Y524320D01*
X252384Y524292D01*
X252417Y524292D01*
X252448Y524285D01*
X252539Y524293D01*
X252630Y524294D01*
X252670Y524306D01*
X252693Y524308D01*
X252722Y524321D01*
X252791Y524341D01*
X260516Y527541D01*
X269484Y527541D01*
X276407Y524673D01*
X276451Y524663D01*
X276493Y524643D01*
X276570Y524635D01*
X276646Y524617D01*
X276692Y524621D01*
X276737Y524616D01*
X276814Y524633D01*
X276891Y524640D01*
X276933Y524659D01*
X276978Y524668D01*
X277045Y524708D01*
X277116Y524740D01*
X277150Y524771D01*
X277189Y524795D01*
X277240Y524854D01*
X277297Y524906D01*
X277319Y524947D01*
X277349Y524982D01*
X277378Y525054D01*
X277415Y525122D01*
X277424Y525167D01*
X277441Y525210D01*
X277456Y525346D01*
X277459Y525364D01*
X277458Y525369D01*
X277459Y525376D01*
X277459Y528626D01*
X279336Y535630D01*
X282962Y541910D01*
X288090Y547038D01*
X294370Y550664D01*
X301374Y552541D01*
X308626Y552541D01*
X315630Y550664D01*
X318936Y548756D01*
X318960Y548746D01*
X318982Y548731D01*
X319075Y548703D01*
X319166Y548669D01*
X319192Y548668D01*
X319218Y548660D01*
X319315Y548663D01*
X319412Y548660D01*
X319437Y548667D01*
X319464Y548668D01*
X319554Y548702D01*
X319647Y548729D01*
X319669Y548745D01*
X319694Y548754D01*
X319769Y548815D01*
X319849Y548871D01*
X319864Y548892D01*
X319885Y548909D01*
X319937Y548991D01*
X319994Y549069D01*
X320002Y549094D01*
X320017Y549117D01*
X320040Y549211D01*
X320069Y549303D01*
X320069Y549330D01*
X320075Y549356D01*
X320067Y549452D01*
X320066Y549549D01*
X320057Y549574D01*
X320055Y549601D01*
X320016Y549690D01*
X319984Y549781D01*
X319967Y549802D01*
X319957Y549826D01*
X319851Y549957D01*
X255101Y613866D01*
X255062Y613893D01*
X254240Y614715D01*
X254239Y614716D01*
X254237Y614719D01*
X253484Y615461D01*
X253078Y616441D01*
X253077Y616443D01*
X253077Y616446D01*
X252665Y617421D01*
X252665Y618481D01*
X252665Y618484D01*
X252665Y618486D01*
X252658Y619619D01*
X252664Y619645D01*
X252662Y619662D01*
X252665Y619692D01*
X252665Y669475D01*
X252651Y669565D01*
X252643Y669656D01*
X252631Y669686D01*
X252626Y669718D01*
X252583Y669798D01*
X252547Y669882D01*
X252521Y669914D01*
X252510Y669935D01*
X252487Y669957D01*
X252442Y670013D01*
X206013Y716442D01*
X205939Y716495D01*
X205870Y716555D01*
X205840Y716567D01*
X205813Y716586D01*
X205727Y716613D01*
X205642Y716647D01*
X205601Y716651D01*
X205578Y716658D01*
X205546Y716657D01*
X205475Y716665D01*
X178939Y716665D01*
X176978Y717477D01*
X150757Y743698D01*
X149945Y745659D01*
X149945Y774421D01*
X149942Y774441D01*
X149944Y774460D01*
X149922Y774562D01*
X149906Y774664D01*
X149896Y774681D01*
X149892Y774701D01*
X149839Y774790D01*
X149790Y774881D01*
X149776Y774895D01*
X149766Y774912D01*
X149687Y774979D01*
X149612Y775051D01*
X149594Y775059D01*
X149579Y775072D01*
X149483Y775111D01*
X149389Y775154D01*
X149369Y775156D01*
X149351Y775164D01*
X149184Y775182D01*
X145912Y775182D01*
X143977Y777117D01*
X143977Y797883D01*
X145912Y799818D01*
X164648Y799818D01*
X166583Y797883D01*
X166583Y777117D01*
X164648Y775182D01*
X161376Y775182D01*
X161356Y775179D01*
X161337Y775181D01*
X161235Y775159D01*
X161133Y775143D01*
X161116Y775133D01*
X161096Y775129D01*
X161007Y775076D01*
X160916Y775027D01*
X160902Y775013D01*
X160885Y775003D01*
X160818Y774924D01*
X160746Y774849D01*
X160738Y774831D01*
X160725Y774816D01*
X160686Y774720D01*
X160643Y774626D01*
X160641Y774606D01*
X160633Y774588D01*
X160615Y774421D01*
X160615Y749245D01*
X160629Y749155D01*
X160637Y749064D01*
X160649Y749034D01*
X160654Y749002D01*
X160697Y748922D01*
X160733Y748838D01*
X160759Y748806D01*
X160770Y748785D01*
X160793Y748763D01*
X160838Y748707D01*
X181987Y727558D01*
X182061Y727505D01*
X182130Y727445D01*
X182160Y727433D01*
X182187Y727414D01*
X182273Y727387D01*
X182358Y727353D01*
X182399Y727349D01*
X182422Y727342D01*
X182454Y727343D01*
X182525Y727335D01*
X209061Y727335D01*
X211022Y726523D01*
X260915Y676630D01*
X262366Y675179D01*
X262424Y675137D01*
X262476Y675087D01*
X262523Y675066D01*
X262565Y675035D01*
X262634Y675014D01*
X262699Y674984D01*
X262751Y674978D01*
X262801Y674963D01*
X262872Y674965D01*
X262943Y674957D01*
X262994Y674968D01*
X263046Y674969D01*
X263114Y674994D01*
X263184Y675009D01*
X263229Y675036D01*
X263277Y675054D01*
X263333Y675098D01*
X263395Y675135D01*
X263429Y675175D01*
X263469Y675207D01*
X263508Y675268D01*
X263555Y675322D01*
X263574Y675370D01*
X263602Y675414D01*
X263620Y675484D01*
X263647Y675550D01*
X263655Y675622D01*
X263663Y675653D01*
X263661Y675676D01*
X263665Y675717D01*
X263665Y708561D01*
X264477Y710522D01*
X264946Y710991D01*
X264988Y711049D01*
X265038Y711101D01*
X265059Y711148D01*
X265090Y711190D01*
X265111Y711259D01*
X265141Y711324D01*
X265147Y711376D01*
X265162Y711426D01*
X265160Y711497D01*
X265168Y711568D01*
X265157Y711619D01*
X265156Y711671D01*
X265131Y711739D01*
X265116Y711809D01*
X265089Y711854D01*
X265071Y711902D01*
X265027Y711958D01*
X264990Y712020D01*
X264950Y712054D01*
X264918Y712094D01*
X264858Y712133D01*
X264803Y712180D01*
X264754Y712199D01*
X264711Y712227D01*
X264641Y712245D01*
X264575Y712272D01*
X264503Y712280D01*
X264472Y712288D01*
X264449Y712286D01*
X264408Y712290D01*
X244439Y712290D01*
X242478Y713102D01*
X223338Y732242D01*
X223264Y732295D01*
X223195Y732355D01*
X223165Y732367D01*
X223138Y732386D01*
X223052Y732413D01*
X222967Y732447D01*
X222926Y732451D01*
X222903Y732458D01*
X222871Y732457D01*
X222800Y732465D01*
X204037Y732465D01*
X204033Y732465D01*
X204028Y732465D01*
X202969Y732453D01*
X201993Y732857D01*
X201989Y732858D01*
X201984Y732861D01*
X201001Y733255D01*
X200254Y734002D01*
X200251Y734004D01*
X200247Y734008D01*
X199490Y734748D01*
X199085Y735724D01*
X199084Y735728D01*
X199082Y735733D01*
X198665Y736707D01*
X198665Y737763D01*
X198665Y737766D01*
X198665Y737772D01*
X198629Y740890D01*
X198610Y741001D01*
X198593Y741112D01*
X198588Y741122D01*
X198586Y741133D01*
X198533Y741231D01*
X198482Y741332D01*
X198474Y741339D01*
X198469Y741349D01*
X198387Y741425D01*
X198306Y741504D01*
X198295Y741510D01*
X198288Y741516D01*
X198265Y741526D01*
X198159Y741585D01*
X195557Y742663D01*
X191638Y746581D01*
X191622Y746593D01*
X191610Y746608D01*
X191522Y746664D01*
X191439Y746725D01*
X191420Y746730D01*
X191403Y746741D01*
X191302Y746767D01*
X191203Y746797D01*
X191184Y746796D01*
X191164Y746801D01*
X191061Y746793D01*
X190958Y746791D01*
X190939Y746784D01*
X190919Y746782D01*
X190824Y746742D01*
X190727Y746706D01*
X190711Y746694D01*
X190693Y746686D01*
X190562Y746581D01*
X186643Y742663D01*
X181295Y740447D01*
X175505Y740447D01*
X170157Y742663D01*
X166063Y746757D01*
X163847Y752105D01*
X163847Y757895D01*
X166063Y763243D01*
X170157Y767337D01*
X175505Y769553D01*
X181295Y769553D01*
X186643Y767337D01*
X190562Y763419D01*
X190578Y763407D01*
X190590Y763392D01*
X190678Y763336D01*
X190761Y763275D01*
X190780Y763270D01*
X190797Y763259D01*
X190898Y763233D01*
X190997Y763203D01*
X191016Y763204D01*
X191036Y763199D01*
X191139Y763207D01*
X191242Y763209D01*
X191261Y763216D01*
X191281Y763218D01*
X191376Y763258D01*
X191473Y763294D01*
X191489Y763306D01*
X191507Y763314D01*
X191638Y763419D01*
X195557Y767337D01*
X200905Y769553D01*
X206695Y769553D01*
X212043Y767337D01*
X215912Y763469D01*
X215928Y763457D01*
X215940Y763442D01*
X216028Y763386D01*
X216111Y763325D01*
X216130Y763320D01*
X216147Y763309D01*
X216248Y763283D01*
X216347Y763253D01*
X216366Y763254D01*
X216386Y763249D01*
X216489Y763257D01*
X216592Y763259D01*
X216611Y763266D01*
X216631Y763268D01*
X216726Y763308D01*
X216823Y763344D01*
X216839Y763356D01*
X216857Y763364D01*
X216988Y763469D01*
X220857Y767337D01*
X226205Y769553D01*
X231995Y769553D01*
X237343Y767337D01*
X241312Y763369D01*
X241328Y763357D01*
X241340Y763342D01*
X241428Y763286D01*
X241511Y763225D01*
X241530Y763220D01*
X241547Y763209D01*
X241648Y763183D01*
X241747Y763153D01*
X241766Y763154D01*
X241786Y763149D01*
X241889Y763157D01*
X241992Y763159D01*
X242011Y763166D01*
X242031Y763168D01*
X242126Y763208D01*
X242223Y763244D01*
X242239Y763256D01*
X242257Y763264D01*
X242388Y763369D01*
X246357Y767337D01*
X251705Y769553D01*
X257495Y769553D01*
X262843Y767337D01*
X266937Y763243D01*
X267145Y762741D01*
X267201Y762652D01*
X267252Y762560D01*
X267265Y762547D01*
X267275Y762532D01*
X267356Y762465D01*
X267434Y762394D01*
X267450Y762387D01*
X267464Y762375D01*
X267563Y762337D01*
X267659Y762295D01*
X267677Y762294D01*
X267694Y762287D01*
X267799Y762283D01*
X267904Y762273D01*
X267922Y762277D01*
X267940Y762277D01*
X268041Y762306D01*
X268143Y762330D01*
X268159Y762340D01*
X268176Y762345D01*
X268262Y762405D01*
X268352Y762461D01*
X268367Y762477D01*
X268378Y762485D01*
X268397Y762511D01*
X268464Y762585D01*
X269481Y763984D01*
X271016Y765519D01*
X272772Y766795D01*
X274706Y767780D01*
X276771Y768451D01*
X278477Y768721D01*
X278477Y755762D01*
X278480Y755742D01*
X278478Y755723D01*
X278500Y755621D01*
X278517Y755519D01*
X278526Y755502D01*
X278530Y755482D01*
X278583Y755393D01*
X278632Y755302D01*
X278646Y755288D01*
X278656Y755271D01*
X278735Y755204D01*
X278810Y755133D01*
X278828Y755124D01*
X278843Y755111D01*
X278939Y755073D01*
X279033Y755029D01*
X279053Y755027D01*
X279071Y755019D01*
X279238Y755001D01*
X280001Y755001D01*
X280001Y754999D01*
X279238Y754999D01*
X279218Y754996D01*
X279199Y754998D01*
X279097Y754976D01*
X278995Y754959D01*
X278978Y754950D01*
X278958Y754946D01*
X278869Y754893D01*
X278778Y754844D01*
X278764Y754830D01*
X278747Y754820D01*
X278680Y754741D01*
X278609Y754666D01*
X278600Y754648D01*
X278587Y754633D01*
X278548Y754537D01*
X278505Y754443D01*
X278503Y754423D01*
X278495Y754405D01*
X278477Y754238D01*
X278477Y741279D01*
X276771Y741549D01*
X274706Y742220D01*
X272772Y743205D01*
X271016Y744481D01*
X269481Y746016D01*
X268464Y747415D01*
X268390Y747489D01*
X268319Y747567D01*
X268303Y747575D01*
X268290Y747588D01*
X268195Y747634D01*
X268103Y747685D01*
X268085Y747688D01*
X268069Y747696D01*
X267965Y747710D01*
X267861Y747729D01*
X267843Y747726D01*
X267825Y747729D01*
X267722Y747708D01*
X267618Y747693D01*
X267601Y747685D01*
X267584Y747681D01*
X267492Y747629D01*
X267398Y747581D01*
X267386Y747569D01*
X267370Y747559D01*
X267300Y747481D01*
X267226Y747406D01*
X267215Y747386D01*
X267206Y747376D01*
X267194Y747347D01*
X267145Y747259D01*
X266937Y746757D01*
X262843Y742663D01*
X257495Y740447D01*
X253035Y740447D01*
X252964Y740436D01*
X252893Y740434D01*
X252844Y740416D01*
X252792Y740408D01*
X252729Y740374D01*
X252662Y740349D01*
X252621Y740317D01*
X252575Y740292D01*
X252526Y740240D01*
X252470Y740196D01*
X252441Y740152D01*
X252405Y740114D01*
X252375Y740049D01*
X252337Y739989D01*
X252324Y739938D01*
X252302Y739891D01*
X252294Y739820D01*
X252276Y739750D01*
X252281Y739698D01*
X252275Y739647D01*
X252290Y739576D01*
X252296Y739505D01*
X252316Y739457D01*
X252327Y739406D01*
X252364Y739345D01*
X252392Y739279D01*
X252437Y739223D01*
X252453Y739195D01*
X252471Y739180D01*
X252497Y739148D01*
X257337Y734308D01*
X257411Y734255D01*
X257480Y734195D01*
X257510Y734183D01*
X257537Y734164D01*
X257624Y734137D01*
X257708Y734103D01*
X257749Y734099D01*
X257772Y734092D01*
X257804Y734093D01*
X257875Y734085D01*
X334058Y734085D01*
X334129Y734096D01*
X334201Y734098D01*
X334250Y734116D01*
X334301Y734124D01*
X334364Y734158D01*
X334432Y734183D01*
X334472Y734215D01*
X334518Y734240D01*
X334568Y734292D01*
X334624Y734336D01*
X334652Y734380D01*
X334688Y734418D01*
X334718Y734483D01*
X334757Y734543D01*
X334769Y734594D01*
X334791Y734641D01*
X334799Y734712D01*
X334817Y734782D01*
X334813Y734834D01*
X334818Y734885D01*
X334803Y734956D01*
X334798Y735027D01*
X334777Y735075D01*
X334766Y735126D01*
X334729Y735187D01*
X334701Y735253D01*
X334656Y735309D01*
X334640Y735337D01*
X334622Y735352D01*
X334596Y735384D01*
X332994Y736987D01*
X331915Y739591D01*
X331915Y742409D01*
X332345Y743446D01*
X332371Y743558D01*
X332400Y743673D01*
X332400Y743680D01*
X332401Y743686D01*
X332390Y743802D01*
X332381Y743919D01*
X332378Y743924D01*
X332378Y743931D01*
X332330Y744037D01*
X332285Y744145D01*
X332280Y744151D01*
X332278Y744155D01*
X332265Y744169D01*
X332180Y744276D01*
X305513Y770942D01*
X305439Y770995D01*
X305370Y771055D01*
X305340Y771067D01*
X305313Y771086D01*
X305227Y771113D01*
X305142Y771147D01*
X305101Y771151D01*
X305078Y771158D01*
X305046Y771157D01*
X304975Y771165D01*
X238939Y771165D01*
X236978Y771977D01*
X199477Y809478D01*
X198665Y811439D01*
X198665Y840281D01*
X199477Y842242D01*
X211754Y854519D01*
X211807Y854593D01*
X211867Y854662D01*
X211879Y854692D01*
X211898Y854719D01*
X211925Y854805D01*
X211959Y854890D01*
X211963Y854931D01*
X211970Y854954D01*
X211969Y854986D01*
X211977Y855057D01*
X211977Y868883D01*
X213912Y870818D01*
X232648Y870818D01*
X234583Y868883D01*
X234583Y848117D01*
X232648Y846182D01*
X218822Y846182D01*
X218732Y846168D01*
X218641Y846160D01*
X218611Y846148D01*
X218579Y846143D01*
X218499Y846100D01*
X218415Y846064D01*
X218383Y846038D01*
X218362Y846027D01*
X218340Y846004D01*
X218284Y845959D01*
X209558Y837233D01*
X209505Y837159D01*
X209445Y837090D01*
X209433Y837060D01*
X209414Y837033D01*
X209387Y836947D01*
X209353Y836862D01*
X209349Y836821D01*
X209342Y836798D01*
X209343Y836766D01*
X209335Y836695D01*
X209335Y815025D01*
X209349Y814935D01*
X209357Y814844D01*
X209369Y814814D01*
X209374Y814782D01*
X209417Y814702D01*
X209453Y814618D01*
X209479Y814586D01*
X209490Y814565D01*
X209513Y814543D01*
X209558Y814487D01*
X241987Y782058D01*
X242061Y782005D01*
X242130Y781945D01*
X242160Y781933D01*
X242187Y781914D01*
X242273Y781887D01*
X242358Y781853D01*
X242399Y781849D01*
X242422Y781842D01*
X242454Y781843D01*
X242525Y781835D01*
X308561Y781835D01*
X309395Y781489D01*
X309490Y781467D01*
X309583Y781438D01*
X309609Y781439D01*
X309635Y781433D01*
X309731Y781442D01*
X309829Y781445D01*
X309853Y781454D01*
X309879Y781456D01*
X309968Y781496D01*
X310060Y781529D01*
X310080Y781546D01*
X310104Y781556D01*
X310176Y781622D01*
X310252Y781683D01*
X310266Y781705D01*
X310285Y781723D01*
X310332Y781808D01*
X310385Y781890D01*
X310391Y781915D01*
X310404Y781938D01*
X310421Y782034D01*
X310445Y782128D01*
X310443Y782154D01*
X310448Y782180D01*
X310433Y782277D01*
X310426Y782374D01*
X310416Y782398D01*
X310412Y782424D01*
X310368Y782510D01*
X310329Y782600D01*
X310309Y782625D01*
X310300Y782643D01*
X310277Y782666D01*
X310225Y782731D01*
X309513Y783442D01*
X309439Y783495D01*
X309370Y783555D01*
X309340Y783567D01*
X309313Y783586D01*
X309226Y783613D01*
X309142Y783647D01*
X309101Y783651D01*
X309078Y783658D01*
X309046Y783657D01*
X308975Y783665D01*
X285439Y783665D01*
X283478Y784477D01*
X281870Y786085D01*
X270585Y797370D01*
X268977Y798978D01*
X268165Y800939D01*
X268165Y840781D01*
X268977Y842742D01*
X270585Y844350D01*
X280754Y854519D01*
X280807Y854593D01*
X280867Y854662D01*
X280879Y854692D01*
X280898Y854719D01*
X280925Y854805D01*
X280959Y854890D01*
X280963Y854931D01*
X280970Y854954D01*
X280969Y854986D01*
X280977Y855057D01*
X280977Y868883D01*
X282912Y870818D01*
X301648Y870818D01*
X303583Y868883D01*
X303583Y848117D01*
X301648Y846182D01*
X287822Y846182D01*
X287732Y846168D01*
X287641Y846160D01*
X287611Y846148D01*
X287579Y846143D01*
X287499Y846100D01*
X287415Y846064D01*
X287383Y846038D01*
X287362Y846027D01*
X287340Y846004D01*
X287284Y845959D01*
X279058Y837733D01*
X279005Y837659D01*
X278945Y837590D01*
X278933Y837560D01*
X278914Y837534D01*
X278887Y837447D01*
X278853Y837362D01*
X278849Y837321D01*
X278842Y837298D01*
X278843Y837266D01*
X278835Y837195D01*
X278835Y804525D01*
X278849Y804435D01*
X278857Y804344D01*
X278869Y804314D01*
X278874Y804282D01*
X278917Y804202D01*
X278953Y804118D01*
X278979Y804086D01*
X278990Y804065D01*
X279013Y804043D01*
X279058Y803987D01*
X288487Y794558D01*
X288561Y794505D01*
X288630Y794445D01*
X288660Y794433D01*
X288687Y794414D01*
X288773Y794387D01*
X288858Y794353D01*
X288899Y794349D01*
X288922Y794342D01*
X288954Y794343D01*
X289025Y794335D01*
X312561Y794335D01*
X314522Y793523D01*
X353237Y754808D01*
X353311Y754755D01*
X353380Y754695D01*
X353410Y754683D01*
X353437Y754664D01*
X353523Y754637D01*
X353608Y754603D01*
X353649Y754599D01*
X353672Y754592D01*
X353704Y754593D01*
X353775Y754585D01*
X354409Y754585D01*
X357013Y753506D01*
X359006Y751513D01*
X360085Y748909D01*
X360085Y746091D01*
X359006Y743487D01*
X357013Y741494D01*
X354409Y740415D01*
X351591Y740415D01*
X348987Y741494D01*
X347384Y743096D01*
X347326Y743138D01*
X347274Y743188D01*
X347227Y743210D01*
X347185Y743240D01*
X347116Y743261D01*
X347051Y743291D01*
X346999Y743297D01*
X346949Y743312D01*
X346878Y743310D01*
X346807Y743318D01*
X346756Y743307D01*
X346704Y743306D01*
X346636Y743281D01*
X346566Y743266D01*
X346521Y743239D01*
X346473Y743222D01*
X346417Y743177D01*
X346355Y743140D01*
X346321Y743100D01*
X346281Y743068D01*
X346242Y743008D01*
X346195Y742953D01*
X346176Y742905D01*
X346148Y742861D01*
X346130Y742791D01*
X346103Y742725D01*
X346095Y742654D01*
X346087Y742622D01*
X346089Y742599D01*
X346085Y742558D01*
X346085Y739591D01*
X345006Y736987D01*
X343404Y735384D01*
X343362Y735326D01*
X343312Y735274D01*
X343290Y735227D01*
X343260Y735185D01*
X343239Y735116D01*
X343209Y735051D01*
X343203Y734999D01*
X343188Y734949D01*
X343190Y734878D01*
X343182Y734807D01*
X343193Y734756D01*
X343194Y734704D01*
X343219Y734636D01*
X343234Y734566D01*
X343261Y734521D01*
X343278Y734473D01*
X343323Y734417D01*
X343360Y734355D01*
X343400Y734321D01*
X343432Y734281D01*
X343492Y734242D01*
X343547Y734195D01*
X343595Y734176D01*
X343639Y734148D01*
X343709Y734130D01*
X343775Y734103D01*
X343846Y734095D01*
X343878Y734087D01*
X343901Y734089D01*
X343942Y734085D01*
X376686Y734085D01*
X378647Y733273D01*
X380255Y731665D01*
X407660Y704260D01*
X407718Y704218D01*
X407770Y704168D01*
X407817Y704146D01*
X407859Y704116D01*
X407928Y704095D01*
X407993Y704065D01*
X408045Y704059D01*
X408095Y704044D01*
X408166Y704046D01*
X408237Y704038D01*
X408288Y704049D01*
X408340Y704050D01*
X408408Y704075D01*
X408478Y704090D01*
X408523Y704117D01*
X408571Y704135D01*
X408627Y704179D01*
X408689Y704216D01*
X408723Y704256D01*
X408763Y704288D01*
X408802Y704349D01*
X408849Y704403D01*
X408868Y704451D01*
X408896Y704495D01*
X408914Y704565D01*
X408941Y704631D01*
X408949Y704703D01*
X408957Y704734D01*
X408955Y704757D01*
X408959Y704798D01*
X408959Y708277D01*
X423438Y708277D01*
X423458Y708280D01*
X423477Y708278D01*
X423579Y708300D01*
X423681Y708317D01*
X423698Y708326D01*
X423718Y708330D01*
X423807Y708383D01*
X423898Y708432D01*
X423912Y708446D01*
X423929Y708456D01*
X423996Y708535D01*
X424067Y708610D01*
X424076Y708628D01*
X424089Y708643D01*
X424128Y708739D01*
X424171Y708833D01*
X424173Y708853D01*
X424181Y708871D01*
X424199Y709038D01*
X424199Y709801D01*
X424201Y709801D01*
X424201Y709038D01*
X424204Y709018D01*
X424202Y708999D01*
X424224Y708897D01*
X424241Y708795D01*
X424250Y708778D01*
X424254Y708758D01*
X424307Y708669D01*
X424356Y708578D01*
X424370Y708564D01*
X424380Y708547D01*
X424459Y708480D01*
X424534Y708409D01*
X424552Y708400D01*
X424567Y708387D01*
X424663Y708348D01*
X424757Y708305D01*
X424777Y708303D01*
X424795Y708295D01*
X424962Y708277D01*
X439441Y708277D01*
X439441Y703596D01*
X439444Y703576D01*
X439442Y703557D01*
X439464Y703455D01*
X439480Y703353D01*
X439490Y703336D01*
X439494Y703316D01*
X439547Y703227D01*
X439596Y703136D01*
X439610Y703122D01*
X439620Y703105D01*
X439699Y703038D01*
X439774Y702966D01*
X439792Y702958D01*
X439807Y702945D01*
X439903Y702906D01*
X439997Y702863D01*
X440017Y702861D01*
X440035Y702853D01*
X440202Y702835D01*
X484811Y702835D01*
X486772Y702023D01*
X536987Y651808D01*
X537061Y651755D01*
X537130Y651695D01*
X537160Y651683D01*
X537187Y651664D01*
X537273Y651637D01*
X537358Y651603D01*
X537399Y651599D01*
X537422Y651592D01*
X537454Y651593D01*
X537525Y651585D01*
X559836Y651585D01*
X559856Y651588D01*
X559875Y651586D01*
X559977Y651608D01*
X560079Y651624D01*
X560096Y651634D01*
X560116Y651638D01*
X560205Y651691D01*
X560296Y651740D01*
X560310Y651754D01*
X560327Y651764D01*
X560394Y651843D01*
X560466Y651918D01*
X560474Y651936D01*
X560487Y651951D01*
X560526Y652047D01*
X560569Y652141D01*
X560571Y652161D01*
X560579Y652179D01*
X560597Y652346D01*
X560597Y661889D01*
X560586Y661959D01*
X560584Y662031D01*
X560566Y662080D01*
X560558Y662131D01*
X560524Y662195D01*
X560499Y662262D01*
X560467Y662303D01*
X560442Y662349D01*
X560391Y662398D01*
X560346Y662454D01*
X560302Y662482D01*
X560264Y662518D01*
X560199Y662548D01*
X560139Y662587D01*
X560088Y662600D01*
X560041Y662622D01*
X559970Y662630D01*
X559900Y662647D01*
X559848Y662643D01*
X559797Y662649D01*
X559726Y662634D01*
X559655Y662628D01*
X559607Y662608D01*
X559556Y662597D01*
X559495Y662560D01*
X559429Y662532D01*
X559373Y662487D01*
X559345Y662470D01*
X559330Y662453D01*
X559298Y662427D01*
X558918Y662047D01*
X543482Y662047D01*
X541547Y663982D01*
X541547Y678304D01*
X541544Y678324D01*
X541546Y678343D01*
X541524Y678445D01*
X541508Y678547D01*
X541498Y678564D01*
X541494Y678584D01*
X541441Y678673D01*
X541392Y678764D01*
X541378Y678778D01*
X541368Y678795D01*
X541289Y678862D01*
X541214Y678934D01*
X541196Y678942D01*
X541181Y678955D01*
X541085Y678994D01*
X540991Y679037D01*
X540971Y679039D01*
X540953Y679047D01*
X540786Y679065D01*
X534039Y679065D01*
X532078Y679877D01*
X515513Y696442D01*
X515439Y696495D01*
X515370Y696555D01*
X515340Y696567D01*
X515313Y696586D01*
X515227Y696613D01*
X515142Y696647D01*
X515101Y696651D01*
X515078Y696658D01*
X515046Y696657D01*
X514975Y696665D01*
X505500Y696665D01*
X505410Y696651D01*
X505319Y696643D01*
X505289Y696631D01*
X505257Y696626D01*
X505176Y696583D01*
X505093Y696547D01*
X505060Y696521D01*
X505040Y696510D01*
X505018Y696487D01*
X504962Y696442D01*
X504513Y695994D01*
X501909Y694915D01*
X499091Y694915D01*
X496487Y695994D01*
X494494Y697987D01*
X493415Y700591D01*
X493415Y703409D01*
X494494Y706013D01*
X496487Y708006D01*
X499091Y709085D01*
X501909Y709085D01*
X504513Y708006D01*
X504962Y707558D01*
X505036Y707505D01*
X505105Y707445D01*
X505135Y707433D01*
X505161Y707414D01*
X505248Y707387D01*
X505333Y707353D01*
X505374Y707349D01*
X505396Y707342D01*
X505429Y707343D01*
X505500Y707335D01*
X518561Y707335D01*
X520522Y706523D01*
X537087Y689958D01*
X537161Y689905D01*
X537230Y689845D01*
X537260Y689833D01*
X537287Y689814D01*
X537373Y689787D01*
X537458Y689753D01*
X537499Y689749D01*
X537522Y689742D01*
X537554Y689743D01*
X537625Y689735D01*
X540786Y689735D01*
X540806Y689738D01*
X540825Y689736D01*
X540927Y689758D01*
X541029Y689774D01*
X541046Y689784D01*
X541066Y689788D01*
X541155Y689841D01*
X541246Y689890D01*
X541260Y689904D01*
X541277Y689914D01*
X541344Y689993D01*
X541416Y690068D01*
X541424Y690086D01*
X541437Y690101D01*
X541476Y690197D01*
X541519Y690291D01*
X541521Y690311D01*
X541529Y690329D01*
X541547Y690496D01*
X541547Y704818D01*
X543482Y706753D01*
X548390Y706753D01*
X548461Y706764D01*
X548533Y706766D01*
X548582Y706784D01*
X548633Y706792D01*
X548696Y706826D01*
X548764Y706851D01*
X548804Y706883D01*
X548850Y706908D01*
X548900Y706960D01*
X548956Y707004D01*
X548984Y707048D01*
X549020Y707086D01*
X549050Y707151D01*
X549089Y707211D01*
X549101Y707262D01*
X549123Y707309D01*
X549131Y707380D01*
X549149Y707450D01*
X549145Y707502D01*
X549150Y707553D01*
X549135Y707624D01*
X549130Y707695D01*
X549109Y707743D01*
X549098Y707794D01*
X549061Y707855D01*
X549033Y707921D01*
X548988Y707977D01*
X548972Y708005D01*
X548954Y708020D01*
X548928Y708052D01*
X546994Y709987D01*
X545915Y712591D01*
X545915Y715409D01*
X546994Y718013D01*
X548987Y720006D01*
X551591Y721085D01*
X554409Y721085D01*
X557013Y720006D01*
X557462Y719558D01*
X557536Y719505D01*
X557605Y719445D01*
X557635Y719433D01*
X557661Y719414D01*
X557748Y719387D01*
X557833Y719353D01*
X557874Y719349D01*
X557896Y719342D01*
X557929Y719343D01*
X558000Y719335D01*
X562099Y719335D01*
X562189Y719349D01*
X562280Y719357D01*
X562310Y719369D01*
X562341Y719374D01*
X562422Y719417D01*
X562506Y719453D01*
X590668Y719453D01*
X592603Y717518D01*
X592603Y703196D01*
X592606Y703176D01*
X592604Y703157D01*
X592626Y703055D01*
X592642Y702953D01*
X592652Y702936D01*
X592656Y702916D01*
X592709Y702827D01*
X592758Y702736D01*
X592772Y702722D01*
X592782Y702705D01*
X592861Y702638D01*
X592936Y702566D01*
X592954Y702558D01*
X592969Y702545D01*
X593065Y702506D01*
X593159Y702463D01*
X593179Y702461D01*
X593197Y702453D01*
X593364Y702435D01*
X645825Y702435D01*
X645915Y702449D01*
X646006Y702457D01*
X646036Y702469D01*
X646068Y702474D01*
X646148Y702517D01*
X646232Y702553D01*
X646264Y702579D01*
X646285Y702590D01*
X646307Y702613D01*
X646363Y702658D01*
X673853Y730148D01*
X675814Y730960D01*
X709975Y730960D01*
X710065Y730974D01*
X710156Y730982D01*
X710186Y730994D01*
X710218Y730999D01*
X710298Y731042D01*
X710382Y731078D01*
X710414Y731104D01*
X710435Y731115D01*
X710457Y731138D01*
X710513Y731183D01*
X718192Y738862D01*
X718245Y738936D01*
X718305Y739005D01*
X718317Y739035D01*
X718336Y739062D01*
X718363Y739148D01*
X718397Y739233D01*
X718401Y739274D01*
X718408Y739297D01*
X718407Y739329D01*
X718415Y739400D01*
X718415Y740970D01*
X718397Y741084D01*
X718379Y741201D01*
X718377Y741207D01*
X718376Y741213D01*
X718322Y741314D01*
X718268Y741420D01*
X718263Y741425D01*
X718260Y741430D01*
X718230Y741459D01*
X718227Y741465D01*
X718201Y741487D01*
X718176Y741510D01*
X718092Y741592D01*
X718086Y741596D01*
X718082Y741600D01*
X718065Y741607D01*
X718050Y741616D01*
X718040Y741625D01*
X718018Y741634D01*
X717945Y741673D01*
X715557Y742663D01*
X711638Y746581D01*
X711622Y746593D01*
X711610Y746608D01*
X711522Y746664D01*
X711439Y746725D01*
X711420Y746730D01*
X711403Y746741D01*
X711302Y746767D01*
X711203Y746797D01*
X711184Y746796D01*
X711164Y746801D01*
X711061Y746793D01*
X710958Y746791D01*
X710939Y746784D01*
X710919Y746782D01*
X710824Y746742D01*
X710727Y746706D01*
X710711Y746694D01*
X710693Y746686D01*
X710562Y746581D01*
X706643Y742663D01*
X701295Y740447D01*
X695505Y740447D01*
X690157Y742663D01*
X686063Y746757D01*
X683847Y752105D01*
X683847Y757895D01*
X686063Y763243D01*
X690157Y767337D01*
X695505Y769553D01*
X701295Y769553D01*
X706643Y767337D01*
X710562Y763419D01*
X710578Y763407D01*
X710590Y763392D01*
X710678Y763336D01*
X710761Y763275D01*
X710780Y763270D01*
X710797Y763259D01*
X710898Y763233D01*
X710997Y763203D01*
X711016Y763204D01*
X711036Y763199D01*
X711139Y763207D01*
X711242Y763209D01*
X711261Y763216D01*
X711281Y763218D01*
X711376Y763258D01*
X711473Y763294D01*
X711489Y763306D01*
X711507Y763314D01*
X711638Y763419D01*
X715557Y767337D01*
X720905Y769553D01*
X726695Y769553D01*
X732043Y767337D01*
X735912Y763469D01*
X735928Y763457D01*
X735940Y763442D01*
X736028Y763386D01*
X736111Y763325D01*
X736130Y763320D01*
X736147Y763309D01*
X736248Y763283D01*
X736347Y763253D01*
X736366Y763254D01*
X736386Y763249D01*
X736489Y763257D01*
X736592Y763259D01*
X736611Y763266D01*
X736631Y763268D01*
X736726Y763308D01*
X736823Y763344D01*
X736839Y763356D01*
X736857Y763364D01*
X736988Y763469D01*
X740857Y767337D01*
X746205Y769553D01*
X751995Y769553D01*
X757343Y767337D01*
X761312Y763369D01*
X761328Y763357D01*
X761340Y763342D01*
X761428Y763286D01*
X761511Y763225D01*
X761530Y763220D01*
X761547Y763209D01*
X761648Y763183D01*
X761747Y763153D01*
X761766Y763154D01*
X761786Y763149D01*
X761889Y763157D01*
X761992Y763159D01*
X762011Y763166D01*
X762031Y763168D01*
X762126Y763208D01*
X762223Y763244D01*
X762239Y763256D01*
X762257Y763264D01*
X762388Y763369D01*
X765637Y766618D01*
X765649Y766634D01*
X765665Y766647D01*
X765721Y766734D01*
X765781Y766818D01*
X765787Y766837D01*
X765798Y766854D01*
X765823Y766954D01*
X765853Y767053D01*
X765853Y767073D01*
X765858Y767092D01*
X765850Y767195D01*
X765847Y767299D01*
X765840Y767317D01*
X765838Y767337D01*
X765798Y767432D01*
X765762Y767530D01*
X765750Y767545D01*
X765742Y767564D01*
X765637Y767695D01*
X754922Y778410D01*
X754848Y778463D01*
X754778Y778523D01*
X754748Y778535D01*
X754722Y778554D01*
X754635Y778581D01*
X754550Y778615D01*
X754509Y778619D01*
X754487Y778626D01*
X754455Y778625D01*
X754383Y778633D01*
X593269Y778633D01*
X593179Y778619D01*
X593088Y778611D01*
X593059Y778599D01*
X593027Y778594D01*
X592946Y778551D01*
X592862Y778515D01*
X592830Y778489D01*
X592809Y778478D01*
X592787Y778455D01*
X592731Y778410D01*
X590668Y776347D01*
X562532Y776347D01*
X560597Y778282D01*
X560597Y793718D01*
X560977Y794098D01*
X561019Y794156D01*
X561068Y794208D01*
X561090Y794255D01*
X561121Y794297D01*
X561142Y794366D01*
X561172Y794431D01*
X561178Y794483D01*
X561193Y794533D01*
X561191Y794604D01*
X561199Y794675D01*
X561188Y794726D01*
X561187Y794778D01*
X561162Y794846D01*
X561147Y794916D01*
X561120Y794961D01*
X561102Y795009D01*
X561057Y795065D01*
X561020Y795127D01*
X560981Y795161D01*
X560948Y795201D01*
X560888Y795240D01*
X560834Y795287D01*
X560785Y795306D01*
X560741Y795334D01*
X560672Y795352D01*
X560605Y795379D01*
X560534Y795387D01*
X560503Y795395D01*
X560480Y795393D01*
X560439Y795397D01*
X557096Y795397D01*
X557076Y795394D01*
X557057Y795396D01*
X556955Y795374D01*
X556853Y795358D01*
X556836Y795348D01*
X556816Y795344D01*
X556727Y795291D01*
X556636Y795242D01*
X556622Y795228D01*
X556605Y795218D01*
X556538Y795139D01*
X556466Y795064D01*
X556458Y795046D01*
X556445Y795031D01*
X556406Y794935D01*
X556363Y794841D01*
X556361Y794821D01*
X556353Y794803D01*
X556335Y794636D01*
X556335Y792000D01*
X556349Y791910D01*
X556357Y791819D01*
X556369Y791789D01*
X556374Y791757D01*
X556417Y791676D01*
X556453Y791593D01*
X556479Y791560D01*
X556490Y791540D01*
X556513Y791518D01*
X556533Y791492D01*
X556537Y791487D01*
X556540Y791484D01*
X556558Y791462D01*
X557006Y791013D01*
X558085Y788409D01*
X558085Y785591D01*
X557006Y782987D01*
X555013Y780994D01*
X552409Y779915D01*
X549591Y779915D01*
X546987Y780994D01*
X544994Y782987D01*
X543915Y785591D01*
X543915Y788409D01*
X544994Y791013D01*
X545442Y791462D01*
X545488Y791525D01*
X545511Y791550D01*
X545516Y791559D01*
X545555Y791605D01*
X545567Y791635D01*
X545586Y791661D01*
X545613Y791748D01*
X545647Y791833D01*
X545651Y791874D01*
X545658Y791896D01*
X545657Y791929D01*
X545665Y792000D01*
X545665Y794636D01*
X545662Y794656D01*
X545664Y794675D01*
X545642Y794777D01*
X545626Y794879D01*
X545616Y794896D01*
X545612Y794916D01*
X545559Y795005D01*
X545510Y795096D01*
X545496Y795110D01*
X545486Y795127D01*
X545407Y795194D01*
X545332Y795266D01*
X545314Y795274D01*
X545299Y795287D01*
X545203Y795326D01*
X545109Y795369D01*
X545089Y795371D01*
X545071Y795379D01*
X544904Y795397D01*
X530782Y795397D01*
X528847Y797332D01*
X528847Y825468D01*
X530782Y827403D01*
X532504Y827403D01*
X532524Y827406D01*
X532543Y827404D01*
X532645Y827426D01*
X532747Y827442D01*
X532764Y827452D01*
X532784Y827456D01*
X532873Y827509D01*
X532964Y827558D01*
X532978Y827572D01*
X532995Y827582D01*
X533062Y827661D01*
X533134Y827736D01*
X533142Y827754D01*
X533155Y827769D01*
X533194Y827865D01*
X533237Y827959D01*
X533239Y827979D01*
X533247Y827997D01*
X533265Y828164D01*
X533265Y836405D01*
X533251Y836495D01*
X533243Y836586D01*
X533231Y836616D01*
X533226Y836648D01*
X533183Y836729D01*
X533147Y836812D01*
X533121Y836845D01*
X533110Y836865D01*
X533087Y836887D01*
X533042Y836943D01*
X530201Y839784D01*
X528693Y843425D01*
X528693Y860575D01*
X530201Y864216D01*
X532988Y867003D01*
X536629Y868511D01*
X540571Y868511D01*
X544212Y867003D01*
X544366Y866849D01*
X544424Y866807D01*
X544476Y866757D01*
X544523Y866735D01*
X544565Y866705D01*
X544634Y866684D01*
X544699Y866654D01*
X544751Y866648D01*
X544801Y866633D01*
X544872Y866634D01*
X544943Y866627D01*
X544994Y866638D01*
X545046Y866639D01*
X545114Y866664D01*
X545184Y866679D01*
X545229Y866706D01*
X545277Y866723D01*
X545333Y866768D01*
X545395Y866805D01*
X545429Y866845D01*
X545469Y866877D01*
X545508Y866937D01*
X545555Y866992D01*
X545574Y867040D01*
X545602Y867084D01*
X545620Y867153D01*
X545647Y867220D01*
X545655Y867291D01*
X545663Y867322D01*
X545661Y867346D01*
X545665Y867387D01*
X545665Y897000D01*
X545651Y897090D01*
X545643Y897181D01*
X545631Y897211D01*
X545626Y897243D01*
X545583Y897324D01*
X545547Y897407D01*
X545521Y897440D01*
X545510Y897460D01*
X545487Y897482D01*
X545442Y897538D01*
X544994Y897987D01*
X543915Y900591D01*
X543915Y903409D01*
X544994Y906013D01*
X546987Y908006D01*
X549591Y909085D01*
X552409Y909085D01*
X555013Y908006D01*
X557006Y906013D01*
X558085Y903409D01*
X558085Y900591D01*
X557006Y897987D01*
X556558Y897538D01*
X556511Y897474D01*
X556497Y897458D01*
X556493Y897451D01*
X556445Y897395D01*
X556433Y897365D01*
X556414Y897339D01*
X556387Y897252D01*
X556353Y897167D01*
X556349Y897126D01*
X556342Y897104D01*
X556343Y897071D01*
X556335Y897000D01*
X556335Y866787D01*
X556346Y866716D01*
X556348Y866644D01*
X556366Y866595D01*
X556374Y866544D01*
X556408Y866481D01*
X556433Y866413D01*
X556465Y866373D01*
X556490Y866327D01*
X556542Y866277D01*
X556586Y866221D01*
X556630Y866193D01*
X556668Y866157D01*
X556733Y866127D01*
X556793Y866088D01*
X556844Y866076D01*
X556891Y866054D01*
X556962Y866046D01*
X557032Y866028D01*
X557084Y866032D01*
X557135Y866027D01*
X557206Y866042D01*
X557277Y866047D01*
X557325Y866068D01*
X557376Y866079D01*
X557437Y866116D01*
X557503Y866144D01*
X557559Y866188D01*
X557587Y866205D01*
X557602Y866223D01*
X557634Y866248D01*
X558388Y867003D01*
X562029Y868511D01*
X565971Y868511D01*
X569612Y867003D01*
X572399Y864216D01*
X573907Y860575D01*
X573907Y843425D01*
X572399Y839784D01*
X569558Y836943D01*
X569505Y836870D01*
X569445Y836800D01*
X569433Y836770D01*
X569414Y836744D01*
X569387Y836657D01*
X569353Y836572D01*
X569349Y836531D01*
X569342Y836509D01*
X569343Y836476D01*
X569335Y836405D01*
X569335Y828164D01*
X569338Y828144D01*
X569336Y828125D01*
X569358Y828023D01*
X569374Y827921D01*
X569384Y827904D01*
X569388Y827884D01*
X569441Y827795D01*
X569490Y827704D01*
X569504Y827690D01*
X569514Y827673D01*
X569593Y827606D01*
X569668Y827534D01*
X569686Y827526D01*
X569701Y827513D01*
X569797Y827474D01*
X569891Y827431D01*
X569911Y827429D01*
X569929Y827421D01*
X570096Y827403D01*
X571618Y827403D01*
X573553Y825468D01*
X573553Y797332D01*
X573173Y796952D01*
X573131Y796894D01*
X573082Y796842D01*
X573060Y796795D01*
X573029Y796753D01*
X573008Y796684D01*
X572978Y796619D01*
X572972Y796567D01*
X572957Y796517D01*
X572959Y796446D01*
X572951Y796375D01*
X572962Y796324D01*
X572963Y796272D01*
X572988Y796204D01*
X573003Y796134D01*
X573030Y796089D01*
X573048Y796041D01*
X573093Y795985D01*
X573130Y795923D01*
X573169Y795889D01*
X573202Y795849D01*
X573262Y795810D01*
X573316Y795763D01*
X573365Y795744D01*
X573409Y795716D01*
X573478Y795698D01*
X573545Y795671D01*
X573616Y795663D01*
X573647Y795655D01*
X573670Y795657D01*
X573711Y795653D01*
X575519Y795653D01*
X575609Y795667D01*
X575700Y795675D01*
X575730Y795687D01*
X575762Y795692D01*
X575843Y795735D01*
X575927Y795771D01*
X575959Y795797D01*
X575979Y795808D01*
X576002Y795831D01*
X576058Y795876D01*
X584910Y804728D01*
X584963Y804802D01*
X585023Y804872D01*
X585035Y804902D01*
X585054Y804928D01*
X585081Y805015D01*
X585115Y805100D01*
X585119Y805141D01*
X585126Y805163D01*
X585125Y805195D01*
X585133Y805267D01*
X585133Y806465D01*
X586255Y809173D01*
X588327Y811245D01*
X591035Y812367D01*
X593965Y812367D01*
X596673Y811245D01*
X598745Y809173D01*
X599867Y806465D01*
X599867Y800435D01*
X598745Y797727D01*
X595684Y794666D01*
X595643Y794608D01*
X595593Y794556D01*
X595571Y794509D01*
X595541Y794467D01*
X595520Y794398D01*
X595490Y794333D01*
X595484Y794281D01*
X595468Y794231D01*
X595470Y794160D01*
X595462Y794089D01*
X595474Y794038D01*
X595475Y793986D01*
X595499Y793918D01*
X595515Y793848D01*
X595541Y793803D01*
X595559Y793755D01*
X595604Y793699D01*
X595641Y793637D01*
X595680Y793603D01*
X595713Y793563D01*
X595773Y793524D01*
X595828Y793477D01*
X595876Y793458D01*
X595920Y793430D01*
X595989Y793412D01*
X596056Y793385D01*
X596127Y793377D01*
X596158Y793369D01*
X596182Y793371D01*
X596223Y793367D01*
X759215Y793367D01*
X761923Y792245D01*
X781245Y772923D01*
X782367Y770215D01*
X782367Y768043D01*
X782385Y767929D01*
X782403Y767812D01*
X782405Y767807D01*
X782406Y767801D01*
X782461Y767698D01*
X782514Y767593D01*
X782519Y767589D01*
X782522Y767583D01*
X782606Y767503D01*
X782690Y767421D01*
X782696Y767417D01*
X782700Y767414D01*
X782717Y767406D01*
X782837Y767340D01*
X782843Y767337D01*
X786937Y763243D01*
X787145Y762741D01*
X787201Y762652D01*
X787252Y762560D01*
X787265Y762547D01*
X787275Y762532D01*
X787356Y762465D01*
X787434Y762394D01*
X787450Y762387D01*
X787464Y762375D01*
X787563Y762337D01*
X787659Y762295D01*
X787677Y762294D01*
X787694Y762287D01*
X787799Y762283D01*
X787904Y762273D01*
X787922Y762277D01*
X787940Y762277D01*
X788041Y762306D01*
X788143Y762330D01*
X788159Y762340D01*
X788176Y762345D01*
X788262Y762405D01*
X788352Y762461D01*
X788367Y762477D01*
X788378Y762485D01*
X788397Y762511D01*
X788464Y762585D01*
X789481Y763984D01*
X791016Y765519D01*
X792772Y766795D01*
X794706Y767780D01*
X796771Y768451D01*
X798477Y768721D01*
X798477Y755762D01*
X798480Y755742D01*
X798478Y755723D01*
X798500Y755621D01*
X798517Y755519D01*
X798526Y755502D01*
X798530Y755482D01*
X798583Y755393D01*
X798632Y755302D01*
X798646Y755288D01*
X798656Y755271D01*
X798735Y755204D01*
X798810Y755133D01*
X798828Y755124D01*
X798843Y755111D01*
X798939Y755073D01*
X799033Y755029D01*
X799053Y755027D01*
X799071Y755019D01*
X799238Y755001D01*
X800762Y755001D01*
X800782Y755004D01*
X800801Y755002D01*
X800903Y755024D01*
X801005Y755041D01*
X801022Y755050D01*
X801042Y755054D01*
X801131Y755107D01*
X801222Y755156D01*
X801236Y755170D01*
X801253Y755180D01*
X801320Y755259D01*
X801391Y755334D01*
X801400Y755352D01*
X801413Y755367D01*
X801452Y755463D01*
X801495Y755557D01*
X801497Y755577D01*
X801505Y755595D01*
X801523Y755762D01*
X801523Y768721D01*
X803229Y768451D01*
X805294Y767780D01*
X807228Y766795D01*
X808984Y765519D01*
X810519Y763984D01*
X810568Y763916D01*
X810574Y763911D01*
X810578Y763904D01*
X810661Y763825D01*
X810743Y763743D01*
X810750Y763740D01*
X810756Y763734D01*
X810860Y763686D01*
X810964Y763635D01*
X810972Y763634D01*
X810979Y763631D01*
X811094Y763618D01*
X811208Y763603D01*
X811216Y763604D01*
X811223Y763604D01*
X811336Y763628D01*
X811449Y763650D01*
X811456Y763654D01*
X811464Y763656D01*
X811563Y763715D01*
X811663Y763772D01*
X811668Y763778D01*
X811675Y763782D01*
X811750Y763870D01*
X811826Y763955D01*
X811830Y763963D01*
X811835Y763969D01*
X811878Y764076D01*
X811923Y764182D01*
X811924Y764190D01*
X811927Y764197D01*
X811945Y764364D01*
X811945Y774546D01*
X811942Y774566D01*
X811944Y774585D01*
X811922Y774687D01*
X811906Y774789D01*
X811896Y774806D01*
X811892Y774826D01*
X811839Y774915D01*
X811790Y775006D01*
X811776Y775020D01*
X811766Y775037D01*
X811687Y775104D01*
X811612Y775176D01*
X811594Y775184D01*
X811579Y775197D01*
X811483Y775236D01*
X811389Y775279D01*
X811369Y775281D01*
X811351Y775289D01*
X811184Y775307D01*
X807912Y775307D01*
X805977Y777242D01*
X805977Y798008D01*
X807912Y799943D01*
X826648Y799943D01*
X828583Y798008D01*
X828583Y777242D01*
X826648Y775307D01*
X823376Y775307D01*
X823356Y775304D01*
X823337Y775306D01*
X823235Y775284D01*
X823133Y775268D01*
X823116Y775258D01*
X823096Y775254D01*
X823007Y775201D01*
X822916Y775152D01*
X822902Y775138D01*
X822885Y775128D01*
X822818Y775049D01*
X822746Y774974D01*
X822738Y774956D01*
X822725Y774941D01*
X822686Y774845D01*
X822643Y774751D01*
X822641Y774731D01*
X822633Y774713D01*
X822615Y774546D01*
X822615Y720719D01*
X821803Y718758D01*
X698022Y594977D01*
X696061Y594165D01*
X617025Y594165D01*
X616935Y594151D01*
X616844Y594143D01*
X616814Y594131D01*
X616782Y594126D01*
X616702Y594083D01*
X616618Y594047D01*
X616586Y594021D01*
X616565Y594010D01*
X616543Y593987D01*
X616487Y593942D01*
X608558Y586013D01*
X608505Y585939D01*
X608445Y585870D01*
X608433Y585840D01*
X608414Y585813D01*
X608387Y585727D01*
X608353Y585642D01*
X608349Y585601D01*
X608342Y585578D01*
X608343Y585546D01*
X608335Y585475D01*
X608335Y575939D01*
X607523Y573978D01*
X599022Y565477D01*
X597061Y564665D01*
X593364Y564665D01*
X593344Y564662D01*
X593325Y564664D01*
X593223Y564642D01*
X593121Y564626D01*
X593104Y564616D01*
X593084Y564612D01*
X592995Y564559D01*
X592904Y564510D01*
X592890Y564496D01*
X592873Y564486D01*
X592806Y564407D01*
X592734Y564332D01*
X592726Y564314D01*
X592713Y564299D01*
X592674Y564203D01*
X592631Y564109D01*
X592629Y564089D01*
X592621Y564071D01*
X592603Y563904D01*
X592603Y549682D01*
X590668Y547747D01*
X562532Y547747D01*
X560597Y549682D01*
X560597Y550779D01*
X560594Y550799D01*
X560596Y550818D01*
X560574Y550920D01*
X560558Y551022D01*
X560548Y551039D01*
X560544Y551059D01*
X560491Y551148D01*
X560442Y551239D01*
X560428Y551253D01*
X560418Y551270D01*
X560339Y551337D01*
X560264Y551409D01*
X560246Y551417D01*
X560231Y551430D01*
X560135Y551469D01*
X560041Y551512D01*
X560021Y551514D01*
X560003Y551522D01*
X559836Y551540D01*
X559375Y551540D01*
X559285Y551526D01*
X559194Y551518D01*
X559164Y551506D01*
X559132Y551501D01*
X559051Y551458D01*
X558968Y551422D01*
X558935Y551396D01*
X558915Y551385D01*
X558893Y551362D01*
X558837Y551317D01*
X558388Y550869D01*
X555784Y549790D01*
X552966Y549790D01*
X550362Y550869D01*
X548369Y552862D01*
X547290Y555466D01*
X547290Y558284D01*
X548369Y560888D01*
X550362Y562881D01*
X551133Y563201D01*
X551216Y563252D01*
X551302Y563298D01*
X551320Y563317D01*
X551342Y563330D01*
X551405Y563405D01*
X551472Y563476D01*
X551483Y563500D01*
X551499Y563520D01*
X551534Y563611D01*
X551575Y563699D01*
X551578Y563725D01*
X551587Y563749D01*
X551592Y563847D01*
X551602Y563943D01*
X551597Y563969D01*
X551598Y563995D01*
X551571Y564089D01*
X551550Y564184D01*
X551537Y564206D01*
X551529Y564231D01*
X551474Y564311D01*
X551424Y564395D01*
X551404Y564412D01*
X551389Y564433D01*
X551311Y564492D01*
X551237Y564555D01*
X551213Y564565D01*
X551192Y564580D01*
X551099Y564610D01*
X551009Y564647D01*
X550976Y564650D01*
X550958Y564656D01*
X550925Y564656D01*
X550842Y564665D01*
X533025Y564665D01*
X532935Y564651D01*
X532844Y564643D01*
X532814Y564631D01*
X532782Y564626D01*
X532702Y564583D01*
X532618Y564547D01*
X532586Y564521D01*
X532565Y564510D01*
X532543Y564487D01*
X532487Y564442D01*
X498808Y530763D01*
X498755Y530689D01*
X498695Y530620D01*
X498683Y530590D01*
X498664Y530563D01*
X498637Y530477D01*
X498603Y530392D01*
X498599Y530351D01*
X498592Y530328D01*
X498593Y530296D01*
X498585Y530225D01*
X498585Y529591D01*
X497506Y526987D01*
X495513Y524994D01*
X492909Y523915D01*
X490091Y523915D01*
X487487Y524994D01*
X485494Y526987D01*
X484415Y529591D01*
X484415Y532409D01*
X485494Y535013D01*
X487487Y537006D01*
X490091Y538085D01*
X490725Y538085D01*
X490815Y538099D01*
X490906Y538107D01*
X490936Y538119D01*
X490968Y538124D01*
X491048Y538167D01*
X491132Y538203D01*
X491164Y538229D01*
X491185Y538240D01*
X491207Y538263D01*
X491263Y538308D01*
X525870Y572915D01*
X527478Y574523D01*
X529439Y575335D01*
X559836Y575335D01*
X559856Y575338D01*
X559875Y575336D01*
X559977Y575358D01*
X560079Y575374D01*
X560096Y575384D01*
X560116Y575388D01*
X560205Y575441D01*
X560296Y575490D01*
X560310Y575504D01*
X560327Y575514D01*
X560394Y575593D01*
X560466Y575668D01*
X560474Y575686D01*
X560487Y575701D01*
X560526Y575797D01*
X560569Y575891D01*
X560571Y575911D01*
X560579Y575929D01*
X560597Y576096D01*
X560597Y577029D01*
X560594Y577049D01*
X560596Y577068D01*
X560574Y577170D01*
X560558Y577272D01*
X560548Y577289D01*
X560544Y577309D01*
X560491Y577398D01*
X560442Y577489D01*
X560428Y577503D01*
X560418Y577520D01*
X560339Y577587D01*
X560264Y577659D01*
X560246Y577667D01*
X560231Y577680D01*
X560135Y577719D01*
X560041Y577762D01*
X560021Y577764D01*
X560003Y577772D01*
X559836Y577790D01*
X525814Y577790D01*
X523853Y578602D01*
X502352Y600103D01*
X501540Y602064D01*
X501540Y608750D01*
X501526Y608840D01*
X501518Y608931D01*
X501506Y608961D01*
X501501Y608993D01*
X501458Y609074D01*
X501422Y609157D01*
X501396Y609190D01*
X501385Y609210D01*
X501362Y609232D01*
X501317Y609288D01*
X500869Y609737D01*
X500799Y609905D01*
X500748Y609988D01*
X500702Y610074D01*
X500684Y610092D01*
X500670Y610114D01*
X500595Y610176D01*
X500524Y610243D01*
X500500Y610254D01*
X500480Y610271D01*
X500389Y610306D01*
X500301Y610347D01*
X500275Y610350D01*
X500251Y610359D01*
X500153Y610363D01*
X500057Y610374D01*
X500031Y610368D01*
X500005Y610369D01*
X499911Y610342D01*
X499816Y610321D01*
X499794Y610308D01*
X499769Y610301D01*
X499689Y610245D01*
X499605Y610195D01*
X499588Y610175D01*
X499567Y610161D01*
X499509Y610083D01*
X499445Y610008D01*
X499435Y609984D01*
X499420Y609963D01*
X499390Y609871D01*
X499353Y609780D01*
X499350Y609748D01*
X499344Y609729D01*
X499344Y609696D01*
X499335Y609614D01*
X499335Y601439D01*
X498523Y599478D01*
X480558Y581513D01*
X480505Y581439D01*
X480445Y581370D01*
X480433Y581340D01*
X480414Y581313D01*
X480387Y581227D01*
X480353Y581142D01*
X480349Y581101D01*
X480342Y581078D01*
X480343Y581046D01*
X480335Y580975D01*
X480335Y493025D01*
X480349Y492935D01*
X480357Y492844D01*
X480369Y492814D01*
X480374Y492782D01*
X480417Y492702D01*
X480453Y492618D01*
X480479Y492586D01*
X480490Y492565D01*
X480513Y492543D01*
X480558Y492487D01*
X482987Y490058D01*
X483061Y490005D01*
X483130Y489945D01*
X483160Y489933D01*
X483187Y489914D01*
X483273Y489887D01*
X483358Y489853D01*
X483399Y489849D01*
X483422Y489842D01*
X483454Y489843D01*
X483525Y489835D01*
X504841Y489835D01*
X506802Y489023D01*
X515784Y480041D01*
X515858Y479988D01*
X515927Y479928D01*
X515957Y479916D01*
X515984Y479897D01*
X516070Y479870D01*
X516155Y479836D01*
X516196Y479832D01*
X516219Y479825D01*
X516251Y479826D01*
X516322Y479818D01*
X530148Y479818D01*
X532083Y477883D01*
X532083Y457117D01*
X530148Y455182D01*
X511412Y455182D01*
X509477Y457117D01*
X509477Y460904D01*
X509474Y460924D01*
X509476Y460943D01*
X509454Y461045D01*
X509438Y461147D01*
X509428Y461164D01*
X509424Y461184D01*
X509371Y461273D01*
X509322Y461364D01*
X509308Y461378D01*
X509298Y461395D01*
X509219Y461462D01*
X509144Y461534D01*
X509126Y461542D01*
X509111Y461555D01*
X509015Y461594D01*
X508921Y461637D01*
X508901Y461639D01*
X508883Y461647D01*
X508716Y461665D01*
X495284Y461665D01*
X495264Y461662D01*
X495245Y461664D01*
X495143Y461642D01*
X495041Y461626D01*
X495024Y461616D01*
X495004Y461612D01*
X494915Y461559D01*
X494824Y461510D01*
X494810Y461496D01*
X494793Y461486D01*
X494726Y461407D01*
X494654Y461332D01*
X494646Y461314D01*
X494633Y461299D01*
X494594Y461203D01*
X494551Y461109D01*
X494549Y461089D01*
X494541Y461071D01*
X494523Y460904D01*
X494523Y456617D01*
X492588Y454682D01*
X473852Y454682D01*
G37*
%LPD*%
G36*
X608456Y601222D02*
X608456Y601222D01*
X608527Y601228D01*
X608575Y601248D01*
X608626Y601259D01*
X608687Y601296D01*
X608753Y601324D01*
X608809Y601369D01*
X608837Y601385D01*
X608852Y601403D01*
X608884Y601429D01*
X609870Y602415D01*
X611478Y604023D01*
X613439Y604835D01*
X692475Y604835D01*
X692565Y604849D01*
X692656Y604857D01*
X692686Y604869D01*
X692718Y604874D01*
X692798Y604917D01*
X692882Y604953D01*
X692914Y604979D01*
X692935Y604990D01*
X692957Y605013D01*
X693013Y605058D01*
X811722Y723767D01*
X811775Y723841D01*
X811835Y723910D01*
X811847Y723940D01*
X811866Y723967D01*
X811893Y724053D01*
X811927Y724138D01*
X811931Y724179D01*
X811938Y724202D01*
X811937Y724234D01*
X811945Y724305D01*
X811945Y745636D01*
X811944Y745644D01*
X811945Y745652D01*
X811924Y745766D01*
X811906Y745879D01*
X811902Y745886D01*
X811900Y745894D01*
X811844Y745995D01*
X811790Y746096D01*
X811785Y746102D01*
X811781Y746109D01*
X811696Y746186D01*
X811612Y746266D01*
X811605Y746269D01*
X811599Y746275D01*
X811494Y746321D01*
X811389Y746369D01*
X811381Y746370D01*
X811374Y746373D01*
X811259Y746384D01*
X811145Y746396D01*
X811137Y746395D01*
X811129Y746395D01*
X811017Y746369D01*
X810904Y746344D01*
X810897Y746340D01*
X810889Y746338D01*
X810792Y746277D01*
X810693Y746218D01*
X810688Y746212D01*
X810681Y746208D01*
X810568Y746084D01*
X810519Y746016D01*
X808984Y744481D01*
X807228Y743205D01*
X805294Y742220D01*
X803229Y741549D01*
X801523Y741279D01*
X801523Y754238D01*
X801520Y754258D01*
X801522Y754277D01*
X801500Y754379D01*
X801483Y754481D01*
X801474Y754498D01*
X801470Y754518D01*
X801417Y754607D01*
X801368Y754698D01*
X801354Y754712D01*
X801344Y754729D01*
X801265Y754796D01*
X801190Y754867D01*
X801172Y754876D01*
X801157Y754889D01*
X801061Y754927D01*
X800967Y754971D01*
X800947Y754973D01*
X800929Y754981D01*
X800762Y754999D01*
X799238Y754999D01*
X799218Y754996D01*
X799199Y754998D01*
X799097Y754976D01*
X798995Y754959D01*
X798978Y754950D01*
X798958Y754946D01*
X798869Y754893D01*
X798778Y754844D01*
X798764Y754830D01*
X798747Y754820D01*
X798680Y754741D01*
X798609Y754666D01*
X798600Y754648D01*
X798587Y754633D01*
X798548Y754537D01*
X798505Y754443D01*
X798503Y754423D01*
X798495Y754405D01*
X798477Y754238D01*
X798477Y741279D01*
X796771Y741549D01*
X794706Y742220D01*
X792772Y743205D01*
X791016Y744481D01*
X789481Y746016D01*
X788464Y747415D01*
X788390Y747489D01*
X788319Y747567D01*
X788303Y747575D01*
X788290Y747588D01*
X788195Y747634D01*
X788103Y747685D01*
X788085Y747688D01*
X788069Y747696D01*
X787965Y747710D01*
X787861Y747729D01*
X787843Y747726D01*
X787825Y747729D01*
X787722Y747708D01*
X787618Y747693D01*
X787601Y747685D01*
X787584Y747681D01*
X787492Y747629D01*
X787398Y747581D01*
X787386Y747569D01*
X787370Y747559D01*
X787300Y747481D01*
X787226Y747406D01*
X787215Y747386D01*
X787206Y747376D01*
X787194Y747347D01*
X787145Y747259D01*
X786937Y746757D01*
X782843Y742663D01*
X777495Y740447D01*
X771705Y740447D01*
X766357Y742663D01*
X762388Y746631D01*
X762372Y746643D01*
X762360Y746658D01*
X762272Y746714D01*
X762189Y746775D01*
X762170Y746780D01*
X762153Y746791D01*
X762052Y746817D01*
X761953Y746847D01*
X761934Y746846D01*
X761914Y746851D01*
X761811Y746843D01*
X761708Y746841D01*
X761689Y746834D01*
X761669Y746832D01*
X761574Y746792D01*
X761477Y746756D01*
X761461Y746744D01*
X761443Y746736D01*
X761312Y746631D01*
X757343Y742663D01*
X754905Y741653D01*
X754805Y741591D01*
X754705Y741531D01*
X754701Y741526D01*
X754696Y741523D01*
X754621Y741432D01*
X754545Y741344D01*
X754543Y741338D01*
X754539Y741334D01*
X754497Y741225D01*
X754453Y741116D01*
X754452Y741108D01*
X754451Y741104D01*
X754450Y741086D01*
X754435Y740949D01*
X754435Y739326D01*
X754439Y739300D01*
X754438Y739251D01*
X754595Y737674D01*
X754602Y737647D01*
X754602Y737619D01*
X754649Y737458D01*
X754710Y737311D01*
X754710Y736551D01*
X754714Y736525D01*
X754713Y736476D01*
X754788Y735720D01*
X754742Y735568D01*
X754739Y735540D01*
X754728Y735514D01*
X754710Y735348D01*
X754710Y735189D01*
X754419Y734487D01*
X754413Y734461D01*
X754394Y734416D01*
X754174Y733689D01*
X754073Y733566D01*
X754059Y733542D01*
X754039Y733522D01*
X753958Y733375D01*
X753898Y733228D01*
X753360Y732691D01*
X753345Y732669D01*
X753310Y732635D01*
X752828Y732048D01*
X752688Y731973D01*
X752666Y731955D01*
X752640Y731945D01*
X752509Y731840D01*
X729272Y708602D01*
X727311Y707790D01*
X683150Y707790D01*
X683060Y707776D01*
X682969Y707768D01*
X682939Y707756D01*
X682907Y707751D01*
X682827Y707708D01*
X682743Y707672D01*
X682711Y707646D01*
X682690Y707635D01*
X682668Y707612D01*
X682612Y707567D01*
X643679Y668634D01*
X643637Y668576D01*
X643587Y668524D01*
X643565Y668477D01*
X643535Y668435D01*
X643514Y668366D01*
X643484Y668301D01*
X643478Y668249D01*
X643463Y668199D01*
X643465Y668128D01*
X643457Y668057D01*
X643468Y668006D01*
X643469Y667954D01*
X643494Y667886D01*
X643509Y667816D01*
X643536Y667771D01*
X643554Y667723D01*
X643598Y667667D01*
X643635Y667605D01*
X643675Y667571D01*
X643707Y667531D01*
X643768Y667492D01*
X643822Y667445D01*
X643870Y667426D01*
X643914Y667398D01*
X643984Y667380D01*
X644050Y667353D01*
X644122Y667345D01*
X644153Y667337D01*
X644176Y667339D01*
X644217Y667335D01*
X650500Y667335D01*
X650590Y667349D01*
X650681Y667357D01*
X650711Y667369D01*
X650743Y667374D01*
X650824Y667417D01*
X650907Y667453D01*
X650940Y667479D01*
X650960Y667490D01*
X650982Y667513D01*
X651038Y667558D01*
X651487Y668006D01*
X654091Y669085D01*
X656909Y669085D01*
X659513Y668006D01*
X661506Y666013D01*
X662585Y663409D01*
X662585Y660591D01*
X661506Y657987D01*
X659513Y655994D01*
X656909Y654915D01*
X654091Y654915D01*
X651487Y655994D01*
X651038Y656442D01*
X650964Y656495D01*
X650895Y656555D01*
X650865Y656567D01*
X650839Y656586D01*
X650752Y656613D01*
X650667Y656647D01*
X650626Y656651D01*
X650604Y656658D01*
X650571Y656657D01*
X650500Y656665D01*
X623025Y656665D01*
X622935Y656651D01*
X622844Y656643D01*
X622814Y656631D01*
X622782Y656626D01*
X622702Y656583D01*
X622618Y656547D01*
X622586Y656521D01*
X622565Y656510D01*
X622543Y656487D01*
X622487Y656442D01*
X615808Y649763D01*
X615755Y649689D01*
X615695Y649620D01*
X615683Y649590D01*
X615664Y649563D01*
X615637Y649477D01*
X615603Y649392D01*
X615599Y649351D01*
X615592Y649328D01*
X615593Y649296D01*
X615585Y649225D01*
X615585Y648591D01*
X614506Y645987D01*
X612513Y643994D01*
X609909Y642915D01*
X607091Y642915D01*
X604487Y643994D01*
X602494Y645987D01*
X601415Y648591D01*
X601415Y651409D01*
X602494Y654013D01*
X604487Y656006D01*
X607091Y657085D01*
X607725Y657085D01*
X607815Y657099D01*
X607906Y657107D01*
X607936Y657119D01*
X607968Y657124D01*
X608048Y657167D01*
X608132Y657203D01*
X608164Y657229D01*
X608185Y657240D01*
X608207Y657263D01*
X608263Y657308D01*
X616021Y665066D01*
X616063Y665124D01*
X616113Y665176D01*
X616134Y665223D01*
X616165Y665265D01*
X616186Y665334D01*
X616216Y665399D01*
X616222Y665451D01*
X616237Y665501D01*
X616235Y665572D01*
X616243Y665643D01*
X616232Y665694D01*
X616231Y665746D01*
X616206Y665814D01*
X616191Y665884D01*
X616164Y665929D01*
X616146Y665977D01*
X616102Y666033D01*
X616065Y666095D01*
X616025Y666129D01*
X615993Y666169D01*
X615932Y666208D01*
X615878Y666255D01*
X615830Y666274D01*
X615786Y666302D01*
X615716Y666320D01*
X615650Y666347D01*
X615578Y666355D01*
X615547Y666363D01*
X615524Y666361D01*
X615483Y666365D01*
X593364Y666365D01*
X593344Y666362D01*
X593325Y666364D01*
X593223Y666342D01*
X593121Y666326D01*
X593104Y666316D01*
X593084Y666312D01*
X592995Y666259D01*
X592904Y666210D01*
X592890Y666196D01*
X592873Y666186D01*
X592806Y666107D01*
X592734Y666032D01*
X592726Y666014D01*
X592713Y665999D01*
X592674Y665903D01*
X592631Y665809D01*
X592629Y665789D01*
X592621Y665771D01*
X592603Y665604D01*
X592603Y652346D01*
X592606Y652326D01*
X592604Y652307D01*
X592626Y652205D01*
X592642Y652103D01*
X592652Y652086D01*
X592656Y652066D01*
X592709Y651977D01*
X592758Y651886D01*
X592772Y651872D01*
X592782Y651855D01*
X592861Y651788D01*
X592936Y651716D01*
X592954Y651708D01*
X592969Y651695D01*
X593065Y651656D01*
X593159Y651613D01*
X593179Y651611D01*
X593197Y651603D01*
X593364Y651585D01*
X593561Y651585D01*
X595522Y650773D01*
X605148Y641147D01*
X605960Y639186D01*
X605960Y617689D01*
X605148Y615728D01*
X603540Y614120D01*
X599304Y609884D01*
X599262Y609826D01*
X599212Y609774D01*
X599191Y609727D01*
X599160Y609685D01*
X599139Y609616D01*
X599109Y609551D01*
X599103Y609499D01*
X599088Y609449D01*
X599090Y609378D01*
X599082Y609307D01*
X599093Y609256D01*
X599094Y609204D01*
X599119Y609136D01*
X599134Y609066D01*
X599161Y609021D01*
X599179Y608973D01*
X599223Y608917D01*
X599260Y608855D01*
X599300Y608821D01*
X599332Y608781D01*
X599393Y608742D01*
X599447Y608695D01*
X599495Y608676D01*
X599539Y608648D01*
X599609Y608630D01*
X599675Y608603D01*
X599747Y608595D01*
X599778Y608587D01*
X599801Y608589D01*
X599842Y608585D01*
X601909Y608585D01*
X604513Y607506D01*
X606506Y605513D01*
X607585Y602909D01*
X607585Y601967D01*
X607596Y601896D01*
X607598Y601825D01*
X607616Y601776D01*
X607624Y601724D01*
X607658Y601661D01*
X607683Y601594D01*
X607715Y601553D01*
X607740Y601507D01*
X607791Y601458D01*
X607836Y601402D01*
X607880Y601373D01*
X607918Y601337D01*
X607983Y601307D01*
X608043Y601269D01*
X608094Y601256D01*
X608141Y601234D01*
X608212Y601226D01*
X608282Y601208D01*
X608334Y601213D01*
X608385Y601207D01*
X608456Y601222D01*
G37*
%LPC*%
G36*
X730516Y482459D02*
X730516Y482459D01*
X722232Y485891D01*
X715891Y492232D01*
X712459Y500516D01*
X712459Y501960D01*
X712457Y501972D01*
X712458Y501981D01*
X712449Y502024D01*
X712444Y502054D01*
X712435Y502149D01*
X712424Y502175D01*
X712420Y502203D01*
X712375Y502287D01*
X712337Y502375D01*
X712318Y502396D01*
X712304Y502420D01*
X712235Y502486D01*
X712171Y502557D01*
X712147Y502570D01*
X712126Y502590D01*
X712040Y502630D01*
X711956Y502676D01*
X711929Y502682D01*
X711903Y502693D01*
X711808Y502704D01*
X711715Y502721D01*
X711687Y502717D01*
X711659Y502721D01*
X711565Y502700D01*
X711471Y502687D01*
X711439Y502673D01*
X711418Y502668D01*
X711390Y502651D01*
X711317Y502620D01*
X705630Y499336D01*
X698626Y497459D01*
X691374Y497459D01*
X684370Y499336D01*
X678090Y502962D01*
X672962Y508090D01*
X669336Y514370D01*
X667459Y521374D01*
X667459Y528626D01*
X669336Y535630D01*
X672962Y541910D01*
X677211Y546160D01*
X677253Y546218D01*
X677302Y546270D01*
X677324Y546317D01*
X677355Y546359D01*
X677376Y546428D01*
X677406Y546493D01*
X677412Y546545D01*
X677427Y546595D01*
X677425Y546666D01*
X677433Y546737D01*
X677422Y546788D01*
X677421Y546840D01*
X677396Y546908D01*
X677381Y546978D01*
X677354Y547023D01*
X677336Y547071D01*
X677291Y547127D01*
X677255Y547189D01*
X677215Y547223D01*
X677183Y547263D01*
X677122Y547302D01*
X677068Y547349D01*
X677020Y547368D01*
X676976Y547396D01*
X676906Y547414D01*
X676840Y547441D01*
X676768Y547449D01*
X676737Y547457D01*
X676714Y547455D01*
X676673Y547459D01*
X675516Y547459D01*
X667232Y550891D01*
X660891Y557232D01*
X658203Y563720D01*
X658165Y563781D01*
X658136Y563847D01*
X658101Y563885D01*
X658074Y563929D01*
X658018Y563975D01*
X657970Y564028D01*
X657924Y564053D01*
X657884Y564086D01*
X657817Y564112D01*
X657754Y564146D01*
X657703Y564156D01*
X657655Y564174D01*
X657583Y564177D01*
X657512Y564190D01*
X657461Y564182D01*
X657409Y564185D01*
X657340Y564165D01*
X657269Y564154D01*
X657223Y564131D01*
X657173Y564116D01*
X657114Y564075D01*
X657050Y564043D01*
X657013Y564005D01*
X656971Y563976D01*
X656928Y563918D01*
X656878Y563867D01*
X656843Y563804D01*
X656824Y563778D01*
X656817Y563756D01*
X656797Y563720D01*
X654109Y557232D01*
X647768Y550891D01*
X639484Y547459D01*
X630516Y547459D01*
X622232Y550891D01*
X615891Y557232D01*
X612459Y565516D01*
X612459Y574484D01*
X615891Y582768D01*
X622232Y589109D01*
X630516Y592541D01*
X639484Y592541D01*
X647768Y589109D01*
X654109Y582768D01*
X656797Y576280D01*
X656834Y576219D01*
X656864Y576153D01*
X656899Y576115D01*
X656926Y576071D01*
X656981Y576025D01*
X657030Y575972D01*
X657076Y575947D01*
X657116Y575914D01*
X657183Y575888D01*
X657246Y575854D01*
X657297Y575844D01*
X657345Y575826D01*
X657417Y575823D01*
X657488Y575810D01*
X657539Y575818D01*
X657591Y575815D01*
X657660Y575835D01*
X657731Y575846D01*
X657777Y575869D01*
X657827Y575884D01*
X657886Y575925D01*
X657950Y575957D01*
X657987Y575995D01*
X658029Y576024D01*
X658072Y576082D01*
X658122Y576133D01*
X658157Y576196D01*
X658176Y576222D01*
X658183Y576244D01*
X658203Y576280D01*
X660891Y582768D01*
X667232Y589109D01*
X675516Y592541D01*
X684484Y592541D01*
X692768Y589109D01*
X699109Y582768D01*
X702541Y574484D01*
X702541Y565516D01*
X699109Y557232D01*
X695718Y553840D01*
X695676Y553782D01*
X695626Y553730D01*
X695605Y553683D01*
X695574Y553641D01*
X695553Y553572D01*
X695523Y553507D01*
X695517Y553455D01*
X695502Y553405D01*
X695504Y553334D01*
X695496Y553263D01*
X695507Y553212D01*
X695508Y553160D01*
X695533Y553092D01*
X695548Y553022D01*
X695575Y552977D01*
X695593Y552929D01*
X695637Y552873D01*
X695674Y552811D01*
X695714Y552777D01*
X695746Y552737D01*
X695807Y552698D01*
X695861Y552651D01*
X695909Y552632D01*
X695953Y552604D01*
X696023Y552586D01*
X696089Y552559D01*
X696161Y552551D01*
X696192Y552543D01*
X696215Y552545D01*
X696256Y552541D01*
X698626Y552541D01*
X705630Y550664D01*
X711910Y547038D01*
X717038Y541910D01*
X720664Y535630D01*
X722541Y528626D01*
X722541Y525376D01*
X722548Y525331D01*
X722546Y525285D01*
X722568Y525210D01*
X722580Y525134D01*
X722602Y525093D01*
X722615Y525049D01*
X722659Y524985D01*
X722696Y524916D01*
X722729Y524885D01*
X722755Y524847D01*
X722818Y524800D01*
X722874Y524747D01*
X722916Y524728D01*
X722952Y524700D01*
X723026Y524676D01*
X723097Y524643D01*
X723143Y524638D01*
X723186Y524624D01*
X723264Y524625D01*
X723341Y524616D01*
X723386Y524626D01*
X723432Y524626D01*
X723564Y524664D01*
X723582Y524668D01*
X723586Y524671D01*
X723593Y524673D01*
X730516Y527541D01*
X739484Y527541D01*
X747209Y524341D01*
X747297Y524320D01*
X747384Y524292D01*
X747417Y524292D01*
X747448Y524285D01*
X747539Y524293D01*
X747630Y524294D01*
X747670Y524306D01*
X747693Y524308D01*
X747722Y524321D01*
X747791Y524341D01*
X755516Y527541D01*
X764484Y527541D01*
X772209Y524341D01*
X772297Y524320D01*
X772384Y524292D01*
X772417Y524292D01*
X772448Y524285D01*
X772539Y524293D01*
X772630Y524294D01*
X772670Y524306D01*
X772693Y524308D01*
X772722Y524321D01*
X772791Y524341D01*
X780516Y527541D01*
X789484Y527541D01*
X796407Y524673D01*
X796451Y524663D01*
X796493Y524643D01*
X796570Y524635D01*
X796646Y524617D01*
X796692Y524621D01*
X796737Y524616D01*
X796814Y524633D01*
X796891Y524640D01*
X796933Y524659D01*
X796978Y524668D01*
X797045Y524708D01*
X797116Y524740D01*
X797150Y524771D01*
X797189Y524795D01*
X797240Y524854D01*
X797297Y524906D01*
X797319Y524947D01*
X797349Y524982D01*
X797378Y525054D01*
X797415Y525122D01*
X797424Y525167D01*
X797441Y525210D01*
X797456Y525346D01*
X797459Y525364D01*
X797458Y525369D01*
X797459Y525376D01*
X797459Y528626D01*
X799336Y535630D01*
X802962Y541910D01*
X808090Y547038D01*
X814370Y550664D01*
X821374Y552541D01*
X828626Y552541D01*
X835630Y550664D01*
X841910Y547038D01*
X847038Y541910D01*
X850664Y535630D01*
X852541Y528626D01*
X852541Y521374D01*
X850664Y514370D01*
X847038Y508090D01*
X841910Y502962D01*
X835630Y499336D01*
X828626Y497459D01*
X821374Y497459D01*
X814370Y499336D01*
X808683Y502620D01*
X808594Y502653D01*
X808507Y502693D01*
X808479Y502697D01*
X808453Y502707D01*
X808357Y502710D01*
X808263Y502721D01*
X808235Y502715D01*
X808207Y502716D01*
X808115Y502688D01*
X808022Y502668D01*
X807998Y502654D01*
X807971Y502646D01*
X807893Y502591D01*
X807811Y502542D01*
X807793Y502521D01*
X807770Y502504D01*
X807713Y502428D01*
X807651Y502355D01*
X807641Y502329D01*
X807624Y502306D01*
X807595Y502216D01*
X807559Y502127D01*
X807555Y502092D01*
X807549Y502072D01*
X807549Y502039D01*
X807541Y501960D01*
X807541Y500516D01*
X804109Y492232D01*
X797768Y485891D01*
X789484Y482459D01*
X780516Y482459D01*
X772791Y485659D01*
X772703Y485680D01*
X772616Y485708D01*
X772583Y485708D01*
X772552Y485715D01*
X772461Y485707D01*
X772370Y485706D01*
X772330Y485694D01*
X772307Y485692D01*
X772278Y485679D01*
X772209Y485659D01*
X764484Y482459D01*
X755516Y482459D01*
X747791Y485659D01*
X747703Y485680D01*
X747616Y485708D01*
X747583Y485708D01*
X747552Y485715D01*
X747461Y485707D01*
X747370Y485706D01*
X747330Y485694D01*
X747307Y485692D01*
X747278Y485679D01*
X747209Y485659D01*
X739484Y482459D01*
X730516Y482459D01*
G37*
%LPD*%
%LPC*%
G36*
X630516Y607459D02*
X630516Y607459D01*
X622232Y610891D01*
X615891Y617232D01*
X612459Y625516D01*
X612459Y634484D01*
X615891Y642768D01*
X622232Y649109D01*
X630516Y652541D01*
X639484Y652541D01*
X647768Y649109D01*
X654109Y642768D01*
X656797Y636280D01*
X656834Y636219D01*
X656864Y636153D01*
X656899Y636115D01*
X656926Y636071D01*
X656981Y636025D01*
X657030Y635972D01*
X657076Y635947D01*
X657116Y635914D01*
X657183Y635888D01*
X657246Y635854D01*
X657297Y635844D01*
X657345Y635826D01*
X657417Y635823D01*
X657488Y635810D01*
X657539Y635818D01*
X657591Y635815D01*
X657660Y635835D01*
X657731Y635846D01*
X657777Y635869D01*
X657827Y635884D01*
X657886Y635925D01*
X657950Y635957D01*
X657987Y635995D01*
X658029Y636024D01*
X658072Y636082D01*
X658122Y636133D01*
X658157Y636196D01*
X658176Y636222D01*
X658183Y636244D01*
X658203Y636280D01*
X660891Y642768D01*
X667232Y649109D01*
X675516Y652541D01*
X676673Y652541D01*
X676744Y652552D01*
X676815Y652554D01*
X676864Y652572D01*
X676916Y652580D01*
X676979Y652614D01*
X677046Y652639D01*
X677087Y652671D01*
X677133Y652696D01*
X677182Y652748D01*
X677238Y652792D01*
X677267Y652836D01*
X677302Y652874D01*
X677333Y652939D01*
X677371Y652999D01*
X677384Y653050D01*
X677406Y653097D01*
X677414Y653168D01*
X677432Y653238D01*
X677427Y653290D01*
X677433Y653341D01*
X677418Y653412D01*
X677412Y653483D01*
X677392Y653531D01*
X677381Y653582D01*
X677344Y653643D01*
X677316Y653709D01*
X677271Y653765D01*
X677255Y653793D01*
X677237Y653808D01*
X677211Y653840D01*
X672962Y658090D01*
X669336Y664370D01*
X667459Y671374D01*
X667459Y678626D01*
X669336Y685630D01*
X672962Y691910D01*
X678090Y697038D01*
X684370Y700664D01*
X691374Y702541D01*
X698626Y702541D01*
X705630Y700664D01*
X711910Y697038D01*
X717038Y691910D01*
X720664Y685630D01*
X722541Y678626D01*
X722541Y671374D01*
X720664Y664370D01*
X717038Y658090D01*
X711910Y652962D01*
X705630Y649336D01*
X698626Y647459D01*
X696256Y647459D01*
X696185Y647448D01*
X696114Y647446D01*
X696065Y647428D01*
X696013Y647420D01*
X695950Y647386D01*
X695883Y647361D01*
X695842Y647329D01*
X695796Y647304D01*
X695746Y647252D01*
X695690Y647208D01*
X695662Y647164D01*
X695626Y647126D01*
X695596Y647061D01*
X695557Y647001D01*
X695545Y646950D01*
X695523Y646903D01*
X695515Y646832D01*
X695497Y646762D01*
X695501Y646710D01*
X695496Y646659D01*
X695511Y646588D01*
X695517Y646517D01*
X695537Y646469D01*
X695548Y646418D01*
X695585Y646357D01*
X695613Y646291D01*
X695658Y646235D01*
X695674Y646207D01*
X695692Y646192D01*
X695718Y646160D01*
X699109Y642768D01*
X702541Y634484D01*
X702541Y625516D01*
X699109Y617232D01*
X692768Y610891D01*
X684484Y607459D01*
X675516Y607459D01*
X667232Y610891D01*
X660891Y617232D01*
X658203Y623720D01*
X658165Y623781D01*
X658136Y623847D01*
X658101Y623885D01*
X658074Y623929D01*
X658018Y623975D01*
X657970Y624028D01*
X657924Y624053D01*
X657884Y624086D01*
X657817Y624112D01*
X657754Y624146D01*
X657703Y624156D01*
X657655Y624174D01*
X657583Y624177D01*
X657512Y624190D01*
X657461Y624182D01*
X657409Y624185D01*
X657340Y624165D01*
X657269Y624154D01*
X657223Y624131D01*
X657173Y624116D01*
X657114Y624075D01*
X657050Y624043D01*
X657013Y624005D01*
X656971Y623976D01*
X656928Y623918D01*
X656878Y623867D01*
X656843Y623804D01*
X656824Y623778D01*
X656817Y623756D01*
X656797Y623720D01*
X654109Y617232D01*
X647768Y610891D01*
X639484Y607459D01*
X630516Y607459D01*
G37*
%LPD*%
%LPC*%
G36*
X110516Y607459D02*
X110516Y607459D01*
X102232Y610891D01*
X95891Y617232D01*
X92459Y625516D01*
X92459Y634484D01*
X95891Y642768D01*
X102232Y649109D01*
X110516Y652541D01*
X119484Y652541D01*
X127768Y649109D01*
X134109Y642768D01*
X136797Y636280D01*
X136834Y636219D01*
X136864Y636153D01*
X136899Y636115D01*
X136926Y636071D01*
X136981Y636025D01*
X137030Y635972D01*
X137076Y635947D01*
X137116Y635914D01*
X137183Y635888D01*
X137246Y635854D01*
X137297Y635844D01*
X137345Y635826D01*
X137417Y635823D01*
X137488Y635810D01*
X137539Y635818D01*
X137591Y635815D01*
X137660Y635835D01*
X137731Y635846D01*
X137777Y635869D01*
X137827Y635884D01*
X137886Y635925D01*
X137950Y635957D01*
X137987Y635995D01*
X138029Y636024D01*
X138072Y636082D01*
X138122Y636133D01*
X138157Y636196D01*
X138176Y636222D01*
X138183Y636244D01*
X138203Y636280D01*
X140891Y642768D01*
X147232Y649109D01*
X155516Y652541D01*
X156673Y652541D01*
X156744Y652552D01*
X156815Y652554D01*
X156864Y652572D01*
X156916Y652580D01*
X156979Y652614D01*
X157046Y652639D01*
X157087Y652671D01*
X157133Y652696D01*
X157182Y652748D01*
X157238Y652792D01*
X157267Y652836D01*
X157302Y652874D01*
X157333Y652939D01*
X157371Y652999D01*
X157384Y653050D01*
X157406Y653097D01*
X157414Y653168D01*
X157432Y653238D01*
X157427Y653290D01*
X157433Y653341D01*
X157418Y653412D01*
X157412Y653483D01*
X157392Y653531D01*
X157381Y653582D01*
X157344Y653643D01*
X157316Y653709D01*
X157271Y653765D01*
X157255Y653793D01*
X157237Y653808D01*
X157211Y653840D01*
X152962Y658090D01*
X149336Y664370D01*
X147459Y671374D01*
X147459Y678626D01*
X149336Y685630D01*
X152962Y691910D01*
X158090Y697038D01*
X164370Y700664D01*
X171374Y702541D01*
X178626Y702541D01*
X185630Y700664D01*
X191910Y697038D01*
X197038Y691910D01*
X200664Y685630D01*
X202541Y678626D01*
X202541Y671374D01*
X200664Y664370D01*
X197038Y658090D01*
X191910Y652962D01*
X185630Y649336D01*
X178626Y647459D01*
X176256Y647459D01*
X176185Y647448D01*
X176114Y647446D01*
X176065Y647428D01*
X176013Y647420D01*
X175950Y647386D01*
X175883Y647361D01*
X175842Y647329D01*
X175796Y647304D01*
X175746Y647252D01*
X175690Y647208D01*
X175662Y647164D01*
X175626Y647126D01*
X175596Y647061D01*
X175557Y647001D01*
X175545Y646950D01*
X175523Y646903D01*
X175515Y646832D01*
X175497Y646762D01*
X175501Y646710D01*
X175496Y646659D01*
X175511Y646588D01*
X175517Y646517D01*
X175537Y646469D01*
X175548Y646418D01*
X175585Y646357D01*
X175613Y646291D01*
X175658Y646235D01*
X175674Y646207D01*
X175692Y646192D01*
X175718Y646160D01*
X179109Y642768D01*
X182541Y634484D01*
X182541Y625516D01*
X179109Y617232D01*
X172768Y610891D01*
X164484Y607459D01*
X155516Y607459D01*
X147232Y610891D01*
X140891Y617232D01*
X138203Y623720D01*
X138165Y623781D01*
X138136Y623847D01*
X138101Y623885D01*
X138074Y623929D01*
X138018Y623975D01*
X137970Y624028D01*
X137924Y624053D01*
X137884Y624086D01*
X137817Y624112D01*
X137754Y624146D01*
X137703Y624156D01*
X137655Y624174D01*
X137583Y624177D01*
X137512Y624190D01*
X137461Y624182D01*
X137409Y624185D01*
X137340Y624165D01*
X137269Y624154D01*
X137223Y624131D01*
X137173Y624116D01*
X137114Y624075D01*
X137050Y624043D01*
X137013Y624005D01*
X136971Y623976D01*
X136928Y623918D01*
X136878Y623867D01*
X136843Y623804D01*
X136824Y623778D01*
X136817Y623756D01*
X136797Y623720D01*
X134109Y617232D01*
X127768Y610891D01*
X119484Y607459D01*
X110516Y607459D01*
G37*
%LPD*%
%LPC*%
G36*
X855516Y552459D02*
X855516Y552459D01*
X847232Y555891D01*
X840891Y562232D01*
X837459Y570516D01*
X837459Y579484D01*
X840659Y587209D01*
X840680Y587297D01*
X840708Y587384D01*
X840708Y587417D01*
X840715Y587448D01*
X840707Y587539D01*
X840706Y587630D01*
X840694Y587670D01*
X840692Y587693D01*
X840679Y587722D01*
X840659Y587791D01*
X837459Y595516D01*
X837459Y604484D01*
X840659Y612209D01*
X840680Y612297D01*
X840708Y612384D01*
X840708Y612417D01*
X840715Y612448D01*
X840707Y612539D01*
X840706Y612630D01*
X840694Y612670D01*
X840692Y612693D01*
X840679Y612722D01*
X840659Y612791D01*
X837459Y620516D01*
X837459Y629484D01*
X840891Y637768D01*
X847232Y644109D01*
X855516Y647541D01*
X864484Y647541D01*
X872768Y644109D01*
X879109Y637768D01*
X882541Y629484D01*
X882541Y620516D01*
X879341Y612791D01*
X879320Y612703D01*
X879292Y612616D01*
X879292Y612583D01*
X879285Y612552D01*
X879293Y612461D01*
X879294Y612370D01*
X879306Y612330D01*
X879308Y612307D01*
X879321Y612278D01*
X879341Y612209D01*
X882541Y604484D01*
X882541Y595516D01*
X879341Y587791D01*
X879320Y587703D01*
X879292Y587616D01*
X879292Y587583D01*
X879285Y587552D01*
X879293Y587461D01*
X879294Y587370D01*
X879306Y587330D01*
X879308Y587307D01*
X879321Y587278D01*
X879341Y587209D01*
X882541Y579484D01*
X882541Y570516D01*
X879109Y562232D01*
X872768Y555891D01*
X864484Y552459D01*
X855516Y552459D01*
G37*
%LPD*%
%LPC*%
G36*
X640591Y796915D02*
X640591Y796915D01*
X637987Y797994D01*
X635994Y799987D01*
X634915Y802591D01*
X634915Y805409D01*
X635994Y808013D01*
X636442Y808462D01*
X636495Y808536D01*
X636555Y808605D01*
X636567Y808635D01*
X636586Y808661D01*
X636613Y808748D01*
X636647Y808833D01*
X636651Y808874D01*
X636658Y808896D01*
X636657Y808929D01*
X636665Y809000D01*
X636665Y869061D01*
X637477Y871022D01*
X653478Y887023D01*
X655439Y887835D01*
X724341Y887835D01*
X726302Y887023D01*
X727910Y885415D01*
X742784Y870541D01*
X742858Y870488D01*
X742927Y870428D01*
X742957Y870416D01*
X742983Y870397D01*
X743070Y870370D01*
X743155Y870336D01*
X743196Y870332D01*
X743219Y870325D01*
X743251Y870326D01*
X743322Y870318D01*
X757148Y870318D01*
X759083Y868383D01*
X759083Y847617D01*
X757148Y845682D01*
X738412Y845682D01*
X736477Y847617D01*
X736477Y861443D01*
X736463Y861533D01*
X736455Y861624D01*
X736443Y861654D01*
X736438Y861686D01*
X736395Y861766D01*
X736359Y861850D01*
X736333Y861882D01*
X736322Y861903D01*
X736299Y861925D01*
X736254Y861981D01*
X721293Y876942D01*
X721219Y876995D01*
X721150Y877055D01*
X721120Y877067D01*
X721093Y877086D01*
X721007Y877113D01*
X720922Y877147D01*
X720881Y877151D01*
X720858Y877158D01*
X720826Y877157D01*
X720755Y877165D01*
X659025Y877165D01*
X658935Y877151D01*
X658844Y877143D01*
X658814Y877131D01*
X658782Y877126D01*
X658702Y877083D01*
X658618Y877047D01*
X658586Y877021D01*
X658565Y877010D01*
X658543Y876987D01*
X658487Y876942D01*
X647558Y866013D01*
X647505Y865939D01*
X647445Y865870D01*
X647433Y865840D01*
X647414Y865813D01*
X647387Y865727D01*
X647353Y865642D01*
X647349Y865601D01*
X647342Y865578D01*
X647343Y865546D01*
X647335Y865475D01*
X647335Y809000D01*
X647349Y808910D01*
X647357Y808819D01*
X647369Y808789D01*
X647374Y808757D01*
X647417Y808676D01*
X647453Y808593D01*
X647479Y808560D01*
X647490Y808540D01*
X647513Y808518D01*
X647558Y808462D01*
X648006Y808013D01*
X649047Y805501D01*
X649085Y805440D01*
X649114Y805375D01*
X649149Y805336D01*
X649176Y805292D01*
X649232Y805246D01*
X649280Y805193D01*
X649326Y805168D01*
X649366Y805135D01*
X649433Y805109D01*
X649496Y805075D01*
X649547Y805066D01*
X649595Y805047D01*
X649667Y805044D01*
X649738Y805031D01*
X649789Y805039D01*
X649841Y805037D01*
X649910Y805057D01*
X649981Y805067D01*
X650027Y805091D01*
X650077Y805105D01*
X650136Y805146D01*
X650200Y805178D01*
X650237Y805216D01*
X650279Y805245D01*
X650322Y805303D01*
X650372Y805354D01*
X650407Y805417D01*
X650426Y805443D01*
X650433Y805465D01*
X650453Y805501D01*
X651494Y808013D01*
X651942Y808462D01*
X651995Y808536D01*
X652055Y808605D01*
X652067Y808635D01*
X652086Y808661D01*
X652113Y808748D01*
X652147Y808833D01*
X652151Y808874D01*
X652158Y808896D01*
X652157Y808929D01*
X652165Y809000D01*
X652165Y837781D01*
X652977Y839742D01*
X667254Y854019D01*
X667307Y854093D01*
X667367Y854162D01*
X667379Y854192D01*
X667398Y854219D01*
X667425Y854305D01*
X667459Y854390D01*
X667463Y854431D01*
X667470Y854454D01*
X667469Y854486D01*
X667477Y854557D01*
X667477Y868383D01*
X669412Y870318D01*
X688148Y870318D01*
X690083Y868383D01*
X690083Y847617D01*
X688148Y845682D01*
X674322Y845682D01*
X674232Y845668D01*
X674141Y845660D01*
X674111Y845648D01*
X674079Y845643D01*
X673999Y845600D01*
X673915Y845564D01*
X673883Y845538D01*
X673862Y845527D01*
X673840Y845504D01*
X673784Y845459D01*
X663058Y834733D01*
X663005Y834659D01*
X662945Y834590D01*
X662933Y834560D01*
X662914Y834533D01*
X662887Y834447D01*
X662853Y834362D01*
X662849Y834321D01*
X662842Y834298D01*
X662843Y834266D01*
X662835Y834195D01*
X662835Y809000D01*
X662849Y808910D01*
X662857Y808819D01*
X662869Y808789D01*
X662874Y808757D01*
X662917Y808676D01*
X662953Y808593D01*
X662979Y808560D01*
X662990Y808540D01*
X663013Y808518D01*
X663058Y808462D01*
X663506Y808013D01*
X664585Y805409D01*
X664585Y802591D01*
X663506Y799987D01*
X661513Y797994D01*
X658909Y796915D01*
X656091Y796915D01*
X653487Y797994D01*
X651494Y799987D01*
X650453Y802499D01*
X650415Y802560D01*
X650386Y802625D01*
X650351Y802664D01*
X650324Y802708D01*
X650268Y802754D01*
X650220Y802807D01*
X650174Y802832D01*
X650134Y802865D01*
X650067Y802891D01*
X650004Y802925D01*
X649953Y802934D01*
X649905Y802953D01*
X649833Y802956D01*
X649762Y802969D01*
X649711Y802961D01*
X649659Y802963D01*
X649590Y802943D01*
X649519Y802933D01*
X649473Y802909D01*
X649423Y802895D01*
X649364Y802854D01*
X649300Y802822D01*
X649263Y802784D01*
X649221Y802755D01*
X649178Y802697D01*
X649128Y802646D01*
X649093Y802583D01*
X649074Y802557D01*
X649067Y802535D01*
X649047Y802499D01*
X648006Y799987D01*
X646013Y797994D01*
X643409Y796915D01*
X640591Y796915D01*
G37*
%LPD*%
%LPC*%
G36*
X821374Y647459D02*
X821374Y647459D01*
X814370Y649336D01*
X808090Y652962D01*
X802962Y658090D01*
X799336Y664370D01*
X797459Y671374D01*
X797459Y678626D01*
X799336Y685630D01*
X802962Y691910D01*
X808090Y697038D01*
X814370Y700664D01*
X821374Y702541D01*
X828626Y702541D01*
X835630Y700664D01*
X841910Y697038D01*
X847038Y691910D01*
X850664Y685630D01*
X852541Y678626D01*
X852541Y671374D01*
X850664Y664370D01*
X847038Y658090D01*
X841910Y652962D01*
X835630Y649336D01*
X828626Y647459D01*
X821374Y647459D01*
G37*
%LPD*%
%LPC*%
G36*
X410132Y776347D02*
X410132Y776347D01*
X408197Y778282D01*
X408197Y793718D01*
X410132Y795653D01*
X427089Y795653D01*
X427159Y795664D01*
X427231Y795666D01*
X427280Y795684D01*
X427331Y795692D01*
X427395Y795726D01*
X427462Y795751D01*
X427503Y795783D01*
X427549Y795808D01*
X427598Y795859D01*
X427654Y795904D01*
X427682Y795948D01*
X427718Y795986D01*
X427748Y796051D01*
X427787Y796111D01*
X427800Y796162D01*
X427822Y796209D01*
X427830Y796280D01*
X427847Y796350D01*
X427843Y796402D01*
X427849Y796453D01*
X427834Y796524D01*
X427828Y796595D01*
X427808Y796643D01*
X427797Y796694D01*
X427760Y796755D01*
X427732Y796821D01*
X427687Y796877D01*
X427670Y796905D01*
X427653Y796920D01*
X427627Y796952D01*
X427247Y797332D01*
X427247Y825468D01*
X429182Y827403D01*
X430904Y827403D01*
X430924Y827406D01*
X430943Y827404D01*
X431045Y827426D01*
X431147Y827442D01*
X431164Y827452D01*
X431184Y827456D01*
X431273Y827509D01*
X431364Y827558D01*
X431378Y827572D01*
X431395Y827582D01*
X431462Y827661D01*
X431534Y827736D01*
X431542Y827754D01*
X431555Y827769D01*
X431594Y827865D01*
X431637Y827959D01*
X431639Y827979D01*
X431647Y827997D01*
X431665Y828164D01*
X431665Y836405D01*
X431651Y836495D01*
X431643Y836586D01*
X431631Y836616D01*
X431626Y836648D01*
X431583Y836729D01*
X431547Y836812D01*
X431521Y836845D01*
X431510Y836865D01*
X431487Y836887D01*
X431442Y836943D01*
X428601Y839784D01*
X427093Y843425D01*
X427093Y860575D01*
X428601Y864216D01*
X431388Y867003D01*
X435029Y868511D01*
X438971Y868511D01*
X442612Y867003D01*
X445399Y864216D01*
X446907Y860575D01*
X446907Y843425D01*
X445399Y839784D01*
X442558Y836943D01*
X442505Y836870D01*
X442445Y836800D01*
X442433Y836770D01*
X442414Y836744D01*
X442387Y836657D01*
X442353Y836572D01*
X442349Y836531D01*
X442342Y836509D01*
X442343Y836476D01*
X442335Y836405D01*
X442335Y828164D01*
X442338Y828144D01*
X442336Y828125D01*
X442358Y828023D01*
X442374Y827921D01*
X442384Y827904D01*
X442388Y827884D01*
X442441Y827795D01*
X442490Y827704D01*
X442504Y827690D01*
X442514Y827673D01*
X442593Y827606D01*
X442668Y827534D01*
X442686Y827526D01*
X442701Y827513D01*
X442797Y827474D01*
X442891Y827431D01*
X442911Y827429D01*
X442929Y827421D01*
X443096Y827403D01*
X444618Y827403D01*
X446553Y825468D01*
X446553Y797332D01*
X444618Y795397D01*
X440361Y795397D01*
X440291Y795386D01*
X440219Y795384D01*
X440170Y795366D01*
X440119Y795358D01*
X440055Y795324D01*
X439988Y795299D01*
X439947Y795267D01*
X439901Y795242D01*
X439852Y795191D01*
X439796Y795146D01*
X439768Y795102D01*
X439732Y795064D01*
X439702Y794999D01*
X439663Y794939D01*
X439650Y794888D01*
X439628Y794841D01*
X439620Y794770D01*
X439603Y794700D01*
X439607Y794648D01*
X439601Y794597D01*
X439616Y794526D01*
X439622Y794455D01*
X439642Y794407D01*
X439653Y794356D01*
X439690Y794295D01*
X439718Y794229D01*
X439763Y794173D01*
X439780Y794145D01*
X439797Y794130D01*
X439823Y794098D01*
X440203Y793718D01*
X440203Y778282D01*
X438268Y776347D01*
X410132Y776347D01*
G37*
%LPD*%
%LPC*%
G36*
X488429Y408489D02*
X488429Y408489D01*
X484788Y409997D01*
X482001Y412784D01*
X480493Y416425D01*
X480493Y427047D01*
X480479Y427137D01*
X480471Y427228D01*
X480459Y427258D01*
X480454Y427290D01*
X480411Y427370D01*
X480375Y427454D01*
X480349Y427486D01*
X480338Y427507D01*
X480315Y427529D01*
X480270Y427585D01*
X473413Y434442D01*
X473339Y434495D01*
X473270Y434555D01*
X473240Y434567D01*
X473213Y434586D01*
X473127Y434613D01*
X473042Y434647D01*
X473001Y434651D01*
X472978Y434658D01*
X472946Y434657D01*
X472875Y434665D01*
X464439Y434665D01*
X462478Y435477D01*
X450257Y447698D01*
X449445Y449659D01*
X449445Y453921D01*
X449442Y453941D01*
X449444Y453960D01*
X449422Y454062D01*
X449406Y454164D01*
X449396Y454181D01*
X449392Y454201D01*
X449339Y454290D01*
X449290Y454381D01*
X449276Y454395D01*
X449266Y454412D01*
X449187Y454479D01*
X449112Y454551D01*
X449094Y454559D01*
X449079Y454572D01*
X448983Y454611D01*
X448889Y454654D01*
X448869Y454656D01*
X448851Y454664D01*
X448684Y454682D01*
X445412Y454682D01*
X443477Y456617D01*
X443477Y477383D01*
X445412Y479318D01*
X464148Y479318D01*
X466083Y477383D01*
X466083Y456617D01*
X464148Y454682D01*
X460876Y454682D01*
X460856Y454679D01*
X460837Y454681D01*
X460735Y454659D01*
X460633Y454643D01*
X460616Y454633D01*
X460596Y454629D01*
X460507Y454576D01*
X460416Y454527D01*
X460402Y454513D01*
X460385Y454503D01*
X460318Y454424D01*
X460246Y454349D01*
X460238Y454331D01*
X460225Y454316D01*
X460186Y454220D01*
X460143Y454126D01*
X460141Y454106D01*
X460133Y454088D01*
X460115Y453921D01*
X460115Y453245D01*
X460129Y453155D01*
X460137Y453064D01*
X460149Y453034D01*
X460154Y453002D01*
X460197Y452922D01*
X460233Y452838D01*
X460259Y452806D01*
X460270Y452785D01*
X460293Y452763D01*
X460315Y452735D01*
X460318Y452730D01*
X460321Y452728D01*
X460338Y452707D01*
X467487Y445558D01*
X467561Y445505D01*
X467630Y445445D01*
X467660Y445433D01*
X467687Y445414D01*
X467773Y445387D01*
X467858Y445353D01*
X467899Y445349D01*
X467922Y445342D01*
X467954Y445343D01*
X468025Y445335D01*
X476461Y445335D01*
X478422Y444523D01*
X483327Y439618D01*
X483343Y439606D01*
X483355Y439590D01*
X483442Y439535D01*
X483527Y439474D01*
X483546Y439468D01*
X483562Y439457D01*
X483663Y439432D01*
X483762Y439402D01*
X483782Y439402D01*
X483801Y439397D01*
X483904Y439405D01*
X484008Y439408D01*
X484026Y439415D01*
X484046Y439416D01*
X484141Y439457D01*
X484239Y439493D01*
X484254Y439505D01*
X484272Y439513D01*
X484403Y439618D01*
X484788Y440003D01*
X488429Y441511D01*
X492371Y441511D01*
X496012Y440003D01*
X498799Y437216D01*
X500307Y433575D01*
X500307Y416425D01*
X498799Y412784D01*
X496012Y409997D01*
X492371Y408489D01*
X488429Y408489D01*
G37*
%LPD*%
%LPC*%
G36*
X543482Y490597D02*
X543482Y490597D01*
X541547Y492532D01*
X541547Y520668D01*
X543482Y522603D01*
X558918Y522603D01*
X560853Y520668D01*
X560853Y516411D01*
X560864Y516341D01*
X560866Y516269D01*
X560884Y516220D01*
X560892Y516169D01*
X560926Y516105D01*
X560951Y516038D01*
X560983Y515997D01*
X561008Y515951D01*
X561059Y515902D01*
X561104Y515846D01*
X561148Y515818D01*
X561186Y515782D01*
X561251Y515752D01*
X561311Y515713D01*
X561362Y515700D01*
X561409Y515678D01*
X561480Y515670D01*
X561550Y515653D01*
X561602Y515657D01*
X561653Y515651D01*
X561724Y515666D01*
X561795Y515672D01*
X561843Y515692D01*
X561894Y515703D01*
X561955Y515740D01*
X562021Y515768D01*
X562077Y515813D01*
X562105Y515830D01*
X562120Y515847D01*
X562152Y515873D01*
X562532Y516253D01*
X590668Y516253D01*
X592603Y514318D01*
X592603Y512596D01*
X592606Y512577D01*
X592604Y512559D01*
X592604Y512558D01*
X592604Y512557D01*
X592626Y512455D01*
X592642Y512353D01*
X592652Y512336D01*
X592656Y512316D01*
X592709Y512227D01*
X592758Y512136D01*
X592772Y512122D01*
X592782Y512105D01*
X592861Y512038D01*
X592936Y511966D01*
X592954Y511958D01*
X592969Y511945D01*
X593065Y511906D01*
X593159Y511863D01*
X593179Y511861D01*
X593197Y511853D01*
X593364Y511835D01*
X598000Y511835D01*
X598090Y511849D01*
X598181Y511857D01*
X598211Y511869D01*
X598243Y511874D01*
X598324Y511917D01*
X598407Y511953D01*
X598440Y511979D01*
X598460Y511990D01*
X598463Y511992D01*
X598483Y512013D01*
X598538Y512058D01*
X598987Y512506D01*
X601591Y513585D01*
X604409Y513585D01*
X607013Y512506D01*
X609006Y510513D01*
X610085Y507909D01*
X610085Y505091D01*
X609006Y502487D01*
X607013Y500494D01*
X604409Y499415D01*
X601591Y499415D01*
X598987Y500494D01*
X598538Y500942D01*
X598464Y500995D01*
X598395Y501055D01*
X598365Y501067D01*
X598339Y501086D01*
X598252Y501113D01*
X598167Y501147D01*
X598126Y501151D01*
X598104Y501158D01*
X598071Y501157D01*
X598000Y501165D01*
X593364Y501165D01*
X593344Y501162D01*
X593325Y501164D01*
X593223Y501142D01*
X593121Y501126D01*
X593104Y501116D01*
X593084Y501112D01*
X592995Y501059D01*
X592904Y501010D01*
X592890Y500996D01*
X592873Y500986D01*
X592806Y500907D01*
X592734Y500832D01*
X592726Y500814D01*
X592713Y500799D01*
X592674Y500703D01*
X592631Y500609D01*
X592629Y500589D01*
X592621Y500571D01*
X592603Y500404D01*
X592603Y498882D01*
X590668Y496947D01*
X562532Y496947D01*
X562152Y497327D01*
X562094Y497369D01*
X562042Y497418D01*
X561995Y497440D01*
X561953Y497471D01*
X561884Y497492D01*
X561819Y497522D01*
X561767Y497528D01*
X561717Y497543D01*
X561646Y497541D01*
X561575Y497549D01*
X561524Y497538D01*
X561472Y497537D01*
X561404Y497512D01*
X561334Y497497D01*
X561289Y497470D01*
X561241Y497452D01*
X561185Y497407D01*
X561123Y497370D01*
X561089Y497331D01*
X561049Y497298D01*
X561010Y497238D01*
X560963Y497184D01*
X560944Y497135D01*
X560916Y497091D01*
X560898Y497022D01*
X560871Y496955D01*
X560863Y496884D01*
X560855Y496853D01*
X560857Y496830D01*
X560853Y496789D01*
X560853Y492532D01*
X558918Y490597D01*
X543482Y490597D01*
G37*
%LPD*%
%LPC*%
G36*
X454582Y795397D02*
X454582Y795397D01*
X452647Y797332D01*
X452647Y825468D01*
X454582Y827403D01*
X456304Y827403D01*
X456324Y827406D01*
X456343Y827404D01*
X456445Y827426D01*
X456547Y827442D01*
X456564Y827452D01*
X456584Y827456D01*
X456673Y827509D01*
X456764Y827558D01*
X456778Y827572D01*
X456795Y827582D01*
X456862Y827661D01*
X456934Y827736D01*
X456942Y827754D01*
X456955Y827769D01*
X456994Y827865D01*
X457037Y827959D01*
X457039Y827979D01*
X457047Y827997D01*
X457065Y828164D01*
X457065Y836405D01*
X457051Y836495D01*
X457043Y836586D01*
X457031Y836616D01*
X457026Y836648D01*
X456983Y836729D01*
X456947Y836812D01*
X456921Y836845D01*
X456910Y836865D01*
X456887Y836887D01*
X456842Y836943D01*
X454001Y839784D01*
X452493Y843425D01*
X452493Y860575D01*
X454001Y864216D01*
X456788Y867003D01*
X460429Y868511D01*
X464371Y868511D01*
X468012Y867003D01*
X470799Y864216D01*
X472307Y860575D01*
X472307Y843425D01*
X470799Y839784D01*
X467958Y836943D01*
X467905Y836870D01*
X467845Y836800D01*
X467833Y836770D01*
X467814Y836744D01*
X467787Y836657D01*
X467753Y836572D01*
X467749Y836531D01*
X467742Y836509D01*
X467743Y836476D01*
X467735Y836405D01*
X467735Y828164D01*
X467738Y828144D01*
X467736Y828125D01*
X467758Y828023D01*
X467774Y827921D01*
X467784Y827904D01*
X467788Y827884D01*
X467841Y827795D01*
X467890Y827704D01*
X467904Y827690D01*
X467914Y827673D01*
X467993Y827606D01*
X468068Y827534D01*
X468086Y827526D01*
X468101Y827513D01*
X468197Y827474D01*
X468291Y827431D01*
X468311Y827429D01*
X468329Y827421D01*
X468496Y827403D01*
X470018Y827403D01*
X471953Y825468D01*
X471953Y797332D01*
X470018Y795397D01*
X454582Y795397D01*
G37*
%LPD*%
%LPC*%
G36*
X479982Y795397D02*
X479982Y795397D01*
X478047Y797332D01*
X478047Y825468D01*
X479982Y827403D01*
X481704Y827403D01*
X481724Y827406D01*
X481743Y827404D01*
X481845Y827426D01*
X481947Y827442D01*
X481964Y827452D01*
X481984Y827456D01*
X482073Y827509D01*
X482164Y827558D01*
X482178Y827572D01*
X482195Y827582D01*
X482262Y827661D01*
X482334Y827736D01*
X482342Y827754D01*
X482355Y827769D01*
X482394Y827865D01*
X482437Y827959D01*
X482439Y827979D01*
X482447Y827997D01*
X482465Y828164D01*
X482465Y836405D01*
X482451Y836495D01*
X482443Y836586D01*
X482431Y836616D01*
X482426Y836648D01*
X482383Y836729D01*
X482347Y836812D01*
X482321Y836845D01*
X482310Y836865D01*
X482287Y836887D01*
X482242Y836943D01*
X479401Y839784D01*
X477893Y843425D01*
X477893Y860575D01*
X479401Y864216D01*
X482188Y867003D01*
X485829Y868511D01*
X489771Y868511D01*
X493412Y867003D01*
X496199Y864216D01*
X497707Y860575D01*
X497707Y843425D01*
X496199Y839784D01*
X493358Y836943D01*
X493305Y836870D01*
X493245Y836800D01*
X493233Y836770D01*
X493214Y836744D01*
X493187Y836657D01*
X493153Y836572D01*
X493149Y836531D01*
X493142Y836509D01*
X493143Y836476D01*
X493135Y836405D01*
X493135Y828164D01*
X493138Y828144D01*
X493136Y828125D01*
X493158Y828023D01*
X493174Y827921D01*
X493184Y827904D01*
X493188Y827884D01*
X493241Y827795D01*
X493290Y827704D01*
X493304Y827690D01*
X493314Y827673D01*
X493393Y827606D01*
X493468Y827534D01*
X493486Y827526D01*
X493501Y827513D01*
X493597Y827474D01*
X493691Y827431D01*
X493711Y827429D01*
X493729Y827421D01*
X493896Y827403D01*
X495418Y827403D01*
X497353Y825468D01*
X497353Y797332D01*
X495418Y795397D01*
X479982Y795397D01*
G37*
%LPD*%
%LPC*%
G36*
X505382Y795397D02*
X505382Y795397D01*
X503447Y797332D01*
X503447Y825468D01*
X505382Y827403D01*
X507104Y827403D01*
X507124Y827406D01*
X507143Y827404D01*
X507245Y827426D01*
X507347Y827442D01*
X507364Y827452D01*
X507384Y827456D01*
X507473Y827509D01*
X507564Y827558D01*
X507578Y827572D01*
X507595Y827582D01*
X507662Y827661D01*
X507734Y827736D01*
X507742Y827754D01*
X507755Y827769D01*
X507794Y827865D01*
X507837Y827959D01*
X507839Y827979D01*
X507847Y827997D01*
X507865Y828164D01*
X507865Y836405D01*
X507851Y836495D01*
X507843Y836586D01*
X507831Y836616D01*
X507826Y836648D01*
X507783Y836729D01*
X507747Y836812D01*
X507721Y836845D01*
X507710Y836865D01*
X507687Y836887D01*
X507642Y836943D01*
X504801Y839784D01*
X503293Y843425D01*
X503293Y860575D01*
X504801Y864216D01*
X507588Y867003D01*
X511229Y868511D01*
X515171Y868511D01*
X518812Y867003D01*
X521599Y864216D01*
X523107Y860575D01*
X523107Y843425D01*
X521599Y839784D01*
X518758Y836943D01*
X518705Y836870D01*
X518645Y836800D01*
X518633Y836770D01*
X518614Y836744D01*
X518587Y836657D01*
X518553Y836572D01*
X518549Y836531D01*
X518542Y836509D01*
X518543Y836476D01*
X518535Y836405D01*
X518535Y828164D01*
X518538Y828144D01*
X518536Y828125D01*
X518558Y828023D01*
X518574Y827921D01*
X518584Y827904D01*
X518588Y827884D01*
X518641Y827795D01*
X518690Y827704D01*
X518704Y827690D01*
X518714Y827673D01*
X518793Y827606D01*
X518868Y827534D01*
X518886Y827526D01*
X518901Y827513D01*
X518997Y827474D01*
X519091Y827431D01*
X519111Y827429D01*
X519129Y827421D01*
X519296Y827403D01*
X520818Y827403D01*
X522753Y825468D01*
X522753Y797332D01*
X520818Y795397D01*
X505382Y795397D01*
G37*
%LPD*%
%LPC*%
G36*
X174352Y775182D02*
X174352Y775182D01*
X172417Y777117D01*
X172417Y797883D01*
X174352Y799818D01*
X177624Y799818D01*
X177644Y799821D01*
X177663Y799819D01*
X177765Y799841D01*
X177867Y799857D01*
X177884Y799867D01*
X177904Y799871D01*
X177993Y799924D01*
X178084Y799973D01*
X178098Y799987D01*
X178115Y799997D01*
X178182Y800076D01*
X178254Y800151D01*
X178262Y800169D01*
X178275Y800184D01*
X178314Y800280D01*
X178357Y800374D01*
X178359Y800394D01*
X178367Y800412D01*
X178385Y800579D01*
X178385Y806703D01*
X178366Y806818D01*
X178349Y806934D01*
X178347Y806940D01*
X178346Y806946D01*
X178291Y807048D01*
X178238Y807153D01*
X178233Y807158D01*
X178230Y807163D01*
X178147Y807242D01*
X178062Y807326D01*
X178056Y807329D01*
X178052Y807333D01*
X178035Y807340D01*
X177915Y807406D01*
X176488Y807997D01*
X173701Y810784D01*
X172193Y814425D01*
X172193Y831575D01*
X173701Y835216D01*
X176488Y838003D01*
X180129Y839511D01*
X184071Y839511D01*
X187712Y838003D01*
X190499Y835216D01*
X192007Y831575D01*
X192007Y814425D01*
X190499Y810784D01*
X189278Y809563D01*
X189225Y809489D01*
X189165Y809420D01*
X189153Y809390D01*
X189134Y809364D01*
X189107Y809277D01*
X189073Y809192D01*
X189069Y809151D01*
X189062Y809129D01*
X189063Y809096D01*
X189055Y809025D01*
X189055Y800579D01*
X189058Y800559D01*
X189056Y800540D01*
X189078Y800438D01*
X189094Y800336D01*
X189104Y800319D01*
X189108Y800299D01*
X189161Y800210D01*
X189210Y800119D01*
X189224Y800105D01*
X189234Y800088D01*
X189313Y800021D01*
X189388Y799949D01*
X189406Y799941D01*
X189421Y799928D01*
X189517Y799889D01*
X189611Y799846D01*
X189631Y799844D01*
X189649Y799836D01*
X189816Y799818D01*
X193088Y799818D01*
X195023Y797883D01*
X195023Y777117D01*
X193088Y775182D01*
X174352Y775182D01*
G37*
%LPD*%
%LPC*%
G36*
X317629Y806489D02*
X317629Y806489D01*
X313988Y807997D01*
X311201Y810784D01*
X309693Y814425D01*
X309693Y831575D01*
X311201Y835216D01*
X313988Y838003D01*
X314915Y838387D01*
X315015Y838448D01*
X315115Y838508D01*
X315119Y838513D01*
X315124Y838516D01*
X315199Y838606D01*
X315275Y838695D01*
X315277Y838701D01*
X315281Y838706D01*
X315323Y838814D01*
X315367Y838923D01*
X315368Y838931D01*
X315369Y838935D01*
X315370Y838954D01*
X315385Y839090D01*
X315385Y845421D01*
X315382Y845441D01*
X315384Y845460D01*
X315362Y845562D01*
X315346Y845664D01*
X315336Y845681D01*
X315332Y845701D01*
X315279Y845790D01*
X315230Y845881D01*
X315216Y845895D01*
X315206Y845912D01*
X315127Y845979D01*
X315052Y846051D01*
X315034Y846059D01*
X315019Y846072D01*
X314923Y846111D01*
X314829Y846154D01*
X314809Y846156D01*
X314791Y846164D01*
X314624Y846182D01*
X311352Y846182D01*
X309417Y848117D01*
X309417Y868883D01*
X311352Y870818D01*
X330088Y870818D01*
X332023Y868883D01*
X332023Y848117D01*
X330088Y846182D01*
X326816Y846182D01*
X326796Y846179D01*
X326777Y846181D01*
X326675Y846159D01*
X326573Y846143D01*
X326556Y846133D01*
X326536Y846129D01*
X326447Y846076D01*
X326356Y846027D01*
X326342Y846013D01*
X326325Y846003D01*
X326258Y845924D01*
X326186Y845849D01*
X326178Y845831D01*
X326165Y845816D01*
X326126Y845720D01*
X326083Y845626D01*
X326081Y845606D01*
X326073Y845588D01*
X326055Y845421D01*
X326055Y837475D01*
X326069Y837385D01*
X326077Y837294D01*
X326089Y837264D01*
X326094Y837232D01*
X326137Y837151D01*
X326173Y837067D01*
X326199Y837035D01*
X326210Y837015D01*
X326233Y836993D01*
X326278Y836937D01*
X327999Y835216D01*
X329507Y831575D01*
X329507Y814425D01*
X327999Y810784D01*
X325212Y807997D01*
X321571Y806489D01*
X317629Y806489D01*
G37*
%LPD*%
%LPC*%
G36*
X248879Y806489D02*
X248879Y806489D01*
X245238Y807997D01*
X242451Y810784D01*
X240943Y814425D01*
X240943Y831575D01*
X242451Y835216D01*
X245238Y838003D01*
X245915Y838283D01*
X246015Y838345D01*
X246115Y838404D01*
X246119Y838409D01*
X246124Y838413D01*
X246199Y838503D01*
X246275Y838591D01*
X246277Y838597D01*
X246281Y838602D01*
X246323Y838710D01*
X246367Y838820D01*
X246368Y838827D01*
X246369Y838832D01*
X246370Y838850D01*
X246385Y838986D01*
X246385Y845421D01*
X246382Y845441D01*
X246384Y845460D01*
X246362Y845562D01*
X246346Y845664D01*
X246336Y845681D01*
X246332Y845701D01*
X246279Y845790D01*
X246230Y845881D01*
X246216Y845895D01*
X246206Y845912D01*
X246127Y845979D01*
X246052Y846051D01*
X246034Y846059D01*
X246019Y846072D01*
X245923Y846111D01*
X245829Y846154D01*
X245809Y846156D01*
X245791Y846164D01*
X245624Y846182D01*
X242352Y846182D01*
X240417Y848117D01*
X240417Y868883D01*
X242352Y870818D01*
X261088Y870818D01*
X263023Y868883D01*
X263023Y848117D01*
X261088Y846182D01*
X257816Y846182D01*
X257796Y846179D01*
X257777Y846181D01*
X257675Y846159D01*
X257573Y846143D01*
X257556Y846133D01*
X257536Y846129D01*
X257447Y846076D01*
X257356Y846027D01*
X257342Y846013D01*
X257325Y846003D01*
X257258Y845924D01*
X257186Y845849D01*
X257178Y845831D01*
X257165Y845816D01*
X257126Y845720D01*
X257083Y845626D01*
X257081Y845606D01*
X257073Y845588D01*
X257055Y845421D01*
X257055Y837725D01*
X257069Y837635D01*
X257077Y837544D01*
X257089Y837514D01*
X257094Y837482D01*
X257137Y837401D01*
X257173Y837317D01*
X257199Y837285D01*
X257210Y837265D01*
X257233Y837243D01*
X257278Y837187D01*
X259249Y835216D01*
X260757Y831575D01*
X260757Y814425D01*
X259249Y810784D01*
X256462Y807997D01*
X252821Y806489D01*
X248879Y806489D01*
G37*
%LPD*%
%LPC*%
G36*
X836352Y775307D02*
X836352Y775307D01*
X834417Y777242D01*
X834417Y798008D01*
X836352Y799943D01*
X837504Y799943D01*
X837524Y799946D01*
X837543Y799944D01*
X837645Y799966D01*
X837747Y799982D01*
X837764Y799992D01*
X837784Y799996D01*
X837873Y800049D01*
X837964Y800098D01*
X837978Y800112D01*
X837995Y800122D01*
X838062Y800201D01*
X838134Y800276D01*
X838142Y800294D01*
X838155Y800309D01*
X838194Y800405D01*
X838237Y800499D01*
X838239Y800519D01*
X838247Y800537D01*
X838265Y800704D01*
X838265Y807405D01*
X838251Y807495D01*
X838243Y807586D01*
X838231Y807616D01*
X838226Y807648D01*
X838183Y807729D01*
X838147Y807812D01*
X838121Y807845D01*
X838110Y807865D01*
X838087Y807887D01*
X838042Y807943D01*
X835201Y810784D01*
X833693Y814425D01*
X833693Y831575D01*
X835201Y835216D01*
X837988Y838003D01*
X841629Y839511D01*
X845571Y839511D01*
X849212Y838003D01*
X851999Y835216D01*
X853507Y831575D01*
X853507Y814425D01*
X851999Y810784D01*
X849158Y807943D01*
X849105Y807870D01*
X849045Y807800D01*
X849033Y807770D01*
X849014Y807744D01*
X848987Y807657D01*
X848953Y807572D01*
X848949Y807531D01*
X848942Y807509D01*
X848943Y807476D01*
X848935Y807405D01*
X848935Y800704D01*
X848938Y800684D01*
X848936Y800665D01*
X848958Y800563D01*
X848974Y800461D01*
X848984Y800444D01*
X848988Y800424D01*
X849041Y800335D01*
X849090Y800244D01*
X849104Y800230D01*
X849114Y800213D01*
X849193Y800146D01*
X849268Y800074D01*
X849286Y800066D01*
X849301Y800053D01*
X849397Y800014D01*
X849491Y799971D01*
X849511Y799969D01*
X849529Y799961D01*
X849696Y799943D01*
X855088Y799943D01*
X857023Y798008D01*
X857023Y777242D01*
X855088Y775307D01*
X836352Y775307D01*
G37*
%LPD*%
%LPC*%
G36*
X772879Y806489D02*
X772879Y806489D01*
X769238Y807997D01*
X766451Y810784D01*
X764943Y814425D01*
X764943Y831575D01*
X766451Y835216D01*
X769238Y838003D01*
X770415Y838490D01*
X770515Y838552D01*
X770615Y838612D01*
X770619Y838616D01*
X770624Y838620D01*
X770699Y838709D01*
X770775Y838799D01*
X770777Y838804D01*
X770781Y838809D01*
X770823Y838917D01*
X770867Y839027D01*
X770868Y839034D01*
X770869Y839039D01*
X770870Y839057D01*
X770885Y839193D01*
X770885Y844921D01*
X770882Y844941D01*
X770884Y844960D01*
X770862Y845062D01*
X770846Y845164D01*
X770836Y845181D01*
X770832Y845201D01*
X770779Y845290D01*
X770730Y845381D01*
X770716Y845395D01*
X770706Y845412D01*
X770627Y845479D01*
X770552Y845551D01*
X770534Y845559D01*
X770519Y845572D01*
X770423Y845611D01*
X770329Y845654D01*
X770309Y845656D01*
X770291Y845664D01*
X770124Y845682D01*
X766852Y845682D01*
X764917Y847617D01*
X764917Y868383D01*
X766852Y870318D01*
X785588Y870318D01*
X787523Y868383D01*
X787523Y847617D01*
X785588Y845682D01*
X782316Y845682D01*
X782296Y845679D01*
X782277Y845681D01*
X782175Y845659D01*
X782073Y845643D01*
X782056Y845633D01*
X782036Y845629D01*
X781947Y845576D01*
X781856Y845527D01*
X781842Y845513D01*
X781825Y845503D01*
X781758Y845424D01*
X781686Y845349D01*
X781678Y845331D01*
X781665Y845316D01*
X781626Y845220D01*
X781583Y845126D01*
X781581Y845106D01*
X781573Y845088D01*
X781555Y844921D01*
X781555Y837225D01*
X781569Y837135D01*
X781577Y837044D01*
X781589Y837014D01*
X781594Y836982D01*
X781637Y836901D01*
X781673Y836818D01*
X781699Y836785D01*
X781710Y836765D01*
X781733Y836743D01*
X781778Y836687D01*
X783249Y835216D01*
X784757Y831575D01*
X784757Y814425D01*
X783249Y810784D01*
X780462Y807997D01*
X776821Y806489D01*
X772879Y806489D01*
G37*
%LPD*%
%LPC*%
G36*
X704129Y806489D02*
X704129Y806489D01*
X700488Y807997D01*
X697701Y810784D01*
X696193Y814425D01*
X696193Y831575D01*
X697701Y835216D01*
X700488Y838003D01*
X701415Y838387D01*
X701515Y838448D01*
X701615Y838508D01*
X701619Y838513D01*
X701624Y838516D01*
X701699Y838606D01*
X701775Y838695D01*
X701777Y838701D01*
X701781Y838706D01*
X701823Y838814D01*
X701867Y838923D01*
X701868Y838931D01*
X701869Y838935D01*
X701870Y838954D01*
X701885Y839090D01*
X701885Y844921D01*
X701882Y844941D01*
X701884Y844960D01*
X701862Y845062D01*
X701846Y845164D01*
X701836Y845181D01*
X701832Y845201D01*
X701779Y845290D01*
X701730Y845381D01*
X701716Y845395D01*
X701706Y845412D01*
X701627Y845479D01*
X701552Y845551D01*
X701534Y845559D01*
X701519Y845572D01*
X701423Y845611D01*
X701329Y845654D01*
X701309Y845656D01*
X701291Y845664D01*
X701124Y845682D01*
X697852Y845682D01*
X695917Y847617D01*
X695917Y868383D01*
X697852Y870318D01*
X716588Y870318D01*
X718523Y868383D01*
X718523Y847617D01*
X716588Y845682D01*
X713316Y845682D01*
X713296Y845679D01*
X713277Y845681D01*
X713175Y845659D01*
X713073Y845643D01*
X713056Y845633D01*
X713036Y845629D01*
X712947Y845576D01*
X712856Y845527D01*
X712842Y845513D01*
X712825Y845503D01*
X712758Y845424D01*
X712686Y845349D01*
X712678Y845331D01*
X712665Y845316D01*
X712626Y845220D01*
X712583Y845126D01*
X712581Y845106D01*
X712573Y845088D01*
X712555Y844921D01*
X712555Y837475D01*
X712569Y837385D01*
X712577Y837294D01*
X712589Y837264D01*
X712594Y837232D01*
X712637Y837151D01*
X712673Y837068D01*
X712699Y837035D01*
X712710Y837015D01*
X712733Y836993D01*
X712778Y836937D01*
X714499Y835216D01*
X716007Y831575D01*
X716007Y814425D01*
X714499Y810784D01*
X711712Y807997D01*
X708071Y806489D01*
X704129Y806489D01*
G37*
%LPD*%
%LPC*%
G36*
X562532Y522347D02*
X562532Y522347D01*
X560597Y524282D01*
X560597Y525615D01*
X560586Y525686D01*
X560584Y525758D01*
X560566Y525807D01*
X560558Y525858D01*
X560524Y525921D01*
X560499Y525989D01*
X560467Y526029D01*
X560442Y526075D01*
X560391Y526125D01*
X560346Y526181D01*
X560302Y526209D01*
X560264Y526245D01*
X560199Y526275D01*
X560139Y526314D01*
X560088Y526326D01*
X560041Y526348D01*
X559970Y526356D01*
X559900Y526374D01*
X559848Y526370D01*
X559797Y526375D01*
X559726Y526360D01*
X559655Y526355D01*
X559607Y526334D01*
X559556Y526323D01*
X559495Y526286D01*
X559429Y526258D01*
X559373Y526213D01*
X559345Y526197D01*
X559330Y526179D01*
X559298Y526153D01*
X559013Y525869D01*
X556409Y524790D01*
X553591Y524790D01*
X550987Y525869D01*
X548994Y527862D01*
X547915Y530466D01*
X547915Y533284D01*
X548994Y535888D01*
X550987Y537881D01*
X553591Y538960D01*
X556409Y538960D01*
X559013Y537881D01*
X559298Y537597D01*
X559356Y537555D01*
X559408Y537505D01*
X559455Y537483D01*
X559497Y537453D01*
X559566Y537432D01*
X559631Y537402D01*
X559683Y537396D01*
X559733Y537381D01*
X559804Y537383D01*
X559875Y537375D01*
X559926Y537386D01*
X559978Y537387D01*
X560046Y537412D01*
X560116Y537427D01*
X560161Y537454D01*
X560209Y537471D01*
X560265Y537516D01*
X560327Y537553D01*
X560361Y537593D01*
X560401Y537625D01*
X560440Y537685D01*
X560487Y537740D01*
X560506Y537788D01*
X560534Y537832D01*
X560552Y537901D01*
X560579Y537968D01*
X560587Y538039D01*
X560595Y538071D01*
X560593Y538094D01*
X560597Y538135D01*
X560597Y539718D01*
X562532Y541653D01*
X590668Y541653D01*
X592603Y539718D01*
X592603Y524282D01*
X590668Y522347D01*
X562532Y522347D01*
G37*
%LPD*%
%LPC*%
G36*
X518082Y490597D02*
X518082Y490597D01*
X516147Y492532D01*
X516147Y520668D01*
X518082Y522603D01*
X533518Y522603D01*
X535453Y520668D01*
X535453Y492532D01*
X533518Y490597D01*
X518082Y490597D01*
G37*
%LPD*%
%LPC*%
G36*
X410132Y725547D02*
X410132Y725547D01*
X408197Y727482D01*
X408197Y742918D01*
X410132Y744853D01*
X438268Y744853D01*
X440203Y742918D01*
X440203Y727482D01*
X438268Y725547D01*
X410132Y725547D01*
G37*
%LPD*%
%LPC*%
G36*
X562532Y725547D02*
X562532Y725547D01*
X560597Y727482D01*
X560597Y742918D01*
X562532Y744853D01*
X590668Y744853D01*
X592603Y742918D01*
X592603Y727482D01*
X590668Y725547D01*
X562532Y725547D01*
G37*
%LPD*%
%LPC*%
G36*
X410132Y750947D02*
X410132Y750947D01*
X408197Y752882D01*
X408197Y768318D01*
X410132Y770253D01*
X438268Y770253D01*
X440203Y768318D01*
X440203Y752882D01*
X438268Y750947D01*
X410132Y750947D01*
G37*
%LPD*%
%LPC*%
G36*
X281523Y756523D02*
X281523Y756523D01*
X281523Y768721D01*
X283229Y768451D01*
X285294Y767780D01*
X287228Y766795D01*
X288984Y765519D01*
X290519Y763984D01*
X291795Y762228D01*
X292780Y760294D01*
X293451Y758229D01*
X293721Y756523D01*
X281523Y756523D01*
G37*
%LPD*%
%LPC*%
G36*
X281523Y753477D02*
X281523Y753477D01*
X293721Y753477D01*
X293451Y751771D01*
X292780Y749706D01*
X291795Y747772D01*
X290519Y746016D01*
X288984Y744481D01*
X287228Y743205D01*
X285294Y742220D01*
X283229Y741549D01*
X281523Y741279D01*
X281523Y753477D01*
G37*
%LPD*%
%LPC*%
G36*
X578123Y762123D02*
X578123Y762123D01*
X578123Y769491D01*
X589634Y769491D01*
X590281Y769318D01*
X590860Y768983D01*
X591333Y768510D01*
X591668Y767931D01*
X591841Y767284D01*
X591841Y762123D01*
X578123Y762123D01*
G37*
%LPD*%
%LPC*%
G36*
X425723Y711323D02*
X425723Y711323D01*
X425723Y718691D01*
X437234Y718691D01*
X437881Y718518D01*
X438460Y718183D01*
X438933Y717710D01*
X439268Y717131D01*
X439441Y716484D01*
X439441Y711323D01*
X425723Y711323D01*
G37*
%LPD*%
%LPC*%
G36*
X501923Y508123D02*
X501923Y508123D01*
X501923Y521841D01*
X507084Y521841D01*
X507731Y521668D01*
X508310Y521333D01*
X508783Y520860D01*
X509118Y520281D01*
X509291Y519634D01*
X509291Y508123D01*
X501923Y508123D01*
G37*
%LPD*%
%LPC*%
G36*
X501923Y491359D02*
X501923Y491359D01*
X501923Y505077D01*
X509291Y505077D01*
X509291Y493566D01*
X509118Y492919D01*
X508783Y492340D01*
X508310Y491867D01*
X507731Y491532D01*
X507084Y491359D01*
X501923Y491359D01*
G37*
%LPD*%
%LPC*%
G36*
X408959Y711323D02*
X408959Y711323D01*
X408959Y716484D01*
X409132Y717131D01*
X409467Y717710D01*
X409940Y718183D01*
X410519Y718518D01*
X411166Y718691D01*
X422677Y718691D01*
X422677Y711323D01*
X408959Y711323D01*
G37*
%LPD*%
%LPC*%
G36*
X561359Y762123D02*
X561359Y762123D01*
X561359Y767284D01*
X561532Y767931D01*
X561867Y768510D01*
X562340Y768983D01*
X562919Y769318D01*
X563566Y769491D01*
X575077Y769491D01*
X575077Y762123D01*
X561359Y762123D01*
G37*
%LPD*%
%LPC*%
G36*
X491509Y508123D02*
X491509Y508123D01*
X491509Y519634D01*
X491682Y520281D01*
X492017Y520860D01*
X492490Y521333D01*
X493069Y521668D01*
X493716Y521841D01*
X498877Y521841D01*
X498877Y508123D01*
X491509Y508123D01*
G37*
%LPD*%
%LPC*%
G36*
X563566Y751709D02*
X563566Y751709D01*
X562919Y751882D01*
X562340Y752217D01*
X561867Y752690D01*
X561532Y753269D01*
X561359Y753916D01*
X561359Y759077D01*
X575077Y759077D01*
X575077Y751709D01*
X563566Y751709D01*
G37*
%LPD*%
%LPC*%
G36*
X578123Y751709D02*
X578123Y751709D01*
X578123Y759077D01*
X591841Y759077D01*
X591841Y753916D01*
X591668Y753269D01*
X591333Y752690D01*
X590860Y752217D01*
X590281Y751882D01*
X589634Y751709D01*
X578123Y751709D01*
G37*
%LPD*%
%LPC*%
G36*
X493716Y491359D02*
X493716Y491359D01*
X493069Y491532D01*
X492490Y491867D01*
X492017Y492340D01*
X491682Y492919D01*
X491509Y493566D01*
X491509Y505077D01*
X498877Y505077D01*
X498877Y491359D01*
X493716Y491359D01*
G37*
%LPD*%
%LPC*%
G36*
X750973Y824523D02*
X750973Y824523D01*
X750973Y838625D01*
X752117Y838397D01*
X753782Y837708D01*
X755280Y836707D01*
X756553Y835434D01*
X757554Y833936D01*
X758243Y832271D01*
X758595Y830505D01*
X758595Y824523D01*
X750973Y824523D01*
G37*
%LPD*%
%LPC*%
G36*
X819723Y824523D02*
X819723Y824523D01*
X819723Y838625D01*
X820867Y838397D01*
X822532Y837708D01*
X824030Y836707D01*
X825303Y835434D01*
X826304Y833936D01*
X826993Y832271D01*
X827345Y830505D01*
X827345Y824523D01*
X819723Y824523D01*
G37*
%LPD*%
%LPC*%
G36*
X682223Y824523D02*
X682223Y824523D01*
X682223Y838625D01*
X683367Y838397D01*
X685032Y837708D01*
X686530Y836707D01*
X687803Y835434D01*
X688804Y833936D01*
X689493Y832271D01*
X689845Y830505D01*
X689845Y824523D01*
X682223Y824523D01*
G37*
%LPD*%
%LPC*%
G36*
X158223Y824523D02*
X158223Y824523D01*
X158223Y838625D01*
X159367Y838397D01*
X161032Y837708D01*
X162530Y836707D01*
X163803Y835434D01*
X164804Y833936D01*
X165493Y832271D01*
X165845Y830505D01*
X165845Y824523D01*
X158223Y824523D01*
G37*
%LPD*%
%LPC*%
G36*
X226973Y824523D02*
X226973Y824523D01*
X226973Y838625D01*
X228117Y838397D01*
X229782Y837708D01*
X231280Y836707D01*
X232553Y835434D01*
X233554Y833936D01*
X234243Y832271D01*
X234595Y830505D01*
X234595Y824523D01*
X226973Y824523D01*
G37*
%LPD*%
%LPC*%
G36*
X295723Y824523D02*
X295723Y824523D01*
X295723Y838625D01*
X296867Y838397D01*
X298532Y837708D01*
X300030Y836707D01*
X301303Y835434D01*
X302304Y833936D01*
X302993Y832271D01*
X303345Y830505D01*
X303345Y824523D01*
X295723Y824523D01*
G37*
%LPD*%
%LPC*%
G36*
X517323Y426523D02*
X517323Y426523D01*
X517323Y440625D01*
X518467Y440397D01*
X520132Y439708D01*
X521630Y438707D01*
X522903Y437434D01*
X523904Y435936D01*
X524593Y434271D01*
X524945Y432505D01*
X524945Y426523D01*
X517323Y426523D01*
G37*
%LPD*%
%LPC*%
G36*
X517323Y423477D02*
X517323Y423477D01*
X524945Y423477D01*
X524945Y417495D01*
X524593Y415729D01*
X523904Y414064D01*
X522903Y412566D01*
X521630Y411293D01*
X520132Y410292D01*
X518467Y409603D01*
X517323Y409375D01*
X517323Y423477D01*
G37*
%LPD*%
%LPC*%
G36*
X295723Y821477D02*
X295723Y821477D01*
X303345Y821477D01*
X303345Y815495D01*
X302993Y813729D01*
X302304Y812064D01*
X301303Y810566D01*
X300030Y809293D01*
X298532Y808292D01*
X296867Y807603D01*
X295723Y807375D01*
X295723Y821477D01*
G37*
%LPD*%
%LPC*%
G36*
X158223Y821477D02*
X158223Y821477D01*
X165845Y821477D01*
X165845Y815495D01*
X165493Y813729D01*
X164804Y812064D01*
X163803Y810566D01*
X162530Y809293D01*
X161032Y808292D01*
X159367Y807603D01*
X158223Y807375D01*
X158223Y821477D01*
G37*
%LPD*%
%LPC*%
G36*
X226973Y821477D02*
X226973Y821477D01*
X234595Y821477D01*
X234595Y815495D01*
X234243Y813729D01*
X233554Y812064D01*
X232553Y810566D01*
X231280Y809293D01*
X229782Y808292D01*
X228117Y807603D01*
X226973Y807375D01*
X226973Y821477D01*
G37*
%LPD*%
%LPC*%
G36*
X819723Y821477D02*
X819723Y821477D01*
X827345Y821477D01*
X827345Y815495D01*
X826993Y813729D01*
X826304Y812064D01*
X825303Y810566D01*
X824030Y809293D01*
X822532Y808292D01*
X820867Y807603D01*
X819723Y807375D01*
X819723Y821477D01*
G37*
%LPD*%
%LPC*%
G36*
X750973Y821477D02*
X750973Y821477D01*
X758595Y821477D01*
X758595Y815495D01*
X758243Y813729D01*
X757554Y812064D01*
X756553Y810566D01*
X755280Y809293D01*
X753782Y808292D01*
X752117Y807603D01*
X750973Y807375D01*
X750973Y821477D01*
G37*
%LPD*%
%LPC*%
G36*
X682223Y821477D02*
X682223Y821477D01*
X689845Y821477D01*
X689845Y815495D01*
X689493Y813729D01*
X688804Y812064D01*
X687803Y810566D01*
X686530Y809293D01*
X685032Y808292D01*
X683367Y807603D01*
X682223Y807375D01*
X682223Y821477D01*
G37*
%LPD*%
%LPC*%
G36*
X285055Y824523D02*
X285055Y824523D01*
X285055Y830505D01*
X285407Y832271D01*
X286096Y833936D01*
X287097Y835434D01*
X288370Y836707D01*
X289868Y837708D01*
X291533Y838397D01*
X292677Y838625D01*
X292677Y824523D01*
X285055Y824523D01*
G37*
%LPD*%
%LPC*%
G36*
X740305Y824523D02*
X740305Y824523D01*
X740305Y830505D01*
X740657Y832271D01*
X741346Y833936D01*
X742347Y835434D01*
X743620Y836707D01*
X745118Y837708D01*
X746783Y838397D01*
X747927Y838625D01*
X747927Y824523D01*
X740305Y824523D01*
G37*
%LPD*%
%LPC*%
G36*
X216305Y824523D02*
X216305Y824523D01*
X216305Y830505D01*
X216657Y832271D01*
X217346Y833936D01*
X218347Y835434D01*
X219620Y836707D01*
X221118Y837708D01*
X222783Y838397D01*
X223927Y838625D01*
X223927Y824523D01*
X216305Y824523D01*
G37*
%LPD*%
%LPC*%
G36*
X809055Y824523D02*
X809055Y824523D01*
X809055Y830505D01*
X809407Y832271D01*
X810096Y833936D01*
X811097Y835434D01*
X812370Y836707D01*
X813868Y837708D01*
X815533Y838397D01*
X816677Y838625D01*
X816677Y824523D01*
X809055Y824523D01*
G37*
%LPD*%
%LPC*%
G36*
X147555Y824523D02*
X147555Y824523D01*
X147555Y830505D01*
X147907Y832271D01*
X148596Y833936D01*
X149597Y835434D01*
X150870Y836707D01*
X152368Y837708D01*
X154033Y838397D01*
X155177Y838625D01*
X155177Y824523D01*
X147555Y824523D01*
G37*
%LPD*%
%LPC*%
G36*
X671555Y824523D02*
X671555Y824523D01*
X671555Y830505D01*
X671907Y832271D01*
X672596Y833936D01*
X673597Y835434D01*
X674870Y836707D01*
X676368Y837708D01*
X678033Y838397D01*
X679177Y838625D01*
X679177Y824523D01*
X671555Y824523D01*
G37*
%LPD*%
%LPC*%
G36*
X506655Y426523D02*
X506655Y426523D01*
X506655Y432505D01*
X507007Y434271D01*
X507696Y435936D01*
X508697Y437434D01*
X509970Y438707D01*
X511468Y439708D01*
X513133Y440397D01*
X514277Y440625D01*
X514277Y426523D01*
X506655Y426523D01*
G37*
%LPD*%
%LPC*%
G36*
X154033Y807603D02*
X154033Y807603D01*
X152368Y808292D01*
X150870Y809293D01*
X149597Y810566D01*
X148596Y812064D01*
X147907Y813729D01*
X147555Y815495D01*
X147555Y821477D01*
X155177Y821477D01*
X155177Y807375D01*
X154033Y807603D01*
G37*
%LPD*%
%LPC*%
G36*
X746783Y807603D02*
X746783Y807603D01*
X745118Y808292D01*
X743620Y809293D01*
X742347Y810566D01*
X741346Y812064D01*
X740657Y813729D01*
X740305Y815495D01*
X740305Y821477D01*
X747927Y821477D01*
X747927Y807375D01*
X746783Y807603D01*
G37*
%LPD*%
%LPC*%
G36*
X815533Y807603D02*
X815533Y807603D01*
X813868Y808292D01*
X812370Y809293D01*
X811097Y810566D01*
X810096Y812064D01*
X809407Y813729D01*
X809055Y815495D01*
X809055Y821477D01*
X816677Y821477D01*
X816677Y807375D01*
X815533Y807603D01*
G37*
%LPD*%
%LPC*%
G36*
X291533Y807603D02*
X291533Y807603D01*
X289868Y808292D01*
X288370Y809293D01*
X287097Y810566D01*
X286096Y812064D01*
X285407Y813729D01*
X285055Y815495D01*
X285055Y821477D01*
X292677Y821477D01*
X292677Y807375D01*
X291533Y807603D01*
G37*
%LPD*%
%LPC*%
G36*
X678033Y807603D02*
X678033Y807603D01*
X676368Y808292D01*
X674870Y809293D01*
X673597Y810566D01*
X672596Y812064D01*
X671907Y813729D01*
X671555Y815495D01*
X671555Y821477D01*
X679177Y821477D01*
X679177Y807375D01*
X678033Y807603D01*
G37*
%LPD*%
%LPC*%
G36*
X222783Y807603D02*
X222783Y807603D01*
X221118Y808292D01*
X219620Y809293D01*
X218347Y810566D01*
X217346Y812064D01*
X216657Y813729D01*
X216305Y815495D01*
X216305Y821477D01*
X223927Y821477D01*
X223927Y807375D01*
X222783Y807603D01*
G37*
%LPD*%
%LPC*%
G36*
X513133Y409603D02*
X513133Y409603D01*
X511468Y410292D01*
X509970Y411293D01*
X508697Y412566D01*
X507696Y414064D01*
X507007Y415729D01*
X506655Y417495D01*
X506655Y423477D01*
X514277Y423477D01*
X514277Y409375D01*
X513133Y409603D01*
G37*
%LPD*%
%LPC*%
G36*
X550743Y469023D02*
X550743Y469023D01*
X550743Y479056D01*
X557554Y479056D01*
X558201Y478883D01*
X558780Y478548D01*
X559253Y478075D01*
X559588Y477496D01*
X559761Y476849D01*
X559761Y469023D01*
X550743Y469023D01*
G37*
%LPD*%
%LPC*%
G36*
X550743Y455944D02*
X550743Y455944D01*
X550743Y465977D01*
X559761Y465977D01*
X559761Y458151D01*
X559588Y457504D01*
X559253Y456925D01*
X558780Y456452D01*
X558201Y456117D01*
X557554Y455944D01*
X550743Y455944D01*
G37*
%LPD*%
%LPC*%
G36*
X538679Y469023D02*
X538679Y469023D01*
X538679Y476849D01*
X538852Y477496D01*
X539187Y478075D01*
X539660Y478548D01*
X540239Y478883D01*
X540886Y479056D01*
X547697Y479056D01*
X547697Y469023D01*
X538679Y469023D01*
G37*
%LPD*%
%LPC*%
G36*
X540886Y455944D02*
X540886Y455944D01*
X540239Y456117D01*
X539660Y456452D01*
X539187Y456925D01*
X538852Y457504D01*
X538679Y458151D01*
X538679Y465977D01*
X547697Y465977D01*
X547697Y455944D01*
X540886Y455944D01*
G37*
%LPD*%
%LPC*%
G36*
X225449Y822999D02*
X225449Y822999D01*
X225449Y823001D01*
X225451Y823001D01*
X225451Y822999D01*
X225449Y822999D01*
G37*
%LPD*%
%LPC*%
G36*
X156699Y822999D02*
X156699Y822999D01*
X156699Y823001D01*
X156701Y823001D01*
X156701Y822999D01*
X156699Y822999D01*
G37*
%LPD*%
%LPC*%
G36*
X680699Y822999D02*
X680699Y822999D01*
X680699Y823001D01*
X680701Y823001D01*
X680701Y822999D01*
X680699Y822999D01*
G37*
%LPD*%
%LPC*%
G36*
X818199Y822999D02*
X818199Y822999D01*
X818199Y823001D01*
X818201Y823001D01*
X818201Y822999D01*
X818199Y822999D01*
G37*
%LPD*%
%LPC*%
G36*
X749449Y822999D02*
X749449Y822999D01*
X749449Y823001D01*
X749451Y823001D01*
X749451Y822999D01*
X749449Y822999D01*
G37*
%LPD*%
%LPC*%
G36*
X515799Y424999D02*
X515799Y424999D01*
X515799Y425001D01*
X515801Y425001D01*
X515801Y424999D01*
X515799Y424999D01*
G37*
%LPD*%
%LPC*%
G36*
X294199Y822999D02*
X294199Y822999D01*
X294199Y823001D01*
X294201Y823001D01*
X294201Y822999D01*
X294199Y822999D01*
G37*
%LPD*%
%LPC*%
G36*
X576599Y760599D02*
X576599Y760599D01*
X576599Y760601D01*
X576601Y760601D01*
X576601Y760599D01*
X576599Y760599D01*
G37*
%LPD*%
%LPC*%
G36*
X500399Y506599D02*
X500399Y506599D01*
X500399Y506601D01*
X500401Y506601D01*
X500401Y506599D01*
X500399Y506599D01*
G37*
%LPD*%
%LPC*%
G36*
X549219Y467499D02*
X549219Y467499D01*
X549219Y467501D01*
X549221Y467501D01*
X549221Y467499D01*
X549219Y467499D01*
G37*
%LPD*%
D10*
X515800Y431604D02*
X515800Y418396D01*
X490400Y418396D02*
X490400Y431604D01*
D11*
X280000Y755000D03*
X254600Y755000D03*
X229100Y755000D03*
X203800Y755000D03*
X178400Y755000D03*
X800000Y755000D03*
X774600Y755000D03*
X749100Y755000D03*
X723800Y755000D03*
X698400Y755000D03*
D12*
X436900Y811400D03*
X462300Y811400D03*
X487700Y811400D03*
X513100Y811400D03*
X538500Y811400D03*
X563900Y811400D03*
D13*
X424200Y786000D03*
X424200Y760600D03*
X424200Y735200D03*
X424200Y709800D03*
X424200Y684400D03*
X424200Y659000D03*
X424200Y633600D03*
X424200Y608200D03*
X424200Y582800D03*
X424200Y557400D03*
X424200Y532000D03*
X424200Y506600D03*
X576600Y786000D03*
X576600Y760600D03*
X576600Y735200D03*
X576600Y709800D03*
X576600Y684400D03*
X576600Y659000D03*
X576600Y633600D03*
X576600Y608200D03*
X576600Y582800D03*
X576600Y557400D03*
X576600Y532000D03*
X576600Y506600D03*
D12*
X551200Y506600D03*
X525800Y506600D03*
X500400Y506600D03*
D14*
X551200Y697100D03*
X551200Y671700D03*
D15*
X845720Y787625D03*
X817280Y787625D03*
D10*
X294200Y816396D02*
X294200Y829604D01*
X319600Y829604D02*
X319600Y816396D01*
X225450Y816396D02*
X225450Y829604D01*
X250850Y829604D02*
X250850Y816396D01*
X156700Y816396D02*
X156700Y829604D01*
X182100Y829604D02*
X182100Y816396D01*
X680700Y816396D02*
X680700Y829604D01*
X706100Y829604D02*
X706100Y816396D01*
X749450Y816396D02*
X749450Y829604D01*
X774850Y829604D02*
X774850Y816396D01*
X818200Y816396D02*
X818200Y829604D01*
X843600Y829604D02*
X843600Y816396D01*
D15*
X776220Y858000D03*
X747780Y858000D03*
X707220Y858000D03*
X678780Y858000D03*
X183720Y787500D03*
X155280Y787500D03*
X251720Y858500D03*
X223280Y858500D03*
X320720Y858500D03*
X292280Y858500D03*
X520780Y467500D03*
X549220Y467500D03*
X454780Y467000D03*
X483220Y467000D03*
D10*
X437000Y845396D02*
X437000Y858604D01*
X462400Y858604D02*
X462400Y845396D01*
X487800Y845396D02*
X487800Y858604D01*
X513200Y858604D02*
X513200Y845396D01*
X538600Y845396D02*
X538600Y858604D01*
X564000Y858604D02*
X564000Y845396D01*
D16*
X576600Y608200D02*
X587425Y608200D01*
X590075Y608200D02*
X576600Y608200D01*
X590075Y608200D02*
X600625Y618750D01*
X600625Y638125D01*
X592500Y646250D01*
X535000Y646250D01*
X483750Y697500D02*
X406875Y697500D01*
X375625Y728750D01*
X483750Y697500D02*
X535000Y646250D01*
X255350Y728750D02*
X229100Y755000D01*
X255350Y728750D02*
X375625Y728750D01*
X576600Y633600D02*
X580775Y633600D01*
X204000Y737800D02*
X203800Y755000D01*
X528275Y633600D02*
X576600Y633600D01*
X528275Y633600D02*
X490000Y671875D01*
X407500Y671875D01*
X361750Y717625D01*
X245500Y717625D01*
X225325Y737800D02*
X204000Y737800D01*
X225325Y737800D02*
X245500Y717625D01*
X551200Y671700D02*
X639200Y671700D01*
X680625Y713125D01*
X726250Y713125D01*
X749375Y736250D01*
X749100Y739025D01*
X749100Y755000D01*
X648350Y697100D02*
X551200Y697100D01*
X648350Y697100D02*
X676875Y725625D01*
X712500Y725625D01*
X723750Y736875D01*
X723750Y754950D01*
X723800Y755000D01*
X454780Y467000D02*
X454780Y450720D01*
X465500Y440000D01*
X475400Y440000D01*
X490400Y425000D01*
D17*
X592500Y805000D03*
D18*
X592500Y801900D01*
X576600Y786000D01*
X757750Y786000D01*
X775000Y768750D01*
X774600Y768350D01*
X774600Y755000D01*
D16*
X577025Y709375D02*
X576600Y709800D01*
D17*
X553000Y714000D03*
D16*
X572400Y714000D01*
X576600Y709800D01*
D17*
X551000Y787000D03*
X551000Y902000D03*
D16*
X551000Y787000D01*
X471950Y659375D02*
X424200Y659000D01*
X471950Y659375D02*
X481250Y650000D01*
D17*
X481250Y650000D03*
D16*
X428900Y633600D02*
X424200Y633600D01*
X428900Y633600D02*
X448750Y613750D01*
X481250Y613750D01*
D17*
X481250Y613750D03*
X506875Y613750D03*
D16*
X506875Y603125D01*
X526875Y583125D01*
X576275Y583125D01*
X576600Y582800D01*
D17*
X555000Y531875D03*
D16*
X576475Y531875D01*
X576600Y532000D01*
D17*
X554375Y556875D03*
D16*
X576075Y556875D01*
X576600Y557400D01*
X843600Y789745D02*
X843600Y823000D01*
X843600Y789745D02*
X845720Y787625D01*
X776220Y824370D02*
X776220Y858000D01*
X776220Y824370D02*
X774850Y823000D01*
X707220Y824120D02*
X707220Y858000D01*
X707220Y824120D02*
X706100Y823000D01*
X183720Y821380D02*
X182100Y823000D01*
X183720Y821380D02*
X183720Y787500D01*
X251720Y823870D02*
X251720Y858500D01*
X251720Y823870D02*
X250850Y823000D01*
X320720Y824120D02*
X320720Y858500D01*
X320720Y824120D02*
X319600Y823000D01*
X483220Y467000D02*
X520280Y467000D01*
X520780Y467500D01*
X503780Y484500D01*
X481000Y484500D02*
X475000Y490500D01*
X475000Y583500D01*
X494000Y602500D01*
X494000Y650000D01*
X494500Y650500D01*
D17*
X494500Y650500D03*
X500500Y702000D03*
D16*
X517500Y702000D01*
X535100Y684400D02*
X576600Y684400D01*
X503780Y484500D02*
X481000Y484500D01*
X535100Y684400D02*
X517500Y702000D01*
X292280Y858500D02*
X273500Y839720D01*
X273500Y802000D02*
X286500Y789000D01*
X311500Y789000D01*
X353000Y747500D01*
D17*
X353000Y747500D03*
X353000Y703000D03*
D16*
X403000Y653000D01*
X403000Y620000D01*
X414800Y608200D01*
X424200Y608200D01*
X273500Y802000D02*
X273500Y839720D01*
X223280Y858500D02*
X204000Y839220D01*
X204000Y812500D01*
X240000Y776500D01*
X307500Y776500D01*
X339000Y745000D01*
X339000Y741000D01*
D17*
X339000Y741000D03*
X339000Y707000D03*
D16*
X332500Y707000D01*
X331000Y707500D01*
X269000Y707500D01*
X269000Y641500D01*
X318500Y641500D01*
X329500Y652500D02*
X382500Y652500D01*
X391500Y643500D01*
X391500Y597500D01*
X406200Y582800D01*
X424200Y582800D01*
X329500Y652500D02*
X318500Y641500D01*
X155280Y746720D02*
X155280Y787500D01*
X155280Y746720D02*
X180000Y722000D01*
X208000Y722000D01*
X258000Y672000D01*
X258000Y618500D01*
X335000Y542500D02*
X385500Y542500D01*
X400400Y557400D01*
X424200Y557400D01*
X335000Y542500D02*
X258000Y618500D01*
X817280Y721780D02*
X817280Y787625D01*
X614500Y599500D02*
X603000Y588000D01*
X603000Y577000D01*
X530500Y570000D02*
X491500Y531000D01*
D17*
X491500Y531000D03*
X465500Y531000D03*
D16*
X425200Y531000D01*
X424200Y532000D01*
X695000Y599500D02*
X817280Y721780D01*
X695000Y599500D02*
X614500Y599500D01*
X603000Y577000D02*
X596000Y570000D01*
X530500Y570000D01*
X747780Y858000D02*
X723280Y882500D01*
X656500Y882500D01*
X642000Y868000D01*
X642000Y804000D01*
X642000Y803500D01*
D17*
X642000Y804000D03*
X655500Y662000D03*
D16*
X620500Y662000D01*
X608500Y650000D01*
D17*
X608500Y650000D03*
X600500Y601500D03*
D16*
X594500Y595500D01*
X424200Y506600D02*
X410400Y506600D01*
X396500Y520500D01*
X396500Y532500D01*
X408500Y544500D02*
X439500Y544500D01*
X465500Y570500D01*
X465500Y598000D01*
X465500Y598500D01*
D17*
X465500Y598000D03*
D16*
X408500Y544500D02*
X396500Y532500D01*
X521000Y604500D02*
X530000Y595500D01*
D17*
X521000Y604500D03*
D16*
X530000Y595500D02*
X594500Y595500D01*
D17*
X603000Y506500D03*
D16*
X576700Y506500D01*
X576600Y506600D01*
X657500Y836720D02*
X678780Y858000D01*
X657500Y836720D02*
X657500Y804000D01*
D17*
X657500Y804000D03*
D16*
X437000Y811500D02*
X437000Y852000D01*
X437000Y811500D02*
X436900Y811400D01*
X462400Y811500D02*
X462400Y852000D01*
X462400Y811500D02*
X462300Y811400D01*
X487800Y811500D02*
X487800Y852000D01*
X487800Y811500D02*
X487700Y811400D01*
X513200Y811500D02*
X513200Y852000D01*
X513200Y811500D02*
X513100Y811400D01*
X538600Y811500D02*
X538600Y852000D01*
X538600Y811500D02*
X538500Y811400D01*
X564000Y811500D02*
X564000Y852000D01*
X564000Y811500D02*
X563900Y811400D01*
M02*
