M48
;GenerationSoftware,Autodesk,EAGLE,9.0.1*%
;CreationDate,2018-06-02T06:47:04Z*%
FMAT,2
ICI,OFF
METRIC,TZ,000.000
T5C0.350
T4C0.813
T3C1.500
T2C4.000
T1C5.000
%
G90
M71
T1
X17500Y52500
X69500Y67500
X82500Y67500
X30500Y67500
X82500Y52500
X17500Y67500
X69500Y52500
X30500Y52500
T2
X34000Y57500
X24000Y50500
X26500Y50500
X34000Y62500
X34000Y60000
X63500Y63000
X86000Y57500
X86000Y60000
X86000Y62500
X78500Y50500
X76000Y50500
X73500Y50500
X68000Y63000
X68000Y57000
X63500Y57000
X11500Y63000
X11500Y57000
X16000Y57000
X16000Y63000
X21500Y50500
T3
X69840Y75500
X72380Y75500
X74910Y75500
X77460Y75500
X80000Y75500
X25460Y75500
X28000Y75500
X22910Y75500
X20380Y75500
X17840Y75500
T4
X51320Y85200
X53860Y85200
X56400Y85200
X70610Y82300
X51580Y42500
X49040Y42500
X29420Y82300
X31960Y82300
X22545Y82300
X25085Y82300
X15670Y82300
X18210Y82300
X68070Y82300
X74945Y82300
X77485Y82300
X81820Y82300
X84360Y82300
X43700Y85200
X46240Y85200
X48780Y85200
T5
X59250Y80500
X55300Y71400
X55100Y78700
X50687Y61375
X48125Y61375
X48125Y65000
X55100Y90200
X52100Y60450
X46550Y59800
X60050Y60150
X60850Y65000
X65550Y66200
X64200Y80400
X46550Y53100
X50050Y70200
X49150Y53100
X33900Y70700
X65750Y80400
X60300Y50650
X33900Y74100
X35300Y70300
X35300Y74750
X49450Y65050
X55437Y55687
X55500Y53187
M30