G04 EAGLE Gerber X2 export*
%TF.Part,Single*%
%TF.FileFunction,Legend,Top,1*%
%TF.FilePolarity,Positive*%
%TF.GenerationSoftware,Autodesk,EAGLE,9.0.1*%
%TF.CreationDate,2018-06-02T06:47:05Z*%
G75*
%MOMM*%
%FSLAX34Y34*%
%LPD*%
%AMOC8*
5,1,8,0,0,1.08239X$1,22.5*%
G01*
%ADD10C,0.152400*%
%ADD11C,0.127000*%
%ADD12C,0.101600*%


D10*
X528500Y412300D02*
X528500Y437700D01*
X505640Y437700D01*
X503100Y435160D01*
X500560Y437700D01*
X490400Y437700D01*
X480240Y437700D01*
X480240Y412300D02*
X490400Y412300D01*
X500560Y412300D01*
X503100Y414840D01*
X505640Y412300D01*
X528500Y412300D01*
D11*
X501680Y405958D02*
X499773Y407865D01*
X495960Y407865D01*
X494053Y405958D01*
X494053Y404052D01*
X495960Y402145D01*
X499773Y402145D01*
X501680Y400238D01*
X501680Y398332D01*
X499773Y396425D01*
X495960Y396425D01*
X494053Y398332D01*
X505747Y400238D02*
X505747Y407865D01*
X505747Y400238D02*
X509560Y396425D01*
X513374Y400238D01*
X513374Y407865D01*
X517441Y404052D02*
X521254Y407865D01*
X521254Y396425D01*
X517441Y396425D02*
X525067Y396425D01*
X528871Y426912D02*
X532684Y430725D01*
X532684Y419285D01*
X528871Y419285D02*
X536498Y419285D01*
X490400Y412300D02*
X477700Y412300D01*
X477700Y437700D01*
X490400Y437700D01*
X100000Y430000D02*
X100000Y770000D01*
X100000Y430000D02*
X360000Y430000D01*
X360000Y770000D01*
X100000Y770000D01*
X620000Y770000D02*
X620000Y430000D01*
X880000Y430000D01*
X880000Y770000D01*
X620000Y770000D01*
D12*
X819308Y800833D02*
X819308Y812527D01*
X825155Y812527D01*
X827104Y810578D01*
X827104Y806680D01*
X825155Y804731D01*
X819308Y804731D01*
X823206Y804731D02*
X827104Y800833D01*
X831002Y808629D02*
X834900Y812527D01*
X834900Y800833D01*
X831002Y800833D02*
X838798Y800833D01*
D10*
X281500Y810300D02*
X281500Y835700D01*
X281500Y810300D02*
X304360Y810300D01*
X306900Y812840D01*
X309440Y810300D01*
X319600Y810300D01*
X329760Y810300D01*
X329760Y835700D02*
X319600Y835700D01*
X309440Y835700D01*
X306900Y833160D01*
X304360Y835700D01*
X281500Y835700D01*
D11*
X289762Y849678D02*
X287855Y851585D01*
X284042Y851585D01*
X282135Y849678D01*
X282135Y847772D01*
X284042Y845865D01*
X287855Y845865D01*
X289762Y843958D01*
X289762Y842052D01*
X287855Y840145D01*
X284042Y840145D01*
X282135Y842052D01*
X293829Y843958D02*
X293829Y851585D01*
X293829Y843958D02*
X297642Y840145D01*
X301455Y843958D01*
X301455Y851585D01*
X305523Y840145D02*
X313149Y840145D01*
X305523Y840145D02*
X313149Y847772D01*
X313149Y849678D01*
X311243Y851585D01*
X307430Y851585D01*
X305523Y849678D01*
X274518Y828725D02*
X270705Y824912D01*
X274518Y828725D02*
X274518Y817285D01*
X270705Y817285D02*
X278332Y817285D01*
X319600Y835700D02*
X332300Y835700D01*
X332300Y810300D01*
X319600Y810300D01*
D10*
X212750Y810300D02*
X212750Y835700D01*
X212750Y810300D02*
X235610Y810300D01*
X238150Y812840D01*
X240690Y810300D01*
X250850Y810300D01*
X261010Y810300D01*
X261010Y835700D02*
X250850Y835700D01*
X240690Y835700D01*
X238150Y833160D01*
X235610Y835700D01*
X212750Y835700D01*
D11*
X221012Y849678D02*
X219105Y851585D01*
X215292Y851585D01*
X213385Y849678D01*
X213385Y847772D01*
X215292Y845865D01*
X219105Y845865D01*
X221012Y843958D01*
X221012Y842052D01*
X219105Y840145D01*
X215292Y840145D01*
X213385Y842052D01*
X225079Y843958D02*
X225079Y851585D01*
X225079Y843958D02*
X228892Y840145D01*
X232705Y843958D01*
X232705Y851585D01*
X236773Y849678D02*
X238680Y851585D01*
X242493Y851585D01*
X244399Y849678D01*
X244399Y847772D01*
X242493Y845865D01*
X240586Y845865D01*
X242493Y845865D02*
X244399Y843958D01*
X244399Y842052D01*
X242493Y840145D01*
X238680Y840145D01*
X236773Y842052D01*
X205768Y828725D02*
X201955Y824912D01*
X205768Y828725D02*
X205768Y817285D01*
X201955Y817285D02*
X209582Y817285D01*
X250850Y835700D02*
X263550Y835700D01*
X263550Y810300D01*
X250850Y810300D01*
D10*
X144000Y810300D02*
X144000Y835700D01*
X144000Y810300D02*
X166860Y810300D01*
X169400Y812840D01*
X171940Y810300D01*
X182100Y810300D01*
X192260Y810300D01*
X192260Y835700D02*
X182100Y835700D01*
X171940Y835700D01*
X169400Y833160D01*
X166860Y835700D01*
X144000Y835700D01*
D11*
X152262Y849678D02*
X150355Y851585D01*
X146542Y851585D01*
X144635Y849678D01*
X144635Y847772D01*
X146542Y845865D01*
X150355Y845865D01*
X152262Y843958D01*
X152262Y842052D01*
X150355Y840145D01*
X146542Y840145D01*
X144635Y842052D01*
X156329Y843958D02*
X156329Y851585D01*
X156329Y843958D02*
X160142Y840145D01*
X163955Y843958D01*
X163955Y851585D01*
X173743Y851585D02*
X173743Y840145D01*
X168023Y845865D02*
X173743Y851585D01*
X175649Y845865D02*
X168023Y845865D01*
X137018Y828725D02*
X133205Y824912D01*
X137018Y828725D02*
X137018Y817285D01*
X133205Y817285D02*
X140832Y817285D01*
X182100Y835700D02*
X194800Y835700D01*
X194800Y810300D01*
X182100Y810300D01*
D10*
X668000Y810300D02*
X668000Y835700D01*
X668000Y810300D02*
X690860Y810300D01*
X693400Y812840D01*
X695940Y810300D01*
X706100Y810300D01*
X716260Y810300D01*
X716260Y835700D02*
X706100Y835700D01*
X695940Y835700D01*
X693400Y833160D01*
X690860Y835700D01*
X668000Y835700D01*
D11*
X676262Y849678D02*
X674355Y851585D01*
X670542Y851585D01*
X668635Y849678D01*
X668635Y847772D01*
X670542Y845865D01*
X674355Y845865D01*
X676262Y843958D01*
X676262Y842052D01*
X674355Y840145D01*
X670542Y840145D01*
X668635Y842052D01*
X680329Y843958D02*
X680329Y851585D01*
X680329Y843958D02*
X684142Y840145D01*
X687955Y843958D01*
X687955Y851585D01*
X692023Y851585D02*
X699649Y851585D01*
X692023Y851585D02*
X692023Y845865D01*
X695836Y847772D01*
X697743Y847772D01*
X699649Y845865D01*
X699649Y842052D01*
X697743Y840145D01*
X693930Y840145D01*
X692023Y842052D01*
X661018Y828725D02*
X657205Y824912D01*
X661018Y828725D02*
X661018Y817285D01*
X657205Y817285D02*
X664832Y817285D01*
X706100Y835700D02*
X718800Y835700D01*
X718800Y810300D01*
X706100Y810300D01*
D10*
X736750Y810300D02*
X736750Y835700D01*
X736750Y810300D02*
X759610Y810300D01*
X762150Y812840D01*
X764690Y810300D01*
X774850Y810300D01*
X785010Y810300D01*
X785010Y835700D02*
X774850Y835700D01*
X764690Y835700D01*
X762150Y833160D01*
X759610Y835700D01*
X736750Y835700D01*
D11*
X745012Y849678D02*
X743105Y851585D01*
X739292Y851585D01*
X737385Y849678D01*
X737385Y847772D01*
X739292Y845865D01*
X743105Y845865D01*
X745012Y843958D01*
X745012Y842052D01*
X743105Y840145D01*
X739292Y840145D01*
X737385Y842052D01*
X749079Y843958D02*
X749079Y851585D01*
X749079Y843958D02*
X752892Y840145D01*
X756705Y843958D01*
X756705Y851585D01*
X764586Y849678D02*
X768399Y851585D01*
X764586Y849678D02*
X760773Y845865D01*
X760773Y842052D01*
X762680Y840145D01*
X766493Y840145D01*
X768399Y842052D01*
X768399Y843958D01*
X766493Y845865D01*
X760773Y845865D01*
X729768Y828725D02*
X725955Y824912D01*
X729768Y828725D02*
X729768Y817285D01*
X725955Y817285D02*
X733582Y817285D01*
X774850Y835700D02*
X787550Y835700D01*
X787550Y810300D01*
X774850Y810300D01*
D10*
X805500Y810300D02*
X805500Y835700D01*
X805500Y810300D02*
X828360Y810300D01*
X830900Y812840D01*
X833440Y810300D01*
X843600Y810300D01*
X853760Y810300D01*
X853760Y835700D02*
X843600Y835700D01*
X833440Y835700D01*
X830900Y833160D01*
X828360Y835700D01*
X805500Y835700D01*
D11*
X813762Y849678D02*
X811855Y851585D01*
X808042Y851585D01*
X806135Y849678D01*
X806135Y847772D01*
X808042Y845865D01*
X811855Y845865D01*
X813762Y843958D01*
X813762Y842052D01*
X811855Y840145D01*
X808042Y840145D01*
X806135Y842052D01*
X817829Y843958D02*
X817829Y851585D01*
X817829Y843958D02*
X821642Y840145D01*
X825455Y843958D01*
X825455Y851585D01*
X829523Y851585D02*
X837149Y851585D01*
X837149Y849678D01*
X829523Y842052D01*
X829523Y840145D01*
X798518Y828725D02*
X794705Y824912D01*
X798518Y828725D02*
X798518Y817285D01*
X794705Y817285D02*
X802332Y817285D01*
X843600Y835700D02*
X856300Y835700D01*
X856300Y810300D01*
X843600Y810300D01*
D12*
X749808Y871208D02*
X749808Y882902D01*
X755655Y882902D01*
X757604Y880953D01*
X757604Y877055D01*
X755655Y875106D01*
X749808Y875106D01*
X753706Y875106D02*
X757604Y871208D01*
X761502Y871208D02*
X769298Y871208D01*
X761502Y871208D02*
X769298Y879004D01*
X769298Y880953D01*
X767349Y882902D01*
X763451Y882902D01*
X761502Y880953D01*
X680808Y882902D02*
X680808Y871208D01*
X680808Y882902D02*
X686655Y882902D01*
X688604Y880953D01*
X688604Y877055D01*
X686655Y875106D01*
X680808Y875106D01*
X684706Y875106D02*
X688604Y871208D01*
X692502Y880953D02*
X694451Y882902D01*
X698349Y882902D01*
X700298Y880953D01*
X700298Y879004D01*
X698349Y877055D01*
X696400Y877055D01*
X698349Y877055D02*
X700298Y875106D01*
X700298Y873157D01*
X698349Y871208D01*
X694451Y871208D01*
X692502Y873157D01*
X157308Y812402D02*
X157308Y800708D01*
X157308Y812402D02*
X163155Y812402D01*
X165104Y810453D01*
X165104Y806555D01*
X163155Y804606D01*
X157308Y804606D01*
X161206Y804606D02*
X165104Y800708D01*
X174849Y800708D02*
X174849Y812402D01*
X169002Y806555D01*
X176798Y806555D01*
X225308Y871708D02*
X225308Y883402D01*
X231155Y883402D01*
X233104Y881453D01*
X233104Y877555D01*
X231155Y875606D01*
X225308Y875606D01*
X229206Y875606D02*
X233104Y871708D01*
X237002Y883402D02*
X244798Y883402D01*
X237002Y883402D02*
X237002Y877555D01*
X240900Y879504D01*
X242849Y879504D01*
X244798Y877555D01*
X244798Y873657D01*
X242849Y871708D01*
X238951Y871708D01*
X237002Y873657D01*
X294308Y871708D02*
X294308Y883402D01*
X300155Y883402D01*
X302104Y881453D01*
X302104Y877555D01*
X300155Y875606D01*
X294308Y875606D01*
X298206Y875606D02*
X302104Y871708D01*
X309900Y881453D02*
X313798Y883402D01*
X309900Y881453D02*
X306002Y877555D01*
X306002Y873657D01*
X307951Y871708D01*
X311849Y871708D01*
X313798Y873657D01*
X313798Y875606D01*
X311849Y877555D01*
X306002Y877555D01*
X524820Y454302D02*
X524820Y442608D01*
X524820Y454302D02*
X530667Y454302D01*
X532616Y452353D01*
X532616Y448455D01*
X530667Y446506D01*
X524820Y446506D01*
X528718Y446506D02*
X532616Y442608D01*
X536514Y454302D02*
X544310Y454302D01*
X544310Y452353D01*
X536514Y444557D01*
X536514Y442608D01*
X458820Y442108D02*
X458820Y453802D01*
X464667Y453802D01*
X466616Y451853D01*
X466616Y447955D01*
X464667Y446006D01*
X458820Y446006D01*
X462718Y446006D02*
X466616Y442108D01*
X470514Y451853D02*
X472463Y453802D01*
X476361Y453802D01*
X478310Y451853D01*
X478310Y449904D01*
X476361Y447955D01*
X478310Y446006D01*
X478310Y444057D01*
X476361Y442108D01*
X472463Y442108D01*
X470514Y444057D01*
X470514Y446006D01*
X472463Y447955D01*
X470514Y449904D01*
X470514Y451853D01*
X472463Y447955D02*
X476361Y447955D01*
D10*
X424300Y839300D02*
X424300Y864700D01*
X424300Y839300D02*
X447160Y839300D01*
X449700Y841840D01*
X452240Y839300D01*
X472560Y839300D01*
X475100Y841840D01*
X477640Y839300D01*
X497960Y839300D01*
X500500Y841840D01*
X503040Y839300D01*
X523360Y839300D01*
X525900Y841840D01*
X528440Y839300D01*
X548760Y839300D01*
X553840Y839300D02*
X576700Y839300D01*
X576700Y864700D01*
X553840Y864700D01*
X548760Y864700D02*
X528440Y864700D01*
X525900Y862160D01*
X523360Y864700D01*
X503040Y864700D01*
X500500Y862160D01*
X497960Y864700D01*
X477640Y864700D01*
X475100Y862160D01*
X472560Y864700D01*
X452240Y864700D01*
X449700Y862160D01*
X447160Y864700D01*
X424300Y864700D01*
X551300Y862160D02*
X553840Y864700D01*
X551300Y862160D02*
X548760Y864700D01*
X551300Y841840D02*
X553840Y839300D01*
X551300Y841840D02*
X548760Y839300D01*
D11*
X470662Y878678D02*
X468755Y880585D01*
X464942Y880585D01*
X463035Y878678D01*
X463035Y876772D01*
X464942Y874865D01*
X468755Y874865D01*
X470662Y872958D01*
X470662Y871052D01*
X468755Y869145D01*
X464942Y869145D01*
X463035Y871052D01*
X474729Y872958D02*
X474729Y880585D01*
X474729Y872958D02*
X478542Y869145D01*
X482355Y872958D01*
X482355Y880585D01*
X486423Y878678D02*
X488330Y880585D01*
X492143Y880585D01*
X494049Y878678D01*
X494049Y876772D01*
X492143Y874865D01*
X494049Y872958D01*
X494049Y871052D01*
X492143Y869145D01*
X488330Y869145D01*
X486423Y871052D01*
X486423Y872958D01*
X488330Y874865D01*
X486423Y876772D01*
X486423Y878678D01*
X488330Y874865D02*
X492143Y874865D01*
X436368Y879315D02*
X432555Y875502D01*
X436368Y879315D02*
X436368Y867875D01*
X432555Y867875D02*
X440182Y867875D01*
X563368Y877408D02*
X567182Y879315D01*
X563368Y877408D02*
X559555Y873595D01*
X559555Y869782D01*
X561462Y867875D01*
X565275Y867875D01*
X567182Y869782D01*
X567182Y871688D01*
X565275Y873595D01*
X559555Y873595D01*
M02*
