G04 EAGLE Gerber X2 export*
%TF.Part,Single*%
%TF.FileFunction,Soldermask,Top,1*%
%TF.FilePolarity,Negative*%
%TF.GenerationSoftware,Autodesk,EAGLE,9.0.1*%
%TF.CreationDate,2018-06-02T06:47:05Z*%
G75*
%MOMM*%
%FSLAX34Y34*%
%LPD*%
%AMOC8*
5,1,8,0,0,1.08239X$1,22.5*%
G01*
%ADD10C,1.524000*%
%ADD11C,2.453200*%
%ADD12C,5.203200*%
%ADD13C,4.203200*%
%ADD14R,1.473200X2.743200*%
%ADD15R,2.743200X1.473200*%
%ADD16R,1.473200X1.473200*%
%ADD17R,1.803200X2.006200*%
%ADD18C,0.959600*%


D10*
X515800Y431604D02*
X515800Y418396D01*
X490400Y418396D02*
X490400Y431604D01*
D11*
X280000Y755000D03*
X254600Y755000D03*
X229100Y755000D03*
X203800Y755000D03*
X178400Y755000D03*
D12*
X175000Y675000D03*
X305000Y675000D03*
D13*
X115000Y630000D03*
X115000Y570000D03*
X160000Y570000D03*
X160000Y630000D03*
D12*
X175000Y525000D03*
X305000Y525000D03*
D13*
X215000Y505000D03*
X240000Y505000D03*
X265000Y505000D03*
X340000Y625000D03*
X340000Y600000D03*
X340000Y575000D03*
D11*
X800000Y755000D03*
X774600Y755000D03*
X749100Y755000D03*
X723800Y755000D03*
X698400Y755000D03*
D12*
X695000Y675000D03*
X825000Y675000D03*
D13*
X635000Y630000D03*
X635000Y570000D03*
X680000Y570000D03*
X680000Y630000D03*
D12*
X695000Y525000D03*
X825000Y525000D03*
D13*
X735000Y505000D03*
X760000Y505000D03*
X785000Y505000D03*
X860000Y625000D03*
X860000Y600000D03*
X860000Y575000D03*
D14*
X436900Y811400D03*
X462300Y811400D03*
X487700Y811400D03*
X513100Y811400D03*
X538500Y811400D03*
X563900Y811400D03*
D15*
X424200Y786000D03*
X424200Y760600D03*
X424200Y735200D03*
X424200Y709800D03*
X424200Y684400D03*
X424200Y659000D03*
X424200Y633600D03*
X424200Y608200D03*
X424200Y582800D03*
X424200Y557400D03*
X424200Y532000D03*
X424200Y506600D03*
X576600Y786000D03*
X576600Y760600D03*
X576600Y735200D03*
X576600Y709800D03*
X576600Y684400D03*
X576600Y659000D03*
X576600Y633600D03*
X576600Y608200D03*
X576600Y582800D03*
X576600Y557400D03*
X576600Y532000D03*
X576600Y506600D03*
D14*
X551200Y506600D03*
X525800Y506600D03*
X500400Y506600D03*
D16*
X551200Y697100D03*
X551200Y671700D03*
D17*
X845720Y787625D03*
X817280Y787625D03*
D10*
X294200Y816396D02*
X294200Y829604D01*
X319600Y829604D02*
X319600Y816396D01*
X225450Y816396D02*
X225450Y829604D01*
X250850Y829604D02*
X250850Y816396D01*
X156700Y816396D02*
X156700Y829604D01*
X182100Y829604D02*
X182100Y816396D01*
X680700Y816396D02*
X680700Y829604D01*
X706100Y829604D02*
X706100Y816396D01*
X749450Y816396D02*
X749450Y829604D01*
X774850Y829604D02*
X774850Y816396D01*
X818200Y816396D02*
X818200Y829604D01*
X843600Y829604D02*
X843600Y816396D01*
D17*
X776220Y858000D03*
X747780Y858000D03*
X707220Y858000D03*
X678780Y858000D03*
X183720Y787500D03*
X155280Y787500D03*
X251720Y858500D03*
X223280Y858500D03*
X320720Y858500D03*
X292280Y858500D03*
X520780Y467500D03*
X549220Y467500D03*
X454780Y467000D03*
X483220Y467000D03*
D10*
X437000Y845396D02*
X437000Y858604D01*
X462400Y858604D02*
X462400Y845396D01*
X487800Y845396D02*
X487800Y858604D01*
X513200Y858604D02*
X513200Y845396D01*
X538600Y845396D02*
X538600Y858604D01*
X564000Y858604D02*
X564000Y845396D01*
D18*
X592500Y805000D03*
X553000Y714000D03*
X551000Y787000D03*
X551000Y902000D03*
X481250Y650000D03*
X481250Y613750D03*
X506875Y613750D03*
X555000Y531875D03*
X554375Y556875D03*
X494500Y650500D03*
X500500Y702000D03*
X353000Y747500D03*
X353000Y703000D03*
X339000Y741000D03*
X339000Y707000D03*
X491500Y531000D03*
X465500Y531000D03*
X642000Y804000D03*
X655500Y662000D03*
X608500Y650000D03*
X600500Y601500D03*
X465500Y598000D03*
X521000Y604500D03*
X603000Y506500D03*
X657500Y804000D03*
M02*
