G04 EAGLE Gerber X2 export*
%TF.Part,Single*%
%TF.FileFunction,Copper,L1,Top,Mixed*%
%TF.FilePolarity,Positive*%
%TF.GenerationSoftware,Autodesk,EAGLE,9.0.1*%
%TF.CreationDate,2018-06-02T06:43:15Z*%
G75*
%MOMM*%
%FSLAX34Y34*%
%LPD*%
%AMOC8*
5,1,8,0,0,1.08239X$1,22.5*%
G01*
%ADD10C,1.676400*%
%ADD11C,1.308000*%
%ADD12R,1.000000X0.800000*%
%ADD13C,1.108000*%
%ADD14R,3.810000X1.778000*%
%ADD15R,1.600000X1.803000*%
%ADD16C,1.320800*%
%ADD17R,2.000000X2.500000*%
%ADD18R,2.500000X2.000000*%
%ADD19C,1.000000*%
%ADD20C,0.609600*%
%ADD21C,2.000000*%
%ADD22C,0.756400*%
%ADD23C,0.304800*%
%ADD24C,0.508000*%

G36*
X219274Y1541D02*
X219274Y1541D01*
X219371Y1550D01*
X219393Y1560D01*
X219418Y1564D01*
X219504Y1611D01*
X219593Y1651D01*
X219611Y1668D01*
X219633Y1679D01*
X219700Y1751D01*
X219771Y1818D01*
X219783Y1839D01*
X219800Y1857D01*
X219840Y1947D01*
X219886Y2033D01*
X219890Y2057D01*
X219901Y2080D01*
X219910Y2177D01*
X219926Y2273D01*
X219922Y2298D01*
X219925Y2323D01*
X219903Y2418D01*
X219887Y2514D01*
X219875Y2536D01*
X219870Y2560D01*
X219818Y2643D01*
X219772Y2730D01*
X219754Y2746D01*
X219741Y2768D01*
X219665Y2830D01*
X219594Y2897D01*
X219565Y2912D01*
X219552Y2922D01*
X219529Y2931D01*
X219464Y2966D01*
X219388Y2998D01*
X216601Y5784D01*
X215093Y9425D01*
X215093Y26575D01*
X216601Y30216D01*
X219388Y33003D01*
X223029Y34511D01*
X226971Y34511D01*
X230612Y33003D01*
X233399Y30216D01*
X234907Y26575D01*
X234907Y9425D01*
X233399Y5784D01*
X230612Y2998D01*
X230536Y2966D01*
X230453Y2915D01*
X230367Y2869D01*
X230350Y2850D01*
X230329Y2837D01*
X230267Y2762D01*
X230200Y2690D01*
X230190Y2668D01*
X230174Y2649D01*
X230140Y2557D01*
X230099Y2468D01*
X230097Y2444D01*
X230088Y2420D01*
X230085Y2323D01*
X230075Y2225D01*
X230081Y2201D01*
X230080Y2177D01*
X230108Y2083D01*
X230130Y1988D01*
X230143Y1967D01*
X230151Y1943D01*
X230208Y1864D01*
X230259Y1780D01*
X230278Y1765D01*
X230293Y1745D01*
X230372Y1688D01*
X230448Y1625D01*
X230471Y1617D01*
X230491Y1602D01*
X230585Y1574D01*
X230676Y1539D01*
X230708Y1536D01*
X230724Y1531D01*
X230749Y1532D01*
X230823Y1525D01*
X271968Y1525D01*
X272065Y1541D01*
X272162Y1550D01*
X272185Y1560D01*
X272209Y1564D01*
X272296Y1611D01*
X272384Y1651D01*
X272402Y1668D01*
X272424Y1679D01*
X272491Y1751D01*
X272563Y1818D01*
X272574Y1839D01*
X272591Y1857D01*
X272631Y1946D01*
X272678Y2033D01*
X272682Y2057D01*
X272692Y2080D01*
X272702Y2177D01*
X272718Y2273D01*
X272714Y2298D01*
X272716Y2323D01*
X272694Y2418D01*
X272678Y2514D01*
X272666Y2536D01*
X272661Y2560D01*
X272609Y2644D01*
X272563Y2730D01*
X272545Y2746D01*
X272532Y2768D01*
X272456Y2830D01*
X272385Y2897D01*
X272356Y2912D01*
X272344Y2922D01*
X272320Y2931D01*
X272255Y2966D01*
X271468Y3292D01*
X269971Y4293D01*
X268697Y5567D01*
X267696Y7064D01*
X267007Y8729D01*
X266655Y10495D01*
X266655Y16501D01*
X275050Y16501D01*
X275074Y16505D01*
X275098Y16502D01*
X275194Y16525D01*
X275291Y16540D01*
X275312Y16552D01*
X275336Y16558D01*
X275419Y16609D01*
X275506Y16655D01*
X275523Y16673D01*
X275543Y16686D01*
X275606Y16762D01*
X275673Y16834D01*
X275683Y16856D01*
X275698Y16875D01*
X275733Y16966D01*
X275773Y17056D01*
X275776Y17080D01*
X275785Y17103D01*
X275799Y17250D01*
X275799Y18001D01*
X275801Y18001D01*
X275801Y17250D01*
X275804Y17229D01*
X275802Y17210D01*
X275803Y17208D01*
X275802Y17201D01*
X275825Y17106D01*
X275841Y17009D01*
X275852Y16988D01*
X275858Y16964D01*
X275909Y16880D01*
X275956Y16794D01*
X275973Y16777D01*
X275986Y16756D01*
X276062Y16694D01*
X276134Y16627D01*
X276156Y16617D01*
X276175Y16602D01*
X276267Y16567D01*
X276356Y16526D01*
X276380Y16524D01*
X276403Y16515D01*
X276550Y16501D01*
X284945Y16501D01*
X284945Y10495D01*
X284593Y8729D01*
X283904Y7064D01*
X283485Y6437D01*
X282903Y5567D01*
X281629Y4293D01*
X280132Y3292D01*
X279345Y2966D01*
X279262Y2915D01*
X279176Y2869D01*
X279159Y2850D01*
X279138Y2837D01*
X279076Y2762D01*
X279009Y2690D01*
X278999Y2668D01*
X278983Y2649D01*
X278948Y2557D01*
X278908Y2468D01*
X278906Y2444D01*
X278897Y2420D01*
X278894Y2323D01*
X278884Y2225D01*
X278890Y2201D01*
X278889Y2177D01*
X278917Y2083D01*
X278939Y1988D01*
X278952Y1967D01*
X278959Y1943D01*
X279016Y1864D01*
X279068Y1780D01*
X279087Y1765D01*
X279101Y1745D01*
X279181Y1688D01*
X279256Y1625D01*
X279280Y1617D01*
X279300Y1602D01*
X279393Y1574D01*
X279485Y1539D01*
X279517Y1536D01*
X279533Y1531D01*
X279558Y1532D01*
X279632Y1525D01*
X291726Y1525D01*
X291750Y1529D01*
X291775Y1526D01*
X291870Y1548D01*
X291967Y1564D01*
X291988Y1576D01*
X292012Y1582D01*
X292096Y1633D01*
X292182Y1679D01*
X292199Y1697D01*
X292220Y1710D01*
X292282Y1786D01*
X292349Y1857D01*
X292359Y1880D01*
X292375Y1899D01*
X292409Y1990D01*
X292450Y2080D01*
X292452Y2104D01*
X292461Y2127D01*
X292475Y2274D01*
X292475Y32632D01*
X293368Y33525D01*
X448226Y33525D01*
X448250Y33529D01*
X448275Y33526D01*
X448370Y33548D01*
X448467Y33564D01*
X448488Y33576D01*
X448512Y33582D01*
X448596Y33633D01*
X448682Y33679D01*
X448699Y33697D01*
X448720Y33710D01*
X448782Y33786D01*
X448849Y33857D01*
X448859Y33880D01*
X448875Y33899D01*
X448909Y33990D01*
X448950Y34080D01*
X448952Y34104D01*
X448961Y34127D01*
X448975Y34274D01*
X448975Y38783D01*
X448978Y38793D01*
X449179Y39542D01*
X449580Y41041D01*
X449781Y41790D01*
X450182Y43288D01*
X450182Y43289D01*
X450383Y44038D01*
X450785Y45536D01*
X450985Y46285D01*
X450985Y46286D01*
X451186Y47035D01*
X451387Y47784D01*
X451588Y48533D01*
X451788Y49282D01*
X451789Y49282D01*
X451789Y49283D01*
X451989Y50032D01*
X452391Y51530D01*
X452487Y51888D01*
X459270Y63637D01*
X468863Y73230D01*
X480612Y80013D01*
X493717Y83525D01*
X498226Y83525D01*
X498250Y83529D01*
X498275Y83526D01*
X498370Y83548D01*
X498467Y83564D01*
X498488Y83576D01*
X498512Y83582D01*
X498596Y83633D01*
X498682Y83679D01*
X498699Y83697D01*
X498720Y83710D01*
X498782Y83786D01*
X498849Y83857D01*
X498859Y83880D01*
X498875Y83899D01*
X498909Y83990D01*
X498950Y84080D01*
X498952Y84104D01*
X498961Y84127D01*
X498975Y84274D01*
X498975Y479726D01*
X498971Y479750D01*
X498974Y479775D01*
X498952Y479870D01*
X498936Y479967D01*
X498924Y479988D01*
X498918Y480012D01*
X498867Y480096D01*
X498821Y480182D01*
X498803Y480199D01*
X498790Y480220D01*
X498714Y480282D01*
X498643Y480349D01*
X498620Y480359D01*
X498601Y480375D01*
X498510Y480409D01*
X498420Y480450D01*
X498396Y480452D01*
X498373Y480461D01*
X498226Y480475D01*
X493717Y480475D01*
X480612Y483987D01*
X468863Y490770D01*
X459270Y500363D01*
X452487Y512112D01*
X448975Y525217D01*
X448975Y529726D01*
X448971Y529750D01*
X448974Y529775D01*
X448952Y529870D01*
X448936Y529967D01*
X448924Y529988D01*
X448918Y530012D01*
X448867Y530096D01*
X448821Y530182D01*
X448803Y530199D01*
X448790Y530220D01*
X448714Y530282D01*
X448643Y530349D01*
X448620Y530359D01*
X448601Y530375D01*
X448510Y530409D01*
X448420Y530450D01*
X448396Y530452D01*
X448373Y530461D01*
X448226Y530475D01*
X52774Y530475D01*
X52750Y530471D01*
X52725Y530474D01*
X52630Y530452D01*
X52533Y530436D01*
X52512Y530424D01*
X52488Y530418D01*
X52404Y530367D01*
X52318Y530321D01*
X52301Y530303D01*
X52280Y530290D01*
X52218Y530214D01*
X52151Y530143D01*
X52141Y530120D01*
X52125Y530101D01*
X52091Y530010D01*
X52050Y529920D01*
X52048Y529896D01*
X52039Y529873D01*
X52025Y529726D01*
X52025Y525217D01*
X51885Y524696D01*
X51885Y524695D01*
X51684Y523946D01*
X51283Y522448D01*
X51082Y521699D01*
X51082Y521698D01*
X50681Y520200D01*
X50680Y520200D01*
X50480Y519451D01*
X50279Y518702D01*
X50279Y518701D01*
X50078Y517952D01*
X49677Y516454D01*
X49476Y515705D01*
X49476Y515704D01*
X49075Y514206D01*
X49074Y514206D01*
X48874Y513457D01*
X48513Y512112D01*
X41730Y500363D01*
X32137Y490770D01*
X20388Y483987D01*
X7283Y480475D01*
X2774Y480475D01*
X2750Y480471D01*
X2725Y480474D01*
X2630Y480452D01*
X2533Y480436D01*
X2512Y480424D01*
X2488Y480418D01*
X2404Y480367D01*
X2318Y480321D01*
X2301Y480303D01*
X2280Y480290D01*
X2218Y480214D01*
X2151Y480143D01*
X2141Y480120D01*
X2125Y480101D01*
X2091Y480009D01*
X2050Y479920D01*
X2048Y479896D01*
X2039Y479873D01*
X2025Y479726D01*
X2025Y84274D01*
X2029Y84250D01*
X2026Y84225D01*
X2048Y84130D01*
X2064Y84033D01*
X2076Y84012D01*
X2082Y83988D01*
X2133Y83904D01*
X2179Y83818D01*
X2197Y83801D01*
X2210Y83780D01*
X2286Y83718D01*
X2357Y83651D01*
X2380Y83641D01*
X2399Y83625D01*
X2490Y83591D01*
X2580Y83550D01*
X2604Y83548D01*
X2627Y83539D01*
X2774Y83525D01*
X7283Y83525D01*
X20388Y80013D01*
X32137Y73230D01*
X41730Y63637D01*
X48513Y51888D01*
X52025Y38783D01*
X52025Y34274D01*
X52029Y34250D01*
X52026Y34225D01*
X52048Y34130D01*
X52064Y34033D01*
X52076Y34012D01*
X52082Y33988D01*
X52133Y33904D01*
X52179Y33818D01*
X52197Y33801D01*
X52210Y33780D01*
X52286Y33718D01*
X52357Y33651D01*
X52380Y33641D01*
X52399Y33625D01*
X52490Y33591D01*
X52580Y33550D01*
X52604Y33548D01*
X52627Y33539D01*
X52774Y33525D01*
X207632Y33525D01*
X208525Y32632D01*
X208525Y2274D01*
X208529Y2250D01*
X208526Y2225D01*
X208548Y2130D01*
X208564Y2033D01*
X208576Y2012D01*
X208582Y1988D01*
X208633Y1904D01*
X208679Y1818D01*
X208697Y1801D01*
X208710Y1780D01*
X208786Y1718D01*
X208857Y1651D01*
X208880Y1641D01*
X208899Y1625D01*
X208990Y1591D01*
X209080Y1550D01*
X209104Y1548D01*
X209127Y1539D01*
X209274Y1525D01*
X219177Y1525D01*
X219274Y1541D01*
G37*
%LPC*%
G36*
X441348Y61662D02*
X441348Y61662D01*
X438674Y62770D01*
X438603Y62786D01*
X438535Y62812D01*
X438461Y62820D01*
X438437Y62825D01*
X438420Y62824D01*
X438388Y62827D01*
X436035Y62827D01*
X433589Y63840D01*
X433517Y63857D01*
X433449Y63883D01*
X433375Y63890D01*
X433351Y63896D01*
X433335Y63894D01*
X433302Y63897D01*
X366454Y63897D01*
X361565Y65922D01*
X357822Y69665D01*
X355797Y74554D01*
X355797Y79846D01*
X357822Y84735D01*
X360478Y87391D01*
X360535Y87470D01*
X360597Y87545D01*
X360605Y87569D01*
X360620Y87589D01*
X360648Y87682D01*
X360683Y87774D01*
X360686Y87807D01*
X360691Y87823D01*
X360690Y87847D01*
X360697Y87921D01*
X360697Y120868D01*
X360681Y120964D01*
X360672Y121061D01*
X360662Y121084D01*
X360658Y121108D01*
X360612Y121194D01*
X360571Y121283D01*
X360550Y121309D01*
X360543Y121324D01*
X360524Y121341D01*
X360478Y121398D01*
X359094Y122781D01*
X358705Y123721D01*
X358679Y123762D01*
X358662Y123808D01*
X358615Y123865D01*
X358576Y123928D01*
X358538Y123959D01*
X358507Y123997D01*
X358445Y124036D01*
X358388Y124083D01*
X358342Y124100D01*
X358300Y124126D01*
X358228Y124143D01*
X358159Y124169D01*
X358110Y124170D01*
X358062Y124181D01*
X357989Y124174D01*
X357915Y124177D01*
X357868Y124163D01*
X357820Y124158D01*
X357752Y124127D01*
X357682Y124106D01*
X357642Y124078D01*
X357597Y124057D01*
X357484Y123965D01*
X357483Y123964D01*
X355513Y121994D01*
X352909Y120915D01*
X350091Y120915D01*
X347487Y121994D01*
X345494Y123987D01*
X344415Y126591D01*
X344415Y129409D01*
X345494Y132013D01*
X347487Y134006D01*
X349210Y134720D01*
X349211Y134720D01*
X349299Y134775D01*
X349418Y134849D01*
X349485Y134931D01*
X349573Y135037D01*
X349573Y135038D01*
X349616Y135151D01*
X349659Y135265D01*
X349659Y135266D01*
X349659Y135267D01*
X349673Y135412D01*
X349673Y207353D01*
X349665Y207402D01*
X349667Y207451D01*
X349646Y207521D01*
X349634Y207594D01*
X349610Y207637D01*
X349596Y207684D01*
X349553Y207744D01*
X349519Y207809D01*
X349483Y207843D01*
X349454Y207882D01*
X349394Y207925D01*
X349341Y207976D01*
X349296Y207996D01*
X349256Y208025D01*
X349185Y208046D01*
X349118Y208077D01*
X349069Y208082D01*
X349023Y208096D01*
X348949Y208093D01*
X348875Y208101D01*
X348828Y208090D01*
X348779Y208088D01*
X348639Y208046D01*
X348638Y208046D01*
X348638Y208045D01*
X348637Y208045D01*
X345909Y206915D01*
X343091Y206915D01*
X340487Y207994D01*
X338494Y209987D01*
X337415Y212591D01*
X337415Y215409D01*
X338494Y218013D01*
X339454Y218973D01*
X339511Y219053D01*
X339573Y219128D01*
X339581Y219151D01*
X339596Y219171D01*
X339624Y219265D01*
X339659Y219356D01*
X339662Y219389D01*
X339667Y219405D01*
X339666Y219430D01*
X339673Y219503D01*
X339673Y279690D01*
X339657Y279787D01*
X339648Y279884D01*
X339638Y279906D01*
X339634Y279931D01*
X339588Y280017D01*
X339547Y280106D01*
X339526Y280132D01*
X339519Y280146D01*
X339500Y280163D01*
X339454Y280220D01*
X245673Y374001D01*
X245673Y433933D01*
X245669Y433957D01*
X245672Y433982D01*
X245650Y434077D01*
X245634Y434174D01*
X245622Y434195D01*
X245616Y434219D01*
X245565Y434303D01*
X245519Y434389D01*
X245501Y434406D01*
X245488Y434427D01*
X245412Y434489D01*
X245341Y434556D01*
X245318Y434566D01*
X245299Y434582D01*
X245208Y434616D01*
X245118Y434657D01*
X245094Y434659D01*
X245071Y434668D01*
X244924Y434682D01*
X241296Y434682D01*
X241272Y434678D01*
X241247Y434681D01*
X241152Y434659D01*
X241055Y434643D01*
X241034Y434631D01*
X241010Y434625D01*
X240926Y434574D01*
X240840Y434528D01*
X240823Y434510D01*
X240802Y434497D01*
X240740Y434421D01*
X240673Y434350D01*
X240663Y434327D01*
X240647Y434308D01*
X240613Y434217D01*
X240572Y434127D01*
X240570Y434103D01*
X240561Y434080D01*
X240547Y433933D01*
X240547Y371090D01*
X240563Y370993D01*
X240572Y370896D01*
X240582Y370874D01*
X240586Y370849D01*
X240632Y370763D01*
X240673Y370674D01*
X240694Y370648D01*
X240701Y370634D01*
X240720Y370617D01*
X240766Y370560D01*
X301022Y310304D01*
X301101Y310247D01*
X301176Y310185D01*
X301200Y310177D01*
X301220Y310162D01*
X301314Y310134D01*
X301405Y310099D01*
X301438Y310096D01*
X301454Y310091D01*
X301479Y310092D01*
X301552Y310085D01*
X302909Y310085D01*
X305513Y309006D01*
X307506Y307013D01*
X308585Y304409D01*
X308585Y301591D01*
X307506Y298987D01*
X305513Y296994D01*
X302909Y295915D01*
X300091Y295915D01*
X297487Y296994D01*
X295494Y298987D01*
X294415Y301591D01*
X294415Y302948D01*
X294399Y303045D01*
X294390Y303142D01*
X294380Y303164D01*
X294376Y303189D01*
X294330Y303275D01*
X294289Y303364D01*
X294268Y303390D01*
X294261Y303404D01*
X294242Y303421D01*
X294196Y303478D01*
X230893Y366781D01*
X230893Y433933D01*
X230889Y433957D01*
X230892Y433982D01*
X230870Y434077D01*
X230854Y434174D01*
X230842Y434195D01*
X230836Y434219D01*
X230785Y434303D01*
X230739Y434389D01*
X230721Y434406D01*
X230708Y434427D01*
X230632Y434489D01*
X230561Y434556D01*
X230538Y434566D01*
X230519Y434582D01*
X230428Y434616D01*
X230338Y434657D01*
X230314Y434659D01*
X230291Y434668D01*
X230144Y434682D01*
X226352Y434682D01*
X224417Y436617D01*
X224417Y457383D01*
X226352Y459318D01*
X244924Y459318D01*
X244948Y459322D01*
X244973Y459319D01*
X245068Y459341D01*
X245165Y459357D01*
X245186Y459369D01*
X245210Y459375D01*
X245294Y459426D01*
X245380Y459472D01*
X245397Y459490D01*
X245418Y459503D01*
X245480Y459579D01*
X245547Y459650D01*
X245557Y459673D01*
X245573Y459692D01*
X245607Y459783D01*
X245648Y459873D01*
X245650Y459897D01*
X245659Y459920D01*
X245673Y460067D01*
X245673Y462219D01*
X253758Y470304D01*
X253815Y470383D01*
X253877Y470458D01*
X253885Y470482D01*
X253900Y470502D01*
X253928Y470595D01*
X253963Y470687D01*
X253966Y470720D01*
X253971Y470736D01*
X253970Y470761D01*
X253977Y470834D01*
X253977Y485383D01*
X255912Y487318D01*
X274648Y487318D01*
X276583Y485383D01*
X276583Y464617D01*
X274648Y462682D01*
X260099Y462682D01*
X260002Y462666D01*
X259905Y462657D01*
X259883Y462647D01*
X259858Y462643D01*
X259772Y462597D01*
X259683Y462556D01*
X259657Y462535D01*
X259643Y462528D01*
X259626Y462509D01*
X259569Y462463D01*
X256941Y459835D01*
X256898Y459775D01*
X256848Y459721D01*
X256827Y459677D01*
X256799Y459636D01*
X256777Y459566D01*
X256747Y459499D01*
X256742Y459450D01*
X256728Y459403D01*
X256730Y459330D01*
X256723Y459256D01*
X256734Y459208D01*
X256736Y459159D01*
X256762Y459090D01*
X256778Y459019D01*
X256804Y458977D01*
X256822Y458931D01*
X256868Y458874D01*
X256907Y458811D01*
X256945Y458780D01*
X256976Y458742D01*
X257039Y458703D01*
X257095Y458656D01*
X257141Y458639D01*
X257183Y458613D01*
X257255Y458596D01*
X257324Y458570D01*
X257397Y458563D01*
X257421Y458557D01*
X257438Y458559D01*
X257471Y458556D01*
X263781Y458556D01*
X263781Y447750D01*
X263785Y447726D01*
X263782Y447702D01*
X263805Y447606D01*
X263821Y447509D01*
X263832Y447488D01*
X263838Y447464D01*
X263889Y447381D01*
X263936Y447294D01*
X263953Y447277D01*
X263966Y447257D01*
X264042Y447194D01*
X264114Y447127D01*
X264136Y447117D01*
X264155Y447102D01*
X264246Y447067D01*
X264336Y447026D01*
X264360Y447024D01*
X264383Y447015D01*
X264530Y447001D01*
X265281Y447001D01*
X265281Y446999D01*
X264530Y446999D01*
X264506Y446995D01*
X264482Y446998D01*
X264386Y446975D01*
X264289Y446959D01*
X264268Y446948D01*
X264244Y446942D01*
X264160Y446891D01*
X264074Y446844D01*
X264057Y446827D01*
X264037Y446814D01*
X263974Y446738D01*
X263907Y446666D01*
X263897Y446644D01*
X263882Y446625D01*
X263847Y446534D01*
X263806Y446444D01*
X263804Y446420D01*
X263795Y446397D01*
X263781Y446250D01*
X263781Y435444D01*
X256946Y435444D01*
X256270Y435625D01*
X256151Y435637D01*
X256027Y435649D01*
X255913Y435623D01*
X255790Y435594D01*
X255789Y435594D01*
X255678Y435524D01*
X255582Y435465D01*
X255482Y435344D01*
X255427Y435277D01*
X255380Y435151D01*
X255341Y435049D01*
X255341Y435048D01*
X255327Y434902D01*
X255327Y378310D01*
X255343Y378213D01*
X255352Y378116D01*
X255362Y378094D01*
X255366Y378069D01*
X255412Y377983D01*
X255453Y377894D01*
X255474Y377868D01*
X255481Y377854D01*
X255500Y377837D01*
X255546Y377780D01*
X348394Y284932D01*
X348454Y284889D01*
X348508Y284839D01*
X348552Y284818D01*
X348593Y284790D01*
X348663Y284768D01*
X348730Y284738D01*
X348779Y284733D01*
X348826Y284719D01*
X348899Y284721D01*
X348973Y284714D01*
X349021Y284725D01*
X349070Y284727D01*
X349139Y284753D01*
X349210Y284769D01*
X349252Y284795D01*
X349298Y284813D01*
X349355Y284859D01*
X349418Y284898D01*
X349449Y284936D01*
X349487Y284967D01*
X349526Y285030D01*
X349573Y285086D01*
X349590Y285132D01*
X349616Y285174D01*
X349633Y285246D01*
X349659Y285315D01*
X349666Y285388D01*
X349672Y285412D01*
X349670Y285429D01*
X349673Y285462D01*
X349673Y342690D01*
X349657Y342787D01*
X349648Y342884D01*
X349638Y342906D01*
X349634Y342931D01*
X349588Y343017D01*
X349547Y343106D01*
X349526Y343132D01*
X349519Y343146D01*
X349500Y343163D01*
X349454Y343220D01*
X346978Y345696D01*
X346899Y345753D01*
X346824Y345815D01*
X346800Y345823D01*
X346780Y345838D01*
X346686Y345866D01*
X346595Y345901D01*
X346562Y345904D01*
X346546Y345909D01*
X346521Y345908D01*
X346448Y345915D01*
X345091Y345915D01*
X342487Y346994D01*
X340494Y348987D01*
X339415Y351591D01*
X339415Y354409D01*
X340494Y357013D01*
X342487Y359006D01*
X344239Y359732D01*
X344322Y359783D01*
X344408Y359829D01*
X344425Y359848D01*
X344446Y359861D01*
X344508Y359936D01*
X344575Y360008D01*
X344585Y360030D01*
X344601Y360049D01*
X344635Y360141D01*
X344676Y360230D01*
X344678Y360254D01*
X344687Y360278D01*
X344690Y360375D01*
X344700Y360473D01*
X344694Y360497D01*
X344695Y360521D01*
X344667Y360615D01*
X344644Y360710D01*
X344631Y360731D01*
X344624Y360755D01*
X344567Y360834D01*
X344516Y360918D01*
X344497Y360933D01*
X344482Y360953D01*
X344403Y361010D01*
X344327Y361073D01*
X344304Y361081D01*
X344284Y361096D01*
X344190Y361124D01*
X344099Y361159D01*
X344066Y361162D01*
X344051Y361167D01*
X344026Y361166D01*
X343952Y361173D01*
X321810Y361173D01*
X321713Y361157D01*
X321616Y361148D01*
X321594Y361138D01*
X321569Y361134D01*
X321483Y361088D01*
X321394Y361047D01*
X321368Y361026D01*
X321354Y361019D01*
X321346Y361011D01*
X321345Y361010D01*
X321334Y360999D01*
X321280Y360954D01*
X306804Y346478D01*
X306747Y346399D01*
X306685Y346324D01*
X306677Y346300D01*
X306662Y346280D01*
X306634Y346186D01*
X306599Y346095D01*
X306596Y346062D01*
X306591Y346046D01*
X306592Y346021D01*
X306585Y345948D01*
X306585Y344591D01*
X305506Y341987D01*
X303513Y339994D01*
X300909Y338915D01*
X298091Y338915D01*
X295487Y339994D01*
X293494Y341987D01*
X292415Y344591D01*
X292415Y347409D01*
X293494Y350013D01*
X295487Y352006D01*
X298091Y353085D01*
X299448Y353085D01*
X299545Y353101D01*
X299642Y353110D01*
X299664Y353120D01*
X299689Y353124D01*
X299775Y353170D01*
X299864Y353211D01*
X299890Y353232D01*
X299904Y353239D01*
X299921Y353258D01*
X299978Y353304D01*
X317501Y370827D01*
X358499Y370827D01*
X368327Y360999D01*
X368327Y216552D01*
X368330Y216531D01*
X368328Y216511D01*
X368329Y216509D01*
X368328Y216503D01*
X368350Y216408D01*
X368366Y216311D01*
X368378Y216290D01*
X368384Y216266D01*
X368435Y216182D01*
X368481Y216096D01*
X368499Y216079D01*
X368512Y216058D01*
X368588Y215996D01*
X368659Y215929D01*
X368682Y215919D01*
X368701Y215903D01*
X368792Y215869D01*
X368882Y215828D01*
X368906Y215826D01*
X368929Y215817D01*
X369076Y215803D01*
X391868Y215803D01*
X393803Y213868D01*
X393803Y186132D01*
X391868Y184197D01*
X387600Y184197D01*
X387576Y184193D01*
X387551Y184196D01*
X387456Y184174D01*
X387359Y184158D01*
X387338Y184146D01*
X387314Y184140D01*
X387230Y184089D01*
X387144Y184043D01*
X387127Y184025D01*
X387106Y184012D01*
X387044Y183936D01*
X386977Y183865D01*
X386967Y183842D01*
X386951Y183823D01*
X386917Y183732D01*
X386876Y183642D01*
X386874Y183618D01*
X386865Y183595D01*
X386851Y183448D01*
X386851Y156330D01*
X386863Y156258D01*
X386865Y156185D01*
X386886Y156114D01*
X386890Y156090D01*
X386898Y156075D01*
X386908Y156044D01*
X387585Y154409D01*
X387585Y151591D01*
X386506Y148987D01*
X384513Y146994D01*
X381886Y145905D01*
X381844Y145880D01*
X381798Y145862D01*
X381741Y145816D01*
X381678Y145777D01*
X381647Y145739D01*
X381609Y145708D01*
X381570Y145645D01*
X381524Y145588D01*
X381506Y145542D01*
X381480Y145500D01*
X381464Y145429D01*
X381438Y145360D01*
X381436Y145311D01*
X381425Y145263D01*
X381432Y145190D01*
X381429Y145116D01*
X381444Y145069D01*
X381448Y145020D01*
X381479Y144953D01*
X381500Y144882D01*
X381529Y144842D01*
X381549Y144798D01*
X381642Y144684D01*
X381643Y144683D01*
X390327Y135999D01*
X390327Y120503D01*
X390343Y120407D01*
X390352Y120310D01*
X390362Y120287D01*
X390366Y120262D01*
X390412Y120176D01*
X390453Y120087D01*
X390474Y120062D01*
X390481Y120047D01*
X390500Y120030D01*
X390546Y119973D01*
X391506Y119013D01*
X392585Y116409D01*
X392585Y113591D01*
X391506Y110987D01*
X389513Y108994D01*
X386909Y107915D01*
X384091Y107915D01*
X381487Y108994D01*
X379494Y110987D01*
X378744Y112797D01*
X378693Y112880D01*
X378647Y112966D01*
X378628Y112983D01*
X378615Y113004D01*
X378540Y113066D01*
X378468Y113133D01*
X378446Y113143D01*
X378427Y113159D01*
X378335Y113193D01*
X378246Y113234D01*
X378222Y113236D01*
X378198Y113245D01*
X378101Y113248D01*
X378003Y113258D01*
X377979Y113252D01*
X377955Y113253D01*
X377861Y113225D01*
X377766Y113202D01*
X377745Y113189D01*
X377721Y113182D01*
X377642Y113125D01*
X377558Y113074D01*
X377543Y113055D01*
X377523Y113040D01*
X377466Y112961D01*
X377403Y112885D01*
X377395Y112862D01*
X377380Y112842D01*
X377352Y112748D01*
X377317Y112657D01*
X377314Y112624D01*
X377309Y112608D01*
X377310Y112584D01*
X377303Y112510D01*
X377303Y91252D01*
X377307Y91228D01*
X377304Y91203D01*
X377326Y91108D01*
X377342Y91011D01*
X377354Y90990D01*
X377360Y90966D01*
X377411Y90882D01*
X377457Y90796D01*
X377475Y90779D01*
X377488Y90758D01*
X377564Y90696D01*
X377635Y90629D01*
X377658Y90619D01*
X377677Y90603D01*
X377768Y90569D01*
X377858Y90528D01*
X377882Y90526D01*
X377905Y90517D01*
X378052Y90503D01*
X431723Y90503D01*
X431795Y90515D01*
X431868Y90517D01*
X431939Y90538D01*
X431964Y90542D01*
X431978Y90550D01*
X432010Y90560D01*
X432099Y90597D01*
X436015Y90597D01*
X436104Y90560D01*
X436175Y90543D01*
X436244Y90517D01*
X436317Y90510D01*
X436342Y90504D01*
X436358Y90506D01*
X436391Y90503D01*
X440257Y90503D01*
X445146Y88478D01*
X449959Y83665D01*
X451984Y78776D01*
X451984Y76423D01*
X451986Y76409D01*
X451986Y76401D01*
X451993Y76370D01*
X451996Y76351D01*
X451998Y76278D01*
X452020Y76207D01*
X452024Y76183D01*
X452032Y76168D01*
X452041Y76137D01*
X453148Y73463D01*
X453148Y69547D01*
X451650Y65930D01*
X448881Y63161D01*
X445264Y61662D01*
X441348Y61662D01*
G37*
%LPD*%
%LPC*%
G36*
X233411Y55173D02*
X233411Y55173D01*
X233400Y55171D01*
X233379Y55173D01*
X231453Y55173D01*
X231422Y55195D01*
X231344Y55219D01*
X231328Y55226D01*
X230024Y56649D01*
X230015Y56656D01*
X230002Y56672D01*
X228640Y58034D01*
X228634Y58072D01*
X228595Y58144D01*
X228565Y58219D01*
X228530Y58266D01*
X228519Y58287D01*
X228503Y58301D01*
X228476Y58337D01*
X219024Y68649D01*
X219015Y68656D01*
X219002Y68672D01*
X217640Y70034D01*
X217634Y70072D01*
X217595Y70144D01*
X217589Y70160D01*
X217673Y72089D01*
X217671Y72100D01*
X217673Y72121D01*
X217673Y87933D01*
X217669Y87957D01*
X217672Y87982D01*
X217650Y88077D01*
X217634Y88174D01*
X217622Y88195D01*
X217616Y88219D01*
X217565Y88303D01*
X217519Y88389D01*
X217501Y88406D01*
X217488Y88427D01*
X217412Y88489D01*
X217341Y88556D01*
X217318Y88566D01*
X217299Y88582D01*
X217208Y88616D01*
X217118Y88657D01*
X217094Y88659D01*
X217071Y88668D01*
X216924Y88682D01*
X203099Y88682D01*
X203002Y88666D01*
X202905Y88657D01*
X202883Y88647D01*
X202858Y88643D01*
X202772Y88597D01*
X202683Y88556D01*
X202657Y88535D01*
X202643Y88528D01*
X202626Y88509D01*
X202569Y88463D01*
X176479Y62373D01*
X162452Y62373D01*
X162428Y62369D01*
X162403Y62372D01*
X162308Y62350D01*
X162211Y62334D01*
X162190Y62322D01*
X162166Y62316D01*
X162082Y62265D01*
X161996Y62219D01*
X161979Y62201D01*
X161958Y62188D01*
X161896Y62112D01*
X161829Y62041D01*
X161819Y62018D01*
X161803Y61999D01*
X161769Y61908D01*
X161761Y61890D01*
X159768Y59897D01*
X147032Y59897D01*
X145097Y61832D01*
X145097Y72568D01*
X147032Y74503D01*
X159768Y74503D01*
X161750Y72520D01*
X161754Y72514D01*
X161760Y72490D01*
X161811Y72406D01*
X161857Y72320D01*
X161875Y72303D01*
X161888Y72282D01*
X161964Y72220D01*
X162035Y72153D01*
X162058Y72143D01*
X162077Y72127D01*
X162168Y72093D01*
X162258Y72052D01*
X162282Y72050D01*
X162305Y72041D01*
X162452Y72027D01*
X172170Y72027D01*
X172267Y72043D01*
X172364Y72052D01*
X172386Y72062D01*
X172411Y72066D01*
X172497Y72112D01*
X172586Y72153D01*
X172612Y72174D01*
X172626Y72181D01*
X172643Y72200D01*
X172700Y72246D01*
X196758Y96304D01*
X196815Y96383D01*
X196877Y96458D01*
X196885Y96482D01*
X196900Y96502D01*
X196928Y96596D01*
X196963Y96687D01*
X196966Y96720D01*
X196971Y96736D01*
X196970Y96761D01*
X196977Y96834D01*
X196977Y111383D01*
X198912Y113318D01*
X202704Y113318D01*
X202728Y113322D01*
X202753Y113319D01*
X202848Y113341D01*
X202945Y113357D01*
X202966Y113369D01*
X202990Y113375D01*
X203074Y113426D01*
X203160Y113472D01*
X203177Y113490D01*
X203198Y113503D01*
X203260Y113579D01*
X203327Y113650D01*
X203337Y113673D01*
X203353Y113692D01*
X203387Y113783D01*
X203428Y113873D01*
X203430Y113897D01*
X203439Y113920D01*
X203453Y114067D01*
X203453Y115933D01*
X203449Y115957D01*
X203452Y115982D01*
X203430Y116077D01*
X203414Y116174D01*
X203402Y116195D01*
X203396Y116219D01*
X203345Y116303D01*
X203299Y116389D01*
X203281Y116406D01*
X203268Y116427D01*
X203192Y116489D01*
X203121Y116556D01*
X203098Y116566D01*
X203079Y116582D01*
X202988Y116616D01*
X202898Y116657D01*
X202874Y116659D01*
X202851Y116668D01*
X202704Y116682D01*
X198912Y116682D01*
X196977Y118617D01*
X196977Y139383D01*
X198912Y141318D01*
X216924Y141318D01*
X216948Y141322D01*
X216973Y141319D01*
X217068Y141341D01*
X217165Y141357D01*
X217186Y141369D01*
X217210Y141375D01*
X217294Y141426D01*
X217380Y141472D01*
X217397Y141490D01*
X217418Y141503D01*
X217480Y141579D01*
X217547Y141650D01*
X217557Y141673D01*
X217573Y141692D01*
X217607Y141783D01*
X217648Y141873D01*
X217650Y141897D01*
X217659Y141920D01*
X217673Y142067D01*
X217673Y142577D01*
X217655Y142686D01*
X217641Y142795D01*
X217636Y142806D01*
X217634Y142818D01*
X217581Y142915D01*
X217533Y143014D01*
X217523Y143025D01*
X217519Y143033D01*
X217504Y143047D01*
X217435Y143125D01*
X205813Y153972D01*
X205743Y154019D01*
X205677Y154073D01*
X205642Y154086D01*
X205610Y154107D01*
X205528Y154129D01*
X205449Y154159D01*
X205396Y154164D01*
X205374Y154170D01*
X205352Y154168D01*
X205302Y154173D01*
X113003Y154173D01*
X112907Y154157D01*
X112810Y154148D01*
X112787Y154138D01*
X112762Y154134D01*
X112676Y154088D01*
X112587Y154047D01*
X112562Y154026D01*
X112547Y154019D01*
X112530Y154000D01*
X112473Y153954D01*
X111513Y152994D01*
X108909Y151915D01*
X106091Y151915D01*
X103487Y152994D01*
X101494Y154987D01*
X100415Y157591D01*
X100415Y160409D01*
X101494Y163013D01*
X103487Y165006D01*
X106091Y166085D01*
X108909Y166085D01*
X111513Y165006D01*
X112473Y164046D01*
X112553Y163989D01*
X112628Y163927D01*
X112651Y163919D01*
X112671Y163904D01*
X112765Y163876D01*
X112856Y163841D01*
X112889Y163838D01*
X112905Y163833D01*
X112930Y163834D01*
X113003Y163827D01*
X151439Y163827D01*
X151487Y163835D01*
X151536Y163833D01*
X151607Y163854D01*
X151680Y163866D01*
X151723Y163890D01*
X151770Y163904D01*
X151830Y163947D01*
X151895Y163981D01*
X151928Y164017D01*
X151968Y164046D01*
X152011Y164106D01*
X152062Y164159D01*
X152082Y164204D01*
X152111Y164244D01*
X152132Y164315D01*
X152162Y164382D01*
X152167Y164431D01*
X152182Y164477D01*
X152179Y164551D01*
X152187Y164625D01*
X152175Y164672D01*
X152174Y164721D01*
X152131Y164861D01*
X152131Y164862D01*
X152131Y164863D01*
X151415Y166591D01*
X151415Y169409D01*
X152494Y172013D01*
X154487Y174006D01*
X157091Y175085D01*
X159909Y175085D01*
X162513Y174006D01*
X163473Y173046D01*
X163553Y172989D01*
X163628Y172927D01*
X163651Y172919D01*
X163671Y172904D01*
X163765Y172876D01*
X163856Y172841D01*
X163889Y172838D01*
X163905Y172833D01*
X163930Y172834D01*
X164003Y172827D01*
X222499Y172827D01*
X239022Y156304D01*
X239101Y156247D01*
X239176Y156185D01*
X239200Y156177D01*
X239220Y156162D01*
X239314Y156134D01*
X239405Y156099D01*
X239438Y156096D01*
X239454Y156091D01*
X239479Y156092D01*
X239552Y156085D01*
X240909Y156085D01*
X243513Y155006D01*
X245506Y153013D01*
X246585Y150409D01*
X246585Y147591D01*
X245506Y144987D01*
X243513Y142994D01*
X241107Y141997D01*
X241024Y141946D01*
X240938Y141899D01*
X240921Y141881D01*
X240900Y141868D01*
X240838Y141793D01*
X240771Y141721D01*
X240761Y141699D01*
X240745Y141680D01*
X240710Y141588D01*
X240670Y141499D01*
X240668Y141475D01*
X240659Y141451D01*
X240656Y141353D01*
X240646Y141256D01*
X240652Y141232D01*
X240651Y141208D01*
X240679Y141114D01*
X240701Y141019D01*
X240714Y140998D01*
X240722Y140974D01*
X240778Y140895D01*
X240830Y140811D01*
X240849Y140796D01*
X240864Y140776D01*
X240943Y140719D01*
X241018Y140656D01*
X241042Y140648D01*
X241062Y140633D01*
X241155Y140605D01*
X241247Y140570D01*
X241279Y140567D01*
X241295Y140562D01*
X241320Y140563D01*
X241394Y140556D01*
X245054Y140556D01*
X245701Y140383D01*
X246280Y140048D01*
X246753Y139575D01*
X247088Y138996D01*
X247261Y138349D01*
X247261Y130499D01*
X238219Y130499D01*
X238219Y140878D01*
X238229Y140888D01*
X238270Y140977D01*
X238316Y141064D01*
X238320Y141088D01*
X238330Y141111D01*
X238340Y141208D01*
X238356Y141304D01*
X238352Y141329D01*
X238354Y141353D01*
X238332Y141449D01*
X238316Y141545D01*
X238304Y141567D01*
X238299Y141591D01*
X238247Y141674D01*
X238201Y141760D01*
X238183Y141777D01*
X238170Y141798D01*
X238095Y141861D01*
X238023Y141927D01*
X237994Y141943D01*
X237982Y141953D01*
X237958Y141962D01*
X237893Y141997D01*
X235487Y142994D01*
X233494Y144987D01*
X232415Y147591D01*
X232415Y148948D01*
X232399Y149045D01*
X232390Y149142D01*
X232380Y149164D01*
X232376Y149189D01*
X232330Y149275D01*
X232289Y149364D01*
X232268Y149390D01*
X232261Y149404D01*
X232242Y149421D01*
X232196Y149478D01*
X218720Y162954D01*
X218641Y163011D01*
X218566Y163073D01*
X218542Y163081D01*
X218522Y163096D01*
X218428Y163124D01*
X218337Y163159D01*
X218304Y163162D01*
X218288Y163167D01*
X218263Y163166D01*
X218190Y163173D01*
X212004Y163173D01*
X211918Y163159D01*
X211832Y163153D01*
X211799Y163139D01*
X211763Y163134D01*
X211687Y163093D01*
X211607Y163060D01*
X211580Y163036D01*
X211548Y163019D01*
X211489Y162956D01*
X211424Y162899D01*
X211406Y162867D01*
X211381Y162841D01*
X211345Y162762D01*
X211302Y162687D01*
X211295Y162651D01*
X211280Y162618D01*
X211271Y162532D01*
X211255Y162448D01*
X211259Y162412D01*
X211256Y162375D01*
X211275Y162291D01*
X211287Y162206D01*
X211303Y162173D01*
X211311Y162138D01*
X211357Y162064D01*
X211395Y161987D01*
X211428Y161949D01*
X211440Y161930D01*
X211457Y161916D01*
X211492Y161876D01*
X224187Y150028D01*
X224257Y149981D01*
X224323Y149927D01*
X224358Y149914D01*
X224390Y149893D01*
X224449Y149877D01*
X225845Y148481D01*
X225853Y148475D01*
X225864Y148463D01*
X227296Y147127D01*
X227296Y147124D01*
X227327Y147071D01*
X227327Y145096D01*
X227328Y145087D01*
X227327Y145070D01*
X227395Y143113D01*
X227393Y143110D01*
X227371Y143028D01*
X227341Y142949D01*
X227336Y142896D01*
X227330Y142875D01*
X227332Y142852D01*
X227327Y142802D01*
X227327Y141248D01*
X227357Y141064D01*
X227366Y141008D01*
X227453Y140846D01*
X227481Y140793D01*
X227481Y140792D01*
X227606Y140676D01*
X227659Y140626D01*
X227782Y140570D01*
X227881Y140525D01*
X227882Y140525D01*
X228028Y140510D01*
X228124Y140501D01*
X228125Y140501D01*
X228270Y140525D01*
X228386Y140556D01*
X235221Y140556D01*
X235221Y129750D01*
X235225Y129726D01*
X235222Y129702D01*
X235245Y129606D01*
X235261Y129509D01*
X235272Y129488D01*
X235278Y129464D01*
X235329Y129381D01*
X235376Y129294D01*
X235393Y129277D01*
X235406Y129257D01*
X235482Y129194D01*
X235554Y129127D01*
X235576Y129117D01*
X235595Y129102D01*
X235686Y129067D01*
X235776Y129026D01*
X235800Y129024D01*
X235823Y129015D01*
X235970Y129001D01*
X236721Y129001D01*
X236721Y128999D01*
X235970Y128999D01*
X235946Y128995D01*
X235922Y128998D01*
X235826Y128975D01*
X235729Y128959D01*
X235708Y128948D01*
X235684Y128942D01*
X235600Y128891D01*
X235514Y128844D01*
X235497Y128827D01*
X235477Y128814D01*
X235414Y128738D01*
X235347Y128666D01*
X235337Y128644D01*
X235322Y128625D01*
X235287Y128534D01*
X235246Y128444D01*
X235244Y128420D01*
X235235Y128397D01*
X235221Y128250D01*
X235221Y117444D01*
X228386Y117444D01*
X228270Y117475D01*
X228180Y117484D01*
X228027Y117499D01*
X227947Y117481D01*
X227790Y117444D01*
X227678Y117374D01*
X227582Y117315D01*
X227493Y117206D01*
X227427Y117127D01*
X227377Y116992D01*
X227341Y116899D01*
X227341Y116898D01*
X227327Y116752D01*
X227327Y114067D01*
X227331Y114043D01*
X227328Y114018D01*
X227350Y113923D01*
X227366Y113826D01*
X227378Y113805D01*
X227384Y113781D01*
X227435Y113697D01*
X227481Y113611D01*
X227499Y113594D01*
X227512Y113573D01*
X227588Y113511D01*
X227659Y113444D01*
X227682Y113434D01*
X227701Y113418D01*
X227792Y113384D01*
X227882Y113343D01*
X227906Y113341D01*
X227929Y113332D01*
X228076Y113318D01*
X246088Y113318D01*
X248023Y111383D01*
X248023Y90617D01*
X246088Y88682D01*
X242076Y88682D01*
X242052Y88678D01*
X242027Y88681D01*
X241932Y88659D01*
X241835Y88643D01*
X241814Y88631D01*
X241790Y88625D01*
X241706Y88574D01*
X241620Y88528D01*
X241603Y88510D01*
X241582Y88497D01*
X241520Y88421D01*
X241453Y88350D01*
X241443Y88327D01*
X241427Y88308D01*
X241393Y88217D01*
X241352Y88127D01*
X241350Y88103D01*
X241341Y88080D01*
X241327Y87933D01*
X241327Y83503D01*
X241343Y83407D01*
X241352Y83310D01*
X241362Y83287D01*
X241366Y83262D01*
X241412Y83176D01*
X241453Y83087D01*
X241474Y83062D01*
X241481Y83047D01*
X241500Y83030D01*
X241546Y82973D01*
X242506Y82013D01*
X243585Y79409D01*
X243585Y76591D01*
X242506Y73987D01*
X240513Y71994D01*
X237909Y70915D01*
X235091Y70915D01*
X232487Y71994D01*
X230494Y73987D01*
X229415Y76591D01*
X229415Y79409D01*
X230494Y82013D01*
X231454Y82973D01*
X231511Y83053D01*
X231573Y83128D01*
X231581Y83151D01*
X231596Y83171D01*
X231624Y83265D01*
X231659Y83356D01*
X231662Y83389D01*
X231667Y83405D01*
X231666Y83430D01*
X231673Y83503D01*
X231673Y87933D01*
X231669Y87957D01*
X231672Y87982D01*
X231650Y88077D01*
X231634Y88174D01*
X231622Y88195D01*
X231616Y88219D01*
X231565Y88303D01*
X231519Y88389D01*
X231501Y88406D01*
X231488Y88427D01*
X231412Y88489D01*
X231341Y88556D01*
X231318Y88566D01*
X231299Y88582D01*
X231208Y88616D01*
X231118Y88657D01*
X231094Y88659D01*
X231071Y88668D01*
X230924Y88682D01*
X228076Y88682D01*
X228052Y88678D01*
X228027Y88681D01*
X227932Y88659D01*
X227835Y88643D01*
X227814Y88631D01*
X227790Y88625D01*
X227706Y88574D01*
X227620Y88528D01*
X227603Y88510D01*
X227582Y88497D01*
X227520Y88421D01*
X227453Y88350D01*
X227443Y88327D01*
X227427Y88308D01*
X227393Y88217D01*
X227352Y88127D01*
X227350Y88103D01*
X227341Y88080D01*
X227327Y87933D01*
X227327Y74169D01*
X227329Y74157D01*
X227328Y74153D01*
X227332Y74139D01*
X227340Y74089D01*
X227344Y74007D01*
X227360Y73969D01*
X227366Y73928D01*
X227405Y73856D01*
X227435Y73781D01*
X227470Y73734D01*
X227481Y73713D01*
X227497Y73699D01*
X227524Y73663D01*
X235401Y65070D01*
X235490Y65000D01*
X235578Y64927D01*
X235586Y64924D01*
X235593Y64919D01*
X235700Y64881D01*
X235806Y64841D01*
X235817Y64840D01*
X235823Y64838D01*
X235840Y64838D01*
X235953Y64827D01*
X263190Y64827D01*
X263287Y64843D01*
X263384Y64852D01*
X263406Y64862D01*
X263431Y64866D01*
X263517Y64912D01*
X263606Y64953D01*
X263632Y64974D01*
X263646Y64981D01*
X263663Y65000D01*
X263720Y65046D01*
X278196Y79522D01*
X278253Y79601D01*
X278315Y79676D01*
X278323Y79700D01*
X278338Y79720D01*
X278366Y79814D01*
X278401Y79905D01*
X278404Y79938D01*
X278409Y79954D01*
X278408Y79979D01*
X278415Y80052D01*
X278415Y81409D01*
X279494Y84013D01*
X281487Y86006D01*
X284091Y87085D01*
X286909Y87085D01*
X287857Y86692D01*
X287905Y86681D01*
X287950Y86661D01*
X288023Y86653D01*
X288095Y86637D01*
X288144Y86641D01*
X288193Y86637D01*
X288264Y86653D01*
X288338Y86660D01*
X288382Y86681D01*
X288430Y86692D01*
X288493Y86731D01*
X288560Y86761D01*
X288596Y86795D01*
X288638Y86820D01*
X288684Y86877D01*
X288738Y86928D01*
X288761Y86971D01*
X288793Y87009D01*
X288819Y87078D01*
X288853Y87143D01*
X288861Y87191D01*
X288879Y87237D01*
X288893Y87383D01*
X288893Y87384D01*
X288893Y87933D01*
X288889Y87957D01*
X288892Y87982D01*
X288870Y88077D01*
X288854Y88174D01*
X288842Y88195D01*
X288836Y88219D01*
X288785Y88303D01*
X288739Y88389D01*
X288721Y88406D01*
X288708Y88427D01*
X288632Y88489D01*
X288561Y88556D01*
X288538Y88566D01*
X288519Y88582D01*
X288428Y88616D01*
X288338Y88657D01*
X288314Y88659D01*
X288291Y88668D01*
X288144Y88682D01*
X284352Y88682D01*
X282417Y90617D01*
X282417Y111383D01*
X284352Y113318D01*
X288144Y113318D01*
X288168Y113322D01*
X288193Y113319D01*
X288288Y113341D01*
X288385Y113357D01*
X288406Y113369D01*
X288430Y113375D01*
X288514Y113426D01*
X288600Y113472D01*
X288617Y113490D01*
X288638Y113503D01*
X288700Y113579D01*
X288767Y113650D01*
X288777Y113673D01*
X288793Y113692D01*
X288827Y113783D01*
X288868Y113873D01*
X288870Y113897D01*
X288879Y113920D01*
X288893Y114067D01*
X288893Y115933D01*
X288889Y115957D01*
X288892Y115982D01*
X288870Y116077D01*
X288854Y116174D01*
X288842Y116195D01*
X288836Y116219D01*
X288785Y116303D01*
X288739Y116389D01*
X288721Y116406D01*
X288708Y116427D01*
X288632Y116489D01*
X288561Y116556D01*
X288538Y116566D01*
X288519Y116582D01*
X288428Y116616D01*
X288338Y116657D01*
X288314Y116659D01*
X288291Y116668D01*
X288144Y116682D01*
X284352Y116682D01*
X282417Y118617D01*
X282417Y139383D01*
X284352Y141318D01*
X299547Y141318D01*
X299620Y141330D01*
X299693Y141332D01*
X299739Y141349D01*
X299788Y141357D01*
X299853Y141392D01*
X299922Y141418D01*
X299960Y141449D01*
X300003Y141472D01*
X300054Y141526D01*
X300110Y141573D01*
X300137Y141615D01*
X300170Y141650D01*
X300201Y141717D01*
X300239Y141780D01*
X300251Y141828D01*
X300271Y141873D01*
X300278Y141946D01*
X300295Y142017D01*
X300290Y142066D01*
X300295Y142116D01*
X300278Y142187D01*
X300271Y142260D01*
X300251Y142305D01*
X300240Y142353D01*
X300201Y142416D01*
X300171Y142483D01*
X300124Y142539D01*
X300111Y142561D01*
X300098Y142571D01*
X300077Y142597D01*
X299720Y142954D01*
X299641Y143011D01*
X299566Y143073D01*
X299542Y143081D01*
X299522Y143096D01*
X299428Y143124D01*
X299337Y143159D01*
X299304Y143162D01*
X299288Y143167D01*
X299263Y143166D01*
X299190Y143173D01*
X282003Y143173D01*
X281907Y143157D01*
X281810Y143148D01*
X281787Y143138D01*
X281762Y143134D01*
X281676Y143088D01*
X281587Y143047D01*
X281562Y143026D01*
X281547Y143019D01*
X281530Y143000D01*
X281473Y142954D01*
X280513Y141994D01*
X277909Y140915D01*
X276859Y140915D01*
X276787Y140903D01*
X276713Y140901D01*
X276667Y140884D01*
X276619Y140876D01*
X276554Y140841D01*
X276485Y140815D01*
X276447Y140784D01*
X276403Y140761D01*
X276353Y140707D01*
X276296Y140660D01*
X276270Y140618D01*
X276237Y140583D01*
X276206Y140516D01*
X276167Y140453D01*
X276156Y140405D01*
X276136Y140360D01*
X276128Y140287D01*
X276112Y140216D01*
X276117Y140167D01*
X276112Y140117D01*
X276128Y140046D01*
X276135Y139973D01*
X276156Y139928D01*
X276167Y139880D01*
X276206Y139817D01*
X276236Y139750D01*
X276282Y139694D01*
X276296Y139672D01*
X276309Y139662D01*
X276330Y139636D01*
X276583Y139383D01*
X276583Y118617D01*
X274648Y116682D01*
X255912Y116682D01*
X253977Y118617D01*
X253977Y139383D01*
X255912Y141318D01*
X258924Y141318D01*
X258948Y141322D01*
X258973Y141319D01*
X259068Y141341D01*
X259165Y141357D01*
X259186Y141369D01*
X259210Y141375D01*
X259294Y141426D01*
X259380Y141472D01*
X259397Y141490D01*
X259418Y141503D01*
X259480Y141579D01*
X259547Y141650D01*
X259557Y141673D01*
X259573Y141692D01*
X259607Y141783D01*
X259648Y141873D01*
X259650Y141897D01*
X259659Y141920D01*
X259673Y142067D01*
X259673Y242999D01*
X293196Y276522D01*
X293253Y276601D01*
X293315Y276676D01*
X293323Y276700D01*
X293338Y276720D01*
X293366Y276814D01*
X293401Y276905D01*
X293404Y276938D01*
X293409Y276954D01*
X293408Y276979D01*
X293415Y277052D01*
X293415Y278409D01*
X294494Y281013D01*
X296487Y283006D01*
X299091Y284085D01*
X301909Y284085D01*
X304513Y283006D01*
X306506Y281013D01*
X307585Y278409D01*
X307585Y275591D01*
X306506Y272987D01*
X304513Y270994D01*
X301909Y269915D01*
X300552Y269915D01*
X300455Y269899D01*
X300358Y269890D01*
X300336Y269880D01*
X300311Y269876D01*
X300225Y269830D01*
X300136Y269789D01*
X300110Y269768D01*
X300096Y269761D01*
X300079Y269742D01*
X300022Y269696D01*
X269546Y239220D01*
X269489Y239141D01*
X269427Y239066D01*
X269419Y239042D01*
X269404Y239022D01*
X269376Y238928D01*
X269341Y238837D01*
X269338Y238804D01*
X269333Y238788D01*
X269334Y238763D01*
X269327Y238690D01*
X269327Y171655D01*
X269339Y171582D01*
X269341Y171509D01*
X269358Y171463D01*
X269366Y171414D01*
X269401Y171349D01*
X269427Y171281D01*
X269458Y171242D01*
X269481Y171199D01*
X269535Y171149D01*
X269582Y171092D01*
X269624Y171066D01*
X269659Y171032D01*
X269726Y171002D01*
X269789Y170963D01*
X269837Y170952D01*
X269882Y170931D01*
X269955Y170924D01*
X270026Y170907D01*
X270075Y170912D01*
X270125Y170907D01*
X270196Y170924D01*
X270269Y170931D01*
X270314Y170951D01*
X270362Y170962D01*
X270425Y171001D01*
X270492Y171031D01*
X270548Y171078D01*
X270570Y171091D01*
X270580Y171104D01*
X270606Y171125D01*
X271487Y172006D01*
X274091Y173085D01*
X276909Y173085D01*
X279513Y172006D01*
X280473Y171046D01*
X280553Y170989D01*
X280628Y170927D01*
X280651Y170919D01*
X280671Y170904D01*
X280765Y170876D01*
X280856Y170841D01*
X280889Y170838D01*
X280905Y170833D01*
X280930Y170834D01*
X281003Y170827D01*
X304499Y170827D01*
X325327Y149999D01*
X325327Y95998D01*
X325353Y95841D01*
X325366Y95758D01*
X325366Y95757D01*
X325438Y95623D01*
X325481Y95543D01*
X325481Y95542D01*
X325582Y95448D01*
X325659Y95376D01*
X325659Y95375D01*
X325660Y95375D01*
X325789Y95306D01*
X326513Y95006D01*
X328506Y93013D01*
X329585Y90409D01*
X329585Y87591D01*
X328506Y84987D01*
X327625Y84106D01*
X327582Y84046D01*
X327532Y83992D01*
X327512Y83948D01*
X327483Y83907D01*
X327462Y83837D01*
X327431Y83770D01*
X327426Y83721D01*
X327412Y83674D01*
X327414Y83601D01*
X327407Y83527D01*
X327418Y83479D01*
X327420Y83430D01*
X327446Y83361D01*
X327462Y83290D01*
X327489Y83248D01*
X327506Y83202D01*
X327552Y83145D01*
X327591Y83082D01*
X327629Y83051D01*
X327661Y83013D01*
X327723Y82974D01*
X327780Y82927D01*
X327826Y82910D01*
X327868Y82884D01*
X327939Y82867D01*
X328008Y82841D01*
X328081Y82834D01*
X328105Y82828D01*
X328122Y82830D01*
X328155Y82827D01*
X335090Y82827D01*
X335187Y82843D01*
X335284Y82852D01*
X335306Y82862D01*
X335331Y82866D01*
X335417Y82912D01*
X335506Y82953D01*
X335532Y82974D01*
X335546Y82981D01*
X335563Y83000D01*
X335620Y83046D01*
X337578Y85004D01*
X337635Y85083D01*
X337697Y85158D01*
X337705Y85182D01*
X337720Y85202D01*
X337748Y85296D01*
X337783Y85387D01*
X337786Y85420D01*
X337791Y85436D01*
X337790Y85461D01*
X337797Y85534D01*
X337797Y92068D01*
X339732Y94003D01*
X352468Y94003D01*
X354403Y92068D01*
X354403Y81332D01*
X352468Y79397D01*
X345934Y79397D01*
X345837Y79381D01*
X345740Y79372D01*
X345718Y79362D01*
X345693Y79358D01*
X345607Y79312D01*
X345518Y79271D01*
X345492Y79250D01*
X345478Y79243D01*
X345461Y79224D01*
X345404Y79178D01*
X341746Y75520D01*
X341703Y75460D01*
X341653Y75406D01*
X341632Y75362D01*
X341604Y75321D01*
X341582Y75251D01*
X341552Y75184D01*
X341547Y75135D01*
X341533Y75088D01*
X341535Y75015D01*
X341528Y74941D01*
X341539Y74893D01*
X341541Y74844D01*
X341567Y74775D01*
X341583Y74704D01*
X341609Y74662D01*
X341627Y74616D01*
X341673Y74559D01*
X341712Y74496D01*
X341750Y74465D01*
X341781Y74427D01*
X341844Y74388D01*
X341900Y74341D01*
X341946Y74324D01*
X341988Y74298D01*
X342060Y74281D01*
X342129Y74255D01*
X342202Y74248D01*
X342226Y74242D01*
X342243Y74244D01*
X342276Y74241D01*
X344601Y74241D01*
X344601Y69199D01*
X338559Y69199D01*
X338559Y72035D01*
X338612Y72230D01*
X338617Y72287D01*
X338636Y72473D01*
X338618Y72549D01*
X338580Y72710D01*
X338580Y72711D01*
X338549Y72761D01*
X338452Y72918D01*
X338389Y72969D01*
X338263Y73073D01*
X338138Y73120D01*
X338035Y73159D01*
X338034Y73159D01*
X337888Y73173D01*
X299501Y73173D01*
X296454Y76220D01*
X293817Y78857D01*
X293777Y78886D01*
X293743Y78922D01*
X293678Y78957D01*
X293618Y79000D01*
X293571Y79014D01*
X293528Y79037D01*
X293455Y79049D01*
X293385Y79070D01*
X293336Y79069D01*
X293287Y79077D01*
X293215Y79065D01*
X293141Y79063D01*
X293095Y79045D01*
X293047Y79037D01*
X292982Y79003D01*
X292912Y78977D01*
X292874Y78946D01*
X292831Y78923D01*
X292781Y78869D01*
X292724Y78822D01*
X292698Y78780D01*
X292664Y78745D01*
X292595Y78616D01*
X292595Y78615D01*
X292595Y78614D01*
X291506Y75987D01*
X289513Y73994D01*
X286909Y72915D01*
X285552Y72915D01*
X285455Y72899D01*
X285358Y72890D01*
X285336Y72880D01*
X285311Y72876D01*
X285225Y72830D01*
X285136Y72789D01*
X285110Y72768D01*
X285096Y72761D01*
X285079Y72742D01*
X285022Y72696D01*
X267499Y55173D01*
X235669Y55173D01*
X235589Y55160D01*
X235507Y55156D01*
X235469Y55140D01*
X235428Y55134D01*
X235356Y55095D01*
X235340Y55089D01*
X233411Y55173D01*
G37*
%LPD*%
%LPC*%
G36*
X171882Y181207D02*
X171882Y181207D01*
X169947Y183142D01*
X169947Y203658D01*
X171859Y205570D01*
X171874Y205590D01*
X171893Y205606D01*
X171944Y205689D01*
X172002Y205769D01*
X172009Y205792D01*
X172022Y205813D01*
X172044Y205908D01*
X172072Y206002D01*
X172072Y206027D01*
X172077Y206050D01*
X172068Y206148D01*
X172065Y206246D01*
X172056Y206269D01*
X172054Y206293D01*
X172013Y206382D01*
X171979Y206474D01*
X171963Y206493D01*
X171953Y206516D01*
X171859Y206630D01*
X169947Y208542D01*
X169947Y229058D01*
X171859Y230970D01*
X171874Y230990D01*
X171893Y231006D01*
X171944Y231089D01*
X172002Y231169D01*
X172009Y231192D01*
X172022Y231213D01*
X172044Y231308D01*
X172072Y231402D01*
X172072Y231427D01*
X172077Y231450D01*
X172068Y231548D01*
X172065Y231646D01*
X172056Y231669D01*
X172054Y231693D01*
X172013Y231782D01*
X171979Y231874D01*
X171963Y231893D01*
X171953Y231916D01*
X171859Y232030D01*
X169947Y233942D01*
X169947Y254458D01*
X171859Y256370D01*
X171874Y256390D01*
X171893Y256406D01*
X171944Y256489D01*
X172002Y256569D01*
X172009Y256592D01*
X172022Y256613D01*
X172044Y256708D01*
X172072Y256802D01*
X172072Y256827D01*
X172077Y256850D01*
X172068Y256948D01*
X172065Y257046D01*
X172056Y257069D01*
X172054Y257093D01*
X172013Y257182D01*
X171979Y257274D01*
X171963Y257293D01*
X171953Y257316D01*
X171859Y257430D01*
X169947Y259342D01*
X169947Y279858D01*
X171859Y281770D01*
X171874Y281790D01*
X171893Y281806D01*
X171944Y281889D01*
X172002Y281969D01*
X172009Y281992D01*
X172022Y282013D01*
X172044Y282108D01*
X172072Y282202D01*
X172072Y282227D01*
X172077Y282250D01*
X172068Y282348D01*
X172065Y282446D01*
X172056Y282469D01*
X172054Y282493D01*
X172013Y282582D01*
X171979Y282674D01*
X171963Y282693D01*
X171953Y282716D01*
X171859Y282830D01*
X169947Y284742D01*
X169947Y305258D01*
X171859Y307170D01*
X171874Y307190D01*
X171893Y307206D01*
X171944Y307289D01*
X172002Y307369D01*
X172009Y307392D01*
X172022Y307413D01*
X172044Y307508D01*
X172072Y307602D01*
X172072Y307627D01*
X172077Y307650D01*
X172068Y307748D01*
X172065Y307846D01*
X172056Y307869D01*
X172054Y307893D01*
X172013Y307982D01*
X171979Y308074D01*
X171963Y308093D01*
X171953Y308116D01*
X171859Y308230D01*
X169947Y310142D01*
X169947Y330658D01*
X171882Y332593D01*
X212718Y332593D01*
X213463Y331848D01*
X213482Y331834D01*
X213498Y331815D01*
X213581Y331763D01*
X213661Y331706D01*
X213684Y331699D01*
X213705Y331686D01*
X213800Y331664D01*
X213894Y331635D01*
X213919Y331636D01*
X213943Y331630D01*
X214040Y331640D01*
X214138Y331643D01*
X214161Y331652D01*
X214186Y331654D01*
X214275Y331694D01*
X214367Y331729D01*
X214386Y331744D01*
X214408Y331755D01*
X214522Y331848D01*
X216454Y333780D01*
X216511Y333859D01*
X216573Y333934D01*
X216581Y333958D01*
X216596Y333978D01*
X216624Y334072D01*
X216659Y334163D01*
X216662Y334196D01*
X216667Y334212D01*
X216666Y334237D01*
X216673Y334310D01*
X216673Y382690D01*
X216657Y382787D01*
X216648Y382884D01*
X216638Y382906D01*
X216634Y382931D01*
X216588Y383017D01*
X216547Y383106D01*
X216526Y383132D01*
X216519Y383146D01*
X216500Y383163D01*
X216454Y383220D01*
X215978Y383696D01*
X215899Y383753D01*
X215824Y383815D01*
X215800Y383823D01*
X215780Y383838D01*
X215687Y383866D01*
X215595Y383901D01*
X215562Y383904D01*
X215546Y383909D01*
X215521Y383908D01*
X215448Y383915D01*
X214004Y383915D01*
X213932Y383903D01*
X213858Y383901D01*
X213812Y383884D01*
X213764Y383876D01*
X213699Y383841D01*
X213630Y383815D01*
X213592Y383784D01*
X213548Y383761D01*
X213498Y383707D01*
X213441Y383660D01*
X213415Y383618D01*
X213382Y383583D01*
X213351Y383516D01*
X213312Y383453D01*
X213301Y383405D01*
X213281Y383360D01*
X213273Y383287D01*
X213257Y383216D01*
X213262Y383167D01*
X213257Y383117D01*
X213273Y383046D01*
X213280Y382973D01*
X213301Y382928D01*
X213312Y382880D01*
X213351Y382817D01*
X213381Y382750D01*
X213427Y382694D01*
X213441Y382672D01*
X213454Y382662D01*
X213475Y382636D01*
X214653Y381458D01*
X214653Y360942D01*
X212718Y359007D01*
X171882Y359007D01*
X169947Y360942D01*
X169947Y381458D01*
X172052Y383563D01*
X172066Y383582D01*
X172085Y383598D01*
X172137Y383681D01*
X172194Y383761D01*
X172201Y383784D01*
X172214Y383805D01*
X172236Y383900D01*
X172265Y383994D01*
X172264Y384019D01*
X172270Y384043D01*
X172260Y384140D01*
X172257Y384238D01*
X172248Y384261D01*
X172246Y384286D01*
X172206Y384375D01*
X172171Y384467D01*
X172156Y384486D01*
X172145Y384508D01*
X172052Y384622D01*
X169720Y386954D01*
X169641Y387011D01*
X169566Y387073D01*
X169542Y387081D01*
X169522Y387096D01*
X169428Y387124D01*
X169337Y387159D01*
X169304Y387162D01*
X169288Y387167D01*
X169263Y387166D01*
X169190Y387173D01*
X156003Y387173D01*
X155907Y387157D01*
X155810Y387148D01*
X155787Y387138D01*
X155762Y387134D01*
X155676Y387088D01*
X155587Y387047D01*
X155562Y387026D01*
X155547Y387019D01*
X155530Y387000D01*
X155473Y386954D01*
X154513Y385994D01*
X151909Y384915D01*
X149091Y384915D01*
X146487Y385994D01*
X144494Y387987D01*
X143415Y390591D01*
X143415Y393409D01*
X144494Y396013D01*
X146487Y398006D01*
X149091Y399085D01*
X151909Y399085D01*
X154513Y398006D01*
X155473Y397046D01*
X155553Y396989D01*
X155628Y396927D01*
X155651Y396919D01*
X155671Y396904D01*
X155765Y396876D01*
X155856Y396841D01*
X155889Y396838D01*
X155905Y396833D01*
X155930Y396834D01*
X156003Y396827D01*
X173499Y396827D01*
X176546Y393780D01*
X186714Y383612D01*
X186793Y383555D01*
X186868Y383493D01*
X186892Y383485D01*
X186912Y383470D01*
X187006Y383442D01*
X187097Y383407D01*
X187130Y383404D01*
X187146Y383399D01*
X187171Y383400D01*
X187244Y383393D01*
X211586Y383393D01*
X211682Y383409D01*
X211779Y383418D01*
X211802Y383428D01*
X211826Y383432D01*
X211913Y383479D01*
X212002Y383519D01*
X212020Y383536D01*
X212042Y383547D01*
X212108Y383619D01*
X212180Y383686D01*
X212191Y383707D01*
X212208Y383725D01*
X212249Y383815D01*
X212295Y383901D01*
X212299Y383925D01*
X212309Y383948D01*
X212319Y384045D01*
X212335Y384141D01*
X212331Y384166D01*
X212333Y384191D01*
X212311Y384286D01*
X212295Y384382D01*
X212284Y384404D01*
X212278Y384428D01*
X212226Y384511D01*
X212180Y384598D01*
X212162Y384614D01*
X212149Y384636D01*
X212074Y384698D01*
X212003Y384765D01*
X211974Y384780D01*
X211961Y384790D01*
X211938Y384799D01*
X211872Y384834D01*
X211487Y384994D01*
X209494Y386987D01*
X208415Y389591D01*
X208415Y392409D01*
X209494Y395013D01*
X211487Y397006D01*
X214091Y398085D01*
X216909Y398085D01*
X219513Y397006D01*
X221506Y395013D01*
X222585Y392409D01*
X222585Y391052D01*
X222601Y390955D01*
X222610Y390858D01*
X222620Y390836D01*
X222624Y390811D01*
X222670Y390725D01*
X222711Y390636D01*
X222732Y390610D01*
X222739Y390596D01*
X222758Y390579D01*
X222804Y390522D01*
X226327Y386999D01*
X226327Y330001D01*
X223280Y326954D01*
X214872Y318546D01*
X214815Y318467D01*
X214753Y318392D01*
X214745Y318368D01*
X214730Y318348D01*
X214702Y318254D01*
X214667Y318163D01*
X214664Y318130D01*
X214659Y318114D01*
X214660Y318089D01*
X214653Y318016D01*
X214653Y313981D01*
X214665Y313908D01*
X214667Y313835D01*
X214684Y313789D01*
X214692Y313740D01*
X214727Y313675D01*
X214753Y313607D01*
X214784Y313568D01*
X214807Y313525D01*
X214861Y313475D01*
X214908Y313418D01*
X214950Y313392D01*
X214985Y313358D01*
X215052Y313328D01*
X215115Y313289D01*
X215163Y313278D01*
X215208Y313257D01*
X215281Y313250D01*
X215352Y313233D01*
X215401Y313238D01*
X215451Y313233D01*
X215522Y313250D01*
X215595Y313257D01*
X215640Y313277D01*
X215688Y313288D01*
X215751Y313327D01*
X215818Y313357D01*
X215874Y313404D01*
X215896Y313417D01*
X215906Y313430D01*
X215932Y313451D01*
X216487Y314006D01*
X219091Y315085D01*
X221909Y315085D01*
X224513Y314006D01*
X226506Y312013D01*
X227585Y309409D01*
X227585Y306591D01*
X226506Y303987D01*
X224513Y301994D01*
X221909Y300915D01*
X220552Y300915D01*
X220455Y300899D01*
X220358Y300890D01*
X220336Y300880D01*
X220311Y300876D01*
X220225Y300830D01*
X220136Y300789D01*
X220110Y300768D01*
X220096Y300761D01*
X220079Y300742D01*
X220022Y300696D01*
X214872Y295546D01*
X214815Y295467D01*
X214753Y295392D01*
X214745Y295368D01*
X214730Y295348D01*
X214702Y295254D01*
X214667Y295163D01*
X214664Y295130D01*
X214659Y295114D01*
X214660Y295089D01*
X214653Y295016D01*
X214653Y284742D01*
X212741Y282830D01*
X212726Y282810D01*
X212707Y282794D01*
X212655Y282711D01*
X212598Y282631D01*
X212591Y282608D01*
X212578Y282587D01*
X212556Y282492D01*
X212528Y282398D01*
X212528Y282374D01*
X212523Y282350D01*
X212532Y282252D01*
X212535Y282154D01*
X212544Y282131D01*
X212546Y282107D01*
X212587Y282018D01*
X212621Y281926D01*
X212637Y281907D01*
X212647Y281884D01*
X212741Y281770D01*
X214653Y279858D01*
X214653Y259342D01*
X212741Y257430D01*
X212726Y257410D01*
X212707Y257394D01*
X212655Y257311D01*
X212598Y257231D01*
X212591Y257208D01*
X212578Y257187D01*
X212556Y257092D01*
X212528Y256998D01*
X212528Y256974D01*
X212523Y256950D01*
X212532Y256852D01*
X212535Y256754D01*
X212544Y256731D01*
X212546Y256707D01*
X212587Y256618D01*
X212621Y256526D01*
X212637Y256507D01*
X212647Y256484D01*
X212741Y256370D01*
X214653Y254458D01*
X214653Y233942D01*
X212741Y232030D01*
X212726Y232010D01*
X212707Y231994D01*
X212655Y231911D01*
X212598Y231831D01*
X212591Y231808D01*
X212578Y231787D01*
X212556Y231692D01*
X212528Y231598D01*
X212528Y231574D01*
X212523Y231550D01*
X212532Y231452D01*
X212535Y231354D01*
X212544Y231331D01*
X212546Y231307D01*
X212587Y231218D01*
X212621Y231126D01*
X212637Y231107D01*
X212647Y231084D01*
X212741Y230970D01*
X214653Y229058D01*
X214653Y208542D01*
X212741Y206630D01*
X212726Y206610D01*
X212707Y206594D01*
X212655Y206511D01*
X212598Y206431D01*
X212591Y206408D01*
X212578Y206387D01*
X212556Y206292D01*
X212528Y206198D01*
X212528Y206174D01*
X212523Y206150D01*
X212532Y206052D01*
X212535Y205954D01*
X212544Y205931D01*
X212546Y205907D01*
X212587Y205818D01*
X212621Y205726D01*
X212637Y205707D01*
X212647Y205684D01*
X212741Y205570D01*
X214653Y203658D01*
X214653Y198976D01*
X214657Y198952D01*
X214654Y198927D01*
X214676Y198832D01*
X214692Y198735D01*
X214704Y198714D01*
X214710Y198690D01*
X214761Y198606D01*
X214807Y198520D01*
X214825Y198503D01*
X214838Y198482D01*
X214914Y198420D01*
X214985Y198353D01*
X215008Y198343D01*
X215027Y198327D01*
X215118Y198293D01*
X215208Y198252D01*
X215232Y198250D01*
X215255Y198241D01*
X215402Y198227D01*
X218590Y198227D01*
X218687Y198243D01*
X218784Y198252D01*
X218806Y198262D01*
X218831Y198266D01*
X218917Y198312D01*
X219006Y198353D01*
X219032Y198374D01*
X219046Y198381D01*
X219063Y198400D01*
X219120Y198446D01*
X237454Y216780D01*
X237497Y216840D01*
X237546Y216892D01*
X237556Y216914D01*
X237573Y216934D01*
X237581Y216958D01*
X237596Y216978D01*
X237618Y217052D01*
X237647Y217114D01*
X237649Y217137D01*
X237659Y217163D01*
X237662Y217196D01*
X237667Y217212D01*
X237666Y217237D01*
X237673Y217310D01*
X237673Y331497D01*
X237657Y331593D01*
X237648Y331690D01*
X237638Y331713D01*
X237634Y331738D01*
X237588Y331824D01*
X237547Y331913D01*
X237526Y331938D01*
X237519Y331953D01*
X237500Y331970D01*
X237454Y332027D01*
X236494Y332987D01*
X235415Y335591D01*
X235415Y338409D01*
X236494Y341013D01*
X238487Y343006D01*
X241091Y344085D01*
X243909Y344085D01*
X246513Y343006D01*
X248506Y341013D01*
X249585Y338409D01*
X249585Y335591D01*
X248506Y332987D01*
X247546Y332027D01*
X247489Y331947D01*
X247427Y331872D01*
X247419Y331849D01*
X247404Y331829D01*
X247376Y331735D01*
X247341Y331644D01*
X247338Y331611D01*
X247333Y331595D01*
X247334Y331570D01*
X247327Y331497D01*
X247327Y213001D01*
X222899Y188573D01*
X215402Y188573D01*
X215378Y188569D01*
X215353Y188572D01*
X215258Y188550D01*
X215161Y188534D01*
X215140Y188522D01*
X215116Y188516D01*
X215032Y188465D01*
X214946Y188419D01*
X214929Y188401D01*
X214908Y188388D01*
X214846Y188312D01*
X214779Y188241D01*
X214769Y188218D01*
X214753Y188199D01*
X214719Y188108D01*
X214678Y188018D01*
X214676Y187994D01*
X214667Y187971D01*
X214653Y187824D01*
X214653Y183142D01*
X212718Y181207D01*
X171882Y181207D01*
G37*
%LPD*%
%LPC*%
G36*
X365676Y422715D02*
X365676Y422715D01*
X361381Y424494D01*
X358094Y427781D01*
X356315Y432076D01*
X356315Y436724D01*
X358094Y441019D01*
X359078Y442003D01*
X359135Y442082D01*
X359197Y442157D01*
X359205Y442180D01*
X359220Y442201D01*
X359248Y442294D01*
X359283Y442385D01*
X359286Y442418D01*
X359291Y442434D01*
X359290Y442459D01*
X359297Y442532D01*
X359297Y476579D01*
X359295Y476592D01*
X359296Y476598D01*
X359291Y476619D01*
X359281Y476676D01*
X359272Y476773D01*
X359262Y476795D01*
X359258Y476820D01*
X359212Y476906D01*
X359171Y476995D01*
X359150Y477021D01*
X359143Y477035D01*
X359124Y477052D01*
X359078Y477109D01*
X356322Y479865D01*
X354297Y484754D01*
X354297Y490046D01*
X356322Y494935D01*
X360065Y498678D01*
X364954Y500703D01*
X440806Y500703D01*
X441089Y500585D01*
X441184Y500563D01*
X441278Y500535D01*
X441303Y500535D01*
X441327Y500530D01*
X441424Y500539D01*
X441522Y500542D01*
X441553Y500552D01*
X441570Y500554D01*
X441593Y500564D01*
X441663Y500585D01*
X441978Y500716D01*
X445894Y500716D01*
X449511Y499217D01*
X452280Y496448D01*
X453778Y492831D01*
X453778Y488915D01*
X452671Y486241D01*
X452654Y486170D01*
X452628Y486102D01*
X452621Y486028D01*
X452616Y486004D01*
X452617Y485987D01*
X452614Y485955D01*
X452614Y483602D01*
X450589Y478713D01*
X446847Y474971D01*
X441957Y472946D01*
X439605Y472946D01*
X439533Y472934D01*
X439460Y472931D01*
X439389Y472910D01*
X439364Y472906D01*
X439349Y472898D01*
X439318Y472889D01*
X436645Y471781D01*
X432729Y471781D01*
X429111Y473280D01*
X428513Y473878D01*
X428434Y473935D01*
X428358Y473997D01*
X428335Y474005D01*
X428315Y474020D01*
X428221Y474048D01*
X428130Y474083D01*
X428097Y474086D01*
X428081Y474091D01*
X428056Y474090D01*
X427983Y474097D01*
X376652Y474097D01*
X376628Y474093D01*
X376603Y474096D01*
X376508Y474074D01*
X376411Y474058D01*
X376390Y474046D01*
X376366Y474040D01*
X376282Y473989D01*
X376196Y473943D01*
X376179Y473925D01*
X376158Y473912D01*
X376096Y473836D01*
X376029Y473765D01*
X376019Y473742D01*
X376003Y473723D01*
X375969Y473632D01*
X375928Y473542D01*
X375926Y473518D01*
X375917Y473495D01*
X375903Y473348D01*
X375903Y443332D01*
X375919Y443236D01*
X375928Y443139D01*
X375938Y443116D01*
X375942Y443092D01*
X375988Y443005D01*
X376029Y442917D01*
X376050Y442891D01*
X376057Y442876D01*
X376076Y442859D01*
X376122Y442803D01*
X377906Y441019D01*
X379685Y436724D01*
X379685Y432076D01*
X377906Y427781D01*
X374619Y424494D01*
X370324Y422715D01*
X365676Y422715D01*
G37*
%LPD*%
%LPC*%
G36*
X128676Y421915D02*
X128676Y421915D01*
X124381Y423694D01*
X121094Y426981D01*
X119315Y431276D01*
X119315Y435924D01*
X121094Y440219D01*
X122378Y441502D01*
X122435Y441582D01*
X122497Y441657D01*
X122505Y441680D01*
X122520Y441701D01*
X122548Y441794D01*
X122583Y441885D01*
X122586Y441918D01*
X122591Y441934D01*
X122590Y441959D01*
X122597Y442032D01*
X122597Y472415D01*
X122593Y472439D01*
X122596Y472463D01*
X122574Y472559D01*
X122558Y472656D01*
X122546Y472677D01*
X122540Y472701D01*
X122489Y472784D01*
X122443Y472871D01*
X122425Y472888D01*
X122412Y472908D01*
X122336Y472971D01*
X122265Y473038D01*
X122242Y473048D01*
X122223Y473063D01*
X122132Y473098D01*
X122042Y473139D01*
X122018Y473141D01*
X121995Y473150D01*
X121848Y473164D01*
X71255Y473164D01*
X71183Y473152D01*
X71110Y473150D01*
X71039Y473129D01*
X71015Y473124D01*
X71000Y473117D01*
X70969Y473107D01*
X68295Y472000D01*
X64379Y472000D01*
X61706Y473107D01*
X61635Y473124D01*
X61566Y473150D01*
X61492Y473157D01*
X61468Y473163D01*
X61452Y473161D01*
X61419Y473164D01*
X59067Y473164D01*
X54177Y475189D01*
X50435Y478932D01*
X48410Y483821D01*
X48410Y486173D01*
X48398Y486246D01*
X48396Y486319D01*
X48374Y486389D01*
X48370Y486414D01*
X48363Y486429D01*
X48353Y486460D01*
X47246Y489134D01*
X47246Y493049D01*
X48744Y496667D01*
X51513Y499436D01*
X55130Y500934D01*
X59046Y500934D01*
X61720Y499827D01*
X61791Y499810D01*
X61860Y499784D01*
X61933Y499777D01*
X61957Y499771D01*
X61974Y499773D01*
X62006Y499770D01*
X133546Y499770D01*
X138435Y497744D01*
X142178Y494002D01*
X144203Y489113D01*
X144203Y483754D01*
X142178Y478865D01*
X139422Y476109D01*
X139365Y476030D01*
X139303Y475955D01*
X139295Y475931D01*
X139280Y475911D01*
X139252Y475818D01*
X139217Y475726D01*
X139214Y475693D01*
X139209Y475677D01*
X139210Y475653D01*
X139203Y475579D01*
X139203Y442232D01*
X139219Y442136D01*
X139228Y442039D01*
X139238Y442016D01*
X139242Y441992D01*
X139288Y441906D01*
X139329Y441817D01*
X139350Y441791D01*
X139357Y441776D01*
X139376Y441759D01*
X139422Y441702D01*
X140906Y440219D01*
X142685Y435924D01*
X142685Y431276D01*
X140906Y426981D01*
X137619Y423694D01*
X133324Y421915D01*
X128676Y421915D01*
G37*
%LPD*%
%LPC*%
G36*
X41050Y80210D02*
X41050Y80210D01*
X37432Y81708D01*
X34663Y84477D01*
X33165Y88095D01*
X33165Y92010D01*
X34553Y95360D01*
X34577Y95467D01*
X34608Y95598D01*
X34597Y95709D01*
X34584Y95840D01*
X34584Y95841D01*
X34537Y95945D01*
X34484Y96063D01*
X34483Y96063D01*
X34483Y96064D01*
X34390Y96177D01*
X21161Y109406D01*
X19897Y112457D01*
X19897Y120268D01*
X19881Y120364D01*
X19872Y120461D01*
X19862Y120484D01*
X19858Y120508D01*
X19812Y120594D01*
X19771Y120683D01*
X19750Y120709D01*
X19743Y120724D01*
X19724Y120741D01*
X19678Y120798D01*
X18294Y122181D01*
X16515Y126476D01*
X16515Y131124D01*
X18294Y135419D01*
X21581Y138706D01*
X25876Y140485D01*
X30524Y140485D01*
X34819Y138706D01*
X38154Y135370D01*
X38234Y135313D01*
X38309Y135251D01*
X38332Y135243D01*
X38353Y135228D01*
X38446Y135200D01*
X38537Y135165D01*
X38570Y135162D01*
X38586Y135157D01*
X38611Y135158D01*
X38684Y135151D01*
X50159Y135151D01*
X50255Y135167D01*
X50352Y135176D01*
X50375Y135186D01*
X50400Y135190D01*
X50486Y135236D01*
X50575Y135277D01*
X50600Y135298D01*
X50615Y135305D01*
X50632Y135324D01*
X50689Y135370D01*
X99978Y184659D01*
X100035Y184739D01*
X100097Y184814D01*
X100105Y184837D01*
X100120Y184857D01*
X100148Y184951D01*
X100183Y185042D01*
X100186Y185075D01*
X100191Y185091D01*
X100190Y185116D01*
X100197Y185189D01*
X100197Y203068D01*
X102132Y205003D01*
X129868Y205003D01*
X131803Y203068D01*
X131803Y180332D01*
X129868Y178397D01*
X111989Y178397D01*
X111893Y178381D01*
X111796Y178372D01*
X111773Y178362D01*
X111748Y178358D01*
X111662Y178312D01*
X111573Y178271D01*
X111548Y178250D01*
X111533Y178243D01*
X111516Y178224D01*
X111459Y178178D01*
X56697Y123416D01*
X54363Y122449D01*
X38684Y122449D01*
X38588Y122433D01*
X38491Y122424D01*
X38468Y122414D01*
X38444Y122410D01*
X38357Y122364D01*
X38269Y122323D01*
X38243Y122302D01*
X38228Y122295D01*
X38211Y122276D01*
X38154Y122230D01*
X36722Y120798D01*
X36665Y120718D01*
X36603Y120643D01*
X36595Y120620D01*
X36580Y120599D01*
X36552Y120506D01*
X36517Y120415D01*
X36514Y120382D01*
X36509Y120366D01*
X36510Y120341D01*
X36503Y120268D01*
X36503Y117858D01*
X36519Y117762D01*
X36528Y117665D01*
X36538Y117642D01*
X36542Y117618D01*
X36588Y117532D01*
X36629Y117443D01*
X36650Y117417D01*
X36657Y117402D01*
X36676Y117385D01*
X36722Y117329D01*
X46132Y107919D01*
X46242Y107840D01*
X46330Y107777D01*
X46441Y107743D01*
X46563Y107706D01*
X46564Y107706D01*
X46688Y107710D01*
X46807Y107714D01*
X46808Y107714D01*
X46809Y107714D01*
X46948Y107756D01*
X50299Y109144D01*
X54214Y109144D01*
X57832Y107646D01*
X60601Y104877D01*
X62099Y101259D01*
X62099Y97344D01*
X60601Y93726D01*
X48583Y81708D01*
X44965Y80210D01*
X41050Y80210D01*
G37*
%LPD*%
%LPC*%
G36*
X59010Y62249D02*
X59010Y62249D01*
X55393Y63748D01*
X52624Y66517D01*
X51125Y70134D01*
X51125Y74050D01*
X52233Y76723D01*
X52249Y76795D01*
X52275Y76863D01*
X52283Y76937D01*
X52288Y76961D01*
X52287Y76977D01*
X52290Y77010D01*
X52290Y79363D01*
X54315Y84252D01*
X58057Y87994D01*
X62946Y90019D01*
X65299Y90019D01*
X65371Y90031D01*
X65444Y90033D01*
X65515Y90055D01*
X65540Y90059D01*
X65554Y90067D01*
X65586Y90076D01*
X68259Y91184D01*
X72175Y91184D01*
X74848Y90076D01*
X74920Y90060D01*
X74988Y90034D01*
X75062Y90026D01*
X75086Y90021D01*
X75103Y90022D01*
X75135Y90019D01*
X120748Y90019D01*
X120772Y90023D01*
X120797Y90021D01*
X120892Y90043D01*
X120989Y90059D01*
X121010Y90070D01*
X121034Y90076D01*
X121118Y90128D01*
X121204Y90174D01*
X121221Y90192D01*
X121242Y90205D01*
X121304Y90280D01*
X121371Y90352D01*
X121381Y90374D01*
X121397Y90393D01*
X121431Y90485D01*
X121472Y90574D01*
X121474Y90599D01*
X121483Y90621D01*
X121497Y90768D01*
X121497Y120268D01*
X121481Y120364D01*
X121472Y120461D01*
X121462Y120484D01*
X121458Y120508D01*
X121412Y120594D01*
X121371Y120683D01*
X121350Y120709D01*
X121343Y120724D01*
X121324Y120741D01*
X121278Y120798D01*
X119894Y122181D01*
X118115Y126476D01*
X118115Y131124D01*
X119894Y135419D01*
X123181Y138706D01*
X127476Y140485D01*
X132124Y140485D01*
X136419Y138706D01*
X139706Y135419D01*
X141485Y131124D01*
X141485Y126476D01*
X139706Y122181D01*
X138322Y120798D01*
X138265Y120718D01*
X138203Y120643D01*
X138195Y120620D01*
X138180Y120599D01*
X138152Y120506D01*
X138117Y120415D01*
X138114Y120382D01*
X138109Y120366D01*
X138110Y120341D01*
X138103Y120268D01*
X138103Y88121D01*
X138119Y88024D01*
X138128Y87927D01*
X138138Y87905D01*
X138142Y87880D01*
X138188Y87794D01*
X138229Y87705D01*
X138250Y87679D01*
X138257Y87665D01*
X138276Y87648D01*
X138322Y87591D01*
X141678Y84235D01*
X143703Y79346D01*
X143703Y74054D01*
X141678Y69165D01*
X137935Y65422D01*
X133046Y63397D01*
X127717Y63397D01*
X127712Y63399D01*
X127639Y63406D01*
X127614Y63412D01*
X127598Y63410D01*
X127565Y63414D01*
X65886Y63414D01*
X65814Y63402D01*
X65741Y63399D01*
X65670Y63378D01*
X65646Y63374D01*
X65631Y63366D01*
X65600Y63357D01*
X62926Y62249D01*
X59010Y62249D01*
G37*
%LPD*%
%LPC*%
G36*
X284352Y434682D02*
X284352Y434682D01*
X282417Y436617D01*
X282417Y457383D01*
X284352Y459318D01*
X288144Y459318D01*
X288168Y459322D01*
X288193Y459319D01*
X288288Y459341D01*
X288385Y459357D01*
X288406Y459369D01*
X288430Y459375D01*
X288514Y459426D01*
X288600Y459472D01*
X288617Y459490D01*
X288638Y459503D01*
X288700Y459579D01*
X288767Y459650D01*
X288777Y459673D01*
X288793Y459692D01*
X288827Y459783D01*
X288868Y459873D01*
X288870Y459897D01*
X288879Y459920D01*
X288893Y460067D01*
X288893Y461933D01*
X288889Y461957D01*
X288892Y461982D01*
X288870Y462077D01*
X288854Y462174D01*
X288842Y462195D01*
X288836Y462219D01*
X288785Y462303D01*
X288739Y462389D01*
X288721Y462406D01*
X288708Y462427D01*
X288632Y462489D01*
X288561Y462556D01*
X288538Y462566D01*
X288519Y462582D01*
X288428Y462616D01*
X288338Y462657D01*
X288314Y462659D01*
X288291Y462668D01*
X288144Y462682D01*
X284352Y462682D01*
X282417Y464617D01*
X282417Y485383D01*
X284352Y487318D01*
X303088Y487318D01*
X305023Y485383D01*
X305023Y480576D01*
X305027Y480552D01*
X305024Y480527D01*
X305046Y480432D01*
X305062Y480335D01*
X305074Y480314D01*
X305080Y480290D01*
X305131Y480206D01*
X305177Y480120D01*
X305195Y480103D01*
X305208Y480082D01*
X305284Y480020D01*
X305355Y479953D01*
X305378Y479943D01*
X305397Y479927D01*
X305488Y479893D01*
X305578Y479852D01*
X305602Y479850D01*
X305625Y479841D01*
X305772Y479827D01*
X310190Y479827D01*
X310287Y479843D01*
X310384Y479852D01*
X310406Y479862D01*
X310431Y479866D01*
X310517Y479912D01*
X310606Y479953D01*
X310632Y479974D01*
X310646Y479981D01*
X310663Y480000D01*
X310720Y480046D01*
X332501Y501827D01*
X335548Y501827D01*
X335572Y501831D01*
X335597Y501828D01*
X335686Y501849D01*
X335741Y501854D01*
X335756Y501861D01*
X335789Y501866D01*
X335810Y501878D01*
X335834Y501884D01*
X335911Y501931D01*
X335964Y501955D01*
X335981Y501969D01*
X336004Y501981D01*
X336021Y501999D01*
X336042Y502012D01*
X336058Y502032D01*
X336078Y502049D01*
X338232Y504203D01*
X350968Y504203D01*
X352903Y502268D01*
X352903Y491532D01*
X350968Y489597D01*
X338232Y489597D01*
X336607Y491222D01*
X336588Y491236D01*
X336572Y491255D01*
X336489Y491307D01*
X336409Y491364D01*
X336386Y491371D01*
X336365Y491384D01*
X336269Y491406D01*
X336176Y491435D01*
X336151Y491434D01*
X336127Y491440D01*
X336030Y491430D01*
X335932Y491427D01*
X335909Y491418D01*
X335884Y491416D01*
X335795Y491376D01*
X335703Y491341D01*
X335684Y491326D01*
X335662Y491315D01*
X335548Y491222D01*
X314499Y470173D01*
X305772Y470173D01*
X305748Y470169D01*
X305723Y470172D01*
X305628Y470150D01*
X305531Y470134D01*
X305510Y470122D01*
X305486Y470116D01*
X305402Y470065D01*
X305316Y470019D01*
X305299Y470001D01*
X305278Y469988D01*
X305216Y469912D01*
X305149Y469841D01*
X305139Y469818D01*
X305123Y469799D01*
X305089Y469708D01*
X305048Y469618D01*
X305046Y469594D01*
X305037Y469571D01*
X305023Y469424D01*
X305023Y464617D01*
X303088Y462682D01*
X299296Y462682D01*
X299272Y462678D01*
X299247Y462681D01*
X299152Y462659D01*
X299055Y462643D01*
X299034Y462631D01*
X299010Y462625D01*
X298926Y462574D01*
X298840Y462528D01*
X298823Y462510D01*
X298802Y462497D01*
X298740Y462421D01*
X298673Y462350D01*
X298663Y462327D01*
X298647Y462308D01*
X298613Y462217D01*
X298572Y462127D01*
X298570Y462103D01*
X298561Y462080D01*
X298547Y461933D01*
X298547Y460067D01*
X298551Y460043D01*
X298548Y460018D01*
X298570Y459923D01*
X298586Y459826D01*
X298598Y459805D01*
X298604Y459781D01*
X298655Y459697D01*
X298701Y459611D01*
X298719Y459594D01*
X298732Y459573D01*
X298808Y459511D01*
X298879Y459444D01*
X298902Y459434D01*
X298921Y459418D01*
X299012Y459384D01*
X299102Y459343D01*
X299126Y459341D01*
X299149Y459332D01*
X299296Y459318D01*
X303088Y459318D01*
X305023Y457383D01*
X305023Y436617D01*
X303088Y434682D01*
X284352Y434682D01*
G37*
%LPD*%
%LPC*%
G36*
X197912Y434682D02*
X197912Y434682D01*
X195977Y436617D01*
X195977Y457383D01*
X197912Y459318D01*
X201704Y459318D01*
X201728Y459322D01*
X201753Y459319D01*
X201848Y459341D01*
X201945Y459357D01*
X201966Y459369D01*
X201990Y459375D01*
X202074Y459426D01*
X202160Y459472D01*
X202177Y459490D01*
X202198Y459503D01*
X202260Y459579D01*
X202327Y459650D01*
X202337Y459673D01*
X202353Y459692D01*
X202387Y459783D01*
X202428Y459873D01*
X202430Y459897D01*
X202439Y459920D01*
X202453Y460067D01*
X202453Y461933D01*
X202449Y461957D01*
X202452Y461982D01*
X202430Y462077D01*
X202414Y462174D01*
X202402Y462195D01*
X202396Y462219D01*
X202345Y462303D01*
X202299Y462389D01*
X202281Y462406D01*
X202268Y462427D01*
X202192Y462489D01*
X202121Y462556D01*
X202098Y462566D01*
X202079Y462582D01*
X201988Y462616D01*
X201898Y462657D01*
X201874Y462659D01*
X201851Y462668D01*
X201704Y462682D01*
X197912Y462682D01*
X195977Y464617D01*
X195977Y469424D01*
X195973Y469448D01*
X195976Y469473D01*
X195954Y469568D01*
X195938Y469665D01*
X195926Y469686D01*
X195920Y469710D01*
X195869Y469794D01*
X195823Y469880D01*
X195805Y469897D01*
X195792Y469918D01*
X195716Y469980D01*
X195645Y470047D01*
X195622Y470057D01*
X195603Y470073D01*
X195512Y470107D01*
X195422Y470148D01*
X195398Y470150D01*
X195375Y470159D01*
X195228Y470173D01*
X161154Y470173D01*
X161058Y470157D01*
X160961Y470148D01*
X160938Y470138D01*
X160914Y470134D01*
X160828Y470088D01*
X160739Y470047D01*
X160713Y470026D01*
X160698Y470019D01*
X160681Y470000D01*
X160625Y469954D01*
X160268Y469597D01*
X147532Y469597D01*
X145597Y471532D01*
X145597Y482268D01*
X147532Y484203D01*
X160268Y484203D01*
X162203Y482268D01*
X162203Y480576D01*
X162207Y480552D01*
X162204Y480527D01*
X162226Y480432D01*
X162242Y480335D01*
X162254Y480314D01*
X162260Y480290D01*
X162311Y480206D01*
X162357Y480120D01*
X162375Y480103D01*
X162388Y480082D01*
X162464Y480020D01*
X162535Y479953D01*
X162558Y479943D01*
X162577Y479927D01*
X162668Y479893D01*
X162758Y479852D01*
X162782Y479850D01*
X162805Y479841D01*
X162952Y479827D01*
X195228Y479827D01*
X195252Y479831D01*
X195277Y479828D01*
X195372Y479850D01*
X195469Y479866D01*
X195490Y479878D01*
X195514Y479884D01*
X195598Y479935D01*
X195684Y479981D01*
X195701Y479999D01*
X195722Y480012D01*
X195784Y480088D01*
X195851Y480159D01*
X195861Y480182D01*
X195877Y480201D01*
X195911Y480292D01*
X195952Y480382D01*
X195954Y480406D01*
X195963Y480429D01*
X195977Y480576D01*
X195977Y485383D01*
X197912Y487318D01*
X216648Y487318D01*
X218583Y485383D01*
X218583Y464617D01*
X216648Y462682D01*
X212856Y462682D01*
X212832Y462678D01*
X212807Y462681D01*
X212712Y462659D01*
X212615Y462643D01*
X212594Y462631D01*
X212570Y462625D01*
X212486Y462574D01*
X212400Y462528D01*
X212383Y462510D01*
X212362Y462497D01*
X212300Y462421D01*
X212233Y462350D01*
X212223Y462327D01*
X212207Y462308D01*
X212173Y462217D01*
X212132Y462127D01*
X212130Y462103D01*
X212121Y462080D01*
X212107Y461933D01*
X212107Y460067D01*
X212111Y460043D01*
X212108Y460018D01*
X212130Y459923D01*
X212146Y459826D01*
X212158Y459805D01*
X212164Y459781D01*
X212215Y459697D01*
X212261Y459611D01*
X212279Y459594D01*
X212292Y459573D01*
X212368Y459511D01*
X212439Y459444D01*
X212462Y459434D01*
X212481Y459418D01*
X212572Y459384D01*
X212662Y459343D01*
X212686Y459341D01*
X212709Y459332D01*
X212856Y459318D01*
X216648Y459318D01*
X218583Y457383D01*
X218583Y436617D01*
X216648Y434682D01*
X197912Y434682D01*
G37*
%LPD*%
%LPC*%
G36*
X459308Y79623D02*
X459308Y79623D01*
X455691Y81121D01*
X443673Y93139D01*
X442175Y96757D01*
X442175Y100672D01*
X443673Y104290D01*
X446442Y107059D01*
X450059Y108557D01*
X453975Y108557D01*
X457325Y107170D01*
X457445Y107142D01*
X457562Y107114D01*
X457563Y107114D01*
X457694Y107127D01*
X457805Y107138D01*
X457806Y107138D01*
X457924Y107192D01*
X458028Y107238D01*
X458028Y107239D01*
X458029Y107239D01*
X458142Y107332D01*
X462078Y111268D01*
X462135Y111347D01*
X462197Y111423D01*
X462205Y111446D01*
X462220Y111466D01*
X462248Y111560D01*
X462283Y111651D01*
X462286Y111684D01*
X462291Y111700D01*
X462290Y111725D01*
X462297Y111798D01*
X462297Y120868D01*
X462281Y120964D01*
X462272Y121061D01*
X462262Y121084D01*
X462258Y121108D01*
X462212Y121194D01*
X462171Y121283D01*
X462150Y121309D01*
X462143Y121324D01*
X462124Y121341D01*
X462078Y121398D01*
X460694Y122781D01*
X458915Y127076D01*
X458915Y131724D01*
X460694Y136019D01*
X463981Y139306D01*
X468276Y141085D01*
X472924Y141085D01*
X477219Y139306D01*
X480506Y136019D01*
X482285Y131724D01*
X482285Y127076D01*
X480506Y122781D01*
X479122Y121398D01*
X479065Y121318D01*
X479003Y121243D01*
X478995Y121220D01*
X478980Y121199D01*
X478952Y121106D01*
X478917Y121015D01*
X478914Y120982D01*
X478909Y120966D01*
X478910Y120941D01*
X478903Y120868D01*
X478903Y106397D01*
X477639Y103345D01*
X475198Y100904D01*
X469884Y95590D01*
X469802Y95476D01*
X469742Y95392D01*
X469706Y95275D01*
X469671Y95159D01*
X469671Y95158D01*
X469675Y95018D01*
X469678Y94915D01*
X469679Y94915D01*
X469679Y94914D01*
X469721Y94774D01*
X471109Y91423D01*
X471109Y87508D01*
X469611Y83890D01*
X466842Y81121D01*
X463224Y79623D01*
X459308Y79623D01*
G37*
%LPD*%
%LPC*%
G36*
X27076Y421915D02*
X27076Y421915D01*
X22781Y423694D01*
X19494Y426981D01*
X17715Y431276D01*
X17715Y435924D01*
X19494Y440219D01*
X20878Y441602D01*
X20935Y441682D01*
X20997Y441757D01*
X21005Y441780D01*
X21020Y441801D01*
X21048Y441894D01*
X21083Y441985D01*
X21086Y442018D01*
X21091Y442034D01*
X21090Y442059D01*
X21097Y442132D01*
X21097Y455806D01*
X22361Y458857D01*
X24802Y461298D01*
X30510Y467006D01*
X30590Y467117D01*
X30652Y467204D01*
X30653Y467205D01*
X30686Y467315D01*
X30723Y467438D01*
X30720Y467558D01*
X30718Y467598D01*
X30719Y467607D01*
X30718Y467612D01*
X30716Y467681D01*
X30716Y467682D01*
X30715Y467683D01*
X30673Y467823D01*
X29285Y471173D01*
X29285Y475089D01*
X30784Y478706D01*
X33552Y481475D01*
X37170Y482974D01*
X41086Y482974D01*
X44703Y481475D01*
X56721Y469457D01*
X58220Y465840D01*
X58220Y461924D01*
X56721Y458307D01*
X53952Y455538D01*
X50335Y454039D01*
X46419Y454039D01*
X43069Y455427D01*
X42949Y455455D01*
X42832Y455482D01*
X42831Y455482D01*
X42700Y455469D01*
X42589Y455459D01*
X42588Y455458D01*
X42470Y455405D01*
X42366Y455358D01*
X42365Y455357D01*
X42252Y455265D01*
X37922Y450934D01*
X37865Y450855D01*
X37803Y450780D01*
X37795Y450756D01*
X37780Y450736D01*
X37752Y450643D01*
X37717Y450552D01*
X37714Y450519D01*
X37709Y450503D01*
X37710Y450478D01*
X37703Y450405D01*
X37703Y442132D01*
X37719Y442036D01*
X37728Y441939D01*
X37738Y441916D01*
X37742Y441892D01*
X37788Y441806D01*
X37829Y441717D01*
X37850Y441691D01*
X37857Y441676D01*
X37876Y441659D01*
X37922Y441602D01*
X39306Y440219D01*
X41085Y435924D01*
X41085Y431276D01*
X39306Y426981D01*
X36019Y423694D01*
X31724Y421915D01*
X27076Y421915D01*
G37*
%LPD*%
%LPC*%
G36*
X467276Y422715D02*
X467276Y422715D01*
X462981Y424494D01*
X459694Y427781D01*
X457915Y432076D01*
X457915Y436724D01*
X459694Y441019D01*
X461078Y442402D01*
X461135Y442482D01*
X461197Y442557D01*
X461205Y442580D01*
X461220Y442601D01*
X461248Y442694D01*
X461283Y442785D01*
X461286Y442818D01*
X461291Y442834D01*
X461290Y442859D01*
X461297Y442932D01*
X461297Y452210D01*
X461281Y452306D01*
X461272Y452403D01*
X461262Y452426D01*
X461258Y452451D01*
X461212Y452537D01*
X461171Y452626D01*
X461150Y452651D01*
X461143Y452666D01*
X461124Y452683D01*
X461078Y452740D01*
X458772Y455046D01*
X458684Y455109D01*
X458574Y455188D01*
X458573Y455188D01*
X458463Y455222D01*
X458341Y455259D01*
X458340Y455259D01*
X458215Y455255D01*
X458097Y455251D01*
X458096Y455251D01*
X458095Y455251D01*
X457955Y455208D01*
X454605Y453821D01*
X450689Y453821D01*
X447072Y455319D01*
X444303Y458088D01*
X442804Y461706D01*
X442804Y465621D01*
X444303Y469239D01*
X456321Y481257D01*
X459938Y482755D01*
X463854Y482755D01*
X467472Y481257D01*
X470240Y478488D01*
X471739Y474870D01*
X471739Y470954D01*
X470351Y467604D01*
X470323Y467485D01*
X470296Y467367D01*
X470309Y467235D01*
X470319Y467124D01*
X470320Y467124D01*
X470374Y467003D01*
X470420Y466902D01*
X470421Y466901D01*
X470514Y466788D01*
X474198Y463104D01*
X476639Y460663D01*
X477903Y457611D01*
X477903Y442932D01*
X477919Y442836D01*
X477928Y442739D01*
X477938Y442716D01*
X477942Y442692D01*
X477988Y442606D01*
X478029Y442517D01*
X478050Y442491D01*
X478057Y442476D01*
X478076Y442459D01*
X478122Y442402D01*
X479506Y441019D01*
X481285Y436724D01*
X481285Y432076D01*
X479506Y427781D01*
X476219Y424494D01*
X471924Y422715D01*
X467276Y422715D01*
G37*
%LPD*%
%LPC*%
G36*
X102132Y357997D02*
X102132Y357997D01*
X100197Y359932D01*
X100197Y382668D01*
X102132Y384603D01*
X109408Y384603D01*
X109432Y384607D01*
X109457Y384604D01*
X109552Y384626D01*
X109649Y384642D01*
X109670Y384654D01*
X109694Y384660D01*
X109778Y384711D01*
X109864Y384757D01*
X109881Y384775D01*
X109902Y384788D01*
X109964Y384864D01*
X110031Y384935D01*
X110041Y384958D01*
X110057Y384977D01*
X110091Y385068D01*
X110132Y385158D01*
X110134Y385182D01*
X110143Y385205D01*
X110157Y385352D01*
X110157Y386662D01*
X111047Y388810D01*
X121196Y398959D01*
X121253Y399038D01*
X121315Y399113D01*
X121323Y399137D01*
X121338Y399157D01*
X121366Y399250D01*
X121401Y399342D01*
X121404Y399375D01*
X121409Y399391D01*
X121409Y399393D01*
X122494Y402013D01*
X124487Y404006D01*
X127091Y405085D01*
X129909Y405085D01*
X132513Y404006D01*
X134506Y402013D01*
X135585Y399409D01*
X135585Y396591D01*
X134506Y393987D01*
X132513Y391994D01*
X129864Y390897D01*
X129795Y390890D01*
X129773Y390880D01*
X129748Y390876D01*
X129662Y390830D01*
X129573Y390789D01*
X129547Y390768D01*
X129533Y390761D01*
X129516Y390742D01*
X129459Y390696D01*
X124645Y385882D01*
X124602Y385822D01*
X124552Y385768D01*
X124531Y385724D01*
X124503Y385683D01*
X124481Y385613D01*
X124451Y385546D01*
X124446Y385497D01*
X124432Y385450D01*
X124434Y385377D01*
X124427Y385303D01*
X124438Y385255D01*
X124440Y385206D01*
X124465Y385137D01*
X124482Y385066D01*
X124508Y385024D01*
X124525Y384978D01*
X124572Y384921D01*
X124611Y384858D01*
X124649Y384827D01*
X124680Y384789D01*
X124742Y384750D01*
X124799Y384703D01*
X124845Y384686D01*
X124887Y384660D01*
X124959Y384643D01*
X125027Y384617D01*
X125101Y384610D01*
X125125Y384604D01*
X125141Y384606D01*
X125174Y384603D01*
X129868Y384603D01*
X131803Y382668D01*
X131803Y359932D01*
X129868Y357997D01*
X102132Y357997D01*
G37*
%LPD*%
%LPC*%
G36*
X394132Y348197D02*
X394132Y348197D01*
X392197Y350132D01*
X392197Y360424D01*
X392194Y360445D01*
X392196Y360464D01*
X392195Y360467D01*
X392196Y360473D01*
X392174Y360568D01*
X392158Y360665D01*
X392146Y360686D01*
X392140Y360710D01*
X392089Y360794D01*
X392043Y360880D01*
X392025Y360897D01*
X392012Y360918D01*
X391936Y360980D01*
X391865Y361047D01*
X391842Y361057D01*
X391823Y361073D01*
X391732Y361107D01*
X391642Y361148D01*
X391618Y361150D01*
X391595Y361159D01*
X391448Y361173D01*
X390003Y361173D01*
X389907Y361157D01*
X389810Y361148D01*
X389787Y361138D01*
X389762Y361134D01*
X389676Y361088D01*
X389587Y361047D01*
X389562Y361026D01*
X389547Y361019D01*
X389540Y361011D01*
X389538Y361010D01*
X389528Y360999D01*
X389473Y360954D01*
X388513Y359994D01*
X385909Y358915D01*
X383091Y358915D01*
X380487Y359994D01*
X378494Y361987D01*
X377415Y364591D01*
X377415Y367409D01*
X378494Y370013D01*
X380487Y372006D01*
X383091Y373085D01*
X385909Y373085D01*
X388513Y372006D01*
X389473Y371046D01*
X389553Y370989D01*
X389628Y370927D01*
X389651Y370919D01*
X389671Y370904D01*
X389765Y370876D01*
X389856Y370841D01*
X389889Y370838D01*
X389905Y370833D01*
X389930Y370834D01*
X390003Y370827D01*
X391448Y370827D01*
X391472Y370831D01*
X391497Y370828D01*
X391592Y370850D01*
X391689Y370866D01*
X391710Y370878D01*
X391734Y370884D01*
X391818Y370935D01*
X391904Y370981D01*
X391921Y370999D01*
X391942Y371012D01*
X392004Y371088D01*
X392071Y371159D01*
X392081Y371182D01*
X392097Y371201D01*
X392131Y371292D01*
X392172Y371382D01*
X392174Y371406D01*
X392183Y371429D01*
X392197Y371576D01*
X392197Y377868D01*
X394132Y379803D01*
X416868Y379803D01*
X418803Y377868D01*
X418803Y350132D01*
X416868Y348197D01*
X394132Y348197D01*
G37*
%LPD*%
%LPC*%
G36*
X310341Y491317D02*
X310341Y491317D01*
X307091Y492663D01*
X304603Y495151D01*
X303257Y498401D01*
X303257Y512999D01*
X304603Y516249D01*
X307091Y518737D01*
X310341Y520083D01*
X313859Y520083D01*
X317109Y518737D01*
X319597Y516249D01*
X320943Y512999D01*
X320943Y498401D01*
X319597Y495151D01*
X317109Y492663D01*
X313859Y491317D01*
X310341Y491317D01*
G37*
%LPD*%
%LPC*%
G36*
X234141Y491317D02*
X234141Y491317D01*
X230891Y492663D01*
X228403Y495151D01*
X227057Y498401D01*
X227057Y512999D01*
X228403Y516249D01*
X230891Y518737D01*
X234141Y520083D01*
X237659Y520083D01*
X240909Y518737D01*
X243397Y516249D01*
X244743Y512999D01*
X244743Y498401D01*
X243397Y495151D01*
X240909Y492663D01*
X237659Y491317D01*
X234141Y491317D01*
G37*
%LPD*%
%LPC*%
G36*
X284941Y491317D02*
X284941Y491317D01*
X281691Y492663D01*
X279203Y495151D01*
X277857Y498401D01*
X277857Y512999D01*
X279203Y516249D01*
X281691Y518737D01*
X284941Y520083D01*
X288459Y520083D01*
X291709Y518737D01*
X294197Y516249D01*
X295543Y512999D01*
X295543Y498401D01*
X294197Y495151D01*
X291709Y492663D01*
X288459Y491317D01*
X284941Y491317D01*
G37*
%LPD*%
%LPC*%
G36*
X259541Y491317D02*
X259541Y491317D01*
X256291Y492663D01*
X253803Y495151D01*
X252457Y498401D01*
X252457Y512999D01*
X253803Y516249D01*
X256291Y518737D01*
X259541Y520083D01*
X263059Y520083D01*
X266309Y518737D01*
X268797Y516249D01*
X270143Y512999D01*
X270143Y498401D01*
X268797Y495151D01*
X266309Y492663D01*
X263059Y491317D01*
X259541Y491317D01*
G37*
%LPD*%
%LPC*%
G36*
X208741Y491317D02*
X208741Y491317D01*
X205491Y492663D01*
X203003Y495151D01*
X201657Y498401D01*
X201657Y512999D01*
X203003Y516249D01*
X205491Y518737D01*
X208741Y520083D01*
X212259Y520083D01*
X215509Y518737D01*
X217997Y516249D01*
X219343Y512999D01*
X219343Y498401D01*
X217997Y495151D01*
X215509Y492663D01*
X212259Y491317D01*
X208741Y491317D01*
G37*
%LPD*%
%LPC*%
G36*
X183341Y491317D02*
X183341Y491317D01*
X180091Y492663D01*
X177603Y495151D01*
X176257Y498401D01*
X176257Y512999D01*
X177603Y516249D01*
X180091Y518737D01*
X183341Y520083D01*
X186859Y520083D01*
X190109Y518737D01*
X192597Y516249D01*
X193943Y512999D01*
X193943Y498401D01*
X192597Y495151D01*
X190109Y492663D01*
X186859Y491317D01*
X183341Y491317D01*
G37*
%LPD*%
%LPC*%
G36*
X193799Y347299D02*
X193799Y347299D01*
X193799Y357231D01*
X211684Y357231D01*
X212331Y357058D01*
X212910Y356723D01*
X213383Y356250D01*
X213718Y355671D01*
X213891Y355024D01*
X213891Y347299D01*
X193799Y347299D01*
G37*
%LPD*%
%LPC*%
G36*
X170709Y347299D02*
X170709Y347299D01*
X170709Y355024D01*
X170882Y355671D01*
X171217Y356250D01*
X171690Y356723D01*
X172269Y357058D01*
X172916Y357231D01*
X190801Y357231D01*
X190801Y347299D01*
X170709Y347299D01*
G37*
%LPD*%
%LPC*%
G36*
X193799Y334369D02*
X193799Y334369D01*
X193799Y344301D01*
X213891Y344301D01*
X213891Y336576D01*
X213718Y335929D01*
X213383Y335350D01*
X212910Y334877D01*
X212331Y334542D01*
X211684Y334369D01*
X193799Y334369D01*
G37*
%LPD*%
%LPC*%
G36*
X172916Y334369D02*
X172916Y334369D01*
X172269Y334542D01*
X171690Y334877D01*
X171217Y335350D01*
X170882Y335929D01*
X170709Y336576D01*
X170709Y344301D01*
X190801Y344301D01*
X190801Y334369D01*
X172916Y334369D01*
G37*
%LPD*%
%LPC*%
G36*
X471999Y365499D02*
X471999Y365499D01*
X471999Y379041D01*
X480834Y379041D01*
X481481Y378868D01*
X482060Y378533D01*
X482533Y378060D01*
X482868Y377481D01*
X483041Y376834D01*
X483041Y365499D01*
X471999Y365499D01*
G37*
%LPD*%
%LPC*%
G36*
X44499Y193199D02*
X44499Y193199D01*
X44499Y204241D01*
X55834Y204241D01*
X56481Y204068D01*
X57060Y203733D01*
X57533Y203260D01*
X57868Y202681D01*
X58041Y202034D01*
X58041Y193199D01*
X44499Y193199D01*
G37*
%LPD*%
%LPC*%
G36*
X44499Y372799D02*
X44499Y372799D01*
X44499Y383841D01*
X55834Y383841D01*
X56481Y383668D01*
X57060Y383333D01*
X57533Y382860D01*
X57868Y382281D01*
X58041Y381634D01*
X58041Y372799D01*
X44499Y372799D01*
G37*
%LPD*%
%LPC*%
G36*
X471999Y201499D02*
X471999Y201499D01*
X471999Y215041D01*
X480834Y215041D01*
X481481Y214868D01*
X482060Y214533D01*
X482533Y214060D01*
X482868Y213481D01*
X483041Y212834D01*
X483041Y201499D01*
X471999Y201499D01*
G37*
%LPD*%
%LPC*%
G36*
X27959Y193199D02*
X27959Y193199D01*
X27959Y202034D01*
X27985Y202129D01*
X27985Y202130D01*
X28132Y202681D01*
X28467Y203260D01*
X28940Y203733D01*
X29519Y204068D01*
X30166Y204241D01*
X41501Y204241D01*
X41501Y193199D01*
X27959Y193199D01*
G37*
%LPD*%
%LPC*%
G36*
X27959Y372799D02*
X27959Y372799D01*
X27959Y381634D01*
X28132Y382281D01*
X28467Y382860D01*
X28940Y383333D01*
X29519Y383668D01*
X30166Y383841D01*
X41501Y383841D01*
X41501Y372799D01*
X27959Y372799D01*
G37*
%LPD*%
%LPC*%
G36*
X457959Y201499D02*
X457959Y201499D01*
X457959Y212834D01*
X458132Y213481D01*
X458467Y214060D01*
X458940Y214533D01*
X459519Y214868D01*
X460166Y215041D01*
X469001Y215041D01*
X469001Y201499D01*
X457959Y201499D01*
G37*
%LPD*%
%LPC*%
G36*
X457959Y365499D02*
X457959Y365499D01*
X457959Y376834D01*
X458132Y377481D01*
X458467Y378060D01*
X458940Y378533D01*
X459519Y378868D01*
X460166Y379041D01*
X469001Y379041D01*
X469001Y365499D01*
X457959Y365499D01*
G37*
%LPD*%
%LPC*%
G36*
X44499Y179159D02*
X44499Y179159D01*
X44499Y190201D01*
X58041Y190201D01*
X58041Y181366D01*
X57868Y180719D01*
X57533Y180140D01*
X57060Y179667D01*
X56481Y179332D01*
X55834Y179159D01*
X44499Y179159D01*
G37*
%LPD*%
%LPC*%
G36*
X44499Y358759D02*
X44499Y358759D01*
X44499Y369801D01*
X58041Y369801D01*
X58041Y360966D01*
X57868Y360319D01*
X57533Y359740D01*
X57060Y359267D01*
X56481Y358932D01*
X55834Y358759D01*
X44499Y358759D01*
G37*
%LPD*%
%LPC*%
G36*
X471999Y348959D02*
X471999Y348959D01*
X471999Y362501D01*
X483041Y362501D01*
X483041Y351166D01*
X482961Y350870D01*
X482961Y350869D01*
X482868Y350519D01*
X482533Y349940D01*
X482060Y349467D01*
X481481Y349132D01*
X480834Y348959D01*
X471999Y348959D01*
G37*
%LPD*%
%LPC*%
G36*
X471999Y184959D02*
X471999Y184959D01*
X471999Y198501D01*
X483041Y198501D01*
X483041Y187166D01*
X482938Y186784D01*
X482868Y186519D01*
X482533Y185940D01*
X482060Y185467D01*
X481481Y185132D01*
X480834Y184959D01*
X471999Y184959D01*
G37*
%LPD*%
%LPC*%
G36*
X30166Y179159D02*
X30166Y179159D01*
X29519Y179332D01*
X28940Y179667D01*
X28467Y180140D01*
X28132Y180719D01*
X27959Y181366D01*
X27959Y190201D01*
X41501Y190201D01*
X41501Y179159D01*
X30166Y179159D01*
G37*
%LPD*%
%LPC*%
G36*
X30166Y358759D02*
X30166Y358759D01*
X29519Y358932D01*
X28940Y359267D01*
X28467Y359740D01*
X28132Y360319D01*
X27959Y360966D01*
X27959Y369801D01*
X41501Y369801D01*
X41501Y358759D01*
X30166Y358759D01*
G37*
%LPD*%
%LPC*%
G36*
X460166Y348959D02*
X460166Y348959D01*
X459519Y349132D01*
X458940Y349467D01*
X458467Y349940D01*
X458132Y350519D01*
X457959Y351166D01*
X457959Y362501D01*
X469001Y362501D01*
X469001Y348959D01*
X460166Y348959D01*
G37*
%LPD*%
%LPC*%
G36*
X460166Y184959D02*
X460166Y184959D01*
X459519Y185132D01*
X458940Y185467D01*
X458467Y185940D01*
X458132Y186519D01*
X457959Y187166D01*
X457959Y198501D01*
X469001Y198501D01*
X469001Y184959D01*
X460166Y184959D01*
G37*
%LPD*%
%LPC*%
G36*
X277299Y19499D02*
X277299Y19499D01*
X277299Y33630D01*
X278467Y33397D01*
X280132Y32708D01*
X281629Y31707D01*
X282903Y30433D01*
X283904Y28936D01*
X284593Y27271D01*
X284945Y25505D01*
X284945Y19499D01*
X277299Y19499D01*
G37*
%LPD*%
%LPC*%
G36*
X266655Y19499D02*
X266655Y19499D01*
X266655Y25505D01*
X267007Y27271D01*
X267696Y28936D01*
X268627Y30329D01*
X268697Y30433D01*
X269971Y31707D01*
X271468Y32708D01*
X273133Y33397D01*
X274301Y33630D01*
X274301Y19499D01*
X266655Y19499D01*
G37*
%LPD*%
%LPC*%
G36*
X266779Y448499D02*
X266779Y448499D01*
X266779Y458556D01*
X273614Y458556D01*
X274261Y458383D01*
X274840Y458048D01*
X275313Y457575D01*
X275648Y456996D01*
X275821Y456349D01*
X275821Y448499D01*
X266779Y448499D01*
G37*
%LPD*%
%LPC*%
G36*
X266779Y102499D02*
X266779Y102499D01*
X266779Y112556D01*
X273614Y112556D01*
X274261Y112383D01*
X274840Y112048D01*
X275313Y111575D01*
X275648Y110996D01*
X275821Y110349D01*
X275821Y102499D01*
X266779Y102499D01*
G37*
%LPD*%
%LPC*%
G36*
X237219Y476499D02*
X237219Y476499D01*
X237219Y486556D01*
X244054Y486556D01*
X244701Y486383D01*
X245280Y486048D01*
X245753Y485575D01*
X246088Y484996D01*
X246261Y484349D01*
X246261Y476499D01*
X237219Y476499D01*
G37*
%LPD*%
%LPC*%
G36*
X254739Y102499D02*
X254739Y102499D01*
X254739Y110349D01*
X254839Y110721D01*
X254912Y110996D01*
X255247Y111575D01*
X255720Y112048D01*
X256299Y112383D01*
X256946Y112556D01*
X263781Y112556D01*
X263781Y102499D01*
X254739Y102499D01*
G37*
%LPD*%
%LPC*%
G36*
X225179Y476499D02*
X225179Y476499D01*
X225179Y484349D01*
X225352Y484996D01*
X225687Y485575D01*
X226160Y486048D01*
X226739Y486383D01*
X227386Y486556D01*
X234221Y486556D01*
X234221Y476499D01*
X225179Y476499D01*
G37*
%LPD*%
%LPC*%
G36*
X266779Y89444D02*
X266779Y89444D01*
X266779Y99501D01*
X275821Y99501D01*
X275821Y91651D01*
X275815Y91629D01*
X275648Y91004D01*
X275313Y90425D01*
X274840Y89952D01*
X274261Y89617D01*
X273614Y89444D01*
X266779Y89444D01*
G37*
%LPD*%
%LPC*%
G36*
X237219Y463444D02*
X237219Y463444D01*
X237219Y473501D01*
X246261Y473501D01*
X246261Y465651D01*
X246088Y465004D01*
X245753Y464425D01*
X245280Y463952D01*
X244701Y463617D01*
X244054Y463444D01*
X237219Y463444D01*
G37*
%LPD*%
%LPC*%
G36*
X266779Y435444D02*
X266779Y435444D01*
X266779Y445501D01*
X275821Y445501D01*
X275821Y437651D01*
X275648Y437004D01*
X275313Y436425D01*
X274840Y435952D01*
X274261Y435617D01*
X273614Y435444D01*
X266779Y435444D01*
G37*
%LPD*%
%LPC*%
G36*
X238219Y117444D02*
X238219Y117444D01*
X238219Y127501D01*
X247261Y127501D01*
X247261Y119651D01*
X247088Y119004D01*
X246753Y118425D01*
X246280Y117952D01*
X245701Y117617D01*
X245054Y117444D01*
X238219Y117444D01*
G37*
%LPD*%
%LPC*%
G36*
X227386Y463444D02*
X227386Y463444D01*
X226739Y463617D01*
X226160Y463952D01*
X225687Y464425D01*
X225352Y465004D01*
X225179Y465651D01*
X225179Y473501D01*
X234221Y473501D01*
X234221Y463444D01*
X227386Y463444D01*
G37*
%LPD*%
%LPC*%
G36*
X256946Y89444D02*
X256946Y89444D01*
X256299Y89617D01*
X255720Y89952D01*
X255247Y90425D01*
X254912Y91004D01*
X254739Y91651D01*
X254739Y99501D01*
X263781Y99501D01*
X263781Y89444D01*
X256946Y89444D01*
G37*
%LPD*%
%LPC*%
G36*
X155399Y497399D02*
X155399Y497399D01*
X155399Y502441D01*
X159234Y502441D01*
X159881Y502268D01*
X160460Y501933D01*
X160933Y501460D01*
X161268Y500881D01*
X161441Y500234D01*
X161441Y497399D01*
X155399Y497399D01*
G37*
%LPD*%
%LPC*%
G36*
X347599Y69199D02*
X347599Y69199D01*
X347599Y74241D01*
X351434Y74241D01*
X352081Y74068D01*
X352660Y73733D01*
X353133Y73260D01*
X353468Y72681D01*
X353641Y72034D01*
X353641Y69199D01*
X347599Y69199D01*
G37*
%LPD*%
%LPC*%
G36*
X154899Y87699D02*
X154899Y87699D01*
X154899Y92741D01*
X158734Y92741D01*
X159381Y92568D01*
X159960Y92233D01*
X160433Y91760D01*
X160768Y91181D01*
X160941Y90534D01*
X160941Y87699D01*
X154899Y87699D01*
G37*
%LPD*%
%LPC*%
G36*
X346099Y479399D02*
X346099Y479399D01*
X346099Y484441D01*
X349934Y484441D01*
X350581Y484268D01*
X351160Y483933D01*
X351633Y483460D01*
X351968Y482881D01*
X352141Y482234D01*
X352141Y479399D01*
X346099Y479399D01*
G37*
%LPD*%
%LPC*%
G36*
X146359Y497399D02*
X146359Y497399D01*
X146359Y500234D01*
X146385Y500331D01*
X146532Y500881D01*
X146867Y501460D01*
X147340Y501933D01*
X147919Y502268D01*
X148566Y502441D01*
X152401Y502441D01*
X152401Y497399D01*
X146359Y497399D01*
G37*
%LPD*%
%LPC*%
G36*
X145859Y87699D02*
X145859Y87699D01*
X145859Y90534D01*
X146032Y91181D01*
X146367Y91760D01*
X146840Y92233D01*
X147419Y92568D01*
X148066Y92741D01*
X151901Y92741D01*
X151901Y87699D01*
X145859Y87699D01*
G37*
%LPD*%
%LPC*%
G36*
X337059Y479399D02*
X337059Y479399D01*
X337059Y482234D01*
X337232Y482881D01*
X337567Y483460D01*
X338040Y483933D01*
X338619Y484268D01*
X339266Y484441D01*
X343101Y484441D01*
X343101Y479399D01*
X337059Y479399D01*
G37*
%LPD*%
%LPC*%
G36*
X155399Y489359D02*
X155399Y489359D01*
X155399Y494401D01*
X161441Y494401D01*
X161441Y491566D01*
X161268Y490919D01*
X160933Y490340D01*
X160460Y489867D01*
X159881Y489532D01*
X159234Y489359D01*
X155399Y489359D01*
G37*
%LPD*%
%LPC*%
G36*
X154899Y79659D02*
X154899Y79659D01*
X154899Y84701D01*
X160941Y84701D01*
X160941Y81866D01*
X160768Y81219D01*
X160433Y80640D01*
X159960Y80167D01*
X159381Y79832D01*
X158734Y79659D01*
X154899Y79659D01*
G37*
%LPD*%
%LPC*%
G36*
X347599Y61159D02*
X347599Y61159D01*
X347599Y66201D01*
X353641Y66201D01*
X353641Y63366D01*
X353468Y62719D01*
X353133Y62140D01*
X352660Y61667D01*
X352081Y61332D01*
X351434Y61159D01*
X347599Y61159D01*
G37*
%LPD*%
%LPC*%
G36*
X346099Y471359D02*
X346099Y471359D01*
X346099Y476401D01*
X352141Y476401D01*
X352141Y473566D01*
X351968Y472919D01*
X351633Y472340D01*
X351160Y471867D01*
X350581Y471532D01*
X349934Y471359D01*
X346099Y471359D01*
G37*
%LPD*%
%LPC*%
G36*
X148566Y489359D02*
X148566Y489359D01*
X147919Y489532D01*
X147340Y489867D01*
X146867Y490340D01*
X146532Y490919D01*
X146359Y491566D01*
X146359Y494401D01*
X152401Y494401D01*
X152401Y489359D01*
X148566Y489359D01*
G37*
%LPD*%
%LPC*%
G36*
X148066Y79659D02*
X148066Y79659D01*
X147419Y79832D01*
X146840Y80167D01*
X146367Y80640D01*
X146032Y81219D01*
X145859Y81866D01*
X145859Y84701D01*
X151901Y84701D01*
X151901Y79659D01*
X148066Y79659D01*
G37*
%LPD*%
%LPC*%
G36*
X340766Y61159D02*
X340766Y61159D01*
X340119Y61332D01*
X339540Y61667D01*
X339067Y62140D01*
X338732Y62719D01*
X338559Y63366D01*
X338559Y66201D01*
X344601Y66201D01*
X344601Y61159D01*
X340766Y61159D01*
G37*
%LPD*%
%LPC*%
G36*
X339266Y471359D02*
X339266Y471359D01*
X338619Y471532D01*
X338040Y471867D01*
X337567Y472340D01*
X337232Y472919D01*
X337059Y473566D01*
X337059Y476401D01*
X343101Y476401D01*
X343101Y471359D01*
X339266Y471359D01*
G37*
%LPD*%
%LPC*%
G36*
X470499Y199999D02*
X470499Y199999D01*
X470499Y200001D01*
X470501Y200001D01*
X470501Y199999D01*
X470499Y199999D01*
G37*
%LPD*%
%LPC*%
G36*
X344599Y477899D02*
X344599Y477899D01*
X344599Y477901D01*
X344601Y477901D01*
X344601Y477899D01*
X344599Y477899D01*
G37*
%LPD*%
%LPC*%
G36*
X265279Y100999D02*
X265279Y100999D01*
X265279Y101001D01*
X265281Y101001D01*
X265281Y100999D01*
X265279Y100999D01*
G37*
%LPD*%
%LPC*%
G36*
X235719Y474999D02*
X235719Y474999D01*
X235719Y475001D01*
X235721Y475001D01*
X235721Y474999D01*
X235719Y474999D01*
G37*
%LPD*%
%LPC*%
G36*
X192299Y345799D02*
X192299Y345799D01*
X192299Y345801D01*
X192301Y345801D01*
X192301Y345799D01*
X192299Y345799D01*
G37*
%LPD*%
%LPC*%
G36*
X42999Y371299D02*
X42999Y371299D01*
X42999Y371301D01*
X43001Y371301D01*
X43001Y371299D01*
X42999Y371299D01*
G37*
%LPD*%
%LPC*%
G36*
X153399Y86199D02*
X153399Y86199D01*
X153399Y86201D01*
X153401Y86201D01*
X153401Y86199D01*
X153399Y86199D01*
G37*
%LPD*%
%LPC*%
G36*
X153899Y495899D02*
X153899Y495899D01*
X153899Y495901D01*
X153901Y495901D01*
X153901Y495899D01*
X153899Y495899D01*
G37*
%LPD*%
%LPC*%
G36*
X346099Y67699D02*
X346099Y67699D01*
X346099Y67701D01*
X346101Y67701D01*
X346101Y67699D01*
X346099Y67699D01*
G37*
%LPD*%
%LPC*%
G36*
X42999Y191699D02*
X42999Y191699D01*
X42999Y191701D01*
X43001Y191701D01*
X43001Y191699D01*
X42999Y191699D01*
G37*
%LPD*%
%LPC*%
G36*
X470499Y363999D02*
X470499Y363999D01*
X470499Y364001D01*
X470501Y364001D01*
X470501Y363999D01*
X470499Y363999D01*
G37*
%LPD*%
D10*
X131000Y433600D03*
X29400Y433600D03*
X368000Y434400D03*
X469600Y434400D03*
X369000Y129400D03*
X470600Y129400D03*
X129800Y128800D03*
X28200Y128800D03*
D11*
X452647Y463663D02*
X461896Y472912D01*
X443936Y490873D02*
X434687Y481624D01*
D12*
X369100Y77200D03*
X346100Y86700D03*
X346100Y67700D03*
D11*
X52257Y99301D02*
X43008Y90052D01*
X60968Y72092D02*
X70217Y81341D01*
X48377Y463882D02*
X39128Y473131D01*
X57088Y491091D02*
X66337Y481842D01*
D13*
X312100Y500160D02*
X312100Y511240D01*
X286700Y511240D02*
X286700Y500160D01*
X261300Y500160D02*
X261300Y511240D01*
X235900Y511240D02*
X235900Y500160D01*
X210500Y500160D02*
X210500Y511240D01*
X185100Y511240D02*
X185100Y500160D01*
D12*
X130400Y76700D03*
X153400Y67200D03*
X153400Y86200D03*
X130900Y486400D03*
X153900Y476900D03*
X153900Y495900D03*
X367600Y487400D03*
X344600Y496900D03*
X344600Y477900D03*
D11*
X452017Y98715D02*
X461266Y89466D01*
X443306Y71505D02*
X434057Y80754D01*
D14*
X192300Y371200D03*
X192300Y345800D03*
X192300Y320400D03*
X192300Y295000D03*
X192300Y269600D03*
X192300Y244200D03*
X192300Y218800D03*
X192300Y193400D03*
D15*
X207280Y447000D03*
X235720Y447000D03*
X207280Y475000D03*
X235720Y475000D03*
X265280Y475000D03*
X293720Y475000D03*
X293720Y447000D03*
X265280Y447000D03*
X265280Y129000D03*
X293720Y129000D03*
X293720Y101000D03*
X265280Y101000D03*
X236720Y101000D03*
X208280Y101000D03*
X208280Y129000D03*
X236720Y129000D03*
D16*
X275800Y24604D02*
X275800Y11396D01*
X225000Y11396D02*
X225000Y24604D01*
D17*
X380500Y200000D03*
X470500Y200000D03*
X405500Y364000D03*
X470500Y364000D03*
D18*
X43000Y191700D03*
X116000Y191700D03*
X116000Y371300D03*
X43000Y371300D03*
D19*
X29400Y454154D02*
X43752Y468506D01*
X29400Y454154D02*
X29400Y433600D01*
X457272Y468288D02*
X469600Y455960D01*
X469600Y434400D01*
X28200Y128800D02*
X28200Y114109D01*
X47632Y94677D01*
X456642Y94090D02*
X470600Y108048D01*
X470600Y129400D01*
D20*
X116000Y191700D02*
X53100Y128800D01*
X28200Y128800D01*
D21*
X61713Y486467D02*
X130900Y486467D01*
X130900Y486400D01*
D19*
X130900Y434700D01*
X131000Y433600D01*
X367600Y434800D02*
X367600Y487400D01*
X367600Y434800D02*
X368000Y434400D01*
D21*
X367600Y487400D02*
X438160Y487400D01*
X439311Y486248D01*
D22*
X384500Y366000D03*
D23*
X403500Y366000D01*
X405500Y364000D01*
X192300Y371200D02*
X171500Y392000D01*
X150500Y392000D01*
D22*
X150500Y392000D03*
X346500Y353000D03*
D23*
X354500Y345000D01*
X354500Y131000D02*
X351500Y128000D01*
D22*
X351500Y128000D03*
D23*
X354500Y131000D02*
X354500Y345000D01*
D22*
X299500Y346000D03*
D23*
X319500Y366000D01*
X356500Y366000D01*
X363500Y359000D01*
X385500Y134000D02*
X385500Y115000D01*
D22*
X385500Y115000D03*
D23*
X363500Y156000D02*
X363500Y359000D01*
X363500Y156000D02*
X385500Y134000D01*
D22*
X107500Y159000D03*
D23*
X207500Y159000D01*
X222500Y145000D01*
X222500Y72000D02*
X233500Y60000D01*
X265500Y60000D01*
X285500Y80000D01*
D22*
X285500Y80000D03*
D23*
X222500Y72000D02*
X222500Y145000D01*
D22*
X158500Y168000D03*
D23*
X220500Y168000D01*
X239500Y149000D01*
D22*
X239500Y149000D03*
X276500Y148000D03*
D23*
X301500Y148000D01*
X310500Y139000D01*
X310500Y89000D01*
D22*
X310500Y89000D03*
X275500Y166000D03*
D23*
X302500Y166000D01*
X320500Y148000D01*
X320500Y91000D01*
X322500Y89000D01*
D22*
X322500Y89000D03*
D23*
X220900Y193400D02*
X192300Y193400D01*
D22*
X242500Y337000D03*
D23*
X242500Y215000D02*
X220900Y193400D01*
X242500Y215000D02*
X242500Y337000D01*
X209900Y320400D02*
X192300Y320400D01*
X209900Y320400D02*
X221500Y332000D01*
X221500Y385000D02*
X215500Y391000D01*
D22*
X215500Y391000D03*
D23*
X221500Y385000D02*
X221500Y332000D01*
X207500Y295000D02*
X192300Y295000D01*
X207500Y295000D02*
X220500Y308000D01*
D22*
X220500Y308000D03*
D20*
X380500Y200000D02*
X380500Y153000D01*
D22*
X380500Y153000D03*
X128500Y398000D03*
D24*
X116000Y385500D01*
X116000Y371300D01*
D23*
X235720Y368780D02*
X235720Y447000D01*
X235720Y368780D02*
X301500Y303000D01*
D22*
X301500Y303000D03*
D19*
X369000Y129400D02*
X369000Y77300D01*
X369100Y77200D01*
D21*
X437611Y77200D01*
X438681Y76130D01*
D19*
X129800Y77300D02*
X129800Y128800D01*
X129800Y77300D02*
X130400Y76700D01*
D21*
X130384Y76716D02*
X65593Y76716D01*
X130384Y76716D02*
X130400Y76700D01*
D22*
X300500Y277000D03*
D23*
X264500Y241000D01*
X264500Y129780D02*
X265280Y129000D01*
X264500Y129780D02*
X264500Y241000D01*
X250500Y460220D02*
X265280Y475000D01*
X344500Y282000D02*
X344500Y214000D01*
D22*
X344500Y214000D03*
D23*
X250500Y376000D02*
X250500Y460220D01*
X250500Y376000D02*
X344500Y282000D01*
D22*
X236500Y78000D03*
D23*
X236500Y100780D01*
X236720Y101000D01*
X207280Y447000D02*
X207280Y475000D01*
X155800Y475000D02*
X153900Y476900D01*
X155800Y475000D02*
X207280Y475000D01*
X293720Y475000D02*
X293720Y447000D01*
X293720Y475000D02*
X312500Y475000D01*
X334500Y497000D01*
X344500Y497000D01*
X344600Y496900D01*
X293720Y129000D02*
X293720Y101000D01*
X293720Y85780D01*
X301500Y78000D01*
X337400Y78000D01*
X346100Y86700D01*
X208280Y101000D02*
X174480Y67200D01*
X153400Y67200D01*
X208280Y101000D02*
X208280Y129000D01*
M02*
