G04 EAGLE Gerber X2 export*
%TF.Part,Single*%
%TF.FileFunction,Copper,L2,Bot,Mixed*%
%TF.FilePolarity,Positive*%
%TF.GenerationSoftware,Autodesk,EAGLE,9.0.1*%
%TF.CreationDate,2018-06-02T06:43:15Z*%
G75*
%MOMM*%
%FSLAX34Y34*%
%LPD*%
%AMOC8*
5,1,8,0,0,1.08239X$1,22.5*%
G01*
%ADD10C,1.676400*%
%ADD11C,1.308000*%
%ADD12R,2.540000X1.270000*%
%ADD13R,1.270000X2.540000*%
%ADD14R,1.270000X1.270000*%
%ADD15C,1.108000*%
%ADD16R,1.500000X0.900000*%
%ADD17C,1.320800*%
%ADD18R,1.803000X1.600000*%
%ADD19C,0.304800*%
%ADD20C,3.000000*%
%ADD21C,0.756400*%
%ADD22C,0.609600*%
%ADD23C,0.508000*%

G36*
X272065Y1541D02*
X272065Y1541D01*
X272162Y1550D01*
X272185Y1560D01*
X272209Y1564D01*
X272296Y1611D01*
X272384Y1651D01*
X272402Y1668D01*
X272424Y1679D01*
X272491Y1751D01*
X272563Y1818D01*
X272574Y1839D01*
X272591Y1857D01*
X272631Y1946D01*
X272678Y2033D01*
X272682Y2057D01*
X272692Y2080D01*
X272702Y2177D01*
X272718Y2273D01*
X272714Y2298D01*
X272716Y2323D01*
X272694Y2418D01*
X272678Y2514D01*
X272666Y2536D01*
X272661Y2560D01*
X272609Y2644D01*
X272563Y2730D01*
X272545Y2746D01*
X272532Y2768D01*
X272456Y2830D01*
X272385Y2897D01*
X272356Y2912D01*
X272344Y2922D01*
X272320Y2931D01*
X272255Y2966D01*
X271468Y3292D01*
X269971Y4293D01*
X268697Y5567D01*
X267696Y7064D01*
X267007Y8729D01*
X266655Y10495D01*
X266655Y16501D01*
X275050Y16501D01*
X275074Y16505D01*
X275098Y16502D01*
X275194Y16525D01*
X275291Y16540D01*
X275312Y16552D01*
X275336Y16558D01*
X275419Y16609D01*
X275506Y16655D01*
X275523Y16673D01*
X275543Y16686D01*
X275606Y16762D01*
X275673Y16834D01*
X275683Y16856D01*
X275698Y16875D01*
X275733Y16966D01*
X275773Y17056D01*
X275776Y17080D01*
X275785Y17103D01*
X275799Y17250D01*
X275799Y18001D01*
X275801Y18001D01*
X275801Y17250D01*
X275804Y17229D01*
X275802Y17210D01*
X275803Y17208D01*
X275802Y17201D01*
X275825Y17106D01*
X275841Y17009D01*
X275852Y16988D01*
X275858Y16964D01*
X275909Y16880D01*
X275956Y16794D01*
X275973Y16777D01*
X275986Y16756D01*
X276062Y16694D01*
X276134Y16627D01*
X276156Y16617D01*
X276175Y16602D01*
X276267Y16567D01*
X276356Y16526D01*
X276380Y16524D01*
X276403Y16515D01*
X276550Y16501D01*
X284945Y16501D01*
X284945Y10495D01*
X284593Y8729D01*
X283904Y7064D01*
X283485Y6437D01*
X282903Y5567D01*
X281629Y4293D01*
X280132Y3292D01*
X279345Y2966D01*
X279262Y2915D01*
X279176Y2869D01*
X279159Y2850D01*
X279138Y2837D01*
X279076Y2762D01*
X279009Y2690D01*
X278999Y2668D01*
X278983Y2649D01*
X278948Y2557D01*
X278908Y2468D01*
X278906Y2444D01*
X278897Y2420D01*
X278894Y2323D01*
X278884Y2225D01*
X278890Y2201D01*
X278889Y2177D01*
X278917Y2083D01*
X278939Y1988D01*
X278952Y1967D01*
X278959Y1943D01*
X279016Y1864D01*
X279068Y1780D01*
X279087Y1765D01*
X279101Y1745D01*
X279181Y1688D01*
X279256Y1625D01*
X279280Y1617D01*
X279300Y1602D01*
X279393Y1574D01*
X279485Y1539D01*
X279517Y1536D01*
X279533Y1531D01*
X279558Y1532D01*
X279632Y1525D01*
X291726Y1525D01*
X291750Y1529D01*
X291775Y1526D01*
X291870Y1548D01*
X291967Y1564D01*
X291988Y1576D01*
X292012Y1582D01*
X292096Y1633D01*
X292182Y1679D01*
X292199Y1697D01*
X292220Y1710D01*
X292282Y1786D01*
X292349Y1857D01*
X292359Y1880D01*
X292375Y1899D01*
X292409Y1990D01*
X292450Y2080D01*
X292452Y2104D01*
X292461Y2127D01*
X292475Y2274D01*
X292475Y32632D01*
X293368Y33525D01*
X448226Y33525D01*
X448250Y33529D01*
X448275Y33526D01*
X448370Y33548D01*
X448467Y33564D01*
X448488Y33576D01*
X448512Y33582D01*
X448596Y33633D01*
X448682Y33679D01*
X448699Y33697D01*
X448720Y33710D01*
X448782Y33786D01*
X448849Y33857D01*
X448859Y33880D01*
X448875Y33899D01*
X448909Y33990D01*
X448950Y34080D01*
X448952Y34104D01*
X448961Y34127D01*
X448975Y34274D01*
X448975Y38783D01*
X448978Y38793D01*
X449179Y39542D01*
X449580Y41041D01*
X449781Y41790D01*
X450182Y43288D01*
X450182Y43289D01*
X450383Y44038D01*
X450785Y45536D01*
X450985Y46285D01*
X450985Y46286D01*
X451186Y47035D01*
X451387Y47784D01*
X451588Y48533D01*
X451788Y49282D01*
X451789Y49282D01*
X451789Y49283D01*
X451989Y50032D01*
X452391Y51530D01*
X452487Y51888D01*
X459270Y63637D01*
X468863Y73230D01*
X480612Y80013D01*
X493717Y83525D01*
X498226Y83525D01*
X498250Y83529D01*
X498275Y83526D01*
X498370Y83548D01*
X498467Y83564D01*
X498488Y83576D01*
X498512Y83582D01*
X498596Y83633D01*
X498682Y83679D01*
X498699Y83697D01*
X498720Y83710D01*
X498782Y83786D01*
X498849Y83857D01*
X498859Y83880D01*
X498875Y83899D01*
X498909Y83990D01*
X498950Y84080D01*
X498952Y84104D01*
X498961Y84127D01*
X498975Y84274D01*
X498975Y479726D01*
X498971Y479750D01*
X498974Y479775D01*
X498952Y479870D01*
X498936Y479967D01*
X498924Y479988D01*
X498918Y480012D01*
X498867Y480096D01*
X498821Y480182D01*
X498803Y480199D01*
X498790Y480220D01*
X498714Y480282D01*
X498643Y480349D01*
X498620Y480359D01*
X498601Y480375D01*
X498510Y480409D01*
X498420Y480450D01*
X498396Y480452D01*
X498373Y480461D01*
X498226Y480475D01*
X493717Y480475D01*
X480612Y483987D01*
X468863Y490770D01*
X459270Y500363D01*
X452487Y512112D01*
X448975Y525217D01*
X448975Y529726D01*
X448971Y529750D01*
X448974Y529775D01*
X448952Y529870D01*
X448936Y529967D01*
X448924Y529988D01*
X448918Y530012D01*
X448867Y530096D01*
X448821Y530182D01*
X448803Y530199D01*
X448790Y530220D01*
X448714Y530282D01*
X448643Y530349D01*
X448620Y530359D01*
X448601Y530375D01*
X448510Y530409D01*
X448420Y530450D01*
X448396Y530452D01*
X448373Y530461D01*
X448226Y530475D01*
X52774Y530475D01*
X52750Y530471D01*
X52725Y530474D01*
X52630Y530452D01*
X52533Y530436D01*
X52512Y530424D01*
X52488Y530418D01*
X52404Y530367D01*
X52318Y530321D01*
X52301Y530303D01*
X52280Y530290D01*
X52218Y530214D01*
X52151Y530143D01*
X52141Y530120D01*
X52125Y530101D01*
X52091Y530010D01*
X52050Y529920D01*
X52048Y529896D01*
X52039Y529873D01*
X52025Y529726D01*
X52025Y525217D01*
X51885Y524696D01*
X51885Y524695D01*
X51684Y523946D01*
X51283Y522448D01*
X51082Y521699D01*
X51082Y521698D01*
X50681Y520200D01*
X50680Y520200D01*
X50480Y519451D01*
X50279Y518702D01*
X50279Y518701D01*
X50078Y517952D01*
X49677Y516454D01*
X49476Y515705D01*
X49476Y515704D01*
X49075Y514206D01*
X49074Y514206D01*
X48874Y513457D01*
X48513Y512112D01*
X41730Y500363D01*
X32137Y490770D01*
X20388Y483987D01*
X7283Y480475D01*
X2774Y480475D01*
X2750Y480471D01*
X2725Y480474D01*
X2630Y480452D01*
X2533Y480436D01*
X2512Y480424D01*
X2488Y480418D01*
X2404Y480367D01*
X2318Y480321D01*
X2301Y480303D01*
X2280Y480290D01*
X2218Y480214D01*
X2151Y480143D01*
X2141Y480120D01*
X2125Y480101D01*
X2091Y480009D01*
X2050Y479920D01*
X2048Y479896D01*
X2039Y479873D01*
X2025Y479726D01*
X2025Y84274D01*
X2029Y84250D01*
X2026Y84225D01*
X2048Y84130D01*
X2064Y84033D01*
X2076Y84012D01*
X2082Y83988D01*
X2133Y83904D01*
X2179Y83818D01*
X2197Y83801D01*
X2210Y83780D01*
X2286Y83718D01*
X2357Y83651D01*
X2380Y83641D01*
X2399Y83625D01*
X2490Y83591D01*
X2580Y83550D01*
X2604Y83548D01*
X2627Y83539D01*
X2774Y83525D01*
X7283Y83525D01*
X20388Y80013D01*
X32137Y73230D01*
X41730Y63637D01*
X48513Y51888D01*
X52025Y38783D01*
X52025Y34274D01*
X52029Y34250D01*
X52026Y34225D01*
X52048Y34130D01*
X52064Y34033D01*
X52076Y34012D01*
X52082Y33988D01*
X52133Y33904D01*
X52179Y33818D01*
X52197Y33801D01*
X52210Y33780D01*
X52286Y33718D01*
X52357Y33651D01*
X52380Y33641D01*
X52399Y33625D01*
X52490Y33591D01*
X52580Y33550D01*
X52604Y33548D01*
X52627Y33539D01*
X52774Y33525D01*
X205948Y33525D01*
X205972Y33529D01*
X205997Y33526D01*
X206092Y33548D01*
X206189Y33564D01*
X206210Y33576D01*
X206234Y33582D01*
X206318Y33633D01*
X206404Y33679D01*
X206421Y33697D01*
X206442Y33710D01*
X206504Y33786D01*
X206571Y33857D01*
X206581Y33880D01*
X206597Y33899D01*
X206631Y33990D01*
X206672Y34080D01*
X206674Y34104D01*
X206683Y34127D01*
X206697Y34274D01*
X206697Y37608D01*
X206681Y37705D01*
X206672Y37802D01*
X206662Y37824D01*
X206658Y37849D01*
X206612Y37935D01*
X206571Y38024D01*
X206550Y38050D01*
X206543Y38064D01*
X206524Y38081D01*
X206478Y38138D01*
X164138Y80478D01*
X164059Y80535D01*
X163984Y80597D01*
X163960Y80605D01*
X163940Y80620D01*
X163847Y80648D01*
X163755Y80683D01*
X163722Y80686D01*
X163706Y80691D01*
X163682Y80690D01*
X163608Y80697D01*
X101859Y80697D01*
X95132Y83484D01*
X67138Y111478D01*
X67059Y111535D01*
X66984Y111597D01*
X66960Y111605D01*
X66940Y111620D01*
X66847Y111648D01*
X66755Y111683D01*
X66722Y111686D01*
X66706Y111691D01*
X66682Y111690D01*
X66608Y111697D01*
X34887Y111697D01*
X34814Y111685D01*
X34741Y111683D01*
X34671Y111662D01*
X34646Y111658D01*
X34631Y111650D01*
X34600Y111640D01*
X31841Y110497D01*
X24559Y110497D01*
X17832Y113284D01*
X12684Y118432D01*
X9897Y125159D01*
X9897Y132441D01*
X11040Y135200D01*
X11057Y135271D01*
X11083Y135340D01*
X11090Y135413D01*
X11096Y135438D01*
X11094Y135454D01*
X11097Y135487D01*
X11097Y437241D01*
X13884Y443968D01*
X19032Y449116D01*
X25759Y451903D01*
X33041Y451903D01*
X39768Y449116D01*
X44916Y443968D01*
X47703Y437241D01*
X47703Y149052D01*
X47707Y149028D01*
X47704Y149003D01*
X47726Y148908D01*
X47742Y148811D01*
X47754Y148790D01*
X47760Y148766D01*
X47811Y148682D01*
X47857Y148596D01*
X47875Y148579D01*
X47888Y148558D01*
X47964Y148496D01*
X48035Y148429D01*
X48058Y148419D01*
X48077Y148403D01*
X48168Y148369D01*
X48258Y148328D01*
X48282Y148326D01*
X48305Y148317D01*
X48452Y148303D01*
X78141Y148303D01*
X84868Y145516D01*
X112862Y117522D01*
X112941Y117465D01*
X113016Y117403D01*
X113040Y117395D01*
X113060Y117380D01*
X113153Y117352D01*
X113245Y117317D01*
X113278Y117314D01*
X113294Y117309D01*
X113318Y117310D01*
X113392Y117303D01*
X123257Y117303D01*
X123353Y117319D01*
X123450Y117328D01*
X123473Y117338D01*
X123497Y117342D01*
X123584Y117389D01*
X123673Y117429D01*
X123691Y117446D01*
X123712Y117457D01*
X123779Y117529D01*
X123851Y117596D01*
X123862Y117617D01*
X123879Y117635D01*
X123920Y117725D01*
X123966Y117811D01*
X123970Y117835D01*
X123980Y117858D01*
X123990Y117955D01*
X124006Y118051D01*
X124002Y118076D01*
X124004Y118101D01*
X123982Y118196D01*
X123966Y118292D01*
X123955Y118314D01*
X123949Y118338D01*
X123897Y118421D01*
X123851Y118508D01*
X123833Y118524D01*
X123820Y118546D01*
X123745Y118608D01*
X123673Y118675D01*
X123645Y118690D01*
X123632Y118700D01*
X123608Y118709D01*
X123543Y118744D01*
X123181Y118894D01*
X119894Y122181D01*
X118115Y126476D01*
X118115Y131124D01*
X119894Y135419D01*
X123181Y138706D01*
X127476Y140485D01*
X132124Y140485D01*
X136419Y138706D01*
X139706Y135419D01*
X141485Y131124D01*
X141485Y126476D01*
X139706Y122181D01*
X136419Y118894D01*
X136057Y118744D01*
X135974Y118693D01*
X135888Y118647D01*
X135871Y118628D01*
X135850Y118615D01*
X135788Y118540D01*
X135721Y118468D01*
X135710Y118446D01*
X135695Y118427D01*
X135660Y118335D01*
X135620Y118246D01*
X135617Y118222D01*
X135609Y118198D01*
X135605Y118101D01*
X135596Y118003D01*
X135601Y117979D01*
X135601Y117955D01*
X135629Y117861D01*
X135651Y117766D01*
X135664Y117745D01*
X135671Y117721D01*
X135728Y117642D01*
X135780Y117558D01*
X135799Y117543D01*
X135813Y117523D01*
X135893Y117466D01*
X135968Y117403D01*
X135991Y117395D01*
X136011Y117380D01*
X136105Y117352D01*
X136197Y117317D01*
X136229Y117314D01*
X136245Y117309D01*
X136270Y117310D01*
X136343Y117303D01*
X175141Y117303D01*
X181868Y114516D01*
X187122Y109262D01*
X225839Y70545D01*
X225950Y70465D01*
X226037Y70403D01*
X226038Y70403D01*
X226148Y70369D01*
X226271Y70332D01*
X226396Y70336D01*
X226514Y70339D01*
X226515Y70340D01*
X226516Y70340D01*
X226656Y70382D01*
X230553Y71997D01*
X230675Y71997D01*
X230748Y72009D01*
X230821Y72011D01*
X230867Y72028D01*
X230916Y72036D01*
X230981Y72071D01*
X231049Y72097D01*
X231088Y72128D01*
X231131Y72151D01*
X231181Y72205D01*
X231238Y72252D01*
X231264Y72294D01*
X231298Y72329D01*
X231328Y72396D01*
X231367Y72459D01*
X231378Y72507D01*
X231399Y72552D01*
X231406Y72625D01*
X231423Y72696D01*
X231418Y72745D01*
X231423Y72795D01*
X231406Y72866D01*
X231399Y72939D01*
X231379Y72984D01*
X231368Y73032D01*
X231329Y73095D01*
X231299Y73162D01*
X231252Y73218D01*
X231239Y73240D01*
X231226Y73250D01*
X231205Y73276D01*
X230494Y73987D01*
X229415Y76591D01*
X229415Y77948D01*
X229411Y77972D01*
X229414Y77997D01*
X229397Y78068D01*
X229390Y78142D01*
X229380Y78164D01*
X229376Y78189D01*
X229364Y78211D01*
X229358Y78234D01*
X229320Y78297D01*
X229289Y78364D01*
X229268Y78390D01*
X229261Y78404D01*
X229243Y78421D01*
X229230Y78442D01*
X229217Y78452D01*
X229196Y78478D01*
X167573Y140101D01*
X167573Y190498D01*
X167569Y190522D01*
X167572Y190547D01*
X167550Y190642D01*
X167534Y190739D01*
X167522Y190760D01*
X167516Y190784D01*
X167465Y190868D01*
X167419Y190954D01*
X167401Y190971D01*
X167388Y190992D01*
X167312Y191054D01*
X167241Y191121D01*
X167218Y191131D01*
X167199Y191147D01*
X167108Y191181D01*
X167018Y191222D01*
X166994Y191224D01*
X166971Y191233D01*
X166824Y191247D01*
X158332Y191247D01*
X156397Y193182D01*
X156397Y208618D01*
X158332Y210553D01*
X186468Y210553D01*
X186868Y210153D01*
X186928Y210110D01*
X186982Y210060D01*
X187026Y210039D01*
X187067Y210010D01*
X187137Y209989D01*
X187204Y209959D01*
X187253Y209954D01*
X187300Y209940D01*
X187373Y209942D01*
X187447Y209935D01*
X187495Y209946D01*
X187544Y209947D01*
X187613Y209973D01*
X187684Y209990D01*
X187726Y210016D01*
X187772Y210033D01*
X187829Y210080D01*
X187892Y210119D01*
X187923Y210157D01*
X187961Y210188D01*
X188000Y210250D01*
X188047Y210307D01*
X188064Y210353D01*
X188090Y210395D01*
X188107Y210467D01*
X188133Y210535D01*
X188140Y210608D01*
X188146Y210633D01*
X188144Y210649D01*
X188147Y210682D01*
X188147Y214968D01*
X190082Y216903D01*
X205518Y216903D01*
X207453Y214968D01*
X207453Y186832D01*
X205518Y184897D01*
X190082Y184897D01*
X188147Y186832D01*
X188147Y191118D01*
X188145Y191130D01*
X188146Y191134D01*
X188142Y191149D01*
X188135Y191190D01*
X188133Y191264D01*
X188116Y191310D01*
X188108Y191358D01*
X188073Y191423D01*
X188047Y191492D01*
X188016Y191530D01*
X187993Y191574D01*
X187939Y191624D01*
X187892Y191681D01*
X187850Y191707D01*
X187815Y191740D01*
X187748Y191771D01*
X187685Y191810D01*
X187637Y191821D01*
X187592Y191841D01*
X187519Y191849D01*
X187448Y191865D01*
X187399Y191860D01*
X187349Y191865D01*
X187278Y191849D01*
X187205Y191842D01*
X187160Y191821D01*
X187112Y191810D01*
X187049Y191771D01*
X186982Y191741D01*
X186926Y191695D01*
X186904Y191681D01*
X186894Y191668D01*
X186868Y191647D01*
X186468Y191247D01*
X177976Y191247D01*
X177952Y191243D01*
X177927Y191246D01*
X177832Y191224D01*
X177735Y191208D01*
X177714Y191196D01*
X177690Y191190D01*
X177606Y191139D01*
X177520Y191093D01*
X177503Y191075D01*
X177482Y191062D01*
X177420Y190986D01*
X177353Y190915D01*
X177343Y190892D01*
X177327Y190873D01*
X177293Y190782D01*
X177252Y190692D01*
X177250Y190668D01*
X177241Y190645D01*
X177227Y190498D01*
X177227Y144410D01*
X177243Y144313D01*
X177252Y144216D01*
X177262Y144194D01*
X177266Y144169D01*
X177312Y144083D01*
X177353Y143994D01*
X177374Y143968D01*
X177381Y143954D01*
X177400Y143937D01*
X177446Y143880D01*
X236022Y85304D01*
X236101Y85247D01*
X236176Y85185D01*
X236200Y85177D01*
X236220Y85162D01*
X236314Y85134D01*
X236405Y85099D01*
X236438Y85096D01*
X236454Y85091D01*
X236479Y85092D01*
X236552Y85085D01*
X237909Y85085D01*
X240513Y84006D01*
X240918Y83601D01*
X240978Y83558D01*
X241032Y83508D01*
X241076Y83488D01*
X241117Y83459D01*
X241187Y83438D01*
X241254Y83407D01*
X241303Y83402D01*
X241350Y83388D01*
X241423Y83390D01*
X241497Y83383D01*
X241545Y83394D01*
X241594Y83396D01*
X241663Y83422D01*
X241734Y83438D01*
X241776Y83465D01*
X241822Y83482D01*
X241879Y83528D01*
X241942Y83567D01*
X241973Y83605D01*
X242011Y83637D01*
X242050Y83699D01*
X242097Y83756D01*
X242114Y83802D01*
X242140Y83844D01*
X242157Y83915D01*
X242183Y83984D01*
X242190Y84057D01*
X242196Y84081D01*
X242194Y84098D01*
X242197Y84131D01*
X242197Y127641D01*
X244984Y134368D01*
X250132Y139516D01*
X255481Y141732D01*
X255564Y141783D01*
X255650Y141829D01*
X255667Y141848D01*
X255688Y141861D01*
X255750Y141936D01*
X255817Y142008D01*
X255827Y142030D01*
X255843Y142049D01*
X255878Y142141D01*
X255918Y142230D01*
X255920Y142254D01*
X255929Y142278D01*
X255932Y142375D01*
X255942Y142473D01*
X255936Y142497D01*
X255937Y142521D01*
X255909Y142615D01*
X255887Y142710D01*
X255874Y142731D01*
X255867Y142755D01*
X255810Y142834D01*
X255758Y142918D01*
X255739Y142933D01*
X255725Y142953D01*
X255645Y143010D01*
X255570Y143073D01*
X255546Y143081D01*
X255526Y143096D01*
X255433Y143124D01*
X255341Y143159D01*
X255309Y143162D01*
X255293Y143167D01*
X255268Y143166D01*
X255194Y143173D01*
X244003Y143173D01*
X243907Y143157D01*
X243810Y143148D01*
X243787Y143138D01*
X243762Y143134D01*
X243676Y143088D01*
X243587Y143047D01*
X243562Y143026D01*
X243547Y143019D01*
X243531Y143001D01*
X240909Y141915D01*
X238091Y141915D01*
X235487Y142994D01*
X233494Y144987D01*
X232415Y147591D01*
X232415Y150409D01*
X233494Y153013D01*
X235487Y155006D01*
X238091Y156085D01*
X240909Y156085D01*
X243513Y155006D01*
X245473Y153046D01*
X245553Y152989D01*
X245628Y152927D01*
X245651Y152919D01*
X245671Y152904D01*
X245765Y152876D01*
X245856Y152841D01*
X245889Y152838D01*
X245905Y152833D01*
X245930Y152834D01*
X246003Y152827D01*
X270997Y152827D01*
X271093Y152843D01*
X271190Y152852D01*
X271213Y152862D01*
X271238Y152866D01*
X271324Y152912D01*
X271413Y152953D01*
X271438Y152974D01*
X271453Y152981D01*
X271470Y153000D01*
X271527Y153046D01*
X272487Y154006D01*
X275091Y155085D01*
X277909Y155085D01*
X280513Y154006D01*
X281918Y152601D01*
X281978Y152558D01*
X282032Y152508D01*
X282076Y152488D01*
X282117Y152459D01*
X282187Y152438D01*
X282254Y152407D01*
X282303Y152402D01*
X282350Y152388D01*
X282423Y152390D01*
X282497Y152383D01*
X282545Y152394D01*
X282594Y152396D01*
X282663Y152422D01*
X282734Y152438D01*
X282776Y152464D01*
X282822Y152482D01*
X282879Y152528D01*
X282942Y152567D01*
X282973Y152605D01*
X283011Y152637D01*
X283050Y152699D01*
X283097Y152756D01*
X283114Y152802D01*
X283140Y152844D01*
X283157Y152915D01*
X283183Y152984D01*
X283190Y153057D01*
X283196Y153081D01*
X283194Y153098D01*
X283197Y153131D01*
X283197Y162303D01*
X283181Y162400D01*
X283172Y162497D01*
X283162Y162519D01*
X283158Y162544D01*
X283111Y162630D01*
X283071Y162719D01*
X283054Y162737D01*
X283043Y162759D01*
X282971Y162826D01*
X282904Y162897D01*
X282883Y162909D01*
X282865Y162926D01*
X282775Y162966D01*
X282689Y163012D01*
X282665Y163016D01*
X282642Y163026D01*
X282545Y163036D01*
X282449Y163052D01*
X282424Y163048D01*
X282399Y163051D01*
X282304Y163028D01*
X282208Y163013D01*
X282186Y163001D01*
X282162Y162995D01*
X282079Y162944D01*
X281992Y162898D01*
X281976Y162880D01*
X281954Y162867D01*
X281892Y162791D01*
X281825Y162720D01*
X281810Y162691D01*
X281800Y162678D01*
X281791Y162655D01*
X281756Y162590D01*
X281506Y161987D01*
X279513Y159994D01*
X276909Y158915D01*
X274091Y158915D01*
X271487Y159994D01*
X269494Y161987D01*
X268415Y164591D01*
X268415Y167409D01*
X269494Y170013D01*
X270454Y170973D01*
X270511Y171053D01*
X270573Y171128D01*
X270581Y171151D01*
X270596Y171171D01*
X270624Y171265D01*
X270659Y171356D01*
X270662Y171389D01*
X270667Y171405D01*
X270666Y171430D01*
X270673Y171503D01*
X270673Y203690D01*
X270657Y203787D01*
X270648Y203884D01*
X270638Y203906D01*
X270634Y203931D01*
X270588Y204017D01*
X270547Y204106D01*
X270526Y204132D01*
X270519Y204146D01*
X270500Y204163D01*
X270454Y204220D01*
X253420Y221254D01*
X253341Y221311D01*
X253266Y221373D01*
X253242Y221381D01*
X253222Y221396D01*
X253128Y221424D01*
X253037Y221459D01*
X253004Y221462D01*
X252988Y221467D01*
X252963Y221466D01*
X252890Y221473D01*
X189152Y221473D01*
X189128Y221469D01*
X189103Y221472D01*
X189008Y221450D01*
X188911Y221434D01*
X188890Y221422D01*
X188866Y221416D01*
X188782Y221365D01*
X188696Y221319D01*
X188679Y221301D01*
X188658Y221288D01*
X188596Y221212D01*
X188529Y221141D01*
X188519Y221118D01*
X188503Y221099D01*
X188469Y221008D01*
X188428Y220918D01*
X188426Y220894D01*
X188417Y220871D01*
X188403Y220724D01*
X188403Y218582D01*
X186468Y216647D01*
X158332Y216647D01*
X156397Y218582D01*
X156397Y234018D01*
X158332Y235953D01*
X186468Y235953D01*
X188403Y234018D01*
X188403Y231876D01*
X188407Y231852D01*
X188404Y231827D01*
X188426Y231732D01*
X188442Y231635D01*
X188454Y231614D01*
X188460Y231590D01*
X188511Y231506D01*
X188557Y231420D01*
X188575Y231403D01*
X188588Y231382D01*
X188664Y231320D01*
X188735Y231253D01*
X188758Y231243D01*
X188777Y231227D01*
X188868Y231193D01*
X188958Y231152D01*
X188982Y231150D01*
X189005Y231141D01*
X189152Y231127D01*
X257199Y231127D01*
X280327Y207999D01*
X280327Y171503D01*
X280343Y171407D01*
X280352Y171310D01*
X280362Y171287D01*
X280366Y171262D01*
X280412Y171176D01*
X280453Y171087D01*
X280474Y171062D01*
X280481Y171047D01*
X280500Y171030D01*
X280546Y170973D01*
X281506Y170013D01*
X281756Y169410D01*
X281807Y169328D01*
X281853Y169241D01*
X281872Y169224D01*
X281885Y169203D01*
X281960Y169141D01*
X282032Y169074D01*
X282054Y169064D01*
X282073Y169048D01*
X282165Y169014D01*
X282254Y168974D01*
X282278Y168971D01*
X282302Y168962D01*
X282399Y168959D01*
X282497Y168949D01*
X282521Y168955D01*
X282545Y168954D01*
X282639Y168983D01*
X282734Y169005D01*
X282755Y169018D01*
X282779Y169025D01*
X282858Y169082D01*
X282942Y169133D01*
X282957Y169153D01*
X282977Y169167D01*
X283034Y169246D01*
X283097Y169322D01*
X283105Y169345D01*
X283120Y169365D01*
X283148Y169459D01*
X283183Y169550D01*
X283186Y169583D01*
X283191Y169599D01*
X283190Y169624D01*
X283197Y169697D01*
X283197Y178641D01*
X285984Y185368D01*
X292132Y191516D01*
X298859Y194303D01*
X308048Y194303D01*
X308072Y194307D01*
X308097Y194304D01*
X308192Y194326D01*
X308289Y194342D01*
X308310Y194354D01*
X308334Y194360D01*
X308418Y194411D01*
X308504Y194457D01*
X308521Y194475D01*
X308542Y194488D01*
X308604Y194564D01*
X308671Y194635D01*
X308681Y194658D01*
X308697Y194677D01*
X308731Y194768D01*
X308772Y194858D01*
X308774Y194882D01*
X308783Y194905D01*
X308797Y195052D01*
X308797Y208618D01*
X310732Y210553D01*
X333916Y210553D01*
X334013Y210569D01*
X334110Y210578D01*
X334132Y210588D01*
X334157Y210592D01*
X334243Y210638D01*
X334332Y210679D01*
X334358Y210700D01*
X334372Y210707D01*
X334383Y210719D01*
X334385Y210720D01*
X334393Y210728D01*
X334446Y210772D01*
X337196Y213522D01*
X337253Y213601D01*
X337315Y213676D01*
X337323Y213700D01*
X337338Y213720D01*
X337366Y213814D01*
X337401Y213905D01*
X337404Y213938D01*
X337409Y213954D01*
X337408Y213979D01*
X337415Y214052D01*
X337415Y215409D01*
X337499Y215611D01*
X337510Y215659D01*
X337530Y215704D01*
X337538Y215777D01*
X337554Y215849D01*
X337550Y215898D01*
X337554Y215947D01*
X337538Y216018D01*
X337531Y216092D01*
X337510Y216136D01*
X337499Y216184D01*
X337460Y216247D01*
X337430Y216314D01*
X337396Y216350D01*
X337370Y216392D01*
X337313Y216438D01*
X337263Y216492D01*
X337220Y216515D01*
X337182Y216547D01*
X337113Y216573D01*
X337048Y216607D01*
X337000Y216615D01*
X336954Y216633D01*
X336808Y216647D01*
X336807Y216647D01*
X310732Y216647D01*
X308797Y218582D01*
X308797Y234018D01*
X310732Y235953D01*
X338868Y235953D01*
X340803Y234018D01*
X340803Y221258D01*
X340811Y221210D01*
X340809Y221161D01*
X340830Y221090D01*
X340842Y221018D01*
X340866Y220974D01*
X340880Y220927D01*
X340923Y220867D01*
X340957Y220802D01*
X340993Y220769D01*
X341022Y220729D01*
X341082Y220686D01*
X341135Y220636D01*
X341180Y220615D01*
X341220Y220587D01*
X341291Y220565D01*
X341358Y220535D01*
X341407Y220530D01*
X341453Y220516D01*
X341527Y220518D01*
X341601Y220511D01*
X341648Y220522D01*
X341697Y220523D01*
X341837Y220566D01*
X341838Y220566D01*
X341839Y220566D01*
X343091Y221085D01*
X345909Y221085D01*
X348513Y220006D01*
X350506Y218013D01*
X351585Y215409D01*
X351585Y212591D01*
X350506Y209987D01*
X348513Y207994D01*
X345909Y206915D01*
X344552Y206915D01*
X344455Y206899D01*
X344358Y206890D01*
X344336Y206880D01*
X344311Y206876D01*
X344225Y206830D01*
X344136Y206789D01*
X344110Y206768D01*
X344096Y206761D01*
X344079Y206742D01*
X344022Y206696D01*
X341022Y203696D01*
X340965Y203617D01*
X340903Y203542D01*
X340895Y203518D01*
X340880Y203498D01*
X340852Y203404D01*
X340817Y203313D01*
X340814Y203280D01*
X340809Y203264D01*
X340810Y203239D01*
X340803Y203166D01*
X340803Y195052D01*
X340807Y195028D01*
X340804Y195003D01*
X340826Y194908D01*
X340842Y194811D01*
X340854Y194790D01*
X340860Y194766D01*
X340911Y194682D01*
X340957Y194596D01*
X340975Y194579D01*
X340988Y194558D01*
X341064Y194496D01*
X341135Y194429D01*
X341158Y194419D01*
X341177Y194403D01*
X341268Y194369D01*
X341358Y194328D01*
X341382Y194326D01*
X341405Y194317D01*
X341552Y194303D01*
X450548Y194303D01*
X450572Y194307D01*
X450597Y194304D01*
X450692Y194326D01*
X450789Y194342D01*
X450810Y194354D01*
X450834Y194360D01*
X450918Y194411D01*
X451004Y194457D01*
X451021Y194475D01*
X451042Y194488D01*
X451104Y194564D01*
X451171Y194635D01*
X451181Y194658D01*
X451197Y194677D01*
X451231Y194768D01*
X451272Y194858D01*
X451274Y194882D01*
X451283Y194905D01*
X451297Y195052D01*
X451297Y262204D01*
X451293Y262228D01*
X451296Y262253D01*
X451274Y262348D01*
X451258Y262445D01*
X451246Y262466D01*
X451240Y262490D01*
X451189Y262574D01*
X451143Y262660D01*
X451125Y262677D01*
X451112Y262698D01*
X451036Y262760D01*
X450965Y262827D01*
X450942Y262837D01*
X450923Y262853D01*
X450832Y262887D01*
X450742Y262928D01*
X450718Y262930D01*
X450695Y262939D01*
X450548Y262953D01*
X402567Y262953D01*
X402543Y262949D01*
X402518Y262952D01*
X402423Y262930D01*
X402326Y262914D01*
X402305Y262902D01*
X402281Y262896D01*
X402197Y262845D01*
X402111Y262799D01*
X402094Y262781D01*
X402073Y262768D01*
X402011Y262692D01*
X401944Y262621D01*
X401934Y262598D01*
X401918Y262579D01*
X401884Y262488D01*
X401843Y262398D01*
X401841Y262374D01*
X401832Y262351D01*
X401818Y262204D01*
X401818Y258412D01*
X399883Y256477D01*
X379117Y256477D01*
X377182Y258412D01*
X377182Y277148D01*
X379117Y279083D01*
X399883Y279083D01*
X401818Y277148D01*
X401818Y273356D01*
X401822Y273332D01*
X401819Y273307D01*
X401841Y273212D01*
X401857Y273115D01*
X401869Y273094D01*
X401875Y273070D01*
X401926Y272986D01*
X401972Y272900D01*
X401990Y272883D01*
X402003Y272862D01*
X402079Y272800D01*
X402150Y272733D01*
X402173Y272723D01*
X402192Y272707D01*
X402283Y272673D01*
X402373Y272632D01*
X402397Y272630D01*
X402420Y272621D01*
X402567Y272607D01*
X450548Y272607D01*
X450572Y272611D01*
X450597Y272608D01*
X450692Y272630D01*
X450789Y272646D01*
X450810Y272658D01*
X450834Y272664D01*
X450918Y272715D01*
X451004Y272761D01*
X451021Y272779D01*
X451042Y272792D01*
X451104Y272868D01*
X451171Y272939D01*
X451181Y272962D01*
X451197Y272981D01*
X451231Y273072D01*
X451272Y273162D01*
X451274Y273186D01*
X451283Y273209D01*
X451297Y273356D01*
X451297Y438041D01*
X454084Y444768D01*
X459232Y449916D01*
X465959Y452703D01*
X473241Y452703D01*
X479968Y449916D01*
X485116Y444768D01*
X487903Y438041D01*
X487903Y135604D01*
X487904Y135593D01*
X487904Y135592D01*
X487906Y135586D01*
X487915Y135532D01*
X487917Y135459D01*
X487938Y135388D01*
X487942Y135363D01*
X487950Y135348D01*
X487960Y135317D01*
X488903Y133041D01*
X488903Y125759D01*
X486116Y119032D01*
X480968Y113884D01*
X474241Y111097D01*
X466959Y111097D01*
X460232Y113884D01*
X454084Y120032D01*
X451297Y126759D01*
X451297Y156948D01*
X451293Y156972D01*
X451296Y156997D01*
X451274Y157092D01*
X451258Y157189D01*
X451246Y157210D01*
X451240Y157234D01*
X451189Y157318D01*
X451143Y157404D01*
X451125Y157421D01*
X451112Y157442D01*
X451036Y157504D01*
X450965Y157571D01*
X450942Y157581D01*
X450923Y157597D01*
X450832Y157631D01*
X450742Y157672D01*
X450718Y157674D01*
X450695Y157683D01*
X450548Y157697D01*
X387344Y157697D01*
X387296Y157689D01*
X387247Y157691D01*
X387176Y157670D01*
X387103Y157658D01*
X387060Y157634D01*
X387013Y157620D01*
X386953Y157577D01*
X386888Y157543D01*
X386855Y157507D01*
X386815Y157478D01*
X386772Y157418D01*
X386721Y157365D01*
X386701Y157320D01*
X386672Y157280D01*
X386651Y157209D01*
X386620Y157142D01*
X386616Y157093D01*
X386601Y157047D01*
X386604Y156973D01*
X386596Y156899D01*
X386608Y156852D01*
X386609Y156803D01*
X386651Y156663D01*
X386652Y156662D01*
X386652Y156661D01*
X387585Y154409D01*
X387585Y151591D01*
X386506Y148987D01*
X384513Y146994D01*
X381909Y145915D01*
X379091Y145915D01*
X377456Y146592D01*
X377385Y146609D01*
X377317Y146635D01*
X377243Y146642D01*
X377219Y146648D01*
X377202Y146646D01*
X377170Y146649D01*
X347630Y146649D01*
X347534Y146633D01*
X347437Y146624D01*
X347414Y146614D01*
X347390Y146610D01*
X347304Y146564D01*
X347215Y146523D01*
X347189Y146502D01*
X347174Y146495D01*
X347161Y146481D01*
X347160Y146480D01*
X347154Y146473D01*
X347101Y146430D01*
X347086Y146415D01*
X347043Y146355D01*
X346993Y146302D01*
X346972Y146257D01*
X346943Y146216D01*
X346922Y146146D01*
X346892Y146080D01*
X346887Y146030D01*
X346873Y145983D01*
X346875Y145910D01*
X346868Y145837D01*
X346880Y145764D01*
X346880Y145739D01*
X346886Y145723D01*
X346892Y145691D01*
X347041Y145134D01*
X347041Y141799D01*
X337750Y141799D01*
X337726Y141795D01*
X337702Y141798D01*
X337606Y141775D01*
X337509Y141759D01*
X337488Y141748D01*
X337464Y141742D01*
X337381Y141691D01*
X337294Y141644D01*
X337277Y141627D01*
X337257Y141614D01*
X337194Y141538D01*
X337127Y141466D01*
X337117Y141444D01*
X337102Y141425D01*
X337067Y141334D01*
X337026Y141244D01*
X337024Y141220D01*
X337015Y141197D01*
X337001Y141050D01*
X337001Y139550D01*
X337005Y139526D01*
X337002Y139502D01*
X337025Y139406D01*
X337041Y139309D01*
X337052Y139288D01*
X337058Y139264D01*
X337109Y139180D01*
X337156Y139094D01*
X337173Y139077D01*
X337186Y139057D01*
X337262Y138994D01*
X337334Y138927D01*
X337356Y138917D01*
X337375Y138902D01*
X337466Y138867D01*
X337556Y138826D01*
X337580Y138824D01*
X337603Y138815D01*
X337750Y138801D01*
X347041Y138801D01*
X347041Y135466D01*
X346939Y135086D01*
X346939Y135085D01*
X346938Y135084D01*
X346936Y135059D01*
X346927Y135036D01*
X346924Y134938D01*
X346914Y134841D01*
X346920Y134817D01*
X346919Y134792D01*
X346948Y134699D01*
X346970Y134603D01*
X346983Y134582D01*
X346990Y134559D01*
X347047Y134479D01*
X347099Y134396D01*
X347118Y134380D01*
X347132Y134360D01*
X347211Y134303D01*
X347287Y134241D01*
X347310Y134232D01*
X347330Y134218D01*
X347424Y134189D01*
X347515Y134155D01*
X347539Y134154D01*
X347540Y134154D01*
X347564Y134147D01*
X347600Y134148D01*
X347662Y134142D01*
X347666Y134142D01*
X347706Y134149D01*
X347759Y134147D01*
X347783Y134154D01*
X347807Y134155D01*
X347885Y134178D01*
X347906Y134182D01*
X347919Y134189D01*
X347949Y134198D01*
X350091Y135085D01*
X352909Y135085D01*
X355513Y134006D01*
X356663Y132856D01*
X356703Y132828D01*
X356736Y132792D01*
X356784Y132767D01*
X356811Y132744D01*
X356829Y132737D01*
X356861Y132714D01*
X356908Y132700D01*
X356951Y132677D01*
X357019Y132666D01*
X357039Y132658D01*
X357050Y132657D01*
X357095Y132643D01*
X357144Y132645D01*
X357192Y132637D01*
X357265Y132649D01*
X357339Y132651D01*
X357385Y132669D01*
X357433Y132677D01*
X357498Y132711D01*
X357567Y132737D01*
X357605Y132768D01*
X357648Y132791D01*
X357699Y132845D01*
X357756Y132892D01*
X357782Y132933D01*
X357815Y132969D01*
X357884Y133098D01*
X357885Y133099D01*
X359094Y136019D01*
X362381Y139306D01*
X366676Y141085D01*
X371324Y141085D01*
X375619Y139306D01*
X378906Y136019D01*
X380685Y131724D01*
X380685Y127076D01*
X378906Y122781D01*
X377230Y121106D01*
X377188Y121046D01*
X377137Y120992D01*
X377117Y120948D01*
X377088Y120907D01*
X377067Y120837D01*
X377037Y120770D01*
X377032Y120721D01*
X377017Y120674D01*
X377020Y120601D01*
X377013Y120527D01*
X377024Y120479D01*
X377025Y120430D01*
X377051Y120361D01*
X377068Y120290D01*
X377094Y120248D01*
X377111Y120202D01*
X377158Y120145D01*
X377197Y120082D01*
X377235Y120051D01*
X377266Y120013D01*
X377328Y119974D01*
X377385Y119927D01*
X377431Y119910D01*
X377473Y119884D01*
X377545Y119867D01*
X377613Y119841D01*
X377686Y119834D01*
X377711Y119828D01*
X377727Y119830D01*
X377760Y119827D01*
X379997Y119827D01*
X380093Y119843D01*
X380190Y119852D01*
X380213Y119862D01*
X380238Y119866D01*
X380324Y119912D01*
X380413Y119953D01*
X380438Y119974D01*
X380453Y119981D01*
X380470Y120000D01*
X380527Y120046D01*
X381487Y121006D01*
X384091Y122085D01*
X386909Y122085D01*
X389513Y121006D01*
X391506Y119013D01*
X392585Y116409D01*
X392585Y113591D01*
X391506Y110987D01*
X389513Y108994D01*
X386909Y107915D01*
X384091Y107915D01*
X381487Y108994D01*
X380527Y109954D01*
X380447Y110011D01*
X380372Y110073D01*
X380349Y110081D01*
X380329Y110096D01*
X380235Y110124D01*
X380144Y110159D01*
X380111Y110162D01*
X380095Y110167D01*
X380070Y110166D01*
X379997Y110173D01*
X348552Y110173D01*
X348528Y110169D01*
X348503Y110172D01*
X348408Y110150D01*
X348311Y110134D01*
X348290Y110122D01*
X348266Y110116D01*
X348182Y110065D01*
X348096Y110019D01*
X348079Y110001D01*
X348058Y109988D01*
X347996Y109912D01*
X347929Y109841D01*
X347919Y109818D01*
X347903Y109799D01*
X347869Y109708D01*
X347828Y109618D01*
X347826Y109594D01*
X347817Y109571D01*
X347803Y109424D01*
X347803Y109021D01*
X347766Y108961D01*
X347708Y108882D01*
X347701Y108858D01*
X347688Y108837D01*
X347666Y108742D01*
X347638Y108648D01*
X347638Y108624D01*
X347633Y108600D01*
X347642Y108502D01*
X347645Y108404D01*
X347654Y108381D01*
X347656Y108357D01*
X347697Y108268D01*
X347731Y108176D01*
X347747Y108157D01*
X347757Y108134D01*
X347803Y108079D01*
X347803Y96321D01*
X347766Y96261D01*
X347708Y96182D01*
X347701Y96158D01*
X347688Y96137D01*
X347666Y96042D01*
X347638Y95948D01*
X347638Y95924D01*
X347633Y95900D01*
X347642Y95802D01*
X347645Y95704D01*
X347654Y95681D01*
X347656Y95657D01*
X347697Y95568D01*
X347731Y95476D01*
X347747Y95457D01*
X347757Y95434D01*
X347803Y95379D01*
X347803Y83621D01*
X347766Y83561D01*
X347708Y83482D01*
X347701Y83458D01*
X347688Y83437D01*
X347666Y83342D01*
X347638Y83248D01*
X347638Y83224D01*
X347633Y83200D01*
X347642Y83102D01*
X347645Y83004D01*
X347654Y82981D01*
X347656Y82957D01*
X347697Y82868D01*
X347731Y82776D01*
X347747Y82757D01*
X347757Y82734D01*
X347803Y82679D01*
X347803Y70921D01*
X347791Y70901D01*
X347763Y70872D01*
X347746Y70833D01*
X347708Y70782D01*
X347701Y70758D01*
X347688Y70737D01*
X347674Y70675D01*
X347662Y70650D01*
X347660Y70620D01*
X347638Y70548D01*
X347638Y70524D01*
X347633Y70500D01*
X347640Y70424D01*
X347638Y70407D01*
X347643Y70389D01*
X347645Y70304D01*
X347654Y70281D01*
X347656Y70257D01*
X347691Y70180D01*
X347694Y70170D01*
X347700Y70160D01*
X347731Y70076D01*
X347747Y70057D01*
X347757Y70034D01*
X347803Y69979D01*
X347803Y58232D01*
X345868Y56297D01*
X328132Y56297D01*
X326197Y58232D01*
X326197Y69979D01*
X326231Y70033D01*
X326237Y70039D01*
X326240Y70047D01*
X326292Y70119D01*
X326299Y70142D01*
X326312Y70163D01*
X326332Y70249D01*
X326338Y70261D01*
X326339Y70274D01*
X326362Y70352D01*
X326362Y70377D01*
X326367Y70400D01*
X326359Y70482D01*
X326362Y70504D01*
X326357Y70525D01*
X326355Y70596D01*
X326346Y70619D01*
X326344Y70643D01*
X326314Y70708D01*
X326306Y70742D01*
X326289Y70769D01*
X326269Y70824D01*
X326253Y70843D01*
X326243Y70866D01*
X326197Y70921D01*
X326197Y71224D01*
X326194Y71241D01*
X326196Y71254D01*
X326194Y71259D01*
X326196Y71273D01*
X326174Y71368D01*
X326158Y71465D01*
X326146Y71486D01*
X326140Y71510D01*
X326089Y71594D01*
X326043Y71680D01*
X326025Y71697D01*
X326012Y71718D01*
X325936Y71780D01*
X325865Y71847D01*
X325842Y71857D01*
X325823Y71873D01*
X325732Y71907D01*
X325642Y71948D01*
X325618Y71950D01*
X325595Y71959D01*
X325448Y71973D01*
X311162Y71973D01*
X311141Y71970D01*
X311038Y71963D01*
X309521Y71710D01*
X309349Y71834D01*
X309325Y71845D01*
X309315Y71853D01*
X309309Y71856D01*
X309288Y71873D01*
X309207Y71903D01*
X309130Y71941D01*
X309094Y71946D01*
X309060Y71959D01*
X308913Y71973D01*
X308701Y71973D01*
X307613Y73061D01*
X307597Y73073D01*
X307519Y73141D01*
X306268Y74034D01*
X306233Y74244D01*
X306221Y74278D01*
X306218Y74314D01*
X306182Y74393D01*
X306154Y74475D01*
X306132Y74503D01*
X306117Y74536D01*
X306023Y74651D01*
X305873Y74801D01*
X305873Y75490D01*
X305857Y75587D01*
X305848Y75684D01*
X305838Y75706D01*
X305834Y75731D01*
X305788Y75817D01*
X305747Y75906D01*
X305726Y75932D01*
X305719Y75946D01*
X305700Y75963D01*
X305673Y75996D01*
X305673Y77538D01*
X305670Y77559D01*
X305663Y77662D01*
X305410Y79179D01*
X305534Y79351D01*
X305550Y79384D01*
X305573Y79412D01*
X305603Y79493D01*
X305641Y79570D01*
X305646Y79606D01*
X305659Y79640D01*
X305673Y79787D01*
X305673Y83497D01*
X305657Y83593D01*
X305648Y83690D01*
X305638Y83713D01*
X305634Y83738D01*
X305588Y83824D01*
X305547Y83913D01*
X305526Y83938D01*
X305519Y83953D01*
X305500Y83970D01*
X305454Y84027D01*
X304494Y84987D01*
X303415Y87591D01*
X303415Y89280D01*
X303403Y89353D01*
X303401Y89426D01*
X303384Y89472D01*
X303376Y89521D01*
X303341Y89586D01*
X303315Y89655D01*
X303284Y89693D01*
X303261Y89736D01*
X303207Y89787D01*
X303160Y89843D01*
X303119Y89869D01*
X303083Y89903D01*
X303016Y89934D01*
X302953Y89972D01*
X302905Y89984D01*
X302860Y90004D01*
X302787Y90011D01*
X302716Y90028D01*
X302667Y90023D01*
X302617Y90028D01*
X302546Y90011D01*
X302473Y90004D01*
X302428Y89984D01*
X302380Y89973D01*
X302317Y89934D01*
X302250Y89904D01*
X302194Y89857D01*
X302172Y89844D01*
X302162Y89831D01*
X302136Y89810D01*
X292804Y80478D01*
X292747Y80399D01*
X292685Y80324D01*
X292677Y80300D01*
X292662Y80280D01*
X292634Y80186D01*
X292599Y80095D01*
X292596Y80062D01*
X292591Y80046D01*
X292592Y80021D01*
X292585Y79948D01*
X292585Y78591D01*
X291506Y75987D01*
X289513Y73994D01*
X286909Y72915D01*
X284091Y72915D01*
X281487Y73994D01*
X280082Y75399D01*
X280022Y75442D01*
X279968Y75492D01*
X279924Y75512D01*
X279883Y75541D01*
X279813Y75562D01*
X279746Y75593D01*
X279697Y75598D01*
X279650Y75612D01*
X279577Y75610D01*
X279503Y75617D01*
X279455Y75606D01*
X279406Y75604D01*
X279337Y75578D01*
X279266Y75562D01*
X279224Y75536D01*
X279178Y75518D01*
X279121Y75472D01*
X279058Y75433D01*
X279027Y75395D01*
X278989Y75363D01*
X278950Y75301D01*
X278903Y75244D01*
X278886Y75198D01*
X278860Y75156D01*
X278843Y75085D01*
X278817Y75016D01*
X278810Y74943D01*
X278804Y74919D01*
X278806Y74902D01*
X278803Y74869D01*
X278803Y49037D01*
X276016Y42310D01*
X270868Y37162D01*
X264141Y34375D01*
X244052Y34375D01*
X244028Y34371D01*
X244003Y34374D01*
X243908Y34352D01*
X243811Y34336D01*
X243790Y34324D01*
X243766Y34318D01*
X243682Y34267D01*
X243596Y34221D01*
X243579Y34203D01*
X243558Y34190D01*
X243496Y34114D01*
X243429Y34043D01*
X243419Y34020D01*
X243403Y34001D01*
X243369Y33910D01*
X243328Y33820D01*
X243326Y33796D01*
X243317Y33773D01*
X243303Y33626D01*
X243303Y14359D01*
X240516Y7632D01*
X235688Y2804D01*
X235645Y2744D01*
X235595Y2690D01*
X235574Y2646D01*
X235546Y2605D01*
X235524Y2535D01*
X235494Y2468D01*
X235489Y2419D01*
X235475Y2372D01*
X235477Y2299D01*
X235470Y2225D01*
X235481Y2177D01*
X235483Y2128D01*
X235508Y2059D01*
X235525Y1988D01*
X235551Y1946D01*
X235568Y1900D01*
X235615Y1843D01*
X235654Y1780D01*
X235692Y1749D01*
X235723Y1711D01*
X235786Y1672D01*
X235842Y1625D01*
X235888Y1608D01*
X235930Y1582D01*
X236002Y1565D01*
X236071Y1539D01*
X236144Y1532D01*
X236168Y1526D01*
X236184Y1528D01*
X236218Y1525D01*
X271968Y1525D01*
X272065Y1541D01*
G37*
%LPC*%
G36*
X379117Y284917D02*
X379117Y284917D01*
X377182Y286852D01*
X377182Y301401D01*
X377166Y301498D01*
X377157Y301595D01*
X377147Y301617D01*
X377143Y301642D01*
X377097Y301728D01*
X377056Y301817D01*
X377035Y301843D01*
X377028Y301857D01*
X377009Y301874D01*
X376963Y301931D01*
X368940Y309954D01*
X368861Y310011D01*
X368786Y310073D01*
X368762Y310081D01*
X368742Y310096D01*
X368648Y310124D01*
X368557Y310159D01*
X368524Y310162D01*
X368508Y310167D01*
X368483Y310166D01*
X368410Y310173D01*
X341552Y310173D01*
X341528Y310169D01*
X341503Y310172D01*
X341408Y310150D01*
X341311Y310134D01*
X341290Y310122D01*
X341266Y310116D01*
X341182Y310065D01*
X341096Y310019D01*
X341079Y310001D01*
X341058Y309988D01*
X340996Y309912D01*
X340929Y309841D01*
X340919Y309818D01*
X340903Y309799D01*
X340869Y309708D01*
X340828Y309618D01*
X340826Y309594D01*
X340817Y309571D01*
X340803Y309424D01*
X340803Y294782D01*
X338868Y292847D01*
X310732Y292847D01*
X308797Y294782D01*
X308797Y296924D01*
X308793Y296948D01*
X308796Y296973D01*
X308774Y297068D01*
X308758Y297165D01*
X308746Y297186D01*
X308740Y297210D01*
X308689Y297294D01*
X308643Y297380D01*
X308625Y297397D01*
X308612Y297418D01*
X308536Y297480D01*
X308465Y297547D01*
X308442Y297557D01*
X308423Y297573D01*
X308332Y297607D01*
X308242Y297648D01*
X308218Y297650D01*
X308195Y297659D01*
X308048Y297673D01*
X306503Y297673D01*
X306407Y297657D01*
X306310Y297648D01*
X306287Y297638D01*
X306262Y297634D01*
X306176Y297588D01*
X306087Y297547D01*
X306062Y297526D01*
X306047Y297519D01*
X306030Y297500D01*
X305973Y297454D01*
X305513Y296994D01*
X302909Y295915D01*
X300091Y295915D01*
X297487Y296994D01*
X295494Y298987D01*
X294415Y301591D01*
X294415Y304409D01*
X295494Y307013D01*
X297375Y308894D01*
X297418Y308954D01*
X297468Y309008D01*
X297488Y309052D01*
X297517Y309093D01*
X297538Y309163D01*
X297569Y309230D01*
X297574Y309279D01*
X297588Y309326D01*
X297586Y309399D01*
X297593Y309473D01*
X297582Y309521D01*
X297580Y309570D01*
X297554Y309639D01*
X297538Y309710D01*
X297512Y309752D01*
X297494Y309798D01*
X297448Y309855D01*
X297409Y309918D01*
X297371Y309949D01*
X297339Y309987D01*
X297277Y310026D01*
X297220Y310073D01*
X297174Y310090D01*
X297132Y310116D01*
X297061Y310133D01*
X296992Y310159D01*
X296919Y310166D01*
X296895Y310172D01*
X296878Y310170D01*
X296845Y310173D01*
X236501Y310173D01*
X216673Y330001D01*
X216673Y361690D01*
X216657Y361787D01*
X216648Y361884D01*
X216638Y361906D01*
X216634Y361931D01*
X216588Y362017D01*
X216547Y362106D01*
X216526Y362132D01*
X216519Y362146D01*
X216500Y362163D01*
X216454Y362220D01*
X208732Y369942D01*
X208672Y369985D01*
X208618Y370035D01*
X208593Y370047D01*
X208583Y370055D01*
X208565Y370062D01*
X208533Y370084D01*
X208463Y370106D01*
X208396Y370136D01*
X208359Y370140D01*
X208355Y370141D01*
X208342Y370142D01*
X208300Y370155D01*
X208235Y370153D01*
X208208Y370156D01*
X208202Y370156D01*
X208200Y370155D01*
X208153Y370160D01*
X208105Y370149D01*
X208056Y370147D01*
X207987Y370121D01*
X207970Y370118D01*
X207961Y370116D01*
X207959Y370115D01*
X207916Y370105D01*
X207874Y370079D01*
X207828Y370061D01*
X207771Y370015D01*
X207764Y370011D01*
X207746Y370001D01*
X207743Y369997D01*
X207708Y369976D01*
X207677Y369938D01*
X207639Y369907D01*
X207602Y369847D01*
X207579Y369823D01*
X207575Y369814D01*
X207553Y369788D01*
X207536Y369742D01*
X207510Y369700D01*
X207496Y369639D01*
X207478Y369601D01*
X207477Y369584D01*
X207467Y369559D01*
X207460Y369486D01*
X207454Y369462D01*
X207456Y369445D01*
X207453Y369412D01*
X207453Y358282D01*
X205518Y356347D01*
X203376Y356347D01*
X203352Y356343D01*
X203327Y356346D01*
X203232Y356324D01*
X203135Y356308D01*
X203114Y356296D01*
X203090Y356290D01*
X203006Y356239D01*
X202920Y356193D01*
X202903Y356175D01*
X202882Y356162D01*
X202820Y356086D01*
X202753Y356015D01*
X202743Y355992D01*
X202727Y355973D01*
X202693Y355882D01*
X202652Y355792D01*
X202650Y355768D01*
X202641Y355745D01*
X202627Y355598D01*
X202627Y333010D01*
X202643Y332913D01*
X202652Y332816D01*
X202662Y332794D01*
X202666Y332769D01*
X202712Y332683D01*
X202753Y332594D01*
X202774Y332568D01*
X202781Y332554D01*
X202800Y332537D01*
X202846Y332480D01*
X220022Y315304D01*
X220101Y315247D01*
X220176Y315185D01*
X220200Y315177D01*
X220220Y315162D01*
X220314Y315134D01*
X220405Y315099D01*
X220438Y315096D01*
X220454Y315091D01*
X220479Y315092D01*
X220552Y315085D01*
X221909Y315085D01*
X224513Y314006D01*
X226506Y312013D01*
X227585Y309409D01*
X227585Y306591D01*
X226506Y303987D01*
X224513Y301994D01*
X221909Y300915D01*
X219091Y300915D01*
X216487Y301994D01*
X214494Y303987D01*
X213415Y306591D01*
X213415Y307948D01*
X213399Y308045D01*
X213390Y308142D01*
X213380Y308164D01*
X213376Y308189D01*
X213330Y308275D01*
X213289Y308364D01*
X213268Y308390D01*
X213261Y308404D01*
X213242Y308421D01*
X213212Y308458D01*
X213210Y308462D01*
X213208Y308463D01*
X213196Y308478D01*
X192973Y328701D01*
X192973Y355598D01*
X192969Y355622D01*
X192972Y355647D01*
X192950Y355742D01*
X192934Y355839D01*
X192922Y355860D01*
X192916Y355884D01*
X192865Y355968D01*
X192819Y356054D01*
X192801Y356071D01*
X192788Y356092D01*
X192712Y356154D01*
X192641Y356221D01*
X192618Y356231D01*
X192599Y356247D01*
X192508Y356281D01*
X192418Y356322D01*
X192394Y356324D01*
X192371Y356333D01*
X192224Y356347D01*
X190082Y356347D01*
X189682Y356747D01*
X189622Y356790D01*
X189568Y356840D01*
X189524Y356861D01*
X189483Y356890D01*
X189413Y356911D01*
X189346Y356941D01*
X189297Y356946D01*
X189250Y356960D01*
X189177Y356958D01*
X189103Y356965D01*
X189055Y356954D01*
X189006Y356953D01*
X188937Y356927D01*
X188866Y356910D01*
X188824Y356884D01*
X188778Y356867D01*
X188721Y356820D01*
X188658Y356781D01*
X188627Y356743D01*
X188589Y356712D01*
X188550Y356650D01*
X188503Y356593D01*
X188486Y356547D01*
X188460Y356505D01*
X188443Y356433D01*
X188417Y356365D01*
X188410Y356292D01*
X188404Y356267D01*
X188406Y356251D01*
X188403Y356218D01*
X188403Y345582D01*
X186468Y343647D01*
X158332Y343647D01*
X156397Y345582D01*
X156397Y361262D01*
X156385Y361335D01*
X156383Y361408D01*
X156366Y361454D01*
X156358Y361503D01*
X156323Y361568D01*
X156297Y361637D01*
X156266Y361675D01*
X156243Y361718D01*
X156189Y361769D01*
X156142Y361825D01*
X156100Y361851D01*
X156065Y361885D01*
X155998Y361916D01*
X155935Y361954D01*
X155887Y361966D01*
X155842Y361986D01*
X155769Y361993D01*
X155698Y362010D01*
X155649Y362005D01*
X155599Y362010D01*
X155528Y361993D01*
X155455Y361986D01*
X155410Y361966D01*
X155362Y361955D01*
X155299Y361916D01*
X155232Y361886D01*
X155176Y361839D01*
X155154Y361826D01*
X155144Y361813D01*
X155118Y361792D01*
X111546Y318220D01*
X111500Y318155D01*
X111471Y318125D01*
X111465Y318111D01*
X111427Y318066D01*
X111419Y318042D01*
X111404Y318022D01*
X111376Y317928D01*
X111341Y317837D01*
X111338Y317804D01*
X111333Y317788D01*
X111334Y317763D01*
X111327Y317690D01*
X111327Y311272D01*
X111331Y311248D01*
X111328Y311223D01*
X111350Y311128D01*
X111366Y311031D01*
X111378Y311010D01*
X111384Y310986D01*
X111435Y310902D01*
X111481Y310816D01*
X111499Y310799D01*
X111512Y310778D01*
X111588Y310716D01*
X111659Y310649D01*
X111682Y310639D01*
X111701Y310623D01*
X111792Y310589D01*
X111882Y310548D01*
X111906Y310546D01*
X111929Y310537D01*
X112076Y310523D01*
X116883Y310523D01*
X118818Y308588D01*
X118818Y289852D01*
X116883Y287917D01*
X96117Y287917D01*
X94182Y289852D01*
X94182Y308588D01*
X96117Y310523D01*
X100924Y310523D01*
X100948Y310527D01*
X100973Y310524D01*
X101068Y310546D01*
X101165Y310562D01*
X101186Y310574D01*
X101210Y310580D01*
X101294Y310631D01*
X101380Y310677D01*
X101397Y310695D01*
X101418Y310708D01*
X101480Y310784D01*
X101547Y310855D01*
X101557Y310878D01*
X101573Y310897D01*
X101607Y310988D01*
X101648Y311078D01*
X101650Y311102D01*
X101659Y311125D01*
X101673Y311272D01*
X101673Y321999D01*
X156178Y376504D01*
X156235Y376583D01*
X156297Y376658D01*
X156305Y376682D01*
X156320Y376702D01*
X156348Y376796D01*
X156383Y376887D01*
X156386Y376920D01*
X156391Y376936D01*
X156390Y376961D01*
X156397Y377034D01*
X156397Y386069D01*
X156385Y386142D01*
X156383Y386215D01*
X156366Y386261D01*
X156358Y386310D01*
X156323Y386375D01*
X156297Y386443D01*
X156266Y386482D01*
X156243Y386525D01*
X156189Y386575D01*
X156142Y386632D01*
X156100Y386658D01*
X156065Y386692D01*
X155998Y386722D01*
X155935Y386761D01*
X155887Y386772D01*
X155842Y386793D01*
X155769Y386800D01*
X155698Y386817D01*
X155649Y386812D01*
X155599Y386817D01*
X155528Y386800D01*
X155455Y386793D01*
X155410Y386773D01*
X155362Y386762D01*
X155299Y386723D01*
X155232Y386693D01*
X155176Y386646D01*
X155154Y386633D01*
X155144Y386620D01*
X155118Y386599D01*
X154513Y385994D01*
X151909Y384915D01*
X149091Y384915D01*
X146487Y385994D01*
X144494Y387987D01*
X143415Y390591D01*
X143415Y393409D01*
X144494Y396013D01*
X146487Y398006D01*
X149091Y399085D01*
X150448Y399085D01*
X150545Y399101D01*
X150642Y399110D01*
X150664Y399120D01*
X150689Y399124D01*
X150775Y399170D01*
X150864Y399211D01*
X150890Y399232D01*
X150904Y399239D01*
X150921Y399258D01*
X150978Y399304D01*
X156178Y404504D01*
X156235Y404583D01*
X156297Y404658D01*
X156305Y404682D01*
X156320Y404702D01*
X156348Y404796D01*
X156383Y404887D01*
X156386Y404920D01*
X156391Y404936D01*
X156390Y404961D01*
X156397Y405034D01*
X156397Y411818D01*
X158332Y413753D01*
X186468Y413753D01*
X188403Y411818D01*
X188403Y409676D01*
X188407Y409652D01*
X188404Y409627D01*
X188426Y409532D01*
X188442Y409435D01*
X188454Y409414D01*
X188460Y409390D01*
X188511Y409306D01*
X188557Y409220D01*
X188575Y409203D01*
X188588Y409182D01*
X188664Y409120D01*
X188735Y409053D01*
X188758Y409043D01*
X188777Y409027D01*
X188868Y408993D01*
X188958Y408952D01*
X188982Y408950D01*
X189005Y408941D01*
X189152Y408927D01*
X292399Y408927D01*
X305280Y396046D01*
X305359Y395989D01*
X305434Y395927D01*
X305458Y395919D01*
X305478Y395904D01*
X305572Y395876D01*
X305663Y395841D01*
X305696Y395838D01*
X305712Y395833D01*
X305737Y395834D01*
X305810Y395827D01*
X309009Y395827D01*
X309154Y395851D01*
X309249Y395866D01*
X309364Y395927D01*
X309464Y395981D01*
X309465Y395981D01*
X309541Y396063D01*
X309631Y396159D01*
X309681Y396268D01*
X309732Y396381D01*
X309732Y396382D01*
X309747Y396526D01*
X309756Y396624D01*
X309756Y396625D01*
X309732Y396770D01*
X309559Y397416D01*
X309559Y402601D01*
X324050Y402601D01*
X324074Y402605D01*
X324098Y402602D01*
X324194Y402625D01*
X324291Y402641D01*
X324312Y402652D01*
X324336Y402658D01*
X324419Y402709D01*
X324506Y402756D01*
X324523Y402773D01*
X324543Y402786D01*
X324606Y402862D01*
X324673Y402934D01*
X324683Y402956D01*
X324698Y402975D01*
X324733Y403066D01*
X324774Y403156D01*
X324776Y403180D01*
X324785Y403203D01*
X324799Y403350D01*
X324799Y404101D01*
X324801Y404101D01*
X324801Y403350D01*
X324805Y403326D01*
X324802Y403302D01*
X324825Y403206D01*
X324841Y403109D01*
X324852Y403088D01*
X324858Y403064D01*
X324909Y402980D01*
X324956Y402894D01*
X324973Y402877D01*
X324986Y402857D01*
X325062Y402794D01*
X325134Y402727D01*
X325156Y402717D01*
X325175Y402702D01*
X325266Y402667D01*
X325356Y402626D01*
X325380Y402624D01*
X325403Y402615D01*
X325550Y402601D01*
X340041Y402601D01*
X340041Y397416D01*
X340016Y397323D01*
X339868Y396770D01*
X339857Y396657D01*
X339844Y396527D01*
X339869Y396419D01*
X339899Y396290D01*
X339899Y396289D01*
X339954Y396201D01*
X340028Y396082D01*
X340167Y395968D01*
X340216Y395927D01*
X340356Y395875D01*
X340444Y395841D01*
X340445Y395841D01*
X340591Y395827D01*
X361499Y395827D01*
X384022Y373304D01*
X384101Y373247D01*
X384176Y373185D01*
X384200Y373177D01*
X384220Y373162D01*
X384314Y373134D01*
X384405Y373099D01*
X384438Y373096D01*
X384454Y373091D01*
X384479Y373092D01*
X384552Y373085D01*
X385909Y373085D01*
X388513Y372006D01*
X390506Y370013D01*
X391585Y367409D01*
X391585Y364591D01*
X390506Y361987D01*
X388513Y359994D01*
X385909Y358915D01*
X383091Y358915D01*
X380487Y359994D01*
X378494Y361987D01*
X377415Y364591D01*
X377415Y365948D01*
X377399Y366045D01*
X377390Y366142D01*
X377380Y366164D01*
X377376Y366189D01*
X377330Y366275D01*
X377289Y366364D01*
X377268Y366390D01*
X377261Y366404D01*
X377242Y366421D01*
X377196Y366478D01*
X357720Y385954D01*
X357641Y386011D01*
X357566Y386073D01*
X357542Y386081D01*
X357522Y386096D01*
X357428Y386124D01*
X357337Y386159D01*
X357304Y386162D01*
X357288Y386167D01*
X357263Y386166D01*
X357190Y386173D01*
X341552Y386173D01*
X341528Y386169D01*
X341503Y386172D01*
X341408Y386150D01*
X341311Y386134D01*
X341290Y386122D01*
X341266Y386116D01*
X341182Y386065D01*
X341096Y386019D01*
X341079Y386001D01*
X341058Y385988D01*
X340996Y385912D01*
X340929Y385841D01*
X340919Y385818D01*
X340903Y385799D01*
X340869Y385708D01*
X340828Y385618D01*
X340826Y385594D01*
X340817Y385571D01*
X340803Y385424D01*
X340803Y370982D01*
X338868Y369047D01*
X310732Y369047D01*
X308797Y370982D01*
X308797Y373124D01*
X308793Y373148D01*
X308796Y373173D01*
X308774Y373268D01*
X308758Y373365D01*
X308746Y373386D01*
X308740Y373410D01*
X308689Y373494D01*
X308643Y373580D01*
X308625Y373597D01*
X308612Y373618D01*
X308536Y373680D01*
X308465Y373747D01*
X308442Y373757D01*
X308423Y373773D01*
X308332Y373807D01*
X308242Y373848D01*
X308218Y373850D01*
X308195Y373859D01*
X308048Y373873D01*
X286510Y373873D01*
X286413Y373857D01*
X286316Y373848D01*
X286294Y373838D01*
X286269Y373834D01*
X286183Y373788D01*
X286094Y373747D01*
X286068Y373726D01*
X286054Y373719D01*
X286037Y373700D01*
X285980Y373654D01*
X249804Y337478D01*
X249747Y337399D01*
X249685Y337324D01*
X249677Y337300D01*
X249662Y337280D01*
X249634Y337186D01*
X249599Y337095D01*
X249596Y337062D01*
X249591Y337046D01*
X249592Y337021D01*
X249585Y336948D01*
X249585Y335591D01*
X248506Y332987D01*
X246513Y330994D01*
X243909Y329915D01*
X241091Y329915D01*
X238487Y330994D01*
X236494Y332987D01*
X235415Y335591D01*
X235415Y338409D01*
X236494Y341013D01*
X238487Y343006D01*
X241091Y344085D01*
X242448Y344085D01*
X242545Y344101D01*
X242642Y344110D01*
X242664Y344120D01*
X242689Y344124D01*
X242775Y344170D01*
X242864Y344211D01*
X242890Y344232D01*
X242904Y344239D01*
X242921Y344258D01*
X242978Y344304D01*
X282201Y383527D01*
X308048Y383527D01*
X308072Y383531D01*
X308097Y383528D01*
X308192Y383550D01*
X308289Y383566D01*
X308310Y383578D01*
X308334Y383584D01*
X308418Y383635D01*
X308504Y383681D01*
X308521Y383699D01*
X308542Y383712D01*
X308604Y383788D01*
X308671Y383859D01*
X308681Y383882D01*
X308697Y383901D01*
X308731Y383992D01*
X308772Y384082D01*
X308774Y384106D01*
X308783Y384129D01*
X308797Y384276D01*
X308797Y385424D01*
X308793Y385448D01*
X308796Y385473D01*
X308774Y385568D01*
X308758Y385665D01*
X308746Y385686D01*
X308740Y385710D01*
X308689Y385794D01*
X308643Y385880D01*
X308625Y385897D01*
X308612Y385918D01*
X308536Y385980D01*
X308465Y386047D01*
X308442Y386057D01*
X308423Y386073D01*
X308332Y386107D01*
X308242Y386148D01*
X308218Y386150D01*
X308195Y386159D01*
X308048Y386173D01*
X301501Y386173D01*
X288620Y399054D01*
X288541Y399111D01*
X288466Y399173D01*
X288442Y399181D01*
X288422Y399196D01*
X288328Y399224D01*
X288237Y399259D01*
X288204Y399262D01*
X288188Y399267D01*
X288163Y399266D01*
X288090Y399273D01*
X217807Y399273D01*
X217710Y399257D01*
X217613Y399248D01*
X217590Y399238D01*
X217566Y399234D01*
X217479Y399187D01*
X217391Y399147D01*
X217372Y399130D01*
X217351Y399119D01*
X217284Y399047D01*
X217212Y398980D01*
X217201Y398959D01*
X217184Y398941D01*
X217143Y398852D01*
X217097Y398765D01*
X217093Y398741D01*
X217083Y398718D01*
X217073Y398621D01*
X217057Y398525D01*
X217061Y398500D01*
X217059Y398475D01*
X217081Y398380D01*
X217097Y398284D01*
X217108Y398262D01*
X217114Y398238D01*
X217166Y398155D01*
X217212Y398068D01*
X217230Y398052D01*
X217243Y398030D01*
X217318Y397968D01*
X217390Y397901D01*
X217419Y397886D01*
X217431Y397876D01*
X217455Y397867D01*
X217520Y397832D01*
X219513Y397006D01*
X221506Y395013D01*
X222585Y392409D01*
X222585Y389591D01*
X221506Y386987D01*
X219513Y384994D01*
X216909Y383915D01*
X214091Y383915D01*
X211487Y384994D01*
X210527Y385954D01*
X210447Y386011D01*
X210372Y386073D01*
X210349Y386081D01*
X210329Y386096D01*
X210235Y386124D01*
X210144Y386159D01*
X210111Y386162D01*
X210095Y386167D01*
X210070Y386166D01*
X209997Y386173D01*
X208202Y386173D01*
X208178Y386169D01*
X208153Y386172D01*
X208058Y386150D01*
X207961Y386134D01*
X207940Y386122D01*
X207916Y386116D01*
X207832Y386065D01*
X207746Y386019D01*
X207729Y386001D01*
X207708Y385988D01*
X207646Y385912D01*
X207579Y385841D01*
X207569Y385818D01*
X207553Y385799D01*
X207519Y385708D01*
X207478Y385618D01*
X207476Y385594D01*
X207467Y385571D01*
X207453Y385424D01*
X207453Y384576D01*
X207457Y384552D01*
X207454Y384527D01*
X207476Y384432D01*
X207492Y384335D01*
X207504Y384314D01*
X207510Y384290D01*
X207561Y384206D01*
X207607Y384120D01*
X207625Y384103D01*
X207638Y384082D01*
X207714Y384020D01*
X207785Y383953D01*
X207808Y383943D01*
X207827Y383927D01*
X207918Y383893D01*
X208008Y383852D01*
X208032Y383850D01*
X208055Y383841D01*
X208202Y383827D01*
X208499Y383827D01*
X226327Y365999D01*
X226327Y334310D01*
X226343Y334213D01*
X226352Y334116D01*
X226362Y334094D01*
X226366Y334069D01*
X226412Y333983D01*
X226453Y333894D01*
X226474Y333868D01*
X226481Y333854D01*
X226500Y333837D01*
X226546Y333780D01*
X240280Y320046D01*
X240359Y319989D01*
X240434Y319927D01*
X240458Y319919D01*
X240478Y319904D01*
X240572Y319876D01*
X240663Y319841D01*
X240696Y319838D01*
X240712Y319833D01*
X240737Y319834D01*
X240810Y319827D01*
X308048Y319827D01*
X308072Y319831D01*
X308097Y319828D01*
X308192Y319850D01*
X308289Y319866D01*
X308310Y319878D01*
X308334Y319884D01*
X308418Y319935D01*
X308504Y319981D01*
X308521Y319999D01*
X308542Y320012D01*
X308604Y320088D01*
X308671Y320159D01*
X308681Y320182D01*
X308697Y320201D01*
X308731Y320292D01*
X308772Y320382D01*
X308774Y320406D01*
X308783Y320429D01*
X308797Y320576D01*
X308797Y329566D01*
X308781Y329663D01*
X308772Y329760D01*
X308762Y329782D01*
X308758Y329807D01*
X308712Y329893D01*
X308671Y329982D01*
X308650Y330008D01*
X308643Y330022D01*
X308624Y330039D01*
X308578Y330096D01*
X299978Y338696D01*
X299899Y338753D01*
X299824Y338815D01*
X299800Y338823D01*
X299780Y338838D01*
X299686Y338866D01*
X299595Y338901D01*
X299562Y338904D01*
X299546Y338909D01*
X299521Y338908D01*
X299448Y338915D01*
X298091Y338915D01*
X295487Y339994D01*
X293494Y341987D01*
X292415Y344591D01*
X292415Y347409D01*
X293494Y350013D01*
X295487Y352006D01*
X298091Y353085D01*
X300909Y353085D01*
X303513Y352006D01*
X305506Y350013D01*
X306585Y347409D01*
X306585Y346052D01*
X306601Y345955D01*
X306610Y345858D01*
X306620Y345836D01*
X306624Y345811D01*
X306670Y345725D01*
X306711Y345636D01*
X306732Y345610D01*
X306739Y345596D01*
X306758Y345579D01*
X306804Y345522D01*
X307518Y344808D01*
X307578Y344765D01*
X307632Y344715D01*
X307676Y344694D01*
X307717Y344666D01*
X307787Y344644D01*
X307854Y344614D01*
X307903Y344609D01*
X307950Y344595D01*
X308023Y344597D01*
X308097Y344590D01*
X308145Y344601D01*
X308194Y344603D01*
X308263Y344629D01*
X308334Y344645D01*
X308376Y344671D01*
X308422Y344689D01*
X308479Y344735D01*
X308542Y344774D01*
X308573Y344812D01*
X308611Y344843D01*
X308650Y344906D01*
X308697Y344962D01*
X308714Y345008D01*
X308740Y345050D01*
X308757Y345122D01*
X308783Y345191D01*
X308790Y345264D01*
X308796Y345288D01*
X308794Y345305D01*
X308797Y345338D01*
X308797Y361018D01*
X310732Y362953D01*
X338868Y362953D01*
X340803Y361018D01*
X340803Y359131D01*
X340815Y359058D01*
X340817Y358985D01*
X340834Y358939D01*
X340842Y358890D01*
X340877Y358825D01*
X340903Y358757D01*
X340934Y358718D01*
X340957Y358675D01*
X341011Y358625D01*
X341058Y358568D01*
X341100Y358542D01*
X341135Y358508D01*
X341202Y358478D01*
X341265Y358439D01*
X341313Y358428D01*
X341358Y358407D01*
X341431Y358400D01*
X341502Y358383D01*
X341551Y358388D01*
X341601Y358383D01*
X341672Y358400D01*
X341745Y358407D01*
X341790Y358427D01*
X341838Y358438D01*
X341901Y358477D01*
X341968Y358507D01*
X342024Y358554D01*
X342046Y358567D01*
X342056Y358580D01*
X342082Y358601D01*
X342487Y359006D01*
X345091Y360085D01*
X347909Y360085D01*
X350513Y359006D01*
X352506Y357013D01*
X353585Y354409D01*
X353585Y351591D01*
X352506Y348987D01*
X350513Y346994D01*
X347909Y345915D01*
X345091Y345915D01*
X342487Y346994D01*
X342082Y347399D01*
X342022Y347442D01*
X341968Y347492D01*
X341924Y347512D01*
X341883Y347541D01*
X341813Y347562D01*
X341746Y347593D01*
X341697Y347598D01*
X341650Y347612D01*
X341577Y347610D01*
X341503Y347617D01*
X341455Y347606D01*
X341406Y347604D01*
X341337Y347578D01*
X341266Y347562D01*
X341224Y347535D01*
X341178Y347518D01*
X341121Y347472D01*
X341058Y347433D01*
X341027Y347395D01*
X340989Y347363D01*
X340950Y347301D01*
X340903Y347244D01*
X340886Y347198D01*
X340860Y347156D01*
X340843Y347085D01*
X340817Y347016D01*
X340810Y346943D01*
X340804Y346919D01*
X340806Y346902D01*
X340803Y346869D01*
X340803Y345582D01*
X338868Y343647D01*
X310488Y343647D01*
X310415Y343635D01*
X310342Y343633D01*
X310296Y343616D01*
X310247Y343608D01*
X310182Y343573D01*
X310113Y343547D01*
X310075Y343516D01*
X310032Y343493D01*
X309981Y343439D01*
X309925Y343392D01*
X309899Y343350D01*
X309865Y343315D01*
X309834Y343248D01*
X309796Y343185D01*
X309784Y343137D01*
X309764Y343092D01*
X309757Y343019D01*
X309740Y342948D01*
X309745Y342899D01*
X309740Y342849D01*
X309757Y342778D01*
X309764Y342705D01*
X309784Y342660D01*
X309795Y342612D01*
X309834Y342549D01*
X309864Y342482D01*
X309911Y342426D01*
X309924Y342404D01*
X309937Y342394D01*
X309958Y342368D01*
X314554Y337772D01*
X314633Y337715D01*
X314708Y337653D01*
X314732Y337645D01*
X314752Y337630D01*
X314846Y337602D01*
X314937Y337567D01*
X314970Y337564D01*
X314986Y337559D01*
X315011Y337560D01*
X315084Y337553D01*
X338868Y337553D01*
X340803Y335618D01*
X340803Y320576D01*
X340807Y320552D01*
X340804Y320527D01*
X340826Y320432D01*
X340842Y320335D01*
X340854Y320314D01*
X340860Y320290D01*
X340911Y320206D01*
X340957Y320120D01*
X340975Y320103D01*
X340988Y320082D01*
X341064Y320020D01*
X341135Y319953D01*
X341158Y319943D01*
X341177Y319927D01*
X341268Y319893D01*
X341358Y319852D01*
X341382Y319850D01*
X341405Y319841D01*
X341552Y319827D01*
X372719Y319827D01*
X384804Y307742D01*
X384883Y307685D01*
X384958Y307623D01*
X384982Y307615D01*
X385002Y307600D01*
X385096Y307572D01*
X385187Y307537D01*
X385220Y307534D01*
X385236Y307529D01*
X385261Y307530D01*
X385334Y307523D01*
X399883Y307523D01*
X401818Y305588D01*
X401818Y286852D01*
X399883Y284917D01*
X379117Y284917D01*
G37*
%LPD*%
%LPC*%
G36*
X127091Y390915D02*
X127091Y390915D01*
X124487Y391994D01*
X122494Y393987D01*
X121415Y396591D01*
X121415Y399409D01*
X122494Y402013D01*
X124487Y404006D01*
X127136Y405103D01*
X127205Y405110D01*
X127227Y405120D01*
X127252Y405124D01*
X127338Y405170D01*
X127427Y405211D01*
X127453Y405232D01*
X127467Y405239D01*
X127484Y405258D01*
X127541Y405304D01*
X143438Y421201D01*
X143495Y421280D01*
X143557Y421355D01*
X143565Y421379D01*
X143580Y421399D01*
X143608Y421492D01*
X143643Y421584D01*
X143646Y421617D01*
X143651Y421633D01*
X143650Y421657D01*
X143657Y421731D01*
X143657Y429857D01*
X143641Y429953D01*
X143632Y430051D01*
X143622Y430073D01*
X143618Y430098D01*
X143571Y430184D01*
X143531Y430273D01*
X143514Y430291D01*
X143503Y430313D01*
X143431Y430380D01*
X143364Y430451D01*
X143343Y430463D01*
X143325Y430480D01*
X143236Y430520D01*
X143149Y430566D01*
X143125Y430570D01*
X143102Y430581D01*
X143005Y430590D01*
X142909Y430606D01*
X142884Y430602D01*
X142859Y430605D01*
X142764Y430582D01*
X142668Y430567D01*
X142646Y430555D01*
X142622Y430549D01*
X142539Y430498D01*
X142452Y430452D01*
X142436Y430434D01*
X142414Y430421D01*
X142352Y430345D01*
X142285Y430274D01*
X142270Y430245D01*
X142260Y430232D01*
X142251Y430209D01*
X142216Y430144D01*
X140906Y426981D01*
X137619Y423694D01*
X133324Y421915D01*
X128676Y421915D01*
X124381Y423694D01*
X121094Y426981D01*
X119315Y431276D01*
X119315Y435924D01*
X121094Y440219D01*
X124381Y443506D01*
X128676Y445285D01*
X133324Y445285D01*
X137619Y443506D01*
X140906Y440219D01*
X142216Y437056D01*
X142267Y436973D01*
X142313Y436887D01*
X142332Y436870D01*
X142345Y436849D01*
X142420Y436787D01*
X142492Y436720D01*
X142514Y436710D01*
X142533Y436694D01*
X142625Y436660D01*
X142714Y436619D01*
X142738Y436617D01*
X142762Y436608D01*
X142859Y436605D01*
X142957Y436595D01*
X142981Y436601D01*
X143005Y436600D01*
X143099Y436628D01*
X143194Y436651D01*
X143215Y436664D01*
X143239Y436671D01*
X143318Y436728D01*
X143402Y436779D01*
X143417Y436798D01*
X143437Y436813D01*
X143494Y436892D01*
X143557Y436968D01*
X143565Y436991D01*
X143580Y437011D01*
X143608Y437105D01*
X143643Y437196D01*
X143646Y437229D01*
X143651Y437244D01*
X143650Y437269D01*
X143657Y437343D01*
X143657Y474162D01*
X144547Y476310D01*
X153490Y485253D01*
X155638Y486143D01*
X155648Y486143D01*
X155672Y486147D01*
X155697Y486144D01*
X155792Y486166D01*
X155889Y486182D01*
X155910Y486194D01*
X155934Y486200D01*
X156018Y486251D01*
X156104Y486297D01*
X156121Y486315D01*
X156142Y486328D01*
X156204Y486404D01*
X156271Y486475D01*
X156281Y486498D01*
X156297Y486517D01*
X156331Y486608D01*
X156372Y486698D01*
X156374Y486722D01*
X156383Y486745D01*
X156397Y486892D01*
X156397Y488018D01*
X158332Y489953D01*
X182869Y489953D01*
X182965Y489969D01*
X183062Y489978D01*
X183085Y489988D01*
X183109Y489992D01*
X183196Y490039D01*
X183285Y490079D01*
X183303Y490096D01*
X183325Y490107D01*
X183392Y490179D01*
X183463Y490246D01*
X183475Y490267D01*
X183491Y490285D01*
X183532Y490374D01*
X183578Y490461D01*
X183582Y490485D01*
X183592Y490508D01*
X183602Y490605D01*
X183618Y490701D01*
X183614Y490726D01*
X183616Y490751D01*
X183594Y490846D01*
X183578Y490942D01*
X183567Y490964D01*
X183561Y490988D01*
X183510Y491071D01*
X183464Y491158D01*
X183445Y491174D01*
X183432Y491196D01*
X183357Y491258D01*
X183286Y491325D01*
X183257Y491340D01*
X183244Y491350D01*
X183221Y491359D01*
X183155Y491394D01*
X180091Y492663D01*
X177603Y495151D01*
X176257Y498401D01*
X176257Y512999D01*
X177603Y516249D01*
X180091Y518737D01*
X183341Y520083D01*
X186859Y520083D01*
X190109Y518737D01*
X192597Y516249D01*
X193943Y512999D01*
X193943Y498401D01*
X192597Y495151D01*
X190109Y492663D01*
X186829Y491305D01*
X186766Y491303D01*
X186720Y491286D01*
X186672Y491278D01*
X186607Y491243D01*
X186538Y491217D01*
X186500Y491186D01*
X186456Y491163D01*
X186406Y491109D01*
X186349Y491062D01*
X186323Y491020D01*
X186290Y490985D01*
X186259Y490918D01*
X186220Y490855D01*
X186209Y490807D01*
X186189Y490762D01*
X186181Y490689D01*
X186165Y490618D01*
X186170Y490569D01*
X186165Y490519D01*
X186181Y490448D01*
X186188Y490375D01*
X186209Y490330D01*
X186220Y490282D01*
X186259Y490219D01*
X186289Y490152D01*
X186335Y490096D01*
X186349Y490074D01*
X186362Y490064D01*
X186383Y490038D01*
X188403Y488018D01*
X188403Y472582D01*
X186468Y470647D01*
X158332Y470647D01*
X157401Y471578D01*
X157381Y471593D01*
X157365Y471612D01*
X157282Y471663D01*
X157203Y471721D01*
X157179Y471728D01*
X157158Y471741D01*
X157063Y471763D01*
X156969Y471791D01*
X156945Y471791D01*
X156921Y471796D01*
X156823Y471787D01*
X156725Y471783D01*
X156702Y471775D01*
X156678Y471772D01*
X156589Y471732D01*
X156497Y471698D01*
X156478Y471682D01*
X156456Y471672D01*
X156341Y471578D01*
X155562Y470799D01*
X155505Y470720D01*
X155443Y470645D01*
X155435Y470621D01*
X155420Y470601D01*
X155392Y470508D01*
X155357Y470416D01*
X155354Y470383D01*
X155349Y470367D01*
X155350Y470343D01*
X155343Y470269D01*
X155343Y437972D01*
X155355Y437900D01*
X155357Y437826D01*
X155374Y437780D01*
X155382Y437732D01*
X155417Y437667D01*
X155443Y437598D01*
X155474Y437560D01*
X155497Y437516D01*
X155551Y437466D01*
X155598Y437409D01*
X155640Y437383D01*
X155675Y437350D01*
X155742Y437319D01*
X155805Y437280D01*
X155853Y437269D01*
X155898Y437249D01*
X155971Y437241D01*
X156042Y437225D01*
X156091Y437230D01*
X156141Y437225D01*
X156212Y437241D01*
X156285Y437248D01*
X156330Y437269D01*
X156378Y437280D01*
X156441Y437319D01*
X156508Y437349D01*
X156564Y437395D01*
X156586Y437409D01*
X156596Y437422D01*
X156622Y437443D01*
X158332Y439153D01*
X186468Y439153D01*
X188403Y437218D01*
X188403Y421782D01*
X186468Y419847D01*
X158332Y419847D01*
X156622Y421557D01*
X156562Y421600D01*
X156508Y421650D01*
X156464Y421671D01*
X156423Y421700D01*
X156353Y421721D01*
X156286Y421751D01*
X156237Y421756D01*
X156190Y421770D01*
X156117Y421768D01*
X156043Y421775D01*
X155995Y421764D01*
X155946Y421763D01*
X155877Y421737D01*
X155806Y421720D01*
X155764Y421694D01*
X155718Y421677D01*
X155661Y421630D01*
X155598Y421591D01*
X155567Y421553D01*
X155529Y421522D01*
X155490Y421460D01*
X155443Y421403D01*
X155426Y421357D01*
X155400Y421315D01*
X155383Y421243D01*
X155357Y421175D01*
X155350Y421102D01*
X155344Y421077D01*
X155346Y421061D01*
X155343Y421028D01*
X155343Y417838D01*
X154453Y415690D01*
X135804Y397041D01*
X135747Y396962D01*
X135685Y396887D01*
X135677Y396863D01*
X135662Y396843D01*
X135634Y396750D01*
X135599Y396658D01*
X135596Y396625D01*
X135591Y396609D01*
X135591Y396607D01*
X134506Y393987D01*
X132513Y391994D01*
X129909Y390915D01*
X127091Y390915D01*
G37*
%LPD*%
%LPC*%
G36*
X106091Y151915D02*
X106091Y151915D01*
X103487Y152994D01*
X101494Y154987D01*
X100415Y157591D01*
X100415Y158948D01*
X100399Y159045D01*
X100390Y159142D01*
X100380Y159164D01*
X100376Y159189D01*
X100330Y159275D01*
X100289Y159364D01*
X100268Y159390D01*
X100261Y159404D01*
X100242Y159421D01*
X100196Y159478D01*
X88720Y170954D01*
X85673Y174001D01*
X85673Y209999D01*
X156178Y280504D01*
X156229Y280575D01*
X156232Y280578D01*
X156234Y280582D01*
X156235Y280583D01*
X156297Y280658D01*
X156305Y280682D01*
X156320Y280702D01*
X156348Y280796D01*
X156383Y280887D01*
X156386Y280920D01*
X156391Y280936D01*
X156390Y280961D01*
X156397Y281034D01*
X156397Y284818D01*
X158332Y286753D01*
X186468Y286753D01*
X188403Y284818D01*
X188403Y269382D01*
X186468Y267447D01*
X158332Y267447D01*
X158082Y267697D01*
X158063Y267711D01*
X158047Y267730D01*
X157964Y267782D01*
X157884Y267839D01*
X157861Y267846D01*
X157840Y267859D01*
X157745Y267881D01*
X157651Y267910D01*
X157626Y267909D01*
X157602Y267915D01*
X157505Y267905D01*
X157407Y267902D01*
X157384Y267893D01*
X157359Y267891D01*
X157270Y267851D01*
X157178Y267816D01*
X157159Y267801D01*
X157137Y267790D01*
X157023Y267697D01*
X95546Y206220D01*
X95489Y206141D01*
X95427Y206066D01*
X95419Y206042D01*
X95404Y206022D01*
X95376Y205928D01*
X95341Y205837D01*
X95338Y205804D01*
X95333Y205788D01*
X95334Y205763D01*
X95327Y205690D01*
X95327Y178310D01*
X95328Y178300D01*
X95328Y178299D01*
X95329Y178297D01*
X95343Y178213D01*
X95352Y178116D01*
X95362Y178094D01*
X95366Y178069D01*
X95412Y177983D01*
X95453Y177894D01*
X95474Y177868D01*
X95481Y177854D01*
X95500Y177837D01*
X95546Y177780D01*
X107022Y166304D01*
X107101Y166247D01*
X107176Y166185D01*
X107200Y166177D01*
X107220Y166162D01*
X107314Y166134D01*
X107405Y166099D01*
X107438Y166096D01*
X107454Y166091D01*
X107479Y166092D01*
X107552Y166085D01*
X108909Y166085D01*
X111513Y165006D01*
X113506Y163013D01*
X114585Y160409D01*
X114585Y157591D01*
X113506Y154987D01*
X111513Y152994D01*
X108909Y151915D01*
X106091Y151915D01*
G37*
%LPD*%
%LPC*%
G36*
X157091Y160915D02*
X157091Y160915D01*
X154487Y161994D01*
X153527Y162954D01*
X153447Y163011D01*
X153372Y163073D01*
X153349Y163081D01*
X153329Y163096D01*
X153235Y163124D01*
X153144Y163159D01*
X153111Y163162D01*
X153095Y163167D01*
X153070Y163166D01*
X152997Y163173D01*
X147501Y163173D01*
X134673Y176001D01*
X134673Y237999D01*
X153201Y256527D01*
X155648Y256527D01*
X155672Y256531D01*
X155697Y256528D01*
X155792Y256550D01*
X155889Y256566D01*
X155910Y256578D01*
X155934Y256584D01*
X156018Y256635D01*
X156104Y256681D01*
X156121Y256699D01*
X156142Y256712D01*
X156204Y256788D01*
X156271Y256859D01*
X156281Y256882D01*
X156297Y256901D01*
X156331Y256992D01*
X156372Y257082D01*
X156374Y257106D01*
X156383Y257129D01*
X156397Y257276D01*
X156397Y259418D01*
X158332Y261353D01*
X186468Y261353D01*
X188403Y259418D01*
X188403Y243982D01*
X186468Y242047D01*
X158332Y242047D01*
X156397Y243982D01*
X156397Y244262D01*
X156385Y244335D01*
X156383Y244408D01*
X156366Y244454D01*
X156358Y244503D01*
X156323Y244568D01*
X156297Y244637D01*
X156266Y244675D01*
X156243Y244718D01*
X156189Y244769D01*
X156142Y244825D01*
X156101Y244851D01*
X156065Y244885D01*
X155998Y244916D01*
X155935Y244954D01*
X155887Y244966D01*
X155842Y244986D01*
X155769Y244993D01*
X155698Y245010D01*
X155649Y245005D01*
X155599Y245010D01*
X155528Y244993D01*
X155455Y244986D01*
X155410Y244966D01*
X155362Y244955D01*
X155299Y244916D01*
X155232Y244886D01*
X155176Y244839D01*
X155154Y244826D01*
X155144Y244813D01*
X155118Y244792D01*
X144546Y234220D01*
X144489Y234141D01*
X144427Y234066D01*
X144419Y234042D01*
X144404Y234022D01*
X144376Y233928D01*
X144341Y233837D01*
X144338Y233804D01*
X144333Y233788D01*
X144334Y233763D01*
X144327Y233690D01*
X144327Y180310D01*
X144343Y180213D01*
X144352Y180116D01*
X144362Y180094D01*
X144366Y180069D01*
X144412Y179983D01*
X144453Y179894D01*
X144474Y179868D01*
X144481Y179854D01*
X144500Y179837D01*
X144546Y179780D01*
X151280Y173046D01*
X151359Y172989D01*
X151434Y172927D01*
X151458Y172919D01*
X151478Y172904D01*
X151572Y172876D01*
X151663Y172841D01*
X151696Y172838D01*
X151712Y172833D01*
X151737Y172834D01*
X151810Y172827D01*
X152997Y172827D01*
X153093Y172843D01*
X153190Y172852D01*
X153213Y172862D01*
X153238Y172866D01*
X153324Y172912D01*
X153413Y172953D01*
X153438Y172974D01*
X153453Y172981D01*
X153470Y173000D01*
X153527Y173046D01*
X154487Y174006D01*
X157091Y175085D01*
X159909Y175085D01*
X162513Y174006D01*
X164506Y172013D01*
X165585Y169409D01*
X165585Y166591D01*
X164506Y163987D01*
X162513Y161994D01*
X159909Y160915D01*
X157091Y160915D01*
G37*
%LPD*%
%LPC*%
G36*
X310732Y470647D02*
X310732Y470647D01*
X308797Y472582D01*
X308797Y488018D01*
X310817Y490038D01*
X310860Y490098D01*
X310910Y490152D01*
X310931Y490196D01*
X310960Y490237D01*
X310981Y490307D01*
X311011Y490374D01*
X311016Y490423D01*
X311030Y490470D01*
X311028Y490543D01*
X311035Y490617D01*
X311024Y490665D01*
X311023Y490714D01*
X310997Y490783D01*
X310980Y490854D01*
X310954Y490896D01*
X310937Y490942D01*
X310890Y490999D01*
X310851Y491062D01*
X310813Y491093D01*
X310782Y491131D01*
X310720Y491170D01*
X310663Y491217D01*
X310617Y491234D01*
X310575Y491260D01*
X310503Y491277D01*
X310435Y491303D01*
X310362Y491310D01*
X310355Y491311D01*
X307091Y492663D01*
X304603Y495151D01*
X303257Y498401D01*
X303257Y512999D01*
X304603Y516249D01*
X307091Y518737D01*
X310341Y520083D01*
X313859Y520083D01*
X317109Y518737D01*
X319597Y516249D01*
X320943Y512999D01*
X320943Y498401D01*
X319597Y495151D01*
X317109Y492663D01*
X314045Y491394D01*
X313962Y491343D01*
X313875Y491297D01*
X313858Y491278D01*
X313837Y491265D01*
X313775Y491190D01*
X313709Y491118D01*
X313698Y491096D01*
X313683Y491077D01*
X313648Y490985D01*
X313608Y490896D01*
X313605Y490872D01*
X313597Y490848D01*
X313593Y490751D01*
X313584Y490653D01*
X313589Y490629D01*
X313588Y490605D01*
X313617Y490511D01*
X313639Y490416D01*
X313652Y490395D01*
X313659Y490371D01*
X313716Y490292D01*
X313768Y490208D01*
X313787Y490193D01*
X313801Y490173D01*
X313881Y490116D01*
X313956Y490053D01*
X313979Y490045D01*
X313999Y490030D01*
X314093Y490002D01*
X314184Y489967D01*
X314217Y489964D01*
X314233Y489959D01*
X314258Y489960D01*
X314331Y489953D01*
X338868Y489953D01*
X340803Y488018D01*
X340803Y472582D01*
X338868Y470647D01*
X310732Y470647D01*
G37*
%LPD*%
%LPC*%
G36*
X310732Y267447D02*
X310732Y267447D01*
X308797Y269382D01*
X308797Y271424D01*
X308793Y271448D01*
X308796Y271473D01*
X308774Y271568D01*
X308758Y271665D01*
X308746Y271686D01*
X308740Y271710D01*
X308689Y271794D01*
X308643Y271880D01*
X308625Y271897D01*
X308612Y271918D01*
X308536Y271980D01*
X308465Y272047D01*
X308442Y272057D01*
X308423Y272073D01*
X308332Y272107D01*
X308242Y272148D01*
X308218Y272150D01*
X308195Y272159D01*
X308048Y272173D01*
X306003Y272173D01*
X305907Y272157D01*
X305810Y272148D01*
X305787Y272138D01*
X305762Y272134D01*
X305676Y272088D01*
X305587Y272047D01*
X305562Y272026D01*
X305547Y272019D01*
X305530Y272000D01*
X305473Y271954D01*
X304513Y270994D01*
X301909Y269915D01*
X299091Y269915D01*
X296487Y270994D01*
X294494Y272987D01*
X293415Y275591D01*
X293415Y278409D01*
X294494Y281013D01*
X296487Y283006D01*
X299091Y284085D01*
X301909Y284085D01*
X304513Y283006D01*
X305473Y282046D01*
X305553Y281989D01*
X305628Y281927D01*
X305651Y281919D01*
X305671Y281904D01*
X305765Y281876D01*
X305856Y281841D01*
X305889Y281838D01*
X305905Y281833D01*
X305930Y281834D01*
X306003Y281827D01*
X308048Y281827D01*
X308072Y281831D01*
X308097Y281828D01*
X308192Y281850D01*
X308289Y281866D01*
X308310Y281878D01*
X308334Y281884D01*
X308418Y281935D01*
X308504Y281981D01*
X308521Y281999D01*
X308542Y282012D01*
X308604Y282088D01*
X308671Y282159D01*
X308681Y282182D01*
X308697Y282201D01*
X308731Y282292D01*
X308772Y282382D01*
X308774Y282406D01*
X308783Y282429D01*
X308797Y282576D01*
X308797Y284818D01*
X310732Y286753D01*
X338868Y286753D01*
X340803Y284818D01*
X340803Y269382D01*
X338868Y267447D01*
X310732Y267447D01*
G37*
%LPD*%
%LPC*%
G36*
X158332Y318247D02*
X158332Y318247D01*
X156397Y320182D01*
X156397Y335618D01*
X158332Y337553D01*
X186468Y337553D01*
X188403Y335618D01*
X188403Y320182D01*
X186468Y318247D01*
X158332Y318247D01*
G37*
%LPD*%
%LPC*%
G36*
X158332Y292847D02*
X158332Y292847D01*
X156397Y294782D01*
X156397Y310218D01*
X158332Y312153D01*
X186468Y312153D01*
X188403Y310218D01*
X188403Y294782D01*
X186468Y292847D01*
X158332Y292847D01*
G37*
%LPD*%
%LPC*%
G36*
X215482Y184897D02*
X215482Y184897D01*
X213547Y186832D01*
X213547Y214968D01*
X215482Y216903D01*
X230918Y216903D01*
X232853Y214968D01*
X232853Y186832D01*
X230918Y184897D01*
X215482Y184897D01*
G37*
%LPD*%
%LPC*%
G36*
X310732Y242047D02*
X310732Y242047D01*
X308797Y243982D01*
X308797Y259418D01*
X310732Y261353D01*
X338868Y261353D01*
X340803Y259418D01*
X340803Y243982D01*
X338868Y242047D01*
X310732Y242047D01*
G37*
%LPD*%
%LPC*%
G36*
X310732Y419847D02*
X310732Y419847D01*
X308797Y421782D01*
X308797Y437218D01*
X310732Y439153D01*
X338868Y439153D01*
X340803Y437218D01*
X340803Y421782D01*
X338868Y419847D01*
X310732Y419847D01*
G37*
%LPD*%
%LPC*%
G36*
X310732Y445247D02*
X310732Y445247D01*
X308797Y447182D01*
X308797Y462618D01*
X310732Y464553D01*
X338868Y464553D01*
X340803Y462618D01*
X340803Y447182D01*
X338868Y445247D01*
X310732Y445247D01*
G37*
%LPD*%
%LPC*%
G36*
X59010Y62249D02*
X59010Y62249D01*
X55393Y63748D01*
X52624Y66517D01*
X51125Y70134D01*
X51125Y74050D01*
X52624Y77667D01*
X64642Y89685D01*
X68259Y91184D01*
X72175Y91184D01*
X75792Y89685D01*
X78561Y86916D01*
X80060Y83299D01*
X80060Y79383D01*
X78561Y75765D01*
X66544Y63748D01*
X62926Y62249D01*
X59010Y62249D01*
G37*
%LPD*%
%LPC*%
G36*
X441348Y61662D02*
X441348Y61662D01*
X437730Y63161D01*
X425712Y75179D01*
X424214Y78796D01*
X424214Y82712D01*
X425712Y86329D01*
X428481Y89098D01*
X432099Y90597D01*
X436015Y90597D01*
X439632Y89098D01*
X451650Y77081D01*
X453148Y73463D01*
X453148Y69547D01*
X451650Y65930D01*
X448881Y63161D01*
X445264Y61662D01*
X441348Y61662D01*
G37*
%LPD*%
%LPC*%
G36*
X450689Y453821D02*
X450689Y453821D01*
X447072Y455319D01*
X444303Y458088D01*
X442804Y461706D01*
X442804Y465621D01*
X444303Y469239D01*
X456321Y481257D01*
X459938Y482755D01*
X463854Y482755D01*
X467472Y481257D01*
X470240Y478488D01*
X471739Y474870D01*
X471739Y470954D01*
X470240Y467337D01*
X458223Y455319D01*
X454605Y453821D01*
X450689Y453821D01*
G37*
%LPD*%
%LPC*%
G36*
X64379Y472000D02*
X64379Y472000D01*
X60762Y473498D01*
X48744Y485516D01*
X47246Y489134D01*
X47246Y493049D01*
X48744Y496667D01*
X51513Y499436D01*
X55130Y500934D01*
X59046Y500934D01*
X62664Y499436D01*
X74682Y487418D01*
X76180Y483800D01*
X76180Y479885D01*
X74682Y476267D01*
X71913Y473498D01*
X68295Y472000D01*
X64379Y472000D01*
G37*
%LPD*%
%LPC*%
G36*
X432729Y471781D02*
X432729Y471781D01*
X429111Y473280D01*
X426342Y476048D01*
X424844Y479666D01*
X424844Y483582D01*
X426342Y487199D01*
X438360Y499217D01*
X441978Y500716D01*
X445894Y500716D01*
X449511Y499217D01*
X452280Y496448D01*
X453778Y492831D01*
X453778Y488915D01*
X452280Y485297D01*
X440262Y473280D01*
X436645Y471781D01*
X432729Y471781D01*
G37*
%LPD*%
%LPC*%
G36*
X46419Y454039D02*
X46419Y454039D01*
X42801Y455538D01*
X30784Y467555D01*
X29285Y471173D01*
X29285Y475089D01*
X30784Y478706D01*
X33552Y481475D01*
X37170Y482974D01*
X41086Y482974D01*
X44703Y481475D01*
X56721Y469457D01*
X58220Y465840D01*
X58220Y461924D01*
X56721Y458307D01*
X53952Y455538D01*
X50335Y454039D01*
X46419Y454039D01*
G37*
%LPD*%
%LPC*%
G36*
X41050Y80210D02*
X41050Y80210D01*
X37432Y81708D01*
X34663Y84477D01*
X33165Y88095D01*
X33165Y92010D01*
X34663Y95628D01*
X46681Y107646D01*
X50299Y109144D01*
X54214Y109144D01*
X57832Y107646D01*
X60601Y104877D01*
X62099Y101259D01*
X62099Y97344D01*
X60601Y93726D01*
X48583Y81708D01*
X44965Y80210D01*
X41050Y80210D01*
G37*
%LPD*%
%LPC*%
G36*
X459308Y79623D02*
X459308Y79623D01*
X455691Y81121D01*
X443673Y93139D01*
X442175Y96757D01*
X442175Y100672D01*
X443673Y104290D01*
X446442Y107059D01*
X450059Y108557D01*
X453975Y108557D01*
X457593Y107059D01*
X469611Y95041D01*
X471109Y91423D01*
X471109Y87508D01*
X469611Y83890D01*
X466842Y81121D01*
X463224Y79623D01*
X459308Y79623D01*
G37*
%LPD*%
%LPC*%
G36*
X284941Y491317D02*
X284941Y491317D01*
X281691Y492663D01*
X279203Y495151D01*
X277857Y498401D01*
X277857Y512999D01*
X279203Y516249D01*
X281691Y518737D01*
X284941Y520083D01*
X288459Y520083D01*
X291709Y518737D01*
X294197Y516249D01*
X295543Y512999D01*
X295543Y498401D01*
X294197Y495151D01*
X291709Y492663D01*
X288459Y491317D01*
X284941Y491317D01*
G37*
%LPD*%
%LPC*%
G36*
X259541Y491317D02*
X259541Y491317D01*
X256291Y492663D01*
X253803Y495151D01*
X252457Y498401D01*
X252457Y512999D01*
X253803Y516249D01*
X256291Y518737D01*
X259541Y520083D01*
X263059Y520083D01*
X266309Y518737D01*
X268797Y516249D01*
X270143Y512999D01*
X270143Y498401D01*
X268797Y495151D01*
X266309Y492663D01*
X263059Y491317D01*
X259541Y491317D01*
G37*
%LPD*%
%LPC*%
G36*
X208741Y491317D02*
X208741Y491317D01*
X205491Y492663D01*
X203003Y495151D01*
X201657Y498401D01*
X201657Y512999D01*
X203003Y516249D01*
X205491Y518737D01*
X208741Y520083D01*
X212259Y520083D01*
X215509Y518737D01*
X217997Y516249D01*
X219343Y512999D01*
X219343Y498401D01*
X217997Y495151D01*
X215509Y492663D01*
X212259Y491317D01*
X208741Y491317D01*
G37*
%LPD*%
%LPC*%
G36*
X234141Y491317D02*
X234141Y491317D01*
X230891Y492663D01*
X228403Y495151D01*
X227057Y498401D01*
X227057Y512999D01*
X228403Y516249D01*
X230891Y518737D01*
X234141Y520083D01*
X237659Y520083D01*
X240909Y518737D01*
X243397Y516249D01*
X244743Y512999D01*
X244743Y498401D01*
X243397Y495151D01*
X240909Y492663D01*
X237659Y491317D01*
X234141Y491317D01*
G37*
%LPD*%
%LPC*%
G36*
X365676Y422715D02*
X365676Y422715D01*
X361381Y424494D01*
X358094Y427781D01*
X356315Y432076D01*
X356315Y436724D01*
X358094Y441019D01*
X361381Y444306D01*
X365676Y446085D01*
X370324Y446085D01*
X374619Y444306D01*
X377906Y441019D01*
X379685Y436724D01*
X379685Y432076D01*
X377906Y427781D01*
X374619Y424494D01*
X370324Y422715D01*
X365676Y422715D01*
G37*
%LPD*%
G36*
X325472Y107031D02*
X325472Y107031D01*
X325497Y107028D01*
X325592Y107050D01*
X325689Y107066D01*
X325710Y107078D01*
X325734Y107084D01*
X325818Y107135D01*
X325904Y107181D01*
X325921Y107199D01*
X325942Y107212D01*
X326004Y107288D01*
X326071Y107359D01*
X326081Y107382D01*
X326097Y107401D01*
X326131Y107492D01*
X326172Y107582D01*
X326174Y107606D01*
X326183Y107629D01*
X326197Y107776D01*
X326197Y108079D01*
X326235Y108139D01*
X326292Y108219D01*
X326299Y108242D01*
X326312Y108263D01*
X326334Y108358D01*
X326362Y108452D01*
X326362Y108477D01*
X326367Y108500D01*
X326358Y108598D01*
X326355Y108696D01*
X326346Y108719D01*
X326344Y108743D01*
X326303Y108833D01*
X326269Y108924D01*
X326253Y108943D01*
X326243Y108966D01*
X326197Y109021D01*
X326197Y120779D01*
X326235Y120839D01*
X326292Y120919D01*
X326299Y120942D01*
X326312Y120963D01*
X326334Y121058D01*
X326362Y121152D01*
X326362Y121177D01*
X326367Y121200D01*
X326358Y121298D01*
X326355Y121396D01*
X326346Y121419D01*
X326344Y121443D01*
X326303Y121533D01*
X326269Y121624D01*
X326253Y121643D01*
X326243Y121666D01*
X326197Y121721D01*
X326197Y133468D01*
X326914Y134185D01*
X326957Y134245D01*
X327007Y134298D01*
X327028Y134343D01*
X327057Y134384D01*
X327078Y134454D01*
X327108Y134520D01*
X327113Y134570D01*
X327128Y134617D01*
X327125Y134690D01*
X327132Y134763D01*
X327120Y134836D01*
X327120Y134861D01*
X327114Y134876D01*
X327108Y134909D01*
X326959Y135466D01*
X326959Y138801D01*
X336250Y138801D01*
X336274Y138805D01*
X336298Y138802D01*
X336394Y138825D01*
X336491Y138841D01*
X336512Y138852D01*
X336536Y138858D01*
X336619Y138909D01*
X336706Y138956D01*
X336723Y138973D01*
X336743Y138986D01*
X336806Y139062D01*
X336873Y139134D01*
X336883Y139156D01*
X336898Y139175D01*
X336933Y139266D01*
X336974Y139356D01*
X336976Y139380D01*
X336985Y139403D01*
X336999Y139550D01*
X336999Y141050D01*
X336995Y141074D01*
X336998Y141098D01*
X336975Y141194D01*
X336959Y141291D01*
X336948Y141312D01*
X336942Y141336D01*
X336891Y141419D01*
X336844Y141506D01*
X336827Y141523D01*
X336814Y141543D01*
X336738Y141606D01*
X336666Y141673D01*
X336644Y141683D01*
X336625Y141698D01*
X336534Y141733D01*
X336444Y141774D01*
X336420Y141776D01*
X336397Y141785D01*
X336250Y141799D01*
X326959Y141799D01*
X326959Y145134D01*
X327108Y145691D01*
X327116Y145764D01*
X327132Y145835D01*
X327127Y145885D01*
X327132Y145934D01*
X327116Y146005D01*
X327109Y146078D01*
X327088Y146123D01*
X327077Y146171D01*
X327038Y146234D01*
X327008Y146301D01*
X326961Y146358D01*
X326948Y146379D01*
X326935Y146389D01*
X326914Y146415D01*
X326197Y147132D01*
X326197Y156948D01*
X326193Y156972D01*
X326196Y156997D01*
X326174Y157092D01*
X326158Y157189D01*
X326146Y157210D01*
X326140Y157234D01*
X326089Y157318D01*
X326043Y157404D01*
X326025Y157421D01*
X326012Y157442D01*
X325936Y157504D01*
X325865Y157571D01*
X325842Y157581D01*
X325823Y157597D01*
X325732Y157631D01*
X325642Y157672D01*
X325618Y157674D01*
X325595Y157683D01*
X325448Y157697D01*
X320552Y157697D01*
X320528Y157693D01*
X320503Y157696D01*
X320408Y157674D01*
X320311Y157658D01*
X320290Y157646D01*
X320266Y157640D01*
X320182Y157589D01*
X320096Y157543D01*
X320079Y157525D01*
X320058Y157512D01*
X319996Y157436D01*
X319929Y157365D01*
X319919Y157342D01*
X319903Y157323D01*
X319869Y157232D01*
X319828Y157142D01*
X319826Y157118D01*
X319817Y157095D01*
X319803Y156948D01*
X319803Y120359D01*
X317016Y113632D01*
X311868Y108484D01*
X311830Y108468D01*
X311747Y108417D01*
X311661Y108371D01*
X311644Y108352D01*
X311623Y108339D01*
X311561Y108264D01*
X311494Y108192D01*
X311484Y108170D01*
X311468Y108151D01*
X311434Y108059D01*
X311393Y107970D01*
X311391Y107946D01*
X311382Y107923D01*
X311379Y107825D01*
X311369Y107727D01*
X311375Y107703D01*
X311374Y107679D01*
X311402Y107585D01*
X311424Y107490D01*
X311438Y107469D01*
X311445Y107445D01*
X311502Y107366D01*
X311553Y107282D01*
X311572Y107267D01*
X311587Y107247D01*
X311666Y107190D01*
X311742Y107127D01*
X311765Y107119D01*
X311785Y107104D01*
X311878Y107076D01*
X311970Y107041D01*
X312003Y107038D01*
X312018Y107033D01*
X312043Y107034D01*
X312117Y107027D01*
X325448Y107027D01*
X325472Y107031D01*
G37*
%LPC*%
G36*
X173899Y456399D02*
X173899Y456399D01*
X173899Y463791D01*
X185434Y463791D01*
X186081Y463618D01*
X186660Y463283D01*
X187133Y462810D01*
X187468Y462231D01*
X187641Y461584D01*
X187641Y456399D01*
X173899Y456399D01*
G37*
%LPD*%
%LPC*%
G36*
X250099Y202399D02*
X250099Y202399D01*
X250099Y216141D01*
X255284Y216141D01*
X255931Y215968D01*
X256510Y215633D01*
X256983Y215160D01*
X257318Y214581D01*
X257491Y213934D01*
X257491Y202399D01*
X250099Y202399D01*
G37*
%LPD*%
%LPC*%
G36*
X326299Y405599D02*
X326299Y405599D01*
X326299Y412991D01*
X337834Y412991D01*
X338481Y412818D01*
X339060Y412483D01*
X339533Y412010D01*
X339868Y411431D01*
X340041Y410784D01*
X340041Y405599D01*
X326299Y405599D01*
G37*
%LPD*%
%LPC*%
G36*
X250099Y185659D02*
X250099Y185659D01*
X250099Y199401D01*
X257491Y199401D01*
X257491Y187866D01*
X257402Y187533D01*
X257318Y187219D01*
X256983Y186640D01*
X256510Y186167D01*
X255931Y185832D01*
X255284Y185659D01*
X250099Y185659D01*
G37*
%LPD*%
%LPC*%
G36*
X309559Y405599D02*
X309559Y405599D01*
X309559Y410784D01*
X309663Y411170D01*
X309732Y411431D01*
X310067Y412010D01*
X310540Y412483D01*
X311119Y412818D01*
X311766Y412991D01*
X323301Y412991D01*
X323301Y405599D01*
X309559Y405599D01*
G37*
%LPD*%
%LPC*%
G36*
X157159Y456399D02*
X157159Y456399D01*
X157159Y461584D01*
X157303Y462119D01*
X157332Y462231D01*
X157667Y462810D01*
X158140Y463283D01*
X158719Y463618D01*
X159366Y463791D01*
X170901Y463791D01*
X170901Y456399D01*
X157159Y456399D01*
G37*
%LPD*%
%LPC*%
G36*
X173899Y446009D02*
X173899Y446009D01*
X173899Y453401D01*
X187641Y453401D01*
X187641Y448216D01*
X187468Y447569D01*
X187133Y446990D01*
X186660Y446517D01*
X186081Y446182D01*
X185434Y446009D01*
X173899Y446009D01*
G37*
%LPD*%
%LPC*%
G36*
X239709Y202399D02*
X239709Y202399D01*
X239709Y213934D01*
X239882Y214581D01*
X240217Y215160D01*
X240690Y215633D01*
X241269Y215968D01*
X241916Y216141D01*
X247101Y216141D01*
X247101Y202399D01*
X239709Y202399D01*
G37*
%LPD*%
%LPC*%
G36*
X159366Y446009D02*
X159366Y446009D01*
X158719Y446182D01*
X158140Y446517D01*
X157667Y446990D01*
X157332Y447569D01*
X157159Y448216D01*
X157159Y453401D01*
X170901Y453401D01*
X170901Y446009D01*
X159366Y446009D01*
G37*
%LPD*%
%LPC*%
G36*
X241916Y185659D02*
X241916Y185659D01*
X241269Y185832D01*
X240690Y186167D01*
X240217Y186640D01*
X239882Y187219D01*
X239709Y187866D01*
X239709Y199401D01*
X247101Y199401D01*
X247101Y185659D01*
X241916Y185659D01*
G37*
%LPD*%
%LPC*%
G36*
X277299Y19499D02*
X277299Y19499D01*
X277299Y33630D01*
X278467Y33397D01*
X280132Y32708D01*
X281629Y31707D01*
X282903Y30433D01*
X283904Y28936D01*
X284593Y27271D01*
X284945Y25505D01*
X284945Y19499D01*
X277299Y19499D01*
G37*
%LPD*%
%LPC*%
G36*
X266655Y19499D02*
X266655Y19499D01*
X266655Y25505D01*
X267007Y27271D01*
X267696Y28936D01*
X268627Y30329D01*
X268697Y30433D01*
X269971Y31707D01*
X271468Y32708D01*
X273133Y33397D01*
X274301Y33630D01*
X274301Y19499D01*
X266655Y19499D01*
G37*
%LPD*%
%LPC*%
G36*
X107999Y272279D02*
X107999Y272279D01*
X107999Y281321D01*
X115849Y281321D01*
X116496Y281148D01*
X117075Y280813D01*
X117548Y280340D01*
X117883Y279761D01*
X118056Y279114D01*
X118056Y272279D01*
X107999Y272279D01*
G37*
%LPD*%
%LPC*%
G36*
X94944Y272279D02*
X94944Y272279D01*
X94944Y279114D01*
X94995Y279302D01*
X95117Y279761D01*
X95452Y280340D01*
X95925Y280813D01*
X96504Y281148D01*
X97151Y281321D01*
X105001Y281321D01*
X105001Y272279D01*
X94944Y272279D01*
G37*
%LPD*%
%LPC*%
G36*
X107999Y260239D02*
X107999Y260239D01*
X107999Y269281D01*
X118056Y269281D01*
X118056Y262446D01*
X117883Y261799D01*
X117548Y261220D01*
X117075Y260747D01*
X116496Y260412D01*
X115849Y260239D01*
X107999Y260239D01*
G37*
%LPD*%
%LPC*%
G36*
X97151Y260239D02*
X97151Y260239D01*
X96504Y260412D01*
X95925Y260747D01*
X95452Y261220D01*
X95117Y261799D01*
X94944Y262446D01*
X94944Y269281D01*
X105001Y269281D01*
X105001Y260239D01*
X97151Y260239D01*
G37*
%LPD*%
%LPC*%
G36*
X172399Y454899D02*
X172399Y454899D01*
X172399Y454901D01*
X172401Y454901D01*
X172401Y454899D01*
X172399Y454899D01*
G37*
%LPD*%
%LPC*%
G36*
X106499Y270779D02*
X106499Y270779D01*
X106499Y270781D01*
X106501Y270781D01*
X106501Y270779D01*
X106499Y270779D01*
G37*
%LPD*%
%LPC*%
G36*
X248599Y200899D02*
X248599Y200899D01*
X248599Y200901D01*
X248601Y200901D01*
X248601Y200899D01*
X248599Y200899D01*
G37*
%LPD*%
D10*
X131000Y433600D03*
X29400Y433600D03*
X368000Y434400D03*
X469600Y434400D03*
X369000Y129400D03*
X470600Y129400D03*
X129800Y128800D03*
X28200Y128800D03*
D11*
X452647Y463663D02*
X461896Y472912D01*
X443936Y490873D02*
X434687Y481624D01*
X52257Y99301D02*
X43008Y90052D01*
X60968Y72092D02*
X70217Y81341D01*
X48377Y463882D02*
X39128Y473131D01*
X57088Y491091D02*
X66337Y481842D01*
D12*
X324800Y480300D03*
X324800Y454900D03*
X324800Y429500D03*
X324800Y404100D03*
X324800Y378700D03*
X324800Y353300D03*
X324800Y327900D03*
X324800Y302500D03*
X324800Y277100D03*
X324800Y251700D03*
X324800Y226300D03*
X324800Y200900D03*
X172400Y480300D03*
X172400Y454900D03*
X172400Y429500D03*
X172400Y404100D03*
X172400Y378700D03*
X172400Y353300D03*
X172400Y327900D03*
X172400Y302500D03*
X172400Y277100D03*
X172400Y251700D03*
X172400Y226300D03*
X172400Y200900D03*
D13*
X197800Y200900D03*
X223200Y200900D03*
X248600Y200900D03*
D14*
X197800Y391400D03*
X197800Y366000D03*
D15*
X312100Y500160D02*
X312100Y511240D01*
X286700Y511240D02*
X286700Y500160D01*
X261300Y500160D02*
X261300Y511240D01*
X235900Y511240D02*
X235900Y500160D01*
X210500Y500160D02*
X210500Y511240D01*
X185100Y511240D02*
X185100Y500160D01*
D11*
X452017Y98715D02*
X461266Y89466D01*
X443306Y71505D02*
X434057Y80754D01*
D16*
X337000Y153000D03*
X337000Y140300D03*
X337000Y127600D03*
X337000Y114900D03*
X337000Y102200D03*
X337000Y89500D03*
X337000Y76800D03*
X337000Y64100D03*
D17*
X275800Y24604D02*
X275800Y11396D01*
X225000Y11396D02*
X225000Y24604D01*
D18*
X389500Y296220D03*
X389500Y267780D03*
X106500Y270780D03*
X106500Y299220D03*
D19*
X165200Y378700D02*
X172400Y378700D01*
X106500Y320000D02*
X106500Y299220D01*
X106500Y320000D02*
X165200Y378700D01*
X370720Y315000D02*
X389500Y296220D01*
X370720Y315000D02*
X238500Y315000D01*
X221500Y332000D01*
X221500Y364000D01*
X206500Y379000D01*
X172700Y379000D01*
X172400Y378700D01*
D20*
X29400Y433600D02*
X29400Y130000D01*
X28200Y128800D01*
X469600Y267000D02*
X469600Y434400D01*
X469600Y267000D02*
X469600Y177000D01*
X469600Y130400D01*
X470600Y129400D01*
D19*
X468820Y267780D02*
X389500Y267780D01*
X468820Y267780D02*
X469600Y267000D01*
D20*
X225000Y44500D02*
X225000Y18000D01*
X225000Y44500D02*
X225500Y45000D01*
X171500Y99000D01*
X105500Y99000D01*
X74500Y130000D01*
X29400Y130000D01*
X225500Y45000D02*
X234194Y53694D01*
X244911Y53694D01*
X468600Y176000D02*
X469600Y177000D01*
X468600Y176000D02*
X302500Y176000D01*
X301500Y175000D01*
X301500Y124000D02*
X260500Y124000D01*
X260500Y52678D01*
X301500Y124000D02*
X301500Y175000D01*
X260500Y52678D02*
X234194Y52678D01*
X234194Y53694D01*
D21*
X384500Y366000D03*
X150500Y392000D03*
D19*
X162600Y404100D01*
X172400Y404100D01*
X290400Y404100D02*
X303500Y391000D01*
X359500Y391000D01*
X384500Y366000D01*
X290400Y404100D02*
X172400Y404100D01*
X324800Y353300D02*
X346200Y353300D01*
X346500Y353000D01*
D21*
X346500Y353000D03*
X351500Y128000D03*
D19*
X351100Y127600D01*
X337000Y127600D01*
X324800Y327900D02*
X317600Y327900D01*
X299500Y346000D01*
D21*
X299500Y346000D03*
X385500Y115000D03*
D19*
X337100Y115000D01*
X337000Y114900D01*
X107500Y159000D02*
X90500Y176000D01*
D21*
X107500Y159000D03*
X285500Y80000D03*
D19*
X307700Y102200D01*
X337000Y102200D01*
X172400Y277100D02*
X159600Y277100D01*
X90500Y208000D01*
X90500Y176000D01*
X155200Y251700D02*
X172400Y251700D01*
X155200Y251700D02*
X139500Y236000D01*
X139500Y178000D01*
X149500Y168000D02*
X158500Y168000D01*
D21*
X158500Y168000D03*
X239500Y149000D03*
D19*
X240500Y148000D01*
X276500Y148000D01*
D21*
X276500Y148000D03*
D19*
X149500Y168000D02*
X139500Y178000D01*
D21*
X310500Y89000D03*
D19*
X310500Y78000D01*
X310700Y76800D01*
X337000Y76800D01*
X255200Y226300D02*
X172400Y226300D01*
X255200Y226300D02*
X275500Y206000D01*
X275500Y166000D01*
D21*
X275500Y166000D03*
X322500Y89000D03*
D19*
X336500Y89000D01*
X337000Y89500D01*
D21*
X242500Y337000D03*
D19*
X284200Y378700D02*
X324800Y378700D01*
X284200Y378700D02*
X242500Y337000D01*
D21*
X215500Y391000D03*
D19*
X198200Y391000D01*
X197800Y391400D01*
D21*
X220500Y308000D03*
D19*
X197800Y330700D01*
X197800Y366000D01*
D21*
X380500Y153000D03*
D22*
X337000Y153000D01*
D23*
X172400Y480300D02*
X156800Y480300D01*
X149500Y473000D01*
X149500Y419000D01*
X128500Y398000D01*
D21*
X128500Y398000D03*
X301500Y303000D03*
D19*
X302000Y302500D01*
X324800Y302500D01*
D21*
X300500Y277000D03*
D19*
X324700Y277000D01*
X324800Y277100D01*
D21*
X344500Y214000D03*
D19*
X331400Y200900D01*
X324800Y200900D01*
X172400Y200900D02*
X172400Y142100D01*
X236500Y78000D01*
D21*
X236500Y78000D03*
M02*
