M48
;GenerationSoftware,Autodesk,EAGLE,9.0.1*%
;CreationDate,2018-06-02T06:43:14Z*%
FMAT,2
ICI,OFF
METRIC,TZ,000.000
T5C0.350
T4C0.600
T3C0.800
T2C0.813
T1C1.118
%
G90
M71
T1
X36900Y12940
X46960Y43440
X36800Y43440
X2940Y43360
X47060Y12940
X2820Y12880
X12980Y12880
X13100Y43360
T2
X27580Y1800
X22500Y1800
T3
X4763Y9468
X6559Y7672
X4375Y46851
X45664Y9409
X43868Y7613
X6171Y48647
X45727Y46829
X43931Y48625
T4
X31210Y50570
X28670Y50570
X26130Y50570
X23590Y50570
X18510Y50570
X21050Y50570
T5
X38450Y36600
X15050Y39200
X34650Y35300
X35150Y12800
X29950Y34600
X10750Y15900
X28550Y8000
X15850Y16800
X23950Y14900
X27650Y14800
X31050Y8900
X27550Y16600
X32250Y8900
X23650Y7800
X34450Y21400
X30050Y27700
X30150Y30300
X12850Y39800
X21550Y39100
X38550Y11500
X38050Y15300
X22050Y30800
X24250Y33700
M30