G04 EAGLE Gerber X2 export*
%TF.Part,Single*%
%TF.FileFunction,Profile,NP*%
%TF.FilePolarity,Positive*%
%TF.GenerationSoftware,Autodesk,EAGLE,9.0.1*%
%TF.CreationDate,2018-06-02T06:43:15Z*%
G75*
%MOMM*%
%FSLAX34Y34*%
%LPD*%
%AMOC8*
5,1,8,0,0,1.08239X$1,22.5*%
G01*
%ADD10C,0.254000*%


D10*
X500Y82000D02*
X4858Y81810D01*
X9182Y81240D01*
X13441Y80296D01*
X17601Y78985D01*
X21631Y77315D01*
X25500Y75301D01*
X29179Y72958D01*
X32639Y70302D01*
X35855Y67355D01*
X38802Y64139D01*
X41458Y60679D01*
X43801Y57000D01*
X45815Y53131D01*
X47485Y49101D01*
X48796Y44941D01*
X49740Y40682D01*
X50310Y36358D01*
X50500Y32000D01*
X207000Y32000D01*
X207000Y0D01*
X294000Y0D01*
X294000Y32000D01*
X450500Y32000D01*
X450690Y36358D01*
X451260Y40682D01*
X452204Y44941D01*
X453515Y49101D01*
X455185Y53131D01*
X457199Y57000D01*
X459542Y60679D01*
X462198Y64139D01*
X465145Y67355D01*
X468361Y70302D01*
X471821Y72958D01*
X475500Y75301D01*
X479369Y77315D01*
X483399Y78985D01*
X487559Y80296D01*
X491818Y81240D01*
X496142Y81810D01*
X500500Y82000D01*
X500500Y482000D01*
X496142Y482190D01*
X491818Y482760D01*
X487559Y483704D01*
X483399Y485015D01*
X479369Y486685D01*
X475500Y488699D01*
X471821Y491042D01*
X468361Y493698D01*
X465145Y496645D01*
X462198Y499861D01*
X459542Y503321D01*
X457199Y507000D01*
X455185Y510869D01*
X453515Y514899D01*
X452204Y519059D01*
X451260Y523318D01*
X450690Y527642D01*
X450500Y532000D01*
X50500Y532000D01*
X50310Y527642D01*
X49740Y523318D01*
X48796Y519059D01*
X47485Y514899D01*
X45815Y510869D01*
X43801Y507000D01*
X41458Y503321D01*
X38802Y499861D01*
X35855Y496645D01*
X32639Y493698D01*
X29179Y491042D01*
X25500Y488699D01*
X21631Y486685D01*
X17601Y485015D01*
X13441Y483704D01*
X9182Y482760D01*
X4858Y482190D01*
X500Y482000D01*
X500Y82000D01*
M02*
