G04 EAGLE Gerber X2 export*
%TF.Part,Single*%
%TF.FileFunction,Legend,Bot,1*%
%TF.FilePolarity,Positive*%
%TF.GenerationSoftware,Autodesk,EAGLE,9.0.1*%
%TF.CreationDate,2018-06-02T06:43:15Z*%
G75*
%MOMM*%
%FSLAX34Y34*%
%LPD*%
%AMOC8*
5,1,8,0,0,1.08239X$1,22.5*%
G01*
%ADD10C,0.152400*%
%ADD11C,0.101600*%


D10*
X334000Y169000D02*
X334000Y49000D01*
X154000Y49000D01*
X154000Y169000D01*
X334000Y169000D01*
D11*
X402708Y269808D02*
X414392Y269808D01*
X414392Y273054D01*
X414390Y273167D01*
X414384Y273280D01*
X414374Y273393D01*
X414360Y273506D01*
X414343Y273618D01*
X414321Y273729D01*
X414296Y273839D01*
X414266Y273949D01*
X414233Y274057D01*
X414196Y274164D01*
X414156Y274270D01*
X414111Y274374D01*
X414063Y274477D01*
X414012Y274578D01*
X413957Y274677D01*
X413899Y274774D01*
X413837Y274869D01*
X413772Y274962D01*
X413704Y275052D01*
X413633Y275140D01*
X413558Y275226D01*
X413481Y275309D01*
X413401Y275389D01*
X413318Y275466D01*
X413232Y275541D01*
X413144Y275612D01*
X413054Y275680D01*
X412961Y275745D01*
X412866Y275807D01*
X412769Y275865D01*
X412670Y275920D01*
X412569Y275971D01*
X412466Y276019D01*
X412362Y276064D01*
X412256Y276104D01*
X412149Y276141D01*
X412041Y276174D01*
X411931Y276204D01*
X411821Y276229D01*
X411710Y276251D01*
X411598Y276268D01*
X411485Y276282D01*
X411372Y276292D01*
X411259Y276298D01*
X411146Y276300D01*
X411033Y276298D01*
X410920Y276292D01*
X410807Y276282D01*
X410694Y276268D01*
X410582Y276251D01*
X410471Y276229D01*
X410361Y276204D01*
X410251Y276174D01*
X410143Y276141D01*
X410036Y276104D01*
X409930Y276064D01*
X409826Y276019D01*
X409723Y275971D01*
X409622Y275920D01*
X409523Y275865D01*
X409426Y275807D01*
X409331Y275745D01*
X409238Y275680D01*
X409148Y275612D01*
X409060Y275541D01*
X408974Y275466D01*
X408891Y275389D01*
X408811Y275309D01*
X408734Y275226D01*
X408659Y275140D01*
X408588Y275052D01*
X408520Y274962D01*
X408455Y274869D01*
X408393Y274774D01*
X408335Y274677D01*
X408280Y274578D01*
X408229Y274477D01*
X408181Y274374D01*
X408136Y274270D01*
X408096Y274164D01*
X408059Y274057D01*
X408026Y273949D01*
X407996Y273839D01*
X407971Y273729D01*
X407949Y273618D01*
X407932Y273506D01*
X407918Y273393D01*
X407908Y273280D01*
X407902Y273167D01*
X407900Y273054D01*
X407901Y273054D02*
X407901Y269808D01*
X407901Y273703D02*
X402708Y276299D01*
X407901Y283761D02*
X407901Y287655D01*
X407901Y283761D02*
X407903Y283662D01*
X407909Y283562D01*
X407918Y283463D01*
X407931Y283365D01*
X407948Y283267D01*
X407969Y283169D01*
X407994Y283073D01*
X408022Y282978D01*
X408054Y282884D01*
X408089Y282791D01*
X408128Y282699D01*
X408171Y282609D01*
X408216Y282521D01*
X408266Y282434D01*
X408318Y282350D01*
X408374Y282267D01*
X408432Y282187D01*
X408494Y282109D01*
X408559Y282034D01*
X408627Y281961D01*
X408697Y281891D01*
X408770Y281823D01*
X408845Y281758D01*
X408923Y281696D01*
X409003Y281638D01*
X409086Y281582D01*
X409170Y281530D01*
X409257Y281480D01*
X409345Y281435D01*
X409435Y281392D01*
X409527Y281353D01*
X409620Y281318D01*
X409714Y281286D01*
X409809Y281258D01*
X409905Y281233D01*
X410003Y281212D01*
X410101Y281195D01*
X410199Y281182D01*
X410298Y281173D01*
X410398Y281167D01*
X410497Y281165D01*
X410497Y281164D02*
X411146Y281164D01*
X411259Y281166D01*
X411372Y281172D01*
X411485Y281182D01*
X411598Y281196D01*
X411710Y281213D01*
X411821Y281235D01*
X411931Y281260D01*
X412041Y281290D01*
X412149Y281323D01*
X412256Y281360D01*
X412362Y281400D01*
X412466Y281445D01*
X412569Y281493D01*
X412670Y281544D01*
X412769Y281599D01*
X412866Y281657D01*
X412961Y281719D01*
X413054Y281784D01*
X413144Y281852D01*
X413232Y281923D01*
X413318Y281998D01*
X413401Y282075D01*
X413481Y282155D01*
X413558Y282238D01*
X413633Y282324D01*
X413704Y282412D01*
X413772Y282502D01*
X413837Y282595D01*
X413899Y282690D01*
X413957Y282787D01*
X414012Y282886D01*
X414063Y282987D01*
X414111Y283090D01*
X414156Y283194D01*
X414196Y283300D01*
X414233Y283407D01*
X414266Y283515D01*
X414296Y283625D01*
X414321Y283735D01*
X414343Y283846D01*
X414360Y283958D01*
X414374Y284071D01*
X414384Y284184D01*
X414390Y284297D01*
X414392Y284410D01*
X414390Y284523D01*
X414384Y284636D01*
X414374Y284749D01*
X414360Y284862D01*
X414343Y284974D01*
X414321Y285085D01*
X414296Y285195D01*
X414266Y285305D01*
X414233Y285413D01*
X414196Y285520D01*
X414156Y285626D01*
X414111Y285730D01*
X414063Y285833D01*
X414012Y285934D01*
X413957Y286033D01*
X413899Y286130D01*
X413837Y286225D01*
X413772Y286318D01*
X413704Y286408D01*
X413633Y286496D01*
X413558Y286582D01*
X413481Y286665D01*
X413401Y286745D01*
X413318Y286822D01*
X413232Y286897D01*
X413144Y286968D01*
X413054Y287036D01*
X412961Y287101D01*
X412866Y287163D01*
X412769Y287221D01*
X412670Y287276D01*
X412569Y287327D01*
X412466Y287375D01*
X412362Y287420D01*
X412256Y287460D01*
X412149Y287497D01*
X412041Y287530D01*
X411931Y287560D01*
X411821Y287585D01*
X411710Y287607D01*
X411598Y287624D01*
X411485Y287638D01*
X411372Y287648D01*
X411259Y287654D01*
X411146Y287656D01*
X411146Y287655D02*
X407901Y287655D01*
X407901Y287656D02*
X407758Y287654D01*
X407615Y287648D01*
X407472Y287638D01*
X407330Y287624D01*
X407188Y287607D01*
X407046Y287585D01*
X406905Y287560D01*
X406765Y287530D01*
X406626Y287497D01*
X406488Y287460D01*
X406351Y287419D01*
X406215Y287375D01*
X406080Y287326D01*
X405947Y287274D01*
X405815Y287219D01*
X405685Y287159D01*
X405556Y287096D01*
X405429Y287030D01*
X405305Y286960D01*
X405182Y286887D01*
X405061Y286810D01*
X404942Y286730D01*
X404826Y286647D01*
X404711Y286561D01*
X404600Y286472D01*
X404490Y286379D01*
X404384Y286284D01*
X404280Y286185D01*
X404179Y286084D01*
X404080Y285980D01*
X403985Y285874D01*
X403892Y285764D01*
X403803Y285653D01*
X403717Y285538D01*
X403634Y285422D01*
X403554Y285303D01*
X403477Y285182D01*
X403404Y285060D01*
X403334Y284935D01*
X403268Y284808D01*
X403205Y284679D01*
X403145Y284549D01*
X403090Y284417D01*
X403038Y284284D01*
X402989Y284149D01*
X402945Y284013D01*
X402904Y283876D01*
X402867Y283738D01*
X402834Y283599D01*
X402804Y283459D01*
X402779Y283318D01*
X402757Y283176D01*
X402740Y283034D01*
X402726Y282892D01*
X402716Y282749D01*
X402710Y282606D01*
X402708Y282463D01*
X93292Y267915D02*
X81608Y267915D01*
X93292Y267915D02*
X93292Y271160D01*
X93290Y271273D01*
X93284Y271386D01*
X93274Y271499D01*
X93260Y271612D01*
X93243Y271724D01*
X93221Y271835D01*
X93196Y271945D01*
X93166Y272055D01*
X93133Y272163D01*
X93096Y272270D01*
X93056Y272376D01*
X93011Y272480D01*
X92963Y272583D01*
X92912Y272684D01*
X92857Y272783D01*
X92799Y272880D01*
X92737Y272975D01*
X92672Y273068D01*
X92604Y273158D01*
X92533Y273246D01*
X92458Y273332D01*
X92381Y273415D01*
X92301Y273495D01*
X92218Y273572D01*
X92132Y273647D01*
X92044Y273718D01*
X91954Y273786D01*
X91861Y273851D01*
X91766Y273913D01*
X91669Y273971D01*
X91570Y274026D01*
X91469Y274077D01*
X91366Y274125D01*
X91262Y274170D01*
X91156Y274210D01*
X91049Y274247D01*
X90941Y274280D01*
X90831Y274310D01*
X90721Y274335D01*
X90610Y274357D01*
X90498Y274374D01*
X90385Y274388D01*
X90272Y274398D01*
X90159Y274404D01*
X90046Y274406D01*
X89933Y274404D01*
X89820Y274398D01*
X89707Y274388D01*
X89594Y274374D01*
X89482Y274357D01*
X89371Y274335D01*
X89261Y274310D01*
X89151Y274280D01*
X89043Y274247D01*
X88936Y274210D01*
X88830Y274170D01*
X88726Y274125D01*
X88623Y274077D01*
X88522Y274026D01*
X88423Y273971D01*
X88326Y273913D01*
X88231Y273851D01*
X88138Y273786D01*
X88048Y273718D01*
X87960Y273647D01*
X87874Y273572D01*
X87791Y273495D01*
X87711Y273415D01*
X87634Y273332D01*
X87559Y273246D01*
X87488Y273158D01*
X87420Y273068D01*
X87355Y272975D01*
X87293Y272880D01*
X87235Y272783D01*
X87180Y272684D01*
X87129Y272583D01*
X87081Y272480D01*
X87036Y272376D01*
X86996Y272270D01*
X86959Y272163D01*
X86926Y272055D01*
X86896Y271945D01*
X86871Y271835D01*
X86849Y271724D01*
X86832Y271612D01*
X86818Y271499D01*
X86808Y271386D01*
X86802Y271273D01*
X86800Y271160D01*
X86801Y271160D02*
X86801Y267915D01*
X86801Y271809D02*
X81608Y274406D01*
X90696Y279271D02*
X93292Y282516D01*
X81608Y282516D01*
X81608Y279271D02*
X81608Y285762D01*
X87450Y290701D02*
X87680Y290704D01*
X87910Y290712D01*
X88139Y290726D01*
X88368Y290745D01*
X88597Y290770D01*
X88824Y290800D01*
X89052Y290835D01*
X89278Y290876D01*
X89503Y290922D01*
X89727Y290974D01*
X89949Y291031D01*
X90171Y291093D01*
X90390Y291161D01*
X90608Y291234D01*
X90825Y291312D01*
X91039Y291395D01*
X91251Y291483D01*
X91461Y291576D01*
X91669Y291675D01*
X91669Y291674D02*
X91759Y291707D01*
X91848Y291743D01*
X91936Y291783D01*
X92021Y291827D01*
X92105Y291874D01*
X92187Y291924D01*
X92267Y291978D01*
X92344Y292034D01*
X92420Y292094D01*
X92493Y292157D01*
X92563Y292222D01*
X92631Y292291D01*
X92695Y292362D01*
X92757Y292435D01*
X92816Y292511D01*
X92872Y292589D01*
X92925Y292670D01*
X92974Y292752D01*
X93020Y292836D01*
X93063Y292923D01*
X93102Y293010D01*
X93138Y293100D01*
X93170Y293190D01*
X93198Y293282D01*
X93223Y293375D01*
X93244Y293469D01*
X93261Y293563D01*
X93275Y293658D01*
X93284Y293754D01*
X93290Y293850D01*
X93292Y293946D01*
X93290Y294042D01*
X93284Y294138D01*
X93275Y294234D01*
X93261Y294329D01*
X93244Y294423D01*
X93223Y294517D01*
X93198Y294610D01*
X93170Y294702D01*
X93138Y294792D01*
X93102Y294882D01*
X93063Y294969D01*
X93020Y295056D01*
X92974Y295140D01*
X92925Y295222D01*
X92872Y295303D01*
X92816Y295381D01*
X92757Y295457D01*
X92695Y295530D01*
X92631Y295601D01*
X92563Y295670D01*
X92493Y295735D01*
X92420Y295798D01*
X92344Y295858D01*
X92267Y295914D01*
X92187Y295968D01*
X92105Y296018D01*
X92021Y296065D01*
X91936Y296109D01*
X91848Y296149D01*
X91759Y296185D01*
X91669Y296218D01*
X91669Y296219D02*
X91462Y296318D01*
X91252Y296411D01*
X91039Y296499D01*
X90825Y296582D01*
X90609Y296660D01*
X90391Y296733D01*
X90171Y296801D01*
X89950Y296863D01*
X89727Y296920D01*
X89503Y296972D01*
X89278Y297018D01*
X89052Y297059D01*
X88825Y297094D01*
X88597Y297124D01*
X88368Y297149D01*
X88139Y297168D01*
X87910Y297182D01*
X87680Y297190D01*
X87450Y297193D01*
X87450Y290701D02*
X87220Y290704D01*
X86990Y290712D01*
X86761Y290726D01*
X86532Y290745D01*
X86303Y290770D01*
X86075Y290800D01*
X85848Y290835D01*
X85622Y290876D01*
X85397Y290922D01*
X85173Y290974D01*
X84950Y291031D01*
X84729Y291093D01*
X84509Y291161D01*
X84291Y291234D01*
X84075Y291312D01*
X83861Y291395D01*
X83649Y291483D01*
X83438Y291576D01*
X83231Y291675D01*
X83231Y291674D02*
X83141Y291707D01*
X83052Y291743D01*
X82964Y291784D01*
X82879Y291827D01*
X82795Y291874D01*
X82713Y291924D01*
X82633Y291978D01*
X82556Y292034D01*
X82480Y292094D01*
X82407Y292157D01*
X82337Y292222D01*
X82269Y292291D01*
X82205Y292362D01*
X82143Y292435D01*
X82084Y292511D01*
X82028Y292589D01*
X81975Y292670D01*
X81926Y292752D01*
X81880Y292836D01*
X81837Y292923D01*
X81798Y293010D01*
X81762Y293100D01*
X81730Y293190D01*
X81702Y293282D01*
X81677Y293375D01*
X81656Y293469D01*
X81639Y293563D01*
X81625Y293658D01*
X81616Y293754D01*
X81610Y293850D01*
X81608Y293946D01*
X83231Y296218D02*
X83438Y296317D01*
X83649Y296410D01*
X83861Y296498D01*
X84075Y296581D01*
X84291Y296659D01*
X84509Y296732D01*
X84729Y296800D01*
X84950Y296862D01*
X85173Y296919D01*
X85397Y296971D01*
X85622Y297017D01*
X85848Y297058D01*
X86075Y297093D01*
X86303Y297123D01*
X86532Y297148D01*
X86761Y297167D01*
X86990Y297181D01*
X87220Y297189D01*
X87450Y297192D01*
X83231Y296218D02*
X83141Y296185D01*
X83052Y296149D01*
X82964Y296109D01*
X82879Y296065D01*
X82795Y296018D01*
X82713Y295968D01*
X82633Y295914D01*
X82556Y295858D01*
X82480Y295798D01*
X82407Y295735D01*
X82337Y295670D01*
X82269Y295601D01*
X82205Y295530D01*
X82143Y295457D01*
X82084Y295381D01*
X82028Y295303D01*
X81975Y295222D01*
X81926Y295140D01*
X81880Y295056D01*
X81837Y294969D01*
X81798Y294882D01*
X81762Y294792D01*
X81730Y294702D01*
X81702Y294610D01*
X81677Y294517D01*
X81656Y294423D01*
X81639Y294329D01*
X81625Y294234D01*
X81616Y294138D01*
X81610Y294042D01*
X81608Y293946D01*
X84204Y291350D02*
X90696Y296543D01*
M02*
