G04 EAGLE Gerber X2 export*
%TF.Part,Single*%
%TF.FileFunction,Legend,Top,1*%
%TF.FilePolarity,Positive*%
%TF.GenerationSoftware,Autodesk,EAGLE,9.0.1*%
%TF.CreationDate,2018-06-02T06:43:15Z*%
G75*
%MOMM*%
%FSLAX34Y34*%
%LPD*%
%AMOC8*
5,1,8,0,0,1.08239X$1,22.5*%
G01*
%ADD10C,0.152400*%
%ADD11C,0.127000*%
%ADD12R,0.508000X2.540000*%
%ADD13R,1.905000X0.762000*%
%ADD14C,0.101600*%


D10*
X500Y282000D02*
X500500Y282000D01*
X100520Y420900D02*
X59880Y420900D01*
X100520Y420900D02*
X100520Y446300D01*
X59880Y446300D01*
X59880Y420900D01*
X73850Y433600D02*
X80200Y433600D01*
X90360Y439950D02*
X90360Y427250D01*
X80200Y433600D01*
X95440Y433600D01*
X90360Y439950D02*
X80200Y433600D01*
X80200Y439950D01*
X80200Y433600D02*
X80200Y427250D01*
D11*
X60515Y450745D02*
X60515Y462175D01*
X63690Y462175D01*
X63801Y462173D01*
X63911Y462167D01*
X64022Y462158D01*
X64132Y462144D01*
X64241Y462127D01*
X64350Y462106D01*
X64458Y462081D01*
X64565Y462052D01*
X64671Y462020D01*
X64776Y461984D01*
X64879Y461944D01*
X64981Y461901D01*
X65082Y461854D01*
X65181Y461803D01*
X65278Y461750D01*
X65372Y461693D01*
X65465Y461632D01*
X65556Y461569D01*
X65645Y461502D01*
X65731Y461432D01*
X65814Y461359D01*
X65896Y461284D01*
X65974Y461206D01*
X66049Y461124D01*
X66122Y461041D01*
X66192Y460955D01*
X66259Y460866D01*
X66322Y460775D01*
X66383Y460682D01*
X66440Y460588D01*
X66493Y460491D01*
X66544Y460392D01*
X66591Y460291D01*
X66634Y460189D01*
X66674Y460086D01*
X66710Y459981D01*
X66742Y459875D01*
X66771Y459768D01*
X66796Y459660D01*
X66817Y459551D01*
X66834Y459442D01*
X66848Y459332D01*
X66857Y459221D01*
X66863Y459111D01*
X66865Y459000D01*
X66865Y453920D01*
X66863Y453809D01*
X66857Y453699D01*
X66848Y453588D01*
X66834Y453478D01*
X66817Y453369D01*
X66796Y453260D01*
X66771Y453152D01*
X66742Y453045D01*
X66710Y452939D01*
X66674Y452834D01*
X66634Y452731D01*
X66591Y452629D01*
X66544Y452528D01*
X66493Y452429D01*
X66440Y452332D01*
X66383Y452238D01*
X66322Y452145D01*
X66259Y452054D01*
X66192Y451965D01*
X66122Y451879D01*
X66049Y451796D01*
X65974Y451714D01*
X65896Y451636D01*
X65814Y451561D01*
X65731Y451488D01*
X65645Y451418D01*
X65556Y451351D01*
X65465Y451288D01*
X65372Y451227D01*
X65277Y451170D01*
X65181Y451117D01*
X65082Y451066D01*
X64981Y451019D01*
X64879Y450976D01*
X64776Y450936D01*
X64671Y450900D01*
X64565Y450868D01*
X64458Y450839D01*
X64350Y450814D01*
X64241Y450793D01*
X64132Y450776D01*
X64022Y450762D01*
X63911Y450753D01*
X63801Y450747D01*
X63690Y450745D01*
X60515Y450745D01*
X72326Y459635D02*
X75501Y462175D01*
X75501Y450745D01*
X72326Y450745D02*
X78676Y450745D01*
D12*
X66230Y433600D03*
D13*
X110045Y433600D03*
X50355Y433600D03*
D10*
X398480Y447100D02*
X439120Y447100D01*
X398480Y447100D02*
X398480Y421700D01*
X439120Y421700D01*
X439120Y447100D01*
X425150Y434400D02*
X418800Y434400D01*
X408640Y428050D02*
X408640Y440750D01*
X418800Y434400D01*
X403560Y434400D01*
X408640Y428050D02*
X418800Y434400D01*
X418800Y428050D01*
X418800Y434400D02*
X418800Y440750D01*
D11*
X420324Y417255D02*
X420324Y405825D01*
X420324Y417255D02*
X423499Y417255D01*
X423610Y417253D01*
X423720Y417247D01*
X423831Y417238D01*
X423941Y417224D01*
X424050Y417207D01*
X424159Y417186D01*
X424267Y417161D01*
X424374Y417132D01*
X424480Y417100D01*
X424585Y417064D01*
X424688Y417024D01*
X424790Y416981D01*
X424891Y416934D01*
X424990Y416883D01*
X425087Y416830D01*
X425181Y416773D01*
X425274Y416712D01*
X425365Y416649D01*
X425454Y416582D01*
X425540Y416512D01*
X425623Y416439D01*
X425705Y416364D01*
X425783Y416286D01*
X425858Y416204D01*
X425931Y416121D01*
X426001Y416035D01*
X426068Y415946D01*
X426131Y415855D01*
X426192Y415762D01*
X426249Y415668D01*
X426302Y415571D01*
X426353Y415472D01*
X426400Y415371D01*
X426443Y415269D01*
X426483Y415166D01*
X426519Y415061D01*
X426551Y414955D01*
X426580Y414848D01*
X426605Y414740D01*
X426626Y414631D01*
X426643Y414522D01*
X426657Y414412D01*
X426666Y414301D01*
X426672Y414191D01*
X426674Y414080D01*
X426674Y409000D01*
X426672Y408889D01*
X426666Y408779D01*
X426657Y408668D01*
X426643Y408558D01*
X426626Y408449D01*
X426605Y408340D01*
X426580Y408232D01*
X426551Y408125D01*
X426519Y408019D01*
X426483Y407914D01*
X426443Y407811D01*
X426400Y407709D01*
X426353Y407608D01*
X426302Y407509D01*
X426249Y407412D01*
X426192Y407318D01*
X426131Y407225D01*
X426068Y407134D01*
X426001Y407045D01*
X425931Y406959D01*
X425858Y406876D01*
X425783Y406794D01*
X425705Y406716D01*
X425623Y406641D01*
X425540Y406568D01*
X425454Y406498D01*
X425365Y406431D01*
X425274Y406368D01*
X425181Y406307D01*
X425087Y406250D01*
X424990Y406197D01*
X424891Y406146D01*
X424790Y406099D01*
X424688Y406056D01*
X424585Y406016D01*
X424480Y405980D01*
X424374Y405948D01*
X424267Y405919D01*
X424159Y405894D01*
X424050Y405873D01*
X423941Y405856D01*
X423831Y405842D01*
X423720Y405833D01*
X423610Y405827D01*
X423499Y405825D01*
X420324Y405825D01*
X435628Y417256D02*
X435732Y417254D01*
X435837Y417248D01*
X435941Y417239D01*
X436044Y417226D01*
X436147Y417208D01*
X436249Y417188D01*
X436351Y417163D01*
X436451Y417135D01*
X436551Y417103D01*
X436649Y417067D01*
X436746Y417028D01*
X436841Y416986D01*
X436935Y416940D01*
X437027Y416890D01*
X437117Y416838D01*
X437205Y416782D01*
X437291Y416722D01*
X437375Y416660D01*
X437456Y416595D01*
X437535Y416527D01*
X437612Y416455D01*
X437685Y416382D01*
X437757Y416305D01*
X437825Y416226D01*
X437890Y416145D01*
X437952Y416061D01*
X438012Y415975D01*
X438068Y415887D01*
X438120Y415797D01*
X438170Y415705D01*
X438216Y415611D01*
X438258Y415516D01*
X438297Y415419D01*
X438333Y415321D01*
X438365Y415221D01*
X438393Y415121D01*
X438418Y415019D01*
X438438Y414917D01*
X438456Y414814D01*
X438469Y414711D01*
X438478Y414607D01*
X438484Y414502D01*
X438486Y414398D01*
X435628Y417255D02*
X435510Y417253D01*
X435391Y417247D01*
X435273Y417238D01*
X435156Y417225D01*
X435039Y417207D01*
X434922Y417187D01*
X434806Y417162D01*
X434691Y417134D01*
X434578Y417101D01*
X434465Y417066D01*
X434353Y417026D01*
X434243Y416984D01*
X434134Y416937D01*
X434026Y416887D01*
X433921Y416834D01*
X433817Y416777D01*
X433715Y416717D01*
X433615Y416654D01*
X433517Y416587D01*
X433421Y416518D01*
X433328Y416445D01*
X433237Y416369D01*
X433148Y416291D01*
X433062Y416209D01*
X432979Y416125D01*
X432898Y416039D01*
X432821Y415949D01*
X432746Y415858D01*
X432674Y415764D01*
X432605Y415667D01*
X432540Y415569D01*
X432477Y415468D01*
X432418Y415365D01*
X432362Y415261D01*
X432310Y415155D01*
X432261Y415047D01*
X432216Y414938D01*
X432174Y414827D01*
X432136Y414715D01*
X437533Y412176D02*
X437609Y412251D01*
X437684Y412330D01*
X437755Y412411D01*
X437824Y412495D01*
X437889Y412581D01*
X437951Y412669D01*
X438011Y412759D01*
X438067Y412851D01*
X438120Y412946D01*
X438169Y413042D01*
X438215Y413140D01*
X438258Y413239D01*
X438297Y413340D01*
X438332Y413442D01*
X438364Y413545D01*
X438392Y413649D01*
X438417Y413754D01*
X438438Y413861D01*
X438455Y413967D01*
X438468Y414074D01*
X438477Y414182D01*
X438483Y414290D01*
X438485Y414398D01*
X437533Y412175D02*
X432135Y405825D01*
X438485Y405825D01*
D12*
X432770Y434400D03*
D13*
X388955Y434400D03*
X448645Y434400D03*
D10*
X440120Y142100D02*
X399480Y142100D01*
X399480Y116700D01*
X440120Y116700D01*
X440120Y142100D01*
X426150Y129400D02*
X419800Y129400D01*
X409640Y123050D02*
X409640Y135750D01*
X419800Y129400D01*
X404560Y129400D01*
X409640Y123050D02*
X419800Y129400D01*
X419800Y123050D01*
X419800Y129400D02*
X419800Y135750D01*
D11*
X421324Y112255D02*
X421324Y100825D01*
X421324Y112255D02*
X424499Y112255D01*
X424610Y112253D01*
X424720Y112247D01*
X424831Y112238D01*
X424941Y112224D01*
X425050Y112207D01*
X425159Y112186D01*
X425267Y112161D01*
X425374Y112132D01*
X425480Y112100D01*
X425585Y112064D01*
X425688Y112024D01*
X425790Y111981D01*
X425891Y111934D01*
X425990Y111883D01*
X426087Y111830D01*
X426181Y111773D01*
X426274Y111712D01*
X426365Y111649D01*
X426454Y111582D01*
X426540Y111512D01*
X426623Y111439D01*
X426705Y111364D01*
X426783Y111286D01*
X426858Y111204D01*
X426931Y111121D01*
X427001Y111035D01*
X427068Y110946D01*
X427131Y110855D01*
X427192Y110762D01*
X427249Y110668D01*
X427302Y110571D01*
X427353Y110472D01*
X427400Y110371D01*
X427443Y110269D01*
X427483Y110166D01*
X427519Y110061D01*
X427551Y109955D01*
X427580Y109848D01*
X427605Y109740D01*
X427626Y109631D01*
X427643Y109522D01*
X427657Y109412D01*
X427666Y109301D01*
X427672Y109191D01*
X427674Y109080D01*
X427674Y104000D01*
X427672Y103889D01*
X427666Y103779D01*
X427657Y103668D01*
X427643Y103558D01*
X427626Y103449D01*
X427605Y103340D01*
X427580Y103232D01*
X427551Y103125D01*
X427519Y103019D01*
X427483Y102914D01*
X427443Y102811D01*
X427400Y102709D01*
X427353Y102608D01*
X427302Y102509D01*
X427249Y102412D01*
X427192Y102318D01*
X427131Y102225D01*
X427068Y102134D01*
X427001Y102045D01*
X426931Y101959D01*
X426858Y101876D01*
X426783Y101794D01*
X426705Y101716D01*
X426623Y101641D01*
X426540Y101568D01*
X426454Y101498D01*
X426365Y101431D01*
X426274Y101368D01*
X426181Y101307D01*
X426087Y101250D01*
X425990Y101197D01*
X425891Y101146D01*
X425790Y101099D01*
X425688Y101056D01*
X425585Y101016D01*
X425480Y100980D01*
X425374Y100948D01*
X425267Y100919D01*
X425159Y100894D01*
X425050Y100873D01*
X424941Y100856D01*
X424831Y100842D01*
X424720Y100833D01*
X424610Y100827D01*
X424499Y100825D01*
X421324Y100825D01*
X433135Y100825D02*
X436310Y100825D01*
X436421Y100827D01*
X436531Y100833D01*
X436642Y100842D01*
X436752Y100856D01*
X436861Y100873D01*
X436970Y100894D01*
X437078Y100919D01*
X437185Y100948D01*
X437291Y100980D01*
X437396Y101016D01*
X437499Y101056D01*
X437601Y101099D01*
X437702Y101146D01*
X437801Y101197D01*
X437898Y101250D01*
X437992Y101307D01*
X438085Y101368D01*
X438176Y101431D01*
X438265Y101498D01*
X438351Y101568D01*
X438434Y101641D01*
X438516Y101716D01*
X438594Y101794D01*
X438669Y101876D01*
X438742Y101959D01*
X438812Y102045D01*
X438879Y102134D01*
X438942Y102225D01*
X439003Y102318D01*
X439060Y102412D01*
X439113Y102509D01*
X439164Y102608D01*
X439211Y102709D01*
X439254Y102811D01*
X439294Y102914D01*
X439330Y103019D01*
X439362Y103125D01*
X439391Y103232D01*
X439416Y103340D01*
X439437Y103449D01*
X439454Y103558D01*
X439468Y103668D01*
X439477Y103779D01*
X439483Y103889D01*
X439485Y104000D01*
X439483Y104111D01*
X439477Y104221D01*
X439468Y104332D01*
X439454Y104442D01*
X439437Y104551D01*
X439416Y104660D01*
X439391Y104768D01*
X439362Y104875D01*
X439330Y104981D01*
X439294Y105086D01*
X439254Y105189D01*
X439211Y105291D01*
X439164Y105392D01*
X439113Y105491D01*
X439060Y105587D01*
X439003Y105682D01*
X438942Y105775D01*
X438879Y105866D01*
X438812Y105955D01*
X438742Y106041D01*
X438669Y106124D01*
X438594Y106206D01*
X438516Y106284D01*
X438434Y106359D01*
X438351Y106432D01*
X438265Y106502D01*
X438176Y106569D01*
X438085Y106632D01*
X437992Y106693D01*
X437898Y106750D01*
X437801Y106803D01*
X437702Y106854D01*
X437601Y106901D01*
X437499Y106944D01*
X437396Y106984D01*
X437291Y107020D01*
X437185Y107052D01*
X437078Y107081D01*
X436970Y107106D01*
X436861Y107127D01*
X436752Y107144D01*
X436642Y107158D01*
X436531Y107167D01*
X436421Y107173D01*
X436310Y107175D01*
X436945Y112255D02*
X433135Y112255D01*
X436945Y112255D02*
X437045Y112253D01*
X437144Y112247D01*
X437244Y112237D01*
X437342Y112224D01*
X437441Y112206D01*
X437538Y112185D01*
X437634Y112160D01*
X437730Y112131D01*
X437824Y112098D01*
X437917Y112062D01*
X438008Y112022D01*
X438098Y111978D01*
X438186Y111931D01*
X438272Y111881D01*
X438356Y111827D01*
X438438Y111770D01*
X438517Y111710D01*
X438595Y111646D01*
X438669Y111580D01*
X438741Y111511D01*
X438810Y111439D01*
X438876Y111365D01*
X438940Y111287D01*
X439000Y111208D01*
X439057Y111126D01*
X439111Y111042D01*
X439161Y110956D01*
X439208Y110868D01*
X439252Y110778D01*
X439292Y110687D01*
X439328Y110594D01*
X439361Y110500D01*
X439390Y110404D01*
X439415Y110308D01*
X439436Y110211D01*
X439454Y110112D01*
X439467Y110014D01*
X439477Y109914D01*
X439483Y109815D01*
X439485Y109715D01*
X439483Y109615D01*
X439477Y109516D01*
X439467Y109416D01*
X439454Y109318D01*
X439436Y109219D01*
X439415Y109122D01*
X439390Y109026D01*
X439361Y108930D01*
X439328Y108836D01*
X439292Y108743D01*
X439252Y108652D01*
X439208Y108562D01*
X439161Y108474D01*
X439111Y108388D01*
X439057Y108304D01*
X439000Y108222D01*
X438940Y108143D01*
X438876Y108065D01*
X438810Y107991D01*
X438741Y107919D01*
X438669Y107850D01*
X438595Y107784D01*
X438517Y107720D01*
X438438Y107660D01*
X438356Y107603D01*
X438272Y107549D01*
X438186Y107499D01*
X438098Y107452D01*
X438008Y107408D01*
X437917Y107368D01*
X437824Y107332D01*
X437730Y107299D01*
X437634Y107270D01*
X437538Y107245D01*
X437441Y107224D01*
X437342Y107206D01*
X437244Y107193D01*
X437144Y107183D01*
X437045Y107177D01*
X436945Y107175D01*
X434405Y107175D01*
D12*
X433770Y129400D03*
D13*
X389955Y129400D03*
X449645Y129400D03*
D10*
X99320Y116100D02*
X58680Y116100D01*
X99320Y116100D02*
X99320Y141500D01*
X58680Y141500D01*
X58680Y116100D01*
X72650Y128800D02*
X79000Y128800D01*
X89160Y135150D02*
X89160Y122450D01*
X79000Y128800D01*
X94240Y128800D01*
X89160Y135150D02*
X79000Y128800D01*
X79000Y135150D01*
X79000Y128800D02*
X79000Y122450D01*
D11*
X59315Y145945D02*
X59315Y157375D01*
X62490Y157375D01*
X62601Y157373D01*
X62711Y157367D01*
X62822Y157358D01*
X62932Y157344D01*
X63041Y157327D01*
X63150Y157306D01*
X63258Y157281D01*
X63365Y157252D01*
X63471Y157220D01*
X63576Y157184D01*
X63679Y157144D01*
X63781Y157101D01*
X63882Y157054D01*
X63981Y157003D01*
X64078Y156950D01*
X64172Y156893D01*
X64265Y156832D01*
X64356Y156769D01*
X64445Y156702D01*
X64531Y156632D01*
X64614Y156559D01*
X64696Y156484D01*
X64774Y156406D01*
X64849Y156324D01*
X64922Y156241D01*
X64992Y156155D01*
X65059Y156066D01*
X65122Y155975D01*
X65183Y155882D01*
X65240Y155788D01*
X65293Y155691D01*
X65344Y155592D01*
X65391Y155491D01*
X65434Y155389D01*
X65474Y155286D01*
X65510Y155181D01*
X65542Y155075D01*
X65571Y154968D01*
X65596Y154860D01*
X65617Y154751D01*
X65634Y154642D01*
X65648Y154532D01*
X65657Y154421D01*
X65663Y154311D01*
X65665Y154200D01*
X65665Y149120D01*
X65663Y149009D01*
X65657Y148899D01*
X65648Y148788D01*
X65634Y148678D01*
X65617Y148569D01*
X65596Y148460D01*
X65571Y148352D01*
X65542Y148245D01*
X65510Y148139D01*
X65474Y148034D01*
X65434Y147931D01*
X65391Y147829D01*
X65344Y147728D01*
X65293Y147629D01*
X65240Y147532D01*
X65183Y147438D01*
X65122Y147345D01*
X65059Y147254D01*
X64992Y147165D01*
X64922Y147079D01*
X64849Y146996D01*
X64774Y146914D01*
X64696Y146836D01*
X64614Y146761D01*
X64531Y146688D01*
X64445Y146618D01*
X64356Y146551D01*
X64265Y146488D01*
X64172Y146427D01*
X64077Y146370D01*
X63981Y146317D01*
X63882Y146266D01*
X63781Y146219D01*
X63679Y146176D01*
X63576Y146136D01*
X63471Y146100D01*
X63365Y146068D01*
X63258Y146039D01*
X63150Y146014D01*
X63041Y145993D01*
X62932Y145976D01*
X62822Y145962D01*
X62711Y145953D01*
X62601Y145947D01*
X62490Y145945D01*
X59315Y145945D01*
X71126Y148485D02*
X73666Y157375D01*
X71126Y148485D02*
X77476Y148485D01*
X75571Y151025D02*
X75571Y145945D01*
D12*
X65030Y128800D03*
D13*
X108845Y128800D03*
X49155Y128800D03*
D11*
X457272Y450327D02*
X475232Y468288D01*
X457272Y450327D02*
X441556Y466043D01*
X441556Y470533D01*
X437066Y470533D01*
X421351Y486248D01*
X439311Y504209D01*
X455027Y488493D01*
X455027Y484003D01*
X459517Y484003D01*
X475232Y468288D01*
D14*
X364100Y91700D02*
X351100Y91700D01*
X364100Y91700D02*
X364100Y62700D01*
X351100Y62700D01*
X351100Y91700D01*
D11*
X47632Y112637D02*
X29672Y94677D01*
X47632Y112637D02*
X63348Y96922D01*
X63348Y92432D01*
X67838Y92432D01*
X83553Y76716D01*
X65593Y58756D01*
X49877Y74471D01*
X49877Y78961D01*
X45387Y78961D01*
X29672Y94677D01*
X43752Y450546D02*
X25792Y468506D01*
X41507Y484222D01*
X45997Y484222D01*
X45997Y488712D01*
X61713Y504427D01*
X79673Y486467D01*
X63958Y470751D01*
X59468Y470751D01*
X59468Y466261D01*
X43752Y450546D01*
D14*
X135400Y62200D02*
X148400Y62200D01*
X135400Y62200D02*
X135400Y91200D01*
X148400Y91200D01*
X148400Y62200D01*
X148900Y471900D02*
X135900Y471900D01*
X135900Y500900D01*
X148900Y500900D01*
X148900Y471900D01*
X349600Y501900D02*
X362600Y501900D01*
X362600Y472900D01*
X349600Y472900D01*
X349600Y501900D01*
D11*
X456642Y112051D02*
X474602Y94090D01*
X458887Y78375D01*
X454397Y78375D01*
X454397Y73885D01*
X438681Y58169D01*
X420721Y76130D01*
X436436Y91845D01*
X440926Y91845D01*
X440926Y96335D01*
X456642Y112051D01*
X325650Y390250D02*
X166900Y390250D01*
X325650Y390250D02*
X325650Y180700D01*
X166900Y180700D01*
X166900Y390250D01*
X255800Y193400D02*
X293900Y193400D01*
X287550Y199750D01*
X293900Y193400D02*
X287550Y187050D01*
X255800Y193400D02*
X255800Y231500D01*
X262150Y225150D01*
X255800Y231500D02*
X249450Y225150D01*
D14*
X300758Y193908D02*
X305951Y201697D01*
X300758Y201697D02*
X305951Y193908D01*
X270306Y228113D02*
X269008Y228113D01*
X270306Y228113D02*
X274201Y239797D01*
X269008Y239797D02*
X271604Y232008D01*
X307108Y271406D02*
X318792Y271406D01*
X318792Y270108D02*
X318792Y272704D01*
X307108Y272704D02*
X307108Y270108D01*
X307108Y279788D02*
X318792Y279788D01*
X307108Y276543D02*
X307108Y283034D01*
X312301Y292135D02*
X312301Y294083D01*
X318792Y294083D01*
X318792Y290188D01*
X318790Y290089D01*
X318784Y289989D01*
X318775Y289890D01*
X318762Y289792D01*
X318745Y289694D01*
X318724Y289596D01*
X318699Y289500D01*
X318671Y289405D01*
X318639Y289311D01*
X318604Y289218D01*
X318565Y289126D01*
X318522Y289036D01*
X318477Y288948D01*
X318427Y288861D01*
X318375Y288777D01*
X318319Y288694D01*
X318261Y288614D01*
X318199Y288536D01*
X318134Y288461D01*
X318066Y288388D01*
X317996Y288318D01*
X317923Y288250D01*
X317848Y288185D01*
X317770Y288123D01*
X317690Y288065D01*
X317607Y288009D01*
X317523Y287957D01*
X317436Y287907D01*
X317348Y287862D01*
X317258Y287819D01*
X317166Y287780D01*
X317073Y287745D01*
X316979Y287713D01*
X316884Y287685D01*
X316788Y287660D01*
X316690Y287639D01*
X316592Y287622D01*
X316494Y287609D01*
X316395Y287600D01*
X316295Y287594D01*
X316196Y287592D01*
X309704Y287592D01*
X309704Y287591D02*
X309605Y287593D01*
X309505Y287599D01*
X309406Y287608D01*
X309308Y287621D01*
X309210Y287639D01*
X309112Y287659D01*
X309016Y287684D01*
X308920Y287712D01*
X308826Y287744D01*
X308733Y287779D01*
X308642Y287818D01*
X308552Y287861D01*
X308463Y287906D01*
X308377Y287956D01*
X308292Y288008D01*
X308210Y288064D01*
X308130Y288123D01*
X308052Y288184D01*
X307976Y288249D01*
X307903Y288317D01*
X307833Y288387D01*
X307765Y288460D01*
X307700Y288536D01*
X307639Y288614D01*
X307580Y288694D01*
X307524Y288776D01*
X307472Y288861D01*
X307423Y288947D01*
X307377Y289036D01*
X307334Y289126D01*
X307295Y289217D01*
X307260Y289310D01*
X307228Y289404D01*
X307200Y289500D01*
X307175Y289596D01*
X307155Y289694D01*
X307137Y289792D01*
X307124Y289890D01*
X307115Y289989D01*
X307109Y290088D01*
X307107Y290188D01*
X307108Y290188D02*
X307108Y294083D01*
X305810Y304102D02*
X320090Y298909D01*
X318792Y309041D02*
X307108Y309041D01*
X313599Y312935D01*
X307108Y316830D01*
X318792Y316830D01*
X318792Y322813D02*
X307108Y322813D01*
X307108Y326058D01*
X307110Y326171D01*
X307116Y326284D01*
X307126Y326397D01*
X307140Y326510D01*
X307157Y326622D01*
X307179Y326733D01*
X307204Y326843D01*
X307234Y326953D01*
X307267Y327061D01*
X307304Y327168D01*
X307344Y327274D01*
X307389Y327378D01*
X307437Y327481D01*
X307488Y327582D01*
X307543Y327681D01*
X307601Y327778D01*
X307663Y327873D01*
X307728Y327966D01*
X307796Y328056D01*
X307867Y328144D01*
X307942Y328230D01*
X308019Y328313D01*
X308099Y328393D01*
X308182Y328470D01*
X308268Y328545D01*
X308356Y328616D01*
X308446Y328684D01*
X308539Y328749D01*
X308634Y328811D01*
X308731Y328869D01*
X308830Y328924D01*
X308931Y328975D01*
X309034Y329023D01*
X309138Y329068D01*
X309244Y329108D01*
X309351Y329145D01*
X309459Y329178D01*
X309569Y329208D01*
X309679Y329233D01*
X309790Y329255D01*
X309902Y329272D01*
X310015Y329286D01*
X310128Y329296D01*
X310241Y329302D01*
X310354Y329304D01*
X310467Y329302D01*
X310580Y329296D01*
X310693Y329286D01*
X310806Y329272D01*
X310918Y329255D01*
X311029Y329233D01*
X311139Y329208D01*
X311249Y329178D01*
X311357Y329145D01*
X311464Y329108D01*
X311570Y329068D01*
X311674Y329023D01*
X311777Y328975D01*
X311878Y328924D01*
X311977Y328869D01*
X312074Y328811D01*
X312169Y328749D01*
X312262Y328684D01*
X312352Y328616D01*
X312440Y328545D01*
X312526Y328470D01*
X312609Y328393D01*
X312689Y328313D01*
X312766Y328230D01*
X312841Y328144D01*
X312912Y328056D01*
X312980Y327966D01*
X313045Y327873D01*
X313107Y327778D01*
X313165Y327681D01*
X313220Y327582D01*
X313271Y327481D01*
X313319Y327378D01*
X313364Y327274D01*
X313404Y327168D01*
X313441Y327061D01*
X313474Y326953D01*
X313504Y326843D01*
X313529Y326733D01*
X313551Y326622D01*
X313568Y326510D01*
X313582Y326397D01*
X313592Y326284D01*
X313598Y326171D01*
X313600Y326058D01*
X313599Y326058D02*
X313599Y322813D01*
X315546Y334074D02*
X307108Y334074D01*
X315546Y334073D02*
X315659Y334075D01*
X315772Y334081D01*
X315885Y334091D01*
X315998Y334105D01*
X316110Y334122D01*
X316221Y334144D01*
X316331Y334169D01*
X316441Y334199D01*
X316549Y334232D01*
X316656Y334269D01*
X316762Y334309D01*
X316866Y334354D01*
X316969Y334402D01*
X317070Y334453D01*
X317169Y334508D01*
X317266Y334566D01*
X317361Y334628D01*
X317454Y334693D01*
X317544Y334761D01*
X317632Y334832D01*
X317718Y334907D01*
X317801Y334984D01*
X317881Y335064D01*
X317958Y335147D01*
X318033Y335233D01*
X318104Y335321D01*
X318172Y335411D01*
X318237Y335504D01*
X318299Y335599D01*
X318357Y335696D01*
X318412Y335795D01*
X318463Y335896D01*
X318511Y335999D01*
X318556Y336103D01*
X318596Y336209D01*
X318633Y336316D01*
X318666Y336424D01*
X318696Y336534D01*
X318721Y336644D01*
X318743Y336755D01*
X318760Y336867D01*
X318774Y336980D01*
X318784Y337093D01*
X318790Y337206D01*
X318792Y337319D01*
X318790Y337432D01*
X318784Y337545D01*
X318774Y337658D01*
X318760Y337771D01*
X318743Y337883D01*
X318721Y337994D01*
X318696Y338104D01*
X318666Y338214D01*
X318633Y338322D01*
X318596Y338429D01*
X318556Y338535D01*
X318511Y338639D01*
X318463Y338742D01*
X318412Y338843D01*
X318357Y338942D01*
X318299Y339039D01*
X318237Y339134D01*
X318172Y339227D01*
X318104Y339317D01*
X318033Y339405D01*
X317958Y339491D01*
X317881Y339574D01*
X317801Y339654D01*
X317718Y339731D01*
X317632Y339806D01*
X317544Y339877D01*
X317454Y339945D01*
X317361Y340010D01*
X317266Y340072D01*
X317169Y340130D01*
X317070Y340185D01*
X316969Y340236D01*
X316866Y340284D01*
X316762Y340329D01*
X316656Y340369D01*
X316549Y340406D01*
X316441Y340439D01*
X316331Y340469D01*
X316221Y340494D01*
X316110Y340516D01*
X315998Y340533D01*
X315885Y340547D01*
X315772Y340557D01*
X315659Y340563D01*
X315546Y340565D01*
X307108Y340565D01*
X215845Y422108D02*
X215845Y433792D01*
X219090Y433792D01*
X219203Y433790D01*
X219316Y433784D01*
X219429Y433774D01*
X219542Y433760D01*
X219654Y433743D01*
X219765Y433721D01*
X219875Y433696D01*
X219985Y433666D01*
X220093Y433633D01*
X220200Y433596D01*
X220306Y433556D01*
X220410Y433511D01*
X220513Y433463D01*
X220614Y433412D01*
X220713Y433357D01*
X220810Y433299D01*
X220905Y433237D01*
X220998Y433172D01*
X221088Y433104D01*
X221176Y433033D01*
X221262Y432958D01*
X221345Y432881D01*
X221425Y432801D01*
X221502Y432718D01*
X221577Y432632D01*
X221648Y432544D01*
X221716Y432454D01*
X221781Y432361D01*
X221843Y432266D01*
X221901Y432169D01*
X221956Y432070D01*
X222007Y431969D01*
X222055Y431866D01*
X222100Y431762D01*
X222140Y431656D01*
X222177Y431549D01*
X222210Y431441D01*
X222240Y431331D01*
X222265Y431221D01*
X222287Y431110D01*
X222304Y430998D01*
X222318Y430885D01*
X222328Y430772D01*
X222334Y430659D01*
X222336Y430546D01*
X222334Y430433D01*
X222328Y430320D01*
X222318Y430207D01*
X222304Y430094D01*
X222287Y429982D01*
X222265Y429871D01*
X222240Y429761D01*
X222210Y429651D01*
X222177Y429543D01*
X222140Y429436D01*
X222100Y429330D01*
X222055Y429226D01*
X222007Y429123D01*
X221956Y429022D01*
X221901Y428923D01*
X221843Y428826D01*
X221781Y428731D01*
X221716Y428638D01*
X221648Y428548D01*
X221577Y428460D01*
X221502Y428374D01*
X221425Y428291D01*
X221345Y428211D01*
X221262Y428134D01*
X221176Y428059D01*
X221088Y427988D01*
X220998Y427920D01*
X220905Y427855D01*
X220810Y427793D01*
X220713Y427735D01*
X220614Y427680D01*
X220513Y427629D01*
X220410Y427581D01*
X220306Y427536D01*
X220200Y427496D01*
X220093Y427459D01*
X219985Y427426D01*
X219875Y427396D01*
X219765Y427371D01*
X219654Y427349D01*
X219542Y427332D01*
X219429Y427318D01*
X219316Y427308D01*
X219203Y427302D01*
X219090Y427300D01*
X219090Y427301D02*
X215845Y427301D01*
X219739Y427301D02*
X222336Y422108D01*
X227201Y431196D02*
X230446Y433792D01*
X230446Y422108D01*
X227201Y422108D02*
X233692Y422108D01*
X215845Y450108D02*
X215845Y461792D01*
X219090Y461792D01*
X219203Y461790D01*
X219316Y461784D01*
X219429Y461774D01*
X219542Y461760D01*
X219654Y461743D01*
X219765Y461721D01*
X219875Y461696D01*
X219985Y461666D01*
X220093Y461633D01*
X220200Y461596D01*
X220306Y461556D01*
X220410Y461511D01*
X220513Y461463D01*
X220614Y461412D01*
X220713Y461357D01*
X220810Y461299D01*
X220905Y461237D01*
X220998Y461172D01*
X221088Y461104D01*
X221176Y461033D01*
X221262Y460958D01*
X221345Y460881D01*
X221425Y460801D01*
X221502Y460718D01*
X221577Y460632D01*
X221648Y460544D01*
X221716Y460454D01*
X221781Y460361D01*
X221843Y460266D01*
X221901Y460169D01*
X221956Y460070D01*
X222007Y459969D01*
X222055Y459866D01*
X222100Y459762D01*
X222140Y459656D01*
X222177Y459549D01*
X222210Y459441D01*
X222240Y459331D01*
X222265Y459221D01*
X222287Y459110D01*
X222304Y458998D01*
X222318Y458885D01*
X222328Y458772D01*
X222334Y458659D01*
X222336Y458546D01*
X222334Y458433D01*
X222328Y458320D01*
X222318Y458207D01*
X222304Y458094D01*
X222287Y457982D01*
X222265Y457871D01*
X222240Y457761D01*
X222210Y457651D01*
X222177Y457543D01*
X222140Y457436D01*
X222100Y457330D01*
X222055Y457226D01*
X222007Y457123D01*
X221956Y457022D01*
X221901Y456923D01*
X221843Y456826D01*
X221781Y456731D01*
X221716Y456638D01*
X221648Y456548D01*
X221577Y456460D01*
X221502Y456374D01*
X221425Y456291D01*
X221345Y456211D01*
X221262Y456134D01*
X221176Y456059D01*
X221088Y455988D01*
X220998Y455920D01*
X220905Y455855D01*
X220810Y455793D01*
X220713Y455735D01*
X220614Y455680D01*
X220513Y455629D01*
X220410Y455581D01*
X220306Y455536D01*
X220200Y455496D01*
X220093Y455459D01*
X219985Y455426D01*
X219875Y455396D01*
X219765Y455371D01*
X219654Y455349D01*
X219542Y455332D01*
X219429Y455318D01*
X219316Y455308D01*
X219203Y455302D01*
X219090Y455300D01*
X219090Y455301D02*
X215845Y455301D01*
X219739Y455301D02*
X222336Y450108D01*
X233692Y458871D02*
X233690Y458978D01*
X233684Y459084D01*
X233674Y459190D01*
X233661Y459296D01*
X233643Y459402D01*
X233622Y459506D01*
X233597Y459610D01*
X233568Y459713D01*
X233536Y459814D01*
X233499Y459914D01*
X233459Y460013D01*
X233416Y460111D01*
X233369Y460207D01*
X233318Y460301D01*
X233264Y460393D01*
X233207Y460483D01*
X233147Y460571D01*
X233083Y460656D01*
X233016Y460739D01*
X232946Y460820D01*
X232874Y460898D01*
X232798Y460974D01*
X232720Y461046D01*
X232639Y461116D01*
X232556Y461183D01*
X232471Y461247D01*
X232383Y461307D01*
X232293Y461364D01*
X232201Y461418D01*
X232107Y461469D01*
X232011Y461516D01*
X231913Y461559D01*
X231814Y461599D01*
X231714Y461636D01*
X231613Y461668D01*
X231510Y461697D01*
X231406Y461722D01*
X231302Y461743D01*
X231196Y461761D01*
X231090Y461774D01*
X230984Y461784D01*
X230878Y461790D01*
X230771Y461792D01*
X230650Y461790D01*
X230529Y461784D01*
X230409Y461774D01*
X230288Y461761D01*
X230169Y461743D01*
X230049Y461722D01*
X229931Y461697D01*
X229814Y461668D01*
X229697Y461635D01*
X229582Y461599D01*
X229468Y461558D01*
X229355Y461515D01*
X229243Y461467D01*
X229134Y461416D01*
X229026Y461361D01*
X228919Y461303D01*
X228815Y461242D01*
X228713Y461177D01*
X228613Y461109D01*
X228515Y461038D01*
X228419Y460964D01*
X228326Y460887D01*
X228236Y460806D01*
X228148Y460723D01*
X228063Y460637D01*
X227980Y460548D01*
X227901Y460457D01*
X227824Y460363D01*
X227751Y460267D01*
X227681Y460169D01*
X227614Y460068D01*
X227550Y459965D01*
X227490Y459860D01*
X227433Y459753D01*
X227379Y459645D01*
X227329Y459535D01*
X227283Y459423D01*
X227240Y459310D01*
X227201Y459195D01*
X232719Y456599D02*
X232798Y456676D01*
X232874Y456757D01*
X232947Y456840D01*
X233017Y456925D01*
X233084Y457013D01*
X233148Y457103D01*
X233208Y457195D01*
X233265Y457290D01*
X233319Y457386D01*
X233370Y457484D01*
X233417Y457584D01*
X233461Y457686D01*
X233501Y457789D01*
X233537Y457893D01*
X233569Y457999D01*
X233598Y458105D01*
X233623Y458213D01*
X233645Y458321D01*
X233662Y458431D01*
X233676Y458540D01*
X233685Y458650D01*
X233691Y458761D01*
X233693Y458871D01*
X232718Y456599D02*
X227201Y450108D01*
X233692Y450108D01*
X273845Y450108D02*
X273845Y461792D01*
X277090Y461792D01*
X277203Y461790D01*
X277316Y461784D01*
X277429Y461774D01*
X277542Y461760D01*
X277654Y461743D01*
X277765Y461721D01*
X277875Y461696D01*
X277985Y461666D01*
X278093Y461633D01*
X278200Y461596D01*
X278306Y461556D01*
X278410Y461511D01*
X278513Y461463D01*
X278614Y461412D01*
X278713Y461357D01*
X278810Y461299D01*
X278905Y461237D01*
X278998Y461172D01*
X279088Y461104D01*
X279176Y461033D01*
X279262Y460958D01*
X279345Y460881D01*
X279425Y460801D01*
X279502Y460718D01*
X279577Y460632D01*
X279648Y460544D01*
X279716Y460454D01*
X279781Y460361D01*
X279843Y460266D01*
X279901Y460169D01*
X279956Y460070D01*
X280007Y459969D01*
X280055Y459866D01*
X280100Y459762D01*
X280140Y459656D01*
X280177Y459549D01*
X280210Y459441D01*
X280240Y459331D01*
X280265Y459221D01*
X280287Y459110D01*
X280304Y458998D01*
X280318Y458885D01*
X280328Y458772D01*
X280334Y458659D01*
X280336Y458546D01*
X280334Y458433D01*
X280328Y458320D01*
X280318Y458207D01*
X280304Y458094D01*
X280287Y457982D01*
X280265Y457871D01*
X280240Y457761D01*
X280210Y457651D01*
X280177Y457543D01*
X280140Y457436D01*
X280100Y457330D01*
X280055Y457226D01*
X280007Y457123D01*
X279956Y457022D01*
X279901Y456923D01*
X279843Y456826D01*
X279781Y456731D01*
X279716Y456638D01*
X279648Y456548D01*
X279577Y456460D01*
X279502Y456374D01*
X279425Y456291D01*
X279345Y456211D01*
X279262Y456134D01*
X279176Y456059D01*
X279088Y455988D01*
X278998Y455920D01*
X278905Y455855D01*
X278810Y455793D01*
X278713Y455735D01*
X278614Y455680D01*
X278513Y455629D01*
X278410Y455581D01*
X278306Y455536D01*
X278200Y455496D01*
X278093Y455459D01*
X277985Y455426D01*
X277875Y455396D01*
X277765Y455371D01*
X277654Y455349D01*
X277542Y455332D01*
X277429Y455318D01*
X277316Y455308D01*
X277203Y455302D01*
X277090Y455300D01*
X277090Y455301D02*
X273845Y455301D01*
X277739Y455301D02*
X280336Y450108D01*
X285201Y450108D02*
X288446Y450108D01*
X288559Y450110D01*
X288672Y450116D01*
X288785Y450126D01*
X288898Y450140D01*
X289010Y450157D01*
X289121Y450179D01*
X289231Y450204D01*
X289341Y450234D01*
X289449Y450267D01*
X289556Y450304D01*
X289662Y450344D01*
X289766Y450389D01*
X289869Y450437D01*
X289970Y450488D01*
X290069Y450543D01*
X290166Y450601D01*
X290261Y450663D01*
X290354Y450728D01*
X290444Y450796D01*
X290532Y450867D01*
X290618Y450942D01*
X290701Y451019D01*
X290781Y451099D01*
X290858Y451182D01*
X290933Y451268D01*
X291004Y451356D01*
X291072Y451446D01*
X291137Y451539D01*
X291199Y451634D01*
X291257Y451731D01*
X291312Y451830D01*
X291363Y451931D01*
X291411Y452034D01*
X291456Y452138D01*
X291496Y452244D01*
X291533Y452351D01*
X291566Y452459D01*
X291596Y452569D01*
X291621Y452679D01*
X291643Y452790D01*
X291660Y452902D01*
X291674Y453015D01*
X291684Y453128D01*
X291690Y453241D01*
X291692Y453354D01*
X291690Y453467D01*
X291684Y453580D01*
X291674Y453693D01*
X291660Y453806D01*
X291643Y453918D01*
X291621Y454029D01*
X291596Y454139D01*
X291566Y454249D01*
X291533Y454357D01*
X291496Y454464D01*
X291456Y454570D01*
X291411Y454674D01*
X291363Y454777D01*
X291312Y454878D01*
X291257Y454977D01*
X291199Y455074D01*
X291137Y455169D01*
X291072Y455262D01*
X291004Y455352D01*
X290933Y455440D01*
X290858Y455526D01*
X290781Y455609D01*
X290701Y455689D01*
X290618Y455766D01*
X290532Y455841D01*
X290444Y455912D01*
X290354Y455980D01*
X290261Y456045D01*
X290166Y456107D01*
X290069Y456165D01*
X289970Y456220D01*
X289869Y456271D01*
X289766Y456319D01*
X289662Y456364D01*
X289556Y456404D01*
X289449Y456441D01*
X289341Y456474D01*
X289231Y456504D01*
X289121Y456529D01*
X289010Y456551D01*
X288898Y456568D01*
X288785Y456582D01*
X288672Y456592D01*
X288559Y456598D01*
X288446Y456600D01*
X289096Y461792D02*
X285201Y461792D01*
X289096Y461792D02*
X289197Y461790D01*
X289297Y461784D01*
X289397Y461774D01*
X289497Y461761D01*
X289596Y461743D01*
X289695Y461722D01*
X289792Y461697D01*
X289889Y461668D01*
X289984Y461635D01*
X290078Y461599D01*
X290170Y461559D01*
X290261Y461516D01*
X290350Y461469D01*
X290437Y461419D01*
X290523Y461365D01*
X290606Y461308D01*
X290686Y461248D01*
X290765Y461185D01*
X290841Y461118D01*
X290914Y461049D01*
X290984Y460977D01*
X291052Y460903D01*
X291117Y460826D01*
X291178Y460746D01*
X291237Y460664D01*
X291292Y460580D01*
X291344Y460494D01*
X291393Y460406D01*
X291438Y460316D01*
X291480Y460224D01*
X291518Y460131D01*
X291552Y460036D01*
X291583Y459941D01*
X291610Y459844D01*
X291633Y459746D01*
X291653Y459647D01*
X291668Y459547D01*
X291680Y459447D01*
X291688Y459347D01*
X291692Y459246D01*
X291692Y459146D01*
X291688Y459045D01*
X291680Y458945D01*
X291668Y458845D01*
X291653Y458745D01*
X291633Y458646D01*
X291610Y458548D01*
X291583Y458451D01*
X291552Y458356D01*
X291518Y458261D01*
X291480Y458168D01*
X291438Y458076D01*
X291393Y457986D01*
X291344Y457898D01*
X291292Y457812D01*
X291237Y457728D01*
X291178Y457646D01*
X291117Y457566D01*
X291052Y457489D01*
X290984Y457415D01*
X290914Y457343D01*
X290841Y457274D01*
X290765Y457207D01*
X290686Y457144D01*
X290606Y457084D01*
X290523Y457027D01*
X290437Y456973D01*
X290350Y456923D01*
X290261Y456876D01*
X290170Y456833D01*
X290078Y456793D01*
X289984Y456757D01*
X289889Y456724D01*
X289792Y456695D01*
X289695Y456670D01*
X289596Y456649D01*
X289497Y456631D01*
X289397Y456618D01*
X289297Y456608D01*
X289197Y456602D01*
X289096Y456600D01*
X289096Y456599D02*
X286499Y456599D01*
X267308Y460208D02*
X267308Y471892D01*
X270554Y471892D01*
X270667Y471890D01*
X270780Y471884D01*
X270893Y471874D01*
X271006Y471860D01*
X271118Y471843D01*
X271229Y471821D01*
X271339Y471796D01*
X271449Y471766D01*
X271557Y471733D01*
X271664Y471696D01*
X271770Y471656D01*
X271874Y471611D01*
X271977Y471563D01*
X272078Y471512D01*
X272177Y471457D01*
X272274Y471399D01*
X272369Y471337D01*
X272462Y471272D01*
X272552Y471204D01*
X272640Y471133D01*
X272726Y471058D01*
X272809Y470981D01*
X272889Y470901D01*
X272966Y470818D01*
X273041Y470732D01*
X273112Y470644D01*
X273180Y470554D01*
X273245Y470461D01*
X273307Y470366D01*
X273365Y470269D01*
X273420Y470170D01*
X273471Y470069D01*
X273519Y469966D01*
X273564Y469862D01*
X273604Y469756D01*
X273641Y469649D01*
X273674Y469541D01*
X273704Y469431D01*
X273729Y469321D01*
X273751Y469210D01*
X273768Y469098D01*
X273782Y468985D01*
X273792Y468872D01*
X273798Y468759D01*
X273800Y468646D01*
X273798Y468533D01*
X273792Y468420D01*
X273782Y468307D01*
X273768Y468194D01*
X273751Y468082D01*
X273729Y467971D01*
X273704Y467861D01*
X273674Y467751D01*
X273641Y467643D01*
X273604Y467536D01*
X273564Y467430D01*
X273519Y467326D01*
X273471Y467223D01*
X273420Y467122D01*
X273365Y467023D01*
X273307Y466926D01*
X273245Y466831D01*
X273180Y466738D01*
X273112Y466648D01*
X273041Y466560D01*
X272966Y466474D01*
X272889Y466391D01*
X272809Y466311D01*
X272726Y466234D01*
X272640Y466159D01*
X272552Y466088D01*
X272462Y466020D01*
X272369Y465955D01*
X272274Y465893D01*
X272177Y465835D01*
X272078Y465780D01*
X271977Y465729D01*
X271874Y465681D01*
X271770Y465636D01*
X271664Y465596D01*
X271557Y465559D01*
X271449Y465526D01*
X271339Y465496D01*
X271229Y465471D01*
X271118Y465449D01*
X271006Y465432D01*
X270893Y465418D01*
X270780Y465408D01*
X270667Y465402D01*
X270554Y465400D01*
X270554Y465401D02*
X267308Y465401D01*
X271203Y465401D02*
X273799Y460208D01*
X278664Y462804D02*
X281261Y471892D01*
X278664Y462804D02*
X285155Y462804D01*
X283208Y465401D02*
X283208Y460208D01*
X273845Y115792D02*
X273845Y104108D01*
X273845Y115792D02*
X277090Y115792D01*
X277203Y115790D01*
X277316Y115784D01*
X277429Y115774D01*
X277542Y115760D01*
X277654Y115743D01*
X277765Y115721D01*
X277875Y115696D01*
X277985Y115666D01*
X278093Y115633D01*
X278200Y115596D01*
X278306Y115556D01*
X278410Y115511D01*
X278513Y115463D01*
X278614Y115412D01*
X278713Y115357D01*
X278810Y115299D01*
X278905Y115237D01*
X278998Y115172D01*
X279088Y115104D01*
X279176Y115033D01*
X279262Y114958D01*
X279345Y114881D01*
X279425Y114801D01*
X279502Y114718D01*
X279577Y114632D01*
X279648Y114544D01*
X279716Y114454D01*
X279781Y114361D01*
X279843Y114266D01*
X279901Y114169D01*
X279956Y114070D01*
X280007Y113969D01*
X280055Y113866D01*
X280100Y113762D01*
X280140Y113656D01*
X280177Y113549D01*
X280210Y113441D01*
X280240Y113331D01*
X280265Y113221D01*
X280287Y113110D01*
X280304Y112998D01*
X280318Y112885D01*
X280328Y112772D01*
X280334Y112659D01*
X280336Y112546D01*
X280334Y112433D01*
X280328Y112320D01*
X280318Y112207D01*
X280304Y112094D01*
X280287Y111982D01*
X280265Y111871D01*
X280240Y111761D01*
X280210Y111651D01*
X280177Y111543D01*
X280140Y111436D01*
X280100Y111330D01*
X280055Y111226D01*
X280007Y111123D01*
X279956Y111022D01*
X279901Y110923D01*
X279843Y110826D01*
X279781Y110731D01*
X279716Y110638D01*
X279648Y110548D01*
X279577Y110460D01*
X279502Y110374D01*
X279425Y110291D01*
X279345Y110211D01*
X279262Y110134D01*
X279176Y110059D01*
X279088Y109988D01*
X278998Y109920D01*
X278905Y109855D01*
X278810Y109793D01*
X278713Y109735D01*
X278614Y109680D01*
X278513Y109629D01*
X278410Y109581D01*
X278306Y109536D01*
X278200Y109496D01*
X278093Y109459D01*
X277985Y109426D01*
X277875Y109396D01*
X277765Y109371D01*
X277654Y109349D01*
X277542Y109332D01*
X277429Y109318D01*
X277316Y109308D01*
X277203Y109302D01*
X277090Y109300D01*
X277090Y109301D02*
X273845Y109301D01*
X277739Y109301D02*
X280336Y104108D01*
X285201Y104108D02*
X289096Y104108D01*
X289195Y104110D01*
X289295Y104116D01*
X289394Y104125D01*
X289492Y104138D01*
X289590Y104155D01*
X289688Y104176D01*
X289784Y104201D01*
X289879Y104229D01*
X289973Y104261D01*
X290066Y104296D01*
X290158Y104335D01*
X290248Y104378D01*
X290336Y104423D01*
X290423Y104473D01*
X290507Y104525D01*
X290590Y104581D01*
X290670Y104639D01*
X290748Y104701D01*
X290823Y104766D01*
X290896Y104834D01*
X290966Y104904D01*
X291034Y104977D01*
X291099Y105052D01*
X291161Y105130D01*
X291219Y105210D01*
X291275Y105293D01*
X291327Y105377D01*
X291377Y105464D01*
X291422Y105552D01*
X291465Y105642D01*
X291504Y105734D01*
X291539Y105827D01*
X291571Y105921D01*
X291599Y106016D01*
X291624Y106112D01*
X291645Y106210D01*
X291662Y106308D01*
X291675Y106406D01*
X291684Y106505D01*
X291690Y106605D01*
X291692Y106704D01*
X291692Y108003D01*
X291690Y108102D01*
X291684Y108202D01*
X291675Y108301D01*
X291662Y108399D01*
X291645Y108497D01*
X291624Y108595D01*
X291599Y108691D01*
X291571Y108786D01*
X291539Y108880D01*
X291504Y108973D01*
X291465Y109065D01*
X291422Y109155D01*
X291377Y109243D01*
X291327Y109330D01*
X291275Y109414D01*
X291219Y109497D01*
X291161Y109577D01*
X291099Y109655D01*
X291034Y109730D01*
X290966Y109803D01*
X290896Y109873D01*
X290823Y109941D01*
X290748Y110006D01*
X290670Y110068D01*
X290590Y110126D01*
X290507Y110182D01*
X290423Y110234D01*
X290336Y110284D01*
X290248Y110329D01*
X290158Y110372D01*
X290066Y110411D01*
X289973Y110446D01*
X289879Y110478D01*
X289784Y110506D01*
X289688Y110531D01*
X289590Y110552D01*
X289492Y110569D01*
X289394Y110582D01*
X289295Y110591D01*
X289195Y110597D01*
X289096Y110599D01*
X285201Y110599D01*
X285201Y115792D01*
X291692Y115792D01*
X267308Y114208D02*
X267308Y125892D01*
X270554Y125892D01*
X270667Y125890D01*
X270780Y125884D01*
X270893Y125874D01*
X271006Y125860D01*
X271118Y125843D01*
X271229Y125821D01*
X271339Y125796D01*
X271449Y125766D01*
X271557Y125733D01*
X271664Y125696D01*
X271770Y125656D01*
X271874Y125611D01*
X271977Y125563D01*
X272078Y125512D01*
X272177Y125457D01*
X272274Y125399D01*
X272369Y125337D01*
X272462Y125272D01*
X272552Y125204D01*
X272640Y125133D01*
X272726Y125058D01*
X272809Y124981D01*
X272889Y124901D01*
X272966Y124818D01*
X273041Y124732D01*
X273112Y124644D01*
X273180Y124554D01*
X273245Y124461D01*
X273307Y124366D01*
X273365Y124269D01*
X273420Y124170D01*
X273471Y124069D01*
X273519Y123966D01*
X273564Y123862D01*
X273604Y123756D01*
X273641Y123649D01*
X273674Y123541D01*
X273704Y123431D01*
X273729Y123321D01*
X273751Y123210D01*
X273768Y123098D01*
X273782Y122985D01*
X273792Y122872D01*
X273798Y122759D01*
X273800Y122646D01*
X273798Y122533D01*
X273792Y122420D01*
X273782Y122307D01*
X273768Y122194D01*
X273751Y122082D01*
X273729Y121971D01*
X273704Y121861D01*
X273674Y121751D01*
X273641Y121643D01*
X273604Y121536D01*
X273564Y121430D01*
X273519Y121326D01*
X273471Y121223D01*
X273420Y121122D01*
X273365Y121023D01*
X273307Y120926D01*
X273245Y120831D01*
X273180Y120738D01*
X273112Y120648D01*
X273041Y120560D01*
X272966Y120474D01*
X272889Y120391D01*
X272809Y120311D01*
X272726Y120234D01*
X272640Y120159D01*
X272552Y120088D01*
X272462Y120020D01*
X272369Y119955D01*
X272274Y119893D01*
X272177Y119835D01*
X272078Y119780D01*
X271977Y119729D01*
X271874Y119681D01*
X271770Y119636D01*
X271664Y119596D01*
X271557Y119559D01*
X271449Y119526D01*
X271339Y119496D01*
X271229Y119471D01*
X271118Y119449D01*
X271006Y119432D01*
X270893Y119418D01*
X270780Y119408D01*
X270667Y119402D01*
X270554Y119400D01*
X270554Y119401D02*
X267308Y119401D01*
X271203Y119401D02*
X273799Y114208D01*
X278664Y120699D02*
X282559Y120699D01*
X282658Y120697D01*
X282758Y120691D01*
X282857Y120682D01*
X282955Y120669D01*
X283053Y120652D01*
X283151Y120631D01*
X283247Y120606D01*
X283342Y120578D01*
X283436Y120546D01*
X283529Y120511D01*
X283621Y120472D01*
X283711Y120429D01*
X283799Y120384D01*
X283886Y120334D01*
X283970Y120282D01*
X284053Y120226D01*
X284133Y120168D01*
X284211Y120106D01*
X284286Y120041D01*
X284359Y119973D01*
X284429Y119903D01*
X284497Y119830D01*
X284562Y119755D01*
X284624Y119677D01*
X284682Y119597D01*
X284738Y119514D01*
X284790Y119430D01*
X284840Y119343D01*
X284885Y119255D01*
X284928Y119165D01*
X284967Y119073D01*
X285002Y118980D01*
X285034Y118886D01*
X285062Y118791D01*
X285087Y118695D01*
X285108Y118597D01*
X285125Y118499D01*
X285138Y118401D01*
X285147Y118302D01*
X285153Y118202D01*
X285155Y118103D01*
X285155Y117454D01*
X285156Y117454D02*
X285154Y117341D01*
X285148Y117228D01*
X285138Y117115D01*
X285124Y117002D01*
X285107Y116890D01*
X285085Y116779D01*
X285060Y116669D01*
X285030Y116559D01*
X284997Y116451D01*
X284960Y116344D01*
X284920Y116238D01*
X284875Y116134D01*
X284827Y116031D01*
X284776Y115930D01*
X284721Y115831D01*
X284663Y115734D01*
X284601Y115639D01*
X284536Y115546D01*
X284468Y115456D01*
X284397Y115368D01*
X284322Y115282D01*
X284245Y115199D01*
X284165Y115119D01*
X284082Y115042D01*
X283996Y114967D01*
X283908Y114896D01*
X283818Y114828D01*
X283725Y114763D01*
X283630Y114701D01*
X283533Y114643D01*
X283434Y114588D01*
X283333Y114537D01*
X283230Y114489D01*
X283126Y114444D01*
X283020Y114404D01*
X282913Y114367D01*
X282805Y114334D01*
X282695Y114304D01*
X282585Y114279D01*
X282474Y114257D01*
X282362Y114240D01*
X282249Y114226D01*
X282136Y114216D01*
X282023Y114210D01*
X281910Y114208D01*
X281797Y114210D01*
X281684Y114216D01*
X281571Y114226D01*
X281458Y114240D01*
X281346Y114257D01*
X281235Y114279D01*
X281125Y114304D01*
X281015Y114334D01*
X280907Y114367D01*
X280800Y114404D01*
X280694Y114444D01*
X280590Y114489D01*
X280487Y114537D01*
X280386Y114588D01*
X280287Y114643D01*
X280190Y114701D01*
X280095Y114763D01*
X280002Y114828D01*
X279912Y114896D01*
X279824Y114967D01*
X279738Y115042D01*
X279655Y115119D01*
X279575Y115199D01*
X279498Y115282D01*
X279423Y115368D01*
X279352Y115456D01*
X279284Y115546D01*
X279219Y115639D01*
X279157Y115734D01*
X279099Y115831D01*
X279044Y115930D01*
X278993Y116031D01*
X278945Y116134D01*
X278900Y116238D01*
X278860Y116344D01*
X278823Y116451D01*
X278790Y116559D01*
X278760Y116669D01*
X278735Y116779D01*
X278713Y116890D01*
X278696Y117002D01*
X278682Y117115D01*
X278672Y117228D01*
X278666Y117341D01*
X278664Y117454D01*
X278664Y120699D01*
X278666Y120842D01*
X278672Y120985D01*
X278682Y121128D01*
X278696Y121270D01*
X278713Y121412D01*
X278735Y121554D01*
X278760Y121695D01*
X278790Y121835D01*
X278823Y121974D01*
X278860Y122112D01*
X278901Y122249D01*
X278945Y122385D01*
X278994Y122520D01*
X279046Y122653D01*
X279101Y122785D01*
X279161Y122915D01*
X279224Y123044D01*
X279290Y123171D01*
X279360Y123295D01*
X279433Y123418D01*
X279510Y123539D01*
X279590Y123658D01*
X279673Y123774D01*
X279759Y123889D01*
X279848Y124000D01*
X279941Y124110D01*
X280036Y124216D01*
X280135Y124320D01*
X280236Y124421D01*
X280340Y124520D01*
X280446Y124615D01*
X280556Y124708D01*
X280667Y124797D01*
X280782Y124883D01*
X280898Y124966D01*
X281017Y125046D01*
X281138Y125123D01*
X281260Y125196D01*
X281385Y125266D01*
X281512Y125332D01*
X281641Y125395D01*
X281771Y125455D01*
X281903Y125510D01*
X282036Y125562D01*
X282171Y125611D01*
X282307Y125655D01*
X282444Y125696D01*
X282582Y125733D01*
X282721Y125766D01*
X282861Y125796D01*
X283002Y125821D01*
X283144Y125843D01*
X283286Y125860D01*
X283428Y125874D01*
X283571Y125884D01*
X283714Y125890D01*
X283857Y125892D01*
X210308Y125892D02*
X210308Y114208D01*
X210308Y125892D02*
X213554Y125892D01*
X213667Y125890D01*
X213780Y125884D01*
X213893Y125874D01*
X214006Y125860D01*
X214118Y125843D01*
X214229Y125821D01*
X214339Y125796D01*
X214449Y125766D01*
X214557Y125733D01*
X214664Y125696D01*
X214770Y125656D01*
X214874Y125611D01*
X214977Y125563D01*
X215078Y125512D01*
X215177Y125457D01*
X215274Y125399D01*
X215369Y125337D01*
X215462Y125272D01*
X215552Y125204D01*
X215640Y125133D01*
X215726Y125058D01*
X215809Y124981D01*
X215889Y124901D01*
X215966Y124818D01*
X216041Y124732D01*
X216112Y124644D01*
X216180Y124554D01*
X216245Y124461D01*
X216307Y124366D01*
X216365Y124269D01*
X216420Y124170D01*
X216471Y124069D01*
X216519Y123966D01*
X216564Y123862D01*
X216604Y123756D01*
X216641Y123649D01*
X216674Y123541D01*
X216704Y123431D01*
X216729Y123321D01*
X216751Y123210D01*
X216768Y123098D01*
X216782Y122985D01*
X216792Y122872D01*
X216798Y122759D01*
X216800Y122646D01*
X216798Y122533D01*
X216792Y122420D01*
X216782Y122307D01*
X216768Y122194D01*
X216751Y122082D01*
X216729Y121971D01*
X216704Y121861D01*
X216674Y121751D01*
X216641Y121643D01*
X216604Y121536D01*
X216564Y121430D01*
X216519Y121326D01*
X216471Y121223D01*
X216420Y121122D01*
X216365Y121023D01*
X216307Y120926D01*
X216245Y120831D01*
X216180Y120738D01*
X216112Y120648D01*
X216041Y120560D01*
X215966Y120474D01*
X215889Y120391D01*
X215809Y120311D01*
X215726Y120234D01*
X215640Y120159D01*
X215552Y120088D01*
X215462Y120020D01*
X215369Y119955D01*
X215274Y119893D01*
X215177Y119835D01*
X215078Y119780D01*
X214977Y119729D01*
X214874Y119681D01*
X214770Y119636D01*
X214664Y119596D01*
X214557Y119559D01*
X214449Y119526D01*
X214339Y119496D01*
X214229Y119471D01*
X214118Y119449D01*
X214006Y119432D01*
X213893Y119418D01*
X213780Y119408D01*
X213667Y119402D01*
X213554Y119400D01*
X213554Y119401D02*
X210308Y119401D01*
X214203Y119401D02*
X216799Y114208D01*
X221664Y124594D02*
X221664Y125892D01*
X228155Y125892D01*
X224910Y114208D01*
X216845Y115792D02*
X216845Y104108D01*
X216845Y115792D02*
X220090Y115792D01*
X220203Y115790D01*
X220316Y115784D01*
X220429Y115774D01*
X220542Y115760D01*
X220654Y115743D01*
X220765Y115721D01*
X220875Y115696D01*
X220985Y115666D01*
X221093Y115633D01*
X221200Y115596D01*
X221306Y115556D01*
X221410Y115511D01*
X221513Y115463D01*
X221614Y115412D01*
X221713Y115357D01*
X221810Y115299D01*
X221905Y115237D01*
X221998Y115172D01*
X222088Y115104D01*
X222176Y115033D01*
X222262Y114958D01*
X222345Y114881D01*
X222425Y114801D01*
X222502Y114718D01*
X222577Y114632D01*
X222648Y114544D01*
X222716Y114454D01*
X222781Y114361D01*
X222843Y114266D01*
X222901Y114169D01*
X222956Y114070D01*
X223007Y113969D01*
X223055Y113866D01*
X223100Y113762D01*
X223140Y113656D01*
X223177Y113549D01*
X223210Y113441D01*
X223240Y113331D01*
X223265Y113221D01*
X223287Y113110D01*
X223304Y112998D01*
X223318Y112885D01*
X223328Y112772D01*
X223334Y112659D01*
X223336Y112546D01*
X223334Y112433D01*
X223328Y112320D01*
X223318Y112207D01*
X223304Y112094D01*
X223287Y111982D01*
X223265Y111871D01*
X223240Y111761D01*
X223210Y111651D01*
X223177Y111543D01*
X223140Y111436D01*
X223100Y111330D01*
X223055Y111226D01*
X223007Y111123D01*
X222956Y111022D01*
X222901Y110923D01*
X222843Y110826D01*
X222781Y110731D01*
X222716Y110638D01*
X222648Y110548D01*
X222577Y110460D01*
X222502Y110374D01*
X222425Y110291D01*
X222345Y110211D01*
X222262Y110134D01*
X222176Y110059D01*
X222088Y109988D01*
X221998Y109920D01*
X221905Y109855D01*
X221810Y109793D01*
X221713Y109735D01*
X221614Y109680D01*
X221513Y109629D01*
X221410Y109581D01*
X221306Y109536D01*
X221200Y109496D01*
X221093Y109459D01*
X220985Y109426D01*
X220875Y109396D01*
X220765Y109371D01*
X220654Y109349D01*
X220542Y109332D01*
X220429Y109318D01*
X220316Y109308D01*
X220203Y109302D01*
X220090Y109300D01*
X220090Y109301D02*
X216845Y109301D01*
X220739Y109301D02*
X223336Y104108D01*
X228200Y107354D02*
X228202Y107467D01*
X228208Y107580D01*
X228218Y107693D01*
X228232Y107806D01*
X228249Y107918D01*
X228271Y108029D01*
X228296Y108139D01*
X228326Y108249D01*
X228359Y108357D01*
X228396Y108464D01*
X228436Y108570D01*
X228481Y108674D01*
X228529Y108777D01*
X228580Y108878D01*
X228635Y108977D01*
X228693Y109074D01*
X228755Y109169D01*
X228820Y109262D01*
X228888Y109352D01*
X228959Y109440D01*
X229034Y109526D01*
X229111Y109609D01*
X229191Y109689D01*
X229274Y109766D01*
X229360Y109841D01*
X229448Y109912D01*
X229538Y109980D01*
X229631Y110045D01*
X229726Y110107D01*
X229823Y110165D01*
X229922Y110220D01*
X230023Y110271D01*
X230126Y110319D01*
X230230Y110364D01*
X230336Y110404D01*
X230443Y110441D01*
X230551Y110474D01*
X230661Y110504D01*
X230771Y110529D01*
X230882Y110551D01*
X230994Y110568D01*
X231107Y110582D01*
X231220Y110592D01*
X231333Y110598D01*
X231446Y110600D01*
X231559Y110598D01*
X231672Y110592D01*
X231785Y110582D01*
X231898Y110568D01*
X232010Y110551D01*
X232121Y110529D01*
X232231Y110504D01*
X232341Y110474D01*
X232449Y110441D01*
X232556Y110404D01*
X232662Y110364D01*
X232766Y110319D01*
X232869Y110271D01*
X232970Y110220D01*
X233069Y110165D01*
X233166Y110107D01*
X233261Y110045D01*
X233354Y109980D01*
X233444Y109912D01*
X233532Y109841D01*
X233618Y109766D01*
X233701Y109689D01*
X233781Y109609D01*
X233858Y109526D01*
X233933Y109440D01*
X234004Y109352D01*
X234072Y109262D01*
X234137Y109169D01*
X234199Y109074D01*
X234257Y108977D01*
X234312Y108878D01*
X234363Y108777D01*
X234411Y108674D01*
X234456Y108570D01*
X234496Y108464D01*
X234533Y108357D01*
X234566Y108249D01*
X234596Y108139D01*
X234621Y108029D01*
X234643Y107918D01*
X234660Y107806D01*
X234674Y107693D01*
X234684Y107580D01*
X234690Y107467D01*
X234692Y107354D01*
X234690Y107241D01*
X234684Y107128D01*
X234674Y107015D01*
X234660Y106902D01*
X234643Y106790D01*
X234621Y106679D01*
X234596Y106569D01*
X234566Y106459D01*
X234533Y106351D01*
X234496Y106244D01*
X234456Y106138D01*
X234411Y106034D01*
X234363Y105931D01*
X234312Y105830D01*
X234257Y105731D01*
X234199Y105634D01*
X234137Y105539D01*
X234072Y105446D01*
X234004Y105356D01*
X233933Y105268D01*
X233858Y105182D01*
X233781Y105099D01*
X233701Y105019D01*
X233618Y104942D01*
X233532Y104867D01*
X233444Y104796D01*
X233354Y104728D01*
X233261Y104663D01*
X233166Y104601D01*
X233069Y104543D01*
X232970Y104488D01*
X232869Y104437D01*
X232766Y104389D01*
X232662Y104344D01*
X232556Y104304D01*
X232449Y104267D01*
X232341Y104234D01*
X232231Y104204D01*
X232121Y104179D01*
X232010Y104157D01*
X231898Y104140D01*
X231785Y104126D01*
X231672Y104116D01*
X231559Y104110D01*
X231446Y104108D01*
X231333Y104110D01*
X231220Y104116D01*
X231107Y104126D01*
X230994Y104140D01*
X230882Y104157D01*
X230771Y104179D01*
X230661Y104204D01*
X230551Y104234D01*
X230443Y104267D01*
X230336Y104304D01*
X230230Y104344D01*
X230126Y104389D01*
X230023Y104437D01*
X229922Y104488D01*
X229823Y104543D01*
X229726Y104601D01*
X229631Y104663D01*
X229538Y104728D01*
X229448Y104796D01*
X229360Y104867D01*
X229274Y104942D01*
X229191Y105019D01*
X229111Y105099D01*
X229034Y105182D01*
X228959Y105268D01*
X228888Y105356D01*
X228820Y105446D01*
X228755Y105539D01*
X228693Y105634D01*
X228635Y105731D01*
X228580Y105830D01*
X228529Y105931D01*
X228481Y106034D01*
X228436Y106138D01*
X228396Y106244D01*
X228359Y106351D01*
X228326Y106459D01*
X228296Y106569D01*
X228271Y106679D01*
X228249Y106790D01*
X228232Y106902D01*
X228218Y107015D01*
X228208Y107128D01*
X228202Y107241D01*
X228200Y107354D01*
X228850Y113196D02*
X228852Y113297D01*
X228858Y113397D01*
X228868Y113497D01*
X228881Y113597D01*
X228899Y113696D01*
X228920Y113795D01*
X228945Y113892D01*
X228974Y113989D01*
X229007Y114084D01*
X229043Y114178D01*
X229083Y114270D01*
X229126Y114361D01*
X229173Y114450D01*
X229223Y114537D01*
X229277Y114623D01*
X229334Y114706D01*
X229394Y114786D01*
X229457Y114865D01*
X229524Y114941D01*
X229593Y115014D01*
X229665Y115084D01*
X229739Y115152D01*
X229816Y115217D01*
X229896Y115278D01*
X229978Y115337D01*
X230062Y115392D01*
X230148Y115444D01*
X230236Y115493D01*
X230326Y115538D01*
X230418Y115580D01*
X230511Y115618D01*
X230606Y115652D01*
X230701Y115683D01*
X230798Y115710D01*
X230896Y115733D01*
X230995Y115753D01*
X231095Y115768D01*
X231195Y115780D01*
X231295Y115788D01*
X231396Y115792D01*
X231496Y115792D01*
X231597Y115788D01*
X231697Y115780D01*
X231797Y115768D01*
X231897Y115753D01*
X231996Y115733D01*
X232094Y115710D01*
X232191Y115683D01*
X232286Y115652D01*
X232381Y115618D01*
X232474Y115580D01*
X232566Y115538D01*
X232656Y115493D01*
X232744Y115444D01*
X232830Y115392D01*
X232914Y115337D01*
X232996Y115278D01*
X233076Y115217D01*
X233153Y115152D01*
X233227Y115084D01*
X233299Y115014D01*
X233368Y114941D01*
X233435Y114865D01*
X233498Y114786D01*
X233558Y114706D01*
X233615Y114623D01*
X233669Y114537D01*
X233719Y114450D01*
X233766Y114361D01*
X233809Y114270D01*
X233849Y114178D01*
X233885Y114084D01*
X233918Y113989D01*
X233947Y113892D01*
X233972Y113795D01*
X233993Y113696D01*
X234011Y113597D01*
X234024Y113497D01*
X234034Y113397D01*
X234040Y113297D01*
X234042Y113196D01*
X234040Y113095D01*
X234034Y112995D01*
X234024Y112895D01*
X234011Y112795D01*
X233993Y112696D01*
X233972Y112597D01*
X233947Y112500D01*
X233918Y112403D01*
X233885Y112308D01*
X233849Y112214D01*
X233809Y112122D01*
X233766Y112031D01*
X233719Y111942D01*
X233669Y111855D01*
X233615Y111769D01*
X233558Y111686D01*
X233498Y111606D01*
X233435Y111527D01*
X233368Y111451D01*
X233299Y111378D01*
X233227Y111308D01*
X233153Y111240D01*
X233076Y111175D01*
X232996Y111114D01*
X232914Y111055D01*
X232830Y111000D01*
X232744Y110948D01*
X232656Y110899D01*
X232566Y110854D01*
X232474Y110812D01*
X232381Y110774D01*
X232286Y110740D01*
X232191Y110709D01*
X232094Y110682D01*
X231996Y110659D01*
X231897Y110639D01*
X231797Y110624D01*
X231697Y110612D01*
X231597Y110604D01*
X231496Y110600D01*
X231396Y110600D01*
X231295Y110604D01*
X231195Y110612D01*
X231095Y110624D01*
X230995Y110639D01*
X230896Y110659D01*
X230798Y110682D01*
X230701Y110709D01*
X230606Y110740D01*
X230511Y110774D01*
X230418Y110812D01*
X230326Y110854D01*
X230236Y110899D01*
X230148Y110948D01*
X230062Y111000D01*
X229978Y111055D01*
X229896Y111114D01*
X229816Y111175D01*
X229739Y111240D01*
X229665Y111308D01*
X229593Y111378D01*
X229524Y111451D01*
X229457Y111527D01*
X229394Y111606D01*
X229334Y111686D01*
X229277Y111769D01*
X229223Y111855D01*
X229173Y111942D01*
X229126Y112031D01*
X229083Y112122D01*
X229043Y112214D01*
X229007Y112308D01*
X228974Y112403D01*
X228945Y112500D01*
X228920Y112597D01*
X228899Y112696D01*
X228881Y112795D01*
X228868Y112895D01*
X228858Y112995D01*
X228852Y113095D01*
X228850Y113196D01*
D10*
X288500Y30700D02*
X288500Y5300D01*
X288500Y30700D02*
X252940Y30700D01*
X254210Y5300D02*
X288500Y5300D01*
D11*
X259798Y855D02*
X259798Y-7400D01*
X259800Y-7511D01*
X259806Y-7621D01*
X259815Y-7732D01*
X259829Y-7842D01*
X259846Y-7951D01*
X259867Y-8060D01*
X259892Y-8168D01*
X259921Y-8275D01*
X259953Y-8381D01*
X259989Y-8486D01*
X260029Y-8589D01*
X260072Y-8691D01*
X260119Y-8792D01*
X260170Y-8891D01*
X260223Y-8988D01*
X260280Y-9082D01*
X260341Y-9175D01*
X260404Y-9266D01*
X260471Y-9355D01*
X260541Y-9441D01*
X260614Y-9524D01*
X260689Y-9606D01*
X260767Y-9684D01*
X260849Y-9759D01*
X260932Y-9832D01*
X261018Y-9902D01*
X261107Y-9969D01*
X261198Y-10032D01*
X261291Y-10093D01*
X261386Y-10150D01*
X261482Y-10203D01*
X261581Y-10254D01*
X261682Y-10301D01*
X261784Y-10344D01*
X261887Y-10384D01*
X261992Y-10420D01*
X262098Y-10452D01*
X262205Y-10481D01*
X262313Y-10506D01*
X262422Y-10527D01*
X262531Y-10544D01*
X262641Y-10558D01*
X262752Y-10567D01*
X262862Y-10573D01*
X262973Y-10575D01*
X263084Y-10573D01*
X263194Y-10567D01*
X263305Y-10558D01*
X263415Y-10544D01*
X263524Y-10527D01*
X263633Y-10506D01*
X263741Y-10481D01*
X263848Y-10452D01*
X263954Y-10420D01*
X264059Y-10384D01*
X264162Y-10344D01*
X264264Y-10301D01*
X264365Y-10254D01*
X264464Y-10203D01*
X264560Y-10150D01*
X264655Y-10093D01*
X264748Y-10032D01*
X264839Y-9969D01*
X264928Y-9902D01*
X265014Y-9832D01*
X265097Y-9759D01*
X265179Y-9684D01*
X265257Y-9606D01*
X265332Y-9524D01*
X265405Y-9441D01*
X265475Y-9355D01*
X265542Y-9266D01*
X265605Y-9175D01*
X265666Y-9082D01*
X265723Y-8988D01*
X265776Y-8891D01*
X265827Y-8792D01*
X265874Y-8691D01*
X265917Y-8589D01*
X265957Y-8486D01*
X265993Y-8381D01*
X266025Y-8275D01*
X266054Y-8168D01*
X266079Y-8060D01*
X266100Y-7951D01*
X266117Y-7842D01*
X266131Y-7732D01*
X266140Y-7621D01*
X266146Y-7511D01*
X266148Y-7400D01*
X266148Y855D01*
X274022Y855D02*
X274022Y-10575D01*
X274022Y-4860D02*
X272435Y-3908D01*
X272434Y-3908D02*
X272361Y-3861D01*
X272290Y-3812D01*
X272221Y-3759D01*
X272155Y-3703D01*
X272091Y-3644D01*
X272030Y-3583D01*
X271972Y-3519D01*
X271917Y-3452D01*
X271865Y-3382D01*
X271817Y-3311D01*
X271771Y-3237D01*
X271729Y-3161D01*
X271691Y-3083D01*
X271656Y-3004D01*
X271625Y-2923D01*
X271598Y-2841D01*
X271574Y-2758D01*
X271554Y-2673D01*
X271538Y-2588D01*
X271526Y-2502D01*
X271518Y-2416D01*
X271514Y-2330D01*
X271513Y-2243D01*
X271517Y-2156D01*
X271525Y-2070D01*
X271536Y-1984D01*
X271552Y-1899D01*
X271571Y-1815D01*
X271594Y-1731D01*
X271621Y-1649D01*
X271652Y-1568D01*
X271687Y-1488D01*
X271724Y-1411D01*
X271766Y-1335D01*
X271811Y-1260D01*
X271859Y-1189D01*
X271911Y-1119D01*
X271965Y-1052D01*
X272023Y-987D01*
X272083Y-925D01*
X272147Y-866D01*
X272213Y-810D01*
X272281Y-756D01*
X272352Y-707D01*
X272425Y-660D01*
X272500Y-617D01*
X272577Y-577D01*
X272655Y-541D01*
X272736Y-508D01*
X272817Y-479D01*
X272900Y-454D01*
X272984Y-432D01*
X273069Y-415D01*
X273070Y-415D02*
X273207Y-392D01*
X273346Y-372D01*
X273484Y-357D01*
X273623Y-345D01*
X273763Y-337D01*
X273902Y-334D01*
X274042Y-333D01*
X274181Y-337D01*
X274320Y-345D01*
X274459Y-356D01*
X274598Y-372D01*
X274736Y-391D01*
X274874Y-414D01*
X275011Y-441D01*
X275147Y-472D01*
X275282Y-506D01*
X275416Y-544D01*
X275550Y-586D01*
X275681Y-632D01*
X275812Y-681D01*
X275941Y-734D01*
X276069Y-790D01*
X276195Y-850D01*
X276319Y-913D01*
X276442Y-980D01*
X276562Y-1050D01*
X274022Y-4860D02*
X275610Y-5813D01*
X275610Y-5812D02*
X275683Y-5859D01*
X275754Y-5908D01*
X275823Y-5961D01*
X275889Y-6017D01*
X275953Y-6076D01*
X276014Y-6137D01*
X276072Y-6201D01*
X276127Y-6268D01*
X276179Y-6338D01*
X276227Y-6409D01*
X276273Y-6483D01*
X276315Y-6559D01*
X276353Y-6637D01*
X276388Y-6716D01*
X276419Y-6797D01*
X276446Y-6879D01*
X276470Y-6962D01*
X276490Y-7047D01*
X276506Y-7132D01*
X276518Y-7218D01*
X276526Y-7304D01*
X276530Y-7390D01*
X276531Y-7477D01*
X276527Y-7564D01*
X276519Y-7650D01*
X276508Y-7736D01*
X276492Y-7821D01*
X276473Y-7905D01*
X276450Y-7989D01*
X276423Y-8071D01*
X276392Y-8152D01*
X276357Y-8232D01*
X276320Y-8309D01*
X276278Y-8385D01*
X276233Y-8460D01*
X276185Y-8531D01*
X276133Y-8601D01*
X276079Y-8668D01*
X276021Y-8733D01*
X275961Y-8795D01*
X275897Y-8854D01*
X275831Y-8910D01*
X275763Y-8964D01*
X275692Y-9013D01*
X275619Y-9060D01*
X275544Y-9103D01*
X275467Y-9143D01*
X275389Y-9179D01*
X275308Y-9212D01*
X275227Y-9241D01*
X275144Y-9266D01*
X275060Y-9288D01*
X274975Y-9305D01*
X274974Y-9305D02*
X274837Y-9328D01*
X274698Y-9348D01*
X274560Y-9363D01*
X274421Y-9375D01*
X274281Y-9383D01*
X274142Y-9386D01*
X274002Y-9387D01*
X273863Y-9383D01*
X273724Y-9375D01*
X273585Y-9364D01*
X273446Y-9348D01*
X273308Y-9329D01*
X273170Y-9306D01*
X273033Y-9279D01*
X272897Y-9248D01*
X272762Y-9214D01*
X272628Y-9176D01*
X272494Y-9134D01*
X272363Y-9088D01*
X272232Y-9039D01*
X272103Y-8986D01*
X271975Y-8930D01*
X271849Y-8870D01*
X271725Y-8807D01*
X271602Y-8740D01*
X271482Y-8670D01*
X281515Y-4225D02*
X285325Y-4225D01*
X285425Y-4227D01*
X285524Y-4233D01*
X285624Y-4243D01*
X285722Y-4256D01*
X285821Y-4274D01*
X285918Y-4295D01*
X286014Y-4320D01*
X286110Y-4349D01*
X286204Y-4382D01*
X286297Y-4418D01*
X286388Y-4458D01*
X286478Y-4502D01*
X286566Y-4549D01*
X286652Y-4599D01*
X286736Y-4653D01*
X286818Y-4710D01*
X286897Y-4770D01*
X286975Y-4834D01*
X287049Y-4900D01*
X287121Y-4969D01*
X287190Y-5041D01*
X287256Y-5115D01*
X287320Y-5193D01*
X287380Y-5272D01*
X287437Y-5354D01*
X287491Y-5438D01*
X287541Y-5524D01*
X287588Y-5612D01*
X287632Y-5702D01*
X287672Y-5793D01*
X287708Y-5886D01*
X287741Y-5980D01*
X287770Y-6076D01*
X287795Y-6172D01*
X287816Y-6269D01*
X287834Y-6368D01*
X287847Y-6466D01*
X287857Y-6566D01*
X287863Y-6665D01*
X287865Y-6765D01*
X287865Y-7400D01*
X287863Y-7511D01*
X287857Y-7621D01*
X287848Y-7732D01*
X287834Y-7842D01*
X287817Y-7951D01*
X287796Y-8060D01*
X287771Y-8168D01*
X287742Y-8275D01*
X287710Y-8381D01*
X287674Y-8486D01*
X287634Y-8589D01*
X287591Y-8691D01*
X287544Y-8792D01*
X287493Y-8891D01*
X287440Y-8988D01*
X287383Y-9082D01*
X287322Y-9175D01*
X287259Y-9266D01*
X287192Y-9355D01*
X287122Y-9441D01*
X287049Y-9524D01*
X286974Y-9606D01*
X286896Y-9684D01*
X286814Y-9759D01*
X286731Y-9832D01*
X286645Y-9902D01*
X286556Y-9969D01*
X286465Y-10032D01*
X286372Y-10093D01*
X286277Y-10150D01*
X286181Y-10203D01*
X286082Y-10254D01*
X285981Y-10301D01*
X285879Y-10344D01*
X285776Y-10384D01*
X285671Y-10420D01*
X285565Y-10452D01*
X285458Y-10481D01*
X285350Y-10506D01*
X285241Y-10527D01*
X285132Y-10544D01*
X285022Y-10558D01*
X284911Y-10567D01*
X284801Y-10573D01*
X284690Y-10575D01*
X284579Y-10573D01*
X284469Y-10567D01*
X284358Y-10558D01*
X284248Y-10544D01*
X284139Y-10527D01*
X284030Y-10506D01*
X283922Y-10481D01*
X283815Y-10452D01*
X283709Y-10420D01*
X283604Y-10384D01*
X283501Y-10344D01*
X283399Y-10301D01*
X283298Y-10254D01*
X283199Y-10203D01*
X283103Y-10150D01*
X283008Y-10093D01*
X282915Y-10032D01*
X282824Y-9969D01*
X282735Y-9902D01*
X282649Y-9832D01*
X282566Y-9759D01*
X282484Y-9684D01*
X282406Y-9606D01*
X282331Y-9524D01*
X282258Y-9441D01*
X282188Y-9355D01*
X282121Y-9266D01*
X282058Y-9175D01*
X281997Y-9082D01*
X281940Y-8988D01*
X281887Y-8891D01*
X281836Y-8792D01*
X281789Y-8691D01*
X281746Y-8589D01*
X281706Y-8486D01*
X281670Y-8381D01*
X281638Y-8275D01*
X281609Y-8168D01*
X281584Y-8060D01*
X281563Y-7951D01*
X281546Y-7842D01*
X281532Y-7732D01*
X281523Y-7621D01*
X281517Y-7511D01*
X281515Y-7400D01*
X281515Y-4225D01*
X281517Y-4085D01*
X281523Y-3945D01*
X281532Y-3805D01*
X281546Y-3666D01*
X281563Y-3527D01*
X281584Y-3389D01*
X281609Y-3251D01*
X281638Y-3114D01*
X281670Y-2978D01*
X281707Y-2843D01*
X281747Y-2709D01*
X281790Y-2576D01*
X281838Y-2444D01*
X281888Y-2313D01*
X281943Y-2184D01*
X282001Y-2057D01*
X282062Y-1931D01*
X282127Y-1807D01*
X282196Y-1685D01*
X282267Y-1565D01*
X282342Y-1447D01*
X282420Y-1330D01*
X282502Y-1216D01*
X282586Y-1105D01*
X282674Y-996D01*
X282764Y-889D01*
X282858Y-784D01*
X282954Y-683D01*
X283053Y-584D01*
X283154Y-488D01*
X283259Y-394D01*
X283366Y-304D01*
X283475Y-216D01*
X283586Y-132D01*
X283700Y-50D01*
X283817Y28D01*
X283935Y103D01*
X284055Y174D01*
X284177Y243D01*
X284301Y308D01*
X284427Y369D01*
X284554Y427D01*
X284683Y482D01*
X284814Y532D01*
X284946Y580D01*
X285079Y623D01*
X285213Y663D01*
X285348Y700D01*
X285484Y732D01*
X285621Y761D01*
X285759Y786D01*
X285897Y807D01*
X286036Y824D01*
X286175Y838D01*
X286315Y847D01*
X286455Y853D01*
X286595Y855D01*
X292945Y21175D02*
X296120Y23715D01*
X296120Y12285D01*
X292945Y12285D02*
X299295Y12285D01*
D10*
X254210Y5300D02*
X251670Y7840D01*
X249130Y5300D01*
X212300Y5300D01*
X212300Y30700D01*
X247860Y30700D01*
X250400Y28160D01*
X252940Y30700D01*
D11*
X365500Y207000D02*
X485500Y207000D01*
X365500Y207000D02*
X365500Y212000D01*
X365500Y352000D01*
X365500Y357000D01*
X485500Y357000D01*
X485500Y352000D01*
X485500Y212000D01*
X485500Y207000D01*
X144500Y198000D02*
X116000Y198000D01*
X43000Y198000D01*
X14500Y198000D01*
X14500Y365000D01*
X43000Y365000D01*
X116000Y365000D01*
X144500Y365000D01*
X144500Y198000D01*
D14*
X28999Y204308D02*
X28999Y215992D01*
X27701Y204308D02*
X30298Y204308D01*
X30298Y215992D02*
X27701Y215992D01*
X35279Y215992D02*
X35279Y204308D01*
X41770Y204308D02*
X35279Y215992D01*
X41770Y215992D02*
X41770Y204308D01*
X47203Y208852D02*
X54992Y208852D01*
X101999Y204308D02*
X101999Y215992D01*
X100701Y204308D02*
X103298Y204308D01*
X103298Y215992D02*
X100701Y215992D01*
X108279Y215992D02*
X108279Y204308D01*
X114770Y204308D02*
X108279Y215992D01*
X114770Y215992D02*
X114770Y204308D01*
X120203Y208852D02*
X127992Y208852D01*
X124097Y212746D02*
X124097Y204957D01*
M02*
